<?xml version="1.0" encoding="utf-8"?>
<!-- Generator: Adobe Illustrator 27.5.0, SVG Export Plug-In . SVG Version: 6.00 Build 0)  -->
<svg version="1.1" id="Layer_1" xmlns="http://www.w3.org/2000/svg" xmlns:xlink="http://www.w3.org/1999/xlink" x="0px" y="0px"
	 viewBox="0 0 137.8 67.2" style="enable-background:new 0 0 137.8 67.2;" xml:space="preserve">
<style type="text/css">
	.st0{fill:#231916;}
	.st1{fill:url(#SVGID_1_);}
	.st2{fill:url(#SVGID_00000167386953204175963490000006490883526010410390_);}
	.st3{fill:url(#SVGID_00000176754714429498230370000014838040535319893935_);}
	.st4{fill:url(#SVGID_00000126305147109517189830000007102361606544311200_);}
	.st5{fill:url(#SVGID_00000008144589426400931630000014520923995740184221_);}
	.st6{fill:url(#SVGID_00000079488284159268350660000005734968329205424529_);}
	.st7{fill:url(#SVGID_00000041995017169213118390000012879989252521442470_);}
</style>
<g>
	<g>
		<g>
			<rect x="73.1" y="49.3" class="st0" width="2.2" height="9.8"/>
			<g>
				<path class="st0" d="M73.7,56l-9.8,0.8v-1.9h5.8v-4.1c0-0.4-0.4-0.8-0.8-0.8h-7.1v1.7h5.8v1.7h-5.1c-0.4,0-0.8,0.3-0.8,0.8v3.6
					c0,0.5,0.4,0.8,0.8,0.8l11.2-0.9L73.7,56z"/>
				<path class="st0" d="M73.1,61.9h-6.7v-1.8h-2.2v6.1c0,0.4,0.3,0.7,0.7,0.7h9.5c0.4,0,0.7-0.3,0.7-0.7V60h-2.1V61.9z M66.5,63.6
					h6.7v1.5h-6.7V63.6z"/>
			</g>
		</g>
		<path class="st0" d="M82.8,61.9h7c0.4,0,0.8-0.3,0.8-0.8v-9.7c0-0.4-0.3-0.8-0.8-0.8h-7c-0.4,0-0.8,0.3-0.8,0.8v9.7
			C82,61.5,82.3,61.9,82.8,61.9 M84.1,52.4h4.3V60h-4.3V52.4z"/>
		<g>
			<g>
				<path class="st0" d="M46.7,50.2l-1.2,0.1c0,0.1,0.7,7-4.5,11.5l1.3,1.5c2.1-1.8,3.3-3.8,4.1-5.8l3.6,4.9l1.6-1.2l-4.5-6.1
					c0.4-1.8,0.5-3.4,0.5-4.3C47.5,50.5,47.1,50.1,46.7,50.2"/>
			</g>
			<rect x="53.5" y="49.2" class="st0" width="2.2" height="17.9"/>
		</g>
		<g>
			<path class="st0" d="M2.3,59.9v-7.4h4.9v-1.9H1.1c-0.4,0-0.8,0.3-0.8,0.8v9.9c0,0.5,0.4,0.8,0.8,0.8l7.3-0.7l-0.2-2L2.3,59.9z"/>
			<polygon class="st0" points="13.2,49.2 13.2,49.2 13.1,49.2 13.1,56.1 11.5,56.1 11.5,49.6 11.5,49.6 11.5,49.6 9.4,49.6 
				9.4,49.6 9.2,49.6 9.2,66.5 9.4,66.5 9.4,66.5 11.5,66.5 11.5,66.5 11.5,66.5 11.5,57.9 13.1,57.9 13.1,67.1 13.2,67.1 
				13.2,67.1 15.4,67.1 15.4,67.1 15.4,49.2 15.4,49.2 			"/>
		</g>
		<g>
			<path class="st0" d="M26.3,57l3.7,3.1l1.3-1.5l-3.7-3.1c1.4-2,1.5-3.6,1.5-3.7l0-0.2c0-0.5-0.3-0.8-0.8-0.8h-6.9l0,2h5.3
				c-0.6,1.5-2.1,4.1-6.4,6.4l1,1.8C23.7,59.5,25.2,58.2,26.3,57"/>
			<path class="st0" d="M26.2,65.1v-3.8h-2.1v4.8c0,0.4,0.3,0.8,0.8,0.8h10.7v-1.8H26.2z"/>
			<polygon class="st0" points="32.9,49.4 32.8,49.4 32.8,54.2 29.6,54.2 29.6,56 32.8,56 32.8,62.2 35.1,62.2 35.1,62.1 35.1,49.4 
							"/>
		</g>
		<rect x="93.4" y="49.2" class="st0" width="2.2" height="17.9"/>
		<g>
			<path class="st0" d="M109,52.1l6.2,3.5l1-1.8l-6.3-3.6c0-0.1,0-0.1,0-0.2c0.1-0.5-0.3-0.9-0.8-0.9l-1.2,0c0,0.1,0,3.4-5.9,4.6
				l0.5,2C106.1,54.9,108,53.5,109,52.1"/>
			<path class="st0" d="M117.5,58.3v-1.8h-16.9v1.8h7.6v1.5h-4.9v1.8h9.6v1.1h-9c-0.3,0-0.5,0.2-0.5,0.5v3.5c0,0.3,0.2,0.5,0.5,0.5
				h11.6v-1.8H105v-1.2h9.4c0.3,0,0.5-0.2,0.5-0.5v-3.3c0-0.3-0.2-0.5-0.5-0.5h-4.3v-1.5H117.5z"/>
		</g>
		<g>
			<path class="st0" d="M128.6,56.2l1.6,0.8c1.4-2.9,1-5.6,0.9-5.7l0-0.1c-0.1-0.4-0.4-0.6-0.8-0.6h-8.2v1.8h7.2
				C129.5,53.2,129.3,54.7,128.6,56.2"/>
			<polygon class="st0" points="133.1,57.9 126.7,58.2 126.7,54.6 124.5,54.6 124.5,58.3 120.8,58.4 120.9,60.2 133.2,59.7 			"/>
			<polygon class="st0" points="135.1,55.8 135.1,49.4 132.9,49.4 132.9,62.4 135.1,62.4 135.1,57.6 137.8,57.6 137.8,55.8 			"/>
			<path class="st0" d="M126.1,61.8h-2.2v4.3c0,0.4,0.3,0.8,0.8,0.8h11.1v-1.8h-9.7V61.8z"/>
		</g>
	</g>
	<g>
		<linearGradient id="SVGID_1_" gradientUnits="userSpaceOnUse" x1="38.6517" y1="47.7419" x2="-6.1863" y2="3.8696">
			<stop  offset="0" style="stop-color:#E7380E"/>
			<stop  offset="0.3903" style="stop-color:#E5360E"/>
			<stop  offset="0.6074" style="stop-color:#DE2E0E"/>
			<stop  offset="0.782" style="stop-color:#D3200E"/>
			<stop  offset="0.9331" style="stop-color:#C20C0D"/>
			<stop  offset="1" style="stop-color:#B9010D"/>
		</linearGradient>
		<path class="st1" d="M11.7,1.1h-1.1H1.4C0.6,1.1,0,1.8,0,2.5v39.1h10.6V11.8h1.1c10.1,0,18.2,8.1,18.2,18.2V31h10.6V30
			C40.5,14,27.6,1.1,11.7,1.1z"/>
		
			<linearGradient id="SVGID_00000098178622393689941380000006413399159147060904_" gradientUnits="userSpaceOnUse" x1="113.8764" y1="44.4258" x2="113.8764" y2="-1.5739">
			<stop  offset="0" style="stop-color:#E7380E"/>
			<stop  offset="0.1767" style="stop-color:#E3330E"/>
			<stop  offset="0.3758" style="stop-color:#D8260E"/>
			<stop  offset="0.5849" style="stop-color:#C50F0D"/>
			<stop  offset="0.6909" style="stop-color:#B9010D"/>
			<stop  offset="0.8667" style="stop-color:#B9010D"/>
			<stop  offset="1" style="stop-color:#9F0002"/>
		</linearGradient>
		<path style="fill:url(#SVGID_00000098178622393689941380000006413399159147060904_);" d="M131.7,31l-17-30.4
			c-0.1-0.3-0.4-0.6-0.8-0.6c-0.3,0-0.6,0.2-0.8,0.5l0,0l-23,41.1h12.1l11.7-20.8l5.7,10.3h-11.5l-5.9,10.6h35.5L131.7,31z"/>
		<g>
			
				<linearGradient id="SVGID_00000010989944003170969850000015735016037767454633_" gradientUnits="userSpaceOnUse" x1="136.2651" y1="36.7316" x2="105.2988" y2="36.0762">
				<stop  offset="0" style="stop-color:#E7380E;stop-opacity:0"/>
				<stop  offset="0.1356" style="stop-color:#D3290B;stop-opacity:0"/>
				<stop  offset="0.5152" style="stop-color:#9F0002;stop-opacity:0"/>
				<stop  offset="0.6127" style="stop-color:#950001;stop-opacity:0.2013"/>
				<stop  offset="0.8425" style="stop-color:#810000;stop-opacity:0.6752"/>
				<stop  offset="1" style="stop-color:#7A0000"/>
			</linearGradient>
			<polygon style="fill:url(#SVGID_00000010989944003170969850000015735016037767454633_);" points="108.1,31 102.2,41.6 
				137.7,41.6 131.7,31 			"/>
		</g>
		<g>
			
				<linearGradient id="SVGID_00000107585303334209834230000006705167955617290632_" gradientUnits="userSpaceOnUse" x1="15.1806" y1="32.6259" x2="39.5985" y2="39.9375">
				<stop  offset="0.2485" style="stop-color:#E7380E"/>
				<stop  offset="0.4004" style="stop-color:#E3330E"/>
				<stop  offset="0.5715" style="stop-color:#D8260E"/>
				<stop  offset="0.7513" style="stop-color:#C50F0D"/>
				<stop  offset="0.8424" style="stop-color:#B9010D"/>
				<stop  offset="0.9074" style="stop-color:#B2010A"/>
				<stop  offset="1" style="stop-color:#9F0002"/>
			</linearGradient>
			<path style="fill:url(#SVGID_00000107585303334209834230000006705167955617290632_);" d="M14.6,41.6h25.9V31H16
				c-0.8,0-1.4,0.6-1.4,1.4V41.6z"/>
		</g>
		
			<linearGradient id="SVGID_00000148649187226513176480000000017942743058403743_" gradientUnits="userSpaceOnUse" x1="45.312" y1="20.8083" x2="86.5581" y2="20.8083">
			<stop  offset="0" style="stop-color:#E7380E"/>
			<stop  offset="0.1875" style="stop-color:#E3330E"/>
			<stop  offset="0.3988" style="stop-color:#D8260E"/>
			<stop  offset="0.6208" style="stop-color:#C50F0D"/>
			<stop  offset="0.7333" style="stop-color:#B9010D"/>
			<stop  offset="1" style="stop-color:#9F0002"/>
		</linearGradient>
		<path style="fill:url(#SVGID_00000148649187226513176480000000017942743058403743_);" d="M86.6,12.7V0.9c0-0.5-0.4-0.9-0.9-0.9
			c-0.2,0-0.4,0.1-0.6,0.2v0L65.9,16L46.8,0.2v0C46.6,0.1,46.4,0,46.2,0c-0.5,0-0.9,0.4-0.9,0.9v40.7h10.6V21.4l9.2,7.6
			c0.2,0.2,0.5,0.3,0.8,0.3c0.3,0,0.6-0.1,0.9-0.3L86.6,12.7z"/>
		
			<linearGradient id="SVGID_00000122702658599415151840000002724465625584307880_" gradientUnits="userSpaceOnUse" x1="81.0754" y1="41.1839" x2="81.5853" y2="14.9696">
			<stop  offset="0" style="stop-color:#E7380E"/>
			<stop  offset="0.1738" style="stop-color:#D3290B"/>
			<stop  offset="0.6606" style="stop-color:#9F0002"/>
			<stop  offset="1" style="stop-color:#7A0000"/>
		</linearGradient>
		<polygon style="fill:url(#SVGID_00000122702658599415151840000002724465625584307880_);" points="86.6,41.6 86.6,12.7 76,21.4 
			76,41.6 		"/>
		
			<linearGradient id="SVGID_00000176757358930464914370000011462765103318976674_" gradientUnits="userSpaceOnUse" x1="14.4872" y1="0.5082" x2="40.1434" y2="37.2565">
			<stop  offset="0" style="stop-color:#E7380E;stop-opacity:0"/>
			<stop  offset="0.1248" style="stop-color:#DA330D;stop-opacity:0.1382"/>
			<stop  offset="0.3565" style="stop-color:#B7260A;stop-opacity:0.3948"/>
			<stop  offset="0.6672" style="stop-color:#801104;stop-opacity:0.7388"/>
			<stop  offset="0.903" style="stop-color:#510000"/>
			<stop  offset="1" style="stop-color:#510000"/>
		</linearGradient>
		<path style="fill:url(#SVGID_00000176757358930464914370000011462765103318976674_);" d="M10.6,1.1h1.1C27.6,1.1,40.5,14,40.5,30
			V31H29.9V30c0-10.1-8.1-18.2-18.2-18.2h-1.1L10.6,1.1z"/>
	</g>
</g>
</svg>
