<?xml version="1.0" encoding="utf-8"?>
<!-- Generator: Adobe Illustrator 27.5.0, SVG Export Plug-In . SVG Version: 6.00 Build 0)  -->
<svg version="1.1" id="Layer_1" xmlns="http://www.w3.org/2000/svg" xmlns:xlink="http://www.w3.org/1999/xlink" x="0px" y="0px"
	 viewBox="0 0 404.2 115.3" style="enable-background:new 0 0 404.2 115.3;" xml:space="preserve">
<style type="text/css">
	.st0{fill:#004294;}
	
		.st1{clip-path:url(#SVGID_00000106846618271022422450000006535797526243342991_);fill:url(#SVGID_00000032609822045856075060000002532967806743570343_);}
</style>
<g>
	<g>
		<rect x="192.6" class="st0" width="18.9" height="71.2"/>
		<polygon class="st0" points="293.8,0 293.8,14.8 317.6,14.8 317.6,71.2 336.5,71.2 336.5,14.8 360.3,14.8 360.3,0 		"/>
		<path class="st0" d="M267.4,28.2h-15.8c-4.2,0-7.6-1.7-7.6-6.7c0-4.9,3.4-6.7,7.6-6.7h34V0h-36.2c-13.5,0-24.5,7.8-24.5,21.5
			c0,13.7,11,21.5,24.5,21.5h16.3c4.2,0,7.6,1.7,7.6,6.7c0,4.9-3.4,6.7-7.6,6.7h-38.1v14.8h39.9c13.5,0,24.5-7.8,24.5-21.5
			C291.9,36,280.9,28.2,267.4,28.2"/>
		<polygon class="st0" points="135,0 108.3,64.1 82.8,35.6 114.7,0 93,0 62.8,33.8 62.8,0 43.9,0 43.9,71.2 62.8,71.2 62.8,37.4 
			93,71.2 124.5,71.2 146.2,17.5 161.9,57 136.9,57 142.9,71.2 187.1,71.2 157.3,0 		"/>
	</g>
	<g>
		<defs>
			<path id="SVGID_1_" d="M0,101.1c66,9.4,133.5,14.2,202.1,14.2c68.6,0,136.1-4.9,202.1-14.2c-66-9.4-133.5-14.2-202.1-14.2
				C133.5,86.9,66,91.7,0,101.1"/>
		</defs>
		<clipPath id="SVGID_00000138565539156392764940000005939524741655970483_">
			<use xlink:href="#SVGID_1_"  style="overflow:visible;"/>
		</clipPath>
		
			<linearGradient id="SVGID_00000066505278531747017640000000496680944560318340_" gradientUnits="userSpaceOnUse" x1="-162.5829" y1="304.8622" x2="-160.9213" y2="304.8622" gradientTransform="matrix(243.248 0 0 -243.248 39547.9766 74258.1953)">
			<stop  offset="0" style="stop-color:#59BDED"/>
			<stop  offset="5.000000e-02" style="stop-color:#59BDED"/>
			<stop  offset="6.680799e-02" style="stop-color:#56BAEB"/>
			<stop  offset="0.2564" style="stop-color:#339DD9"/>
			<stop  offset="0.4074" style="stop-color:#138CCE"/>
			<stop  offset="0.5" style="stop-color:#0086C9"/>
			<stop  offset="0.6089" style="stop-color:#0073BD"/>
			<stop  offset="0.7248" style="stop-color:#0066B3"/>
			<stop  offset="0.8394" style="stop-color:#005EAE"/>
			<stop  offset="0.95" style="stop-color:#005BAC"/>
			<stop  offset="1" style="stop-color:#005BAC"/>
		</linearGradient>
		
			<rect y="86.9" style="clip-path:url(#SVGID_00000138565539156392764940000005939524741655970483_);fill:url(#SVGID_00000066505278531747017640000000496680944560318340_);" width="404.2" height="28.5"/>
	</g>
</g>
</svg>
