<?xml version="1.0" encoding="utf-8"?>
<!-- Generator: Adobe Illustrator 27.5.0, SVG Export Plug-In . SVG Version: 6.00 Build 0)  -->
<svg version="1.1" id="Layer_1" xmlns="http://www.w3.org/2000/svg" xmlns:xlink="http://www.w3.org/1999/xlink" x="0px" y="0px"
	 viewBox="0 0 215.1 1920" style="enable-background:new 0 0 215.1 1920;" xml:space="preserve">
<style type="text/css">
	.st0{fill:#2A2815;}
	.st1{fill-rule:evenodd;clip-rule:evenodd;fill:#2A2815;}
</style>
<g>
	<rect x="59.2" y="-14.2" class="st0" width="161.7" height="1937.4"/>
	<g>
		<g>
			<g>
				<path class="st1" d="M16,697.3c1.1,3.1-0.6,4.9-0.7,7.1c-0.2,2.8,0.8,5,0,8C14,707.6,14.9,700.2,16,697.3z"/>
				<path class="st1" d="M20.4,1042.1c0.6-0.3,0.3,2.2,0.5,3.5c0.1,0.9,0.4,2.5,0.5,3.5c0.1,2-0.3,4-0.2,5.3c0,1.2,0.9,1.3,0.2,3.5
					C19.8,1056.1,20.8,1048.8,20.4,1042.1z"/>
				<path class="st1" d="M27.1,1267.3c-0.3-0.4-0.6-8,0.2-7.1C27.3,1262.7,27.5,1266,27.1,1267.3z"/>
				<path class="st1" d="M28,1290.3c0.5-0.5,0.9,6.1,0,5.3C27.6,1294,28,1292.4,28,1290.3z"/>
				<path class="st1" d="M30.9,1374.5c-0.6-0.9-0.8-3.1-0.7-6.2c0.2,0,0.5,0,0.7,0C31.3,1369.5,31.3,1373.3,30.9,1374.5z"/>
				<path class="st1" d="M62.6,350.7c-0.5-0.4-0.1-4.4-0.2-6.2C63.1,344.5,62.9,349.5,62.6,350.7z"/>
				<path class="st1" d="M62.8,424.3c-0.1-2.6,0.5-2.7,0.5-5.3C64.1,419.3,63.9,425.4,62.8,424.3z"/>
				<path class="st1" d="M64.3,488.1c-0.1-2.1,0.4-1.9,0.2-4.4C65.2,483.7,65.2,488.9,64.3,488.1z"/>
				<path class="st1" d="M72,181.4c0.9,0.2,0.7,3.1,0.5,5.3C71.8,186.6,72,183.7,72,181.4z"/>
				<path class="st1" d="M79.4,1661.7c0.8,0.4,0.9,6.1,0.5,8c-0.5-0.2-0.1-2.8-0.2-4.4C79.6,1664.8,78.7,1663.1,79.4,1661.7z"/>
				<path class="st1" d="M85.6,373.7c0,1.8,0,3.5,0,5.3C84.9,379.1,84.6,373,85.6,373.7z"/>
				<path class="st1" d="M85.2,361.3c0.8,1.8,1.3,6.8,0.5,9.8C84.8,370.4,85.3,364.6,85.2,361.3z"/>
				<path class="st1" d="M85.9,1058.9c1.3-1.5,1.2,6.5,0.2,6.2C86.2,1062.3,85.7,1062,85.9,1058.9z"/>
				<path class="st1" d="M94.3,74.1c0.9-0.8,0.8,4,0.5,5.3C94.1,79.3,94.3,76.5,94.3,74.1z"/>
				<path class="st1" d="M34.8,1222c0,3.2,0.5,7.1,0.5,10.6c0,1.1-0.2,1.8-0.2,3.5c-0.2,8-0.1,18.5,0.2,23c0.2,3.1,0.7,4.1,1,6.2
					c0.1,0.8,0.2,2.2,0.2,2.7c0.4,3.5-0.2,4.9-0.2,8c-0.1,4.5,0.5,10.5,0.5,16.8c0,1.3-0.2,3.2-0.2,4.4c0,3.3,0.3,7.1,0.2,10.6
					c0,1.6-0.3,2-0.2,3.5c0,1,0.3,2.3,0.2,2.7c-0.1,2.1-0.5,1.9-0.5,3.5c0,0.2,0.4,2,0.5,2.7c0.2,3.9-0.2,5.7-0.5,7.1
					c-0.1,0.4-0.4,0.7-0.5,0.9c-0.1,0.6,0.1,2,0,2.7c-0.1,1.1-0.4,1.6-0.5,2.7c0,1,0.2,4,0.7,6.2c0.7-2.7-0.2-5.3-0.2-8
					c0.6,0.3,0.3-2.6,0.7-2.7c0.7,3.7-0.1,8.3,0,12.4c0.1,2.4,0.6,3.6,0.5,6.2c-0.2,0-0.3,0.7-0.5,0.9c-1.5,0.4-1-6.3-2.4-6.2
					c0.4-1,1.1-0.8,1-3.5c-0.8-2.5-0.2-3.9-0.2-6.2c0-1.2-0.3-1.2-0.2-2.7c0-1.2,0.3-1.2,0.2-2.7c-0.1-4.1-1-8.8-1-12.4
					c0-2.1,0.8-3.4,0.5-5.3c-0.2-2.2-0.8,3.2-1-0.9c0.2-3.2,0.7-5,1.2-7.1c-1-1.5-0.5-6.7-0.7-9.8c-0.1-1.4-0.4-2-0.5-3.5
					c-0.3-10.3,0.6-21.5,0-31.9c-1.3-1.4-0.1,6.7-1.2,6.2c0.3-2.9,0.2-7.4,0.2-11.5c-0.1-1.7-0.9-0.7-0.7-3.5c0.9,0,1.8-6.9,0.7-8.9
					c-0.4,0.5,0,4.2-0.5,4.4c-0.7,0.2-1.3,0.1-1.2-2.7c0.6,0.6,1.2,1.8,1.2-1.8c-0.3-3.6-1.1,2.6-1.2,0c0-1.5,0-3,0-4.4
					c0.3,0,0.6,0,1,0c0.3-2.2-0.4-3.8-0.5-6.2c0-1.1,0.2-3.2,0.2-4.4c0-3.5-0.6-8.2-0.7-12.4c-0.1-2.7,0.1-5.3,0-7.1
					c-0.1-1.8-1.6-3.5-0.2-5.3c0.5,0.6,0.2,4.1,0.7,4.4c0.5-4.5-0.7-11.1,0-16c-0.4-1.7-1,1.5-1.2-1.8c0.1-3.8-0.4-7-0.5-10.6
					c-0.2-6.7,0.2-14.3-0.2-19.5c-0.2-2-0.7-2.6-0.7-4.4c-0.1-2.2,0.5-3.9,0.5-6.2c0-1.5-0.4-2.8-0.5-4.4c-0.1-3,0.3-6.3-0.2-8.9
					c-0.3,1.3-0.2,4-1,3.5c0-2.5-0.2-6.1,0.5-6.2c0.6-1,0.9,4.2,1,0c0.1-1.3-0.2-1.9-0.2-2.7c-0.1-1.4,0.1-1.8,0-2.7
					c-0.2-3.3-1-6.7-0.7-11.5c-2.3-1.9,0.1-14.7-1.4-17.7c1-0.3,1-4.4,1-8.9c-0.6-0.6-1,3.9-1.4,0.9c-0.1-2.8,0.3-3.5,0.5-5.3
					c0.5,0,0.3,2.4,1,1.8c-0.2-2.2,0.5-7.6-0.5-7.1c-1.1,0.2,0.4,4.8-0.7,4.4c-1.4-3.3,0.4-9.4,0.5-11.5c0.1-1.9-0.3-4.2-0.2-7.1
					c0-3.3,0.5-5.4-0.2-7.1c0.1-2.1,0.8-1.7,0.7-4.4c-1.3,0.3-0.3-5.8-0.5-8c0-0.7-0.7-0.8-0.7-1.8c-0.1-1.7,0.2-3.9,0.2-6.2
					c0-1.7-0.2-2-0.2-3.5c0-3.7,0.3-2.4-0.2-4.4c-0.6-2.1-0.1-6-0.2-8.9c-0.6,0.1-1.2,0.1-1.4-0.9c1.3-4.1,0.4-7.6,0.2-11.5
					c-0.1-3.4-0.4-9.3-0.2-10.6c0.1-1.2,0.7,1,0.7-1.8c0-5.1-1-10.2-0.5-15.1c-0.4-0.9-0.8,2.7-1,0c0.2-9.1-0.3-15.4-0.7-22.2
					c1.1-0.6,1.1-5.5,1.2-9.8c-0.4-0.8-0.8,2.7-1,0c0-4.2-0.8-8.8-0.7-11.5c0-1.2,0.5-2,0.5-3.5c0-1.6-0.4-3-0.5-4.4
					c0-1.2,0.2-3.2,0.2-4.4c0-2.6-0.3-4.4-0.2-6.2c0-1.6,0.4-2.9,0.5-4.4c0.2-2.7,0.3-6.2,0.2-8.9c-0.1-2.1-1-3.5-1-6.2
					c0-1.4,0.6-1.1,0.5-3.5c-1-0.6-0.7-1.7-0.7-2.7c-0.2-2.6-0.2-9-0.2-9.8c0-1.4,0.3-3.9,0.2-5.3c0-1.2-0.4-2.4-0.5-3.5
					c-0.1-0.9,0.2-1.4,0.2-2.7c0-3.2-0.1-10.4-0.2-14.2c0-1.1-0.5-4.6-0.5-4.4c-0.1-0.9,0.3-1.1,0.2-1.8c-0.2-4.8-0.7-10.5-0.7-15.1
					c0-1.3,0.4-1.6,0.2-3.5c0-0.3-0.4-1.4-0.5-1.8c-0.1-1,0.1-2.6,0-3.5c-0.2-1.1-0.5-1.7-0.7-2.7c-0.6-2.9-0.3-4-0.2-8
					c0.1-3.4-0.1-7.4,0-9.8c0.5-0.2,0.5,1,1,0.9c0.3-2.5-0.5-2.9-0.5-5.3c0-1.9,0.5-2.4,0.5-4.4c-0.1-1.9-0.3-1.6-0.5-3.5
					c-0.1-1,0.3-5.2-0.5-4.4c0,3.5-0.1,7-0.5,9.7c-0.2,1.1-0.2,4.5-0.7,3.5c0-1.9,0.1-3.1,0.2-4.4c0.3-3.9,0.3-3.9,0.2-7.1
					c0-0.2,0.3-0.7,0.2-1.8c-0.1-2.2-0.2-3.5,0.2-5.3c-0.3-1.3-0.9-1.4-1.2-2.7c0.7-3.9-0.2-6.4-0.2-8.9c0-1.5,0.4-2.3,0.2-3.5
					c-0.2-2.2-1-2.8-1-5.3c0.2-3.7,1.5-4.7,1.9-0.9c-0.4,4.5-0.7,8.6,0.2,11.5c0.5-5,0.3-11.1,0-13.3c-0.4-3.2-0.8-2.1-1.4-5.3
					c-0.1-0.6-0.2-3.2-0.2-3.5c0-0.3-0.5-2.2,0-2.7c0.5,0.4,0.7,6.2,1.2,3.5c-0.1-3.8-0.8-4.5-1-7.1c-0.3-4.9,0.1-10.8,0-16
					c0-1.2-0.4-2.3-0.5-3.5c0-1.3,0.3-3.5,0.2-5.3c-0.1-2.4-0.2-5.4-1-5.3c-0.6,0.6-0.3,3.9-0.5,5.3c0,0.2-0.5,0.5-0.5,0.9
					c0,2.6,0.7,2.6,0.7,5.3c-1.3,3.2-0.3,6.7-0.2,10.6c0,1.5-0.2,3.9-0.2,5.3c0,5.8,0.5,12.4,0.5,18.6c0,1.6-0.3,2.7-0.2,4.4
					c0.1,2.3,0.4,4.2,0.5,6.2c0.1,2.2-0.1,4.7,0,7.1c0.1,3.7,0.9,7.1,1,10.6c0,0.9-0.2,1.9-0.2,3.5c-0.1,6.2-0.3,15.2,0,22.2
					c0.1,2.4,0.4,4,0.5,6.2c0.1,5.9,0.3,12.7,0.2,17.7c0,1.3-0.3,3.1-0.2,4.4c0.1,1.9,0.6,3.3,0.7,5.3c0,0.8-0.2,3.5-0.2,5.3
					c-0.1,4.6,0.2,8.3,0.2,10.6c0,1.3-0.3,1.6-0.2,3.5c0.1,2.5,0.4,4.8,0.5,7.1c0.1,3.1-0.3,6-0.2,8.9c0,1.4,0.4,2.8,0.5,4.4
					c0.2,4.8-0.2,10.8,0,15.1c0.1,1.8,0.4,2.7,0.5,4.4c0.1,3.7-0.2,6.8-0.2,10.6c0,5.3,0.5,11.9,0.5,15.1c0,1.2-0.3,3.2-0.2,4.4
					c0,1.1,0.6,1,0.7,2.7c0-0.2,0,3.4,0,3.6c0,2-0.3,3.2-0.2,5.3c0.1,5.6,0.7,11.3,0.7,15.1c0.1,4.7-0.2,7,0,8.9
					c0.4,3.4,0,6.8,0,10.6c0,2.3,0.5,5.4,0.5,8c0,1.3-0.3,1.6-0.2,3.5c0,3,0.4,6.1,0.2,8.9c-0.1,1.3-0.5,3.4-0.5,4.4
					c0-0.1,0.6,2.4,0.7,3.5c0.2,2,0.1,4.8,0.2,6.2c0.1,1.4,0.4,2,0.5,3.5c0.2,4.3,0.3,10.6,0.2,15.1c0,1.8-0.3,2.6-0.2,4.4
					c0.1,3,0.6,5.8,0.7,8.9c0.1,2.5-0.2,4.6-0.2,7.1c0,9,0.7,18.1,0.7,26.6c-0.8-0.4-1.1,0.8-1,3.5c0.5,2.4,1.2-3.1,1.4,0.9
					c-0.6,4.7-0.3,6.9,0,10.6c0.4,4.1,0.3,9.3,0.5,13.3c0.1,1.4,0.5,2.2,0.5,3.5c0,1.7-0.3,3.1-0.2,4.4c0.1,1.2,0.5,2.3,0.5,3.5
					c0,1.3-0.5,2-0.5,3.5c0,1.8,0.9,2.4,0.5,4.4c-0.3,3.2-1.2,3.1-1.2,7.1c0.7,2.6,0.4-2.2,1.2-1.8c0.1,4.4-0.1,9,0,13.3
					c0,1.5,0.4,2.9,0.5,4.4c0.1,2.7-0.1,6.1,0,8.9c0.1,3.5,0.7,6.2,0.7,8.9c0,1.3-0.3,4.1-0.2,5.3c0.1,2.4,0.7,3.7,0.7,6.2
					c0,1.8-0.5,4.3-0.5,6.2c0,1,0.4,2.8,0.5,4.4c0,1.6-0.3,3.5-0.2,4.4c0.1,1.2,0.4,1.6,0.5,2.7c0.4,3.4,0.5,9.3,0.5,13.3
					c0,1.6-0.3,2-0.2,3.5c0,1.2,0.4,2.9,0.5,4.4c0.1,1.4-0.1,3,0,4.4c0.1,1.8,0.4,2.8,0.5,4.4c0.1,3.5,0.2,12.1,0.2,13.3
					c0,0.7-0.3,1.3-0.2,1.8c0.2,2.6,0.7,3.3,0.7,5.3c0,1.6-0.5,3.7-0.5,5.3c0.1,1.8,0.5,3,0.7,5.3c0.4,4.5,0.5,9-1,9.7
					c0.1,2.5-0.2,5.5,0,8c0.1,1.9,0.7,2.2,1,3.5c0.8,3.8,0.8,12.4,1,17.7c0,1.1-0.3,1.3-0.2,2.7c0,0.5,0.5,0.7,0.5,1.8
					c0,0-0.5,0.7-0.5,0.9c-0.4,3.4,0.7,7.5,0.7,9.7c0,2.5-0.9,4.4-0.5,6.2c0.3,1.3-0.7,2.9,0.2,3.5c0-1.1,0.1-2.1,0.5-1.8
					c0.3,2.6,0.8,4.1,0.5,6.2c-0.4,2.2,0,3,0,4.4c0,1.1-0.3,1.2-0.2,2.7c0.1,1.5,0.4,1.7,0.5,3.5c0,1.7-0.3,4.2-0.2,6.2
					c0,1.2,0.2,1.2,0.2,2.7c0,1.9-0.3,3.5-0.2,5.3c0.1,2.7,1.2,3.8,0.5,7.1c-0.6,0.3,0.2-5-0.7-3.6c-0.4,2.9,0.1,3.4,0,7.1
					c0.9-0.7,0.8,1.8,1,2.7c0.5,2.2,0.7,3,0.7,5.3c0,1.5-0.3,3.2-0.2,4.4c0.1,2.3,0.7,4.9,0.7,7.1c0,2.2-0.5,3.6-0.5,5.3
					c0,1.4,0.1,5.1,0.2,6.2c0.2,1.6,0.6,1.7,0.7,3.5c0.3,5.6-0.4,11.6,0.5,16.8c-0.3,0.9-0.9,0.8-1,2.7c1.3,2.5,1.4,7.5,1.2,12.4
					c0,1.2-0.3,4.2-0.2,5.3c0,0.1,0.4,2.1,0.5,2.7c0.3,3.7,0.1,8,0.2,11.5c0.1,3.2,1.2,5.5,0,8c-0.2-1.5,0-4.8-0.7-4.4
					c0.2,5.9-0.3,11.6,0.2,16.8c0.2,1.8,0.6,2.6,0.7,4.4c0.1,1.5-0.2,2.1-0.2,3.5c-0.2,5.4,0.4,6.6,0.5,9.7c0,1-0.3,1.3-0.2,2.7
					c0,3,0.1,7.4,0.2,8.9c0,0.5,0.6,0.1,0.7,0.9c0.4,2.3-0.3,5.4,0.5,5.3c-0.5,1.2-0.9,2.5-0.7,6.2c0.8,0.4,0.6-3.1,1.2-0.9
					c0.4,7.5,0.4,14.1,0.5,22.2c0,2.2,0.3,5,0.2,6.2c0,0-0.5,1.6-0.5,1.8c0.2,3.4,1,3.5,1,6.2c-0.6,1.2,0.1,6.9-0.7,7.1
					c1.4,1.3,0.7,10.2,1,16c0.1,2.9,0.6,5.2,0.7,7.1c0.1,1.1-0.3,1.7-0.2,3.5c0.1,1.5,0.4,2.9,0.5,4.4c0.1,1.6-0.3,2.7-0.2,3.5
					c0,1.1,0.5,3.2,0.5,4.4c0.1,3.3-0.1,6.6,0,9.8c0.1,3.8,0.6,6.6,0.5,9.7c-0.1,1.5-0.5,3-0.5,4.4c0.6-0.3,1-1.9,1.2,0.9
					c-0.4,2.4-1.4,2.6-1.2,7.1c0.2,2.3,1.1-2,1.2,1.8c-0.6,7.6,0.4,14.1,0.2,20.4c0,1.4-0.6,0.8-0.7,1.8c-0.1,1.1,0.3,2.4,0.2,4.4
					c-0.1,3.7-0.6,1.6-0.5,4.4c0.1,3.1,0.9,3.1,1,7.1c-0.1,1.4-0.6,0.6-0.7,1.8c0-0.3,0.2,6,0.2,6.2c0.3,2.6,1.5,1.5,1.2,4.4
					c0.3,3.8-1.1,1.1-1,4.4c0.6,1.5,0.8-1,1.2,0.9c-0.2,2.7,0.4,2.6,0.2,5.3c-0.3,0-0.6,0-1,0c0.3,3.6-0.1,5.6,0,10.6
					c1.8-2.8,0.5,5.3,1.7,7.1c-0.2,2.5-1.2,2.1-1.2,5.3c0.4,2,0.9,3.5,1,6.2c0,1.9-0.5,2.9-0.7,5.3c-0.2,2.7-0.1,6.8,0,7.1
					c0.3,1.1,0.7,3.2,0.7,4.4c0.1,2.7-0.7,6-0.2,8.9c-0.1,2.4,1.3-0.8,1,2.7c0,1.9-0.9,0.4-1.2,0.9c-0.4,4.2,0.6,6.1,0.7,8.9
					c0.1,1.2-0.2,2.9-0.2,4.4c0,2.5,0.5,4.6,0.2,8c0.4,0.8,0.8-2.7,1,0c0.3,4.2-0.5,7.1-0.5,11.5c0,2.1,0.6,4.1,0.7,6.2
					c0.1,3.7-0.7,8.8-0.7,10.6c-0.1,3.7,0.2,8,0.2,11.5c0,2.1-0.3,4.2-0.2,6.2c0,0.9,0.5,2.9,0.5,3.5c0.2,4.6-0.3,12,0,18.6
					c0.1,1.9,0.4,3.5,0.5,5.3c0.2,7,0.3,16.4,0,21.3c-0.1,1.3-0.4,2.1-0.5,3.5c-0.1,1.7,0.3,2,0.2,3.5c-0.1,2.3-0.6,5.3-0.7,6.2
					c-0.3,2.9-0.1,6.2-0.2,8c-0.4,4.5-1.8,9-0.5,14.2c0.1-1.1,0.3-1.8,0.7-1.8c0.6,1.8-0.3,3.5,0.2,5.3c1.2,0,1.6-2.9,3.1-1.8
					c0.3,1.7,0.9,2.7,1,5.3c1,0.7,0.5-4.2,1.4-3.5c-0.2,2.9-0.2,5.9,0,8.9c0.8,0.4,1.6-1.7,1.9,3.5c0.8,0.1,1.1-4,1.7-1.8
					c-0.7,4,0.3,4,0.5,7.1c0.4,8.9-0.1,18.1-0.2,26.6c-0.1,2.9,0.1,5.4,0,8c-0.1,1.2-0.4,1.8-0.5,2.7c-0.2,1.7-0.1,4.4-0.2,6.2
					c-0.3,5.3-0.3,6.9,0,9.7c0.3,2.6,0.4,4,0.7,5.3c0.2,1,0.2,1.6,0.7,1.8c0.8,0.2,0.8-2.2,1.4-2.7c0.4,0,0.1,2.5,0.5,2.7
					c0.2-4.2,1.3-1,1.9-1.8c0.4-0.5,1.1-3.8,1.4-4.4c0.3-0.5,0.6,0,0.7-0.9c0.5-2.8,0.3-7.7,0.5-11.5c0.1-1.1,0.4-1.8,0.5-2.7
					c0.3-4.2,0-6.1,1-7.1c0.6,0.4,0.7,2.6,1.4,2.7c0.9-3.6,1.7-6.5,1.7-11.5c2.2-3.4,2.5,4.7,1.7,9.8c0.9,1.1,0.9,5.6,1.2,8.9
					c0.5,2.2,1.2-1.9,1.4,1.8c-0.7,4.2-0.3,7.9-0.2,11.5c0.1,3-0.3,6-0.2,8.9c0,2.1,0.5,4.1,0.5,6.2c0,1.2-0.2,3.1-0.2,4.4
					c0,1.6,0.2,2.7,0.2,3.5c0,1.5-0.3,2.9-0.2,4.4c0,3.7,0.1,10.2,0.2,15.1c0,1.3,0.3,3.1,0.2,3.5c0,1.9-0.5,2.8-0.5,4.4
					c0,0.9,0.5,2.1,0.5,3.5c0,1.4-0.3,3.2-0.2,4.4c0.1,4.3,0.6,8.3,0.5,12.4c1.8-2.5,0.3-9.7,0.5-14.2c0.1-2,0.5-2.8,0.7-4.4
					c0.4-3.5,0.4-7.4,0.7-10.6c0-1.7-0.9,1.5-1-1.8c0.1-6.1,0.1-7.2,0-13.3c0.3,0,0.6,0,1,0c0.3-3.7-0.5-3.5-0.5-6.2
					c1.1-1.4,0.4-4.7,0.5-8c0.1-3.7,0.3-10.3,0.5-11.5c0.5-3.2-0.1-4.2-0.2-7.1c-0.1-2.5,0.1-4.1,0-6.2c1.1,0.8,0.8-1.9,1-3.5
					c0-0.3,0.4-1.3,0.5-1.8c0.3-1.7,0.6-3,0.7-4.4c0.2-1.8-0.1-3.7,0-5.3c0.1-1.1,0.3-1.7,0.5-2.7c0.2-1.6,0.1-1.6,0.5-2.7
					c0.1-0.4,0.4,1,0.5,0.9c0.1-0.1,0.3-1.6,0.5-1.8c0.5-0.5,1.1,0.1,1.4-0.9c0.4-1,0.1-3.5,0.7-6.2c0.3-1.4,1.2-2.1,1.7-3.5
					c0.2-0.6,0.3-2.9,0.5-3.5c0.1-0.4,0.4,1,0.5,0.9c0.5-0.6-0.1-2.4,0-3.5c0-0.3,0.4,1,0.5,0.9c0-0.1,0.2-2.5,0.2-2.7
					c0.1-0.5,0.1-1.3,0.2-1.8c0.1-0.2,0.7-0.7,0.7-0.9c0.2-1.5-0.3-2.9-0.2-3.5c0-0.8,0.6-0.7,0.5-2.7c0-1.1-0.5-1.9-0.5-3.5
					c0-0.1,0.4-1.2,0.5-1.8c0.1-1.4-0.1-3.1,0-4.4c0.2-2,0.6-1.8,0.5-3.5c0-0.1-0.5-0.7-0.5-0.9c-0.1-0.9,0.2-2.8,0-3.5
					c-0.2-1-1-0.4-1.2-2.7c-0.3-3.6,0.1-1.5-0.7-2.7c-0.1-0.1-0.3-1.8-0.2-1.8c-0.4-0.3-0.8,0.4-1,0.9c-0.2-2.4-0.7-3.8-1-6.2
					c-0.7-0.1-1.4,2.1-1.9,0c0.6-1.7,0.4-5.7,0.7-7.1c0.1-0.4,0.7-0.5,0.7-0.9c0.1-0.9-0.1-2.6,0-3.5c0.1-0.8,0.4-1,0.5-2.7
					c0.1-1.6,0.3-5.2,0.2-7.1c0-0.4-0.7-1.1-0.7-1.8c-0.1-0.9,0.6-3.1,0.2-4.4c-0.4-1.8-1.2-2.4-1.7-4.4c-0.1-0.5,0.1-2.1,0-2.7
					c-0.3-2.2-0.8-0.9-1-3.5c-0.1-2,0.4-4,0.5-6.2c0-1.3-0.2-3.3-0.2-5.3c0-3.6,0-9.2,0.2-10.6c0.1-1.1,0-1.5,0-1.8
					c0.1-2.4,0.4-2.8,0.5-4.4c0.1-1.6-0.2-2-0.2-3.5c0-3,0.1-7.1,0.2-9.7c0-1.2,0.4-2.3,0.5-3.5c0.4-4.4-0.1-7.3,0.2-9.8
					c0-0.1,0.5-5.4,0.5-5.3c0-1.5-0.6-2.6-0.5-5.3c0.2-4.9,1.2-7.5,1.4-10.6c0.1-1.5-0.2-2.8-0.2-4.4c0-2.4,0.3-4.7,0.2-7.1
					c-0.1-2.5-1-6.7-0.2-8.9c0.6-1.8-0.3-7.7-0.2-10.6c0-1.8,0.3-1.9,0.5-3.5c0.4-4.2-0.1-5.3-0.2-8c-0.4-8,1.2-10.9,1-16.8
					c-0.1-2.2-0.7-4.2-0.7-6.2c0-1.9,0.6-3.6,0.7-5.3c0.2-2.7,0.1-7.8,0.5-11.5c0.2-2.2,0.7-3.5,0.7-5.3c0-1.5-0.2-3.2-0.2-5.3
					c0-1.6,0.3-4.4,0.2-5.3c-0.1-2.3-0.6-0.5-0.5-2.7c0.1-2.1-0.9-7-1-8.9c0-0.3,1.1-3.7,0.2-4.4c0.3,0.3,0.5,1.3,1,0.9
					c0-1.4,0.6-2.6,0.7-4.4c0.1-1.4-0.3-4.3-0.2-7.1c0-2.2,0.5-3.6-0.2-4.4c0.1-2.1,0.8-1.6,0.7-4.4c-0.6,0.1-0.8,1.7-1-0.9
					c1.2-2.6,0.4-7.9,0.5-11.5c0.1-5.2,0.9-10.9,0.5-17.7c-0.5-2.1-1.7-5-1.2-8c0.4,0.1,0.2,2.3,0.7,1.8c0.5-8.2-0.9-6.7-1-11.5
					c0.5-0.8,0.5,1.9,0.7,1.8c0.2-0.1,0-3.1,0.7-2.7c0.2,3.2,0.5,9.8,0.5,11.5c0,1.1-0.3,1.2-0.2,2.7c0.1,1.3,0.4,2.2,0.5,3.5
					c0.1,4.4-0.2,9.6,0,14.2c0.1,1.6,0.5,2.9,0.5,4.4c0.1,2.7-0.3,5.2-0.2,8c0.2,5.2,0,13.1,0.2,18.6c0,1,0.4,2.4,0.5,3.5
					c0.2,2.3,0.1,4.6,0.2,6.2c0.2,1.8,0.7,2.7,0.7,4.4c0-0.1-0.5,0.8-0.5,0.9c-0.1,0.8,0.2,1.1,0.2,1.8c1.5-3.2,1.7,3.8,3.1,3.5
					c0-4,0.6-6.3,0.5-10.6c-0.1-2.2-0.5-3.9-0.5-6.2c0-1.5,0.3-2.8,0.5-4.4c0.3-2.9,0-3.7,0-5.3c0-1.1,0.3-1.2,0.2-2.7
					c0-2.1-0.2-5.2-0.2-7.1c-0.1-3.1-0.5-11.2-0.5-13.3c0-1.5,0.5-3.8,0.5-5.3c0-1.1-0.4-3.3-0.5-4.4c-0.1-2.9-0.3-7.3-0.2-9.7
					c0-1.7,0.3-3,0.2-4.4c0-1.5-0.4-2.8-0.5-4.4c-0.3-6.4,0.2-16.7,0-25.7c-0.1-3.1-0.5-6.2-0.5-8.9c0-3.7,0.2-8.1,0.2-11.5
					c0-3.5-0.7-6.3-0.7-9.7c0-2.8,0.4-6.3,0.5-9.7c0.1-3.8,0.1-8,0-11.5c-0.1-4.9,0-7.7,0-11.5c0-2.9-0.3-6.1-0.2-8.9
					c0.1-1.6,0.5-3.7,0.5-5.3c0-1.6-0.8-3.8-0.7-6.2c0-0.2,0.5-1.3,0.2-2.7c0.5-1.9,0.8,0.8,1.2-0.9c0.2-3.8-1.2-1.6-1.2-4.4
					c0.5-2.1-0.1-4.1,0-5.3c0.1-1.2,0.9-0.2,0.7-2.7c-0.1-3.5-0.7,0.7-1-1.8c0.6-2.6-0.1-6.7,0.2-10.6c0.1-1.8,0.6-2.4,0.7-4.4
					c0-1-0.2-1.3-0.2-2.7c0-1.3,0.3-3.5,0.2-4.4c0-2-0.3-3.3-0.2-5.3c0-1.3,0.3-0.3,0.5-0.9c1.3-4-0.9-12.4-0.5-14.2
					c0.1-0.6,0.4,2,0.5,1.8c0-2.7-1.4-5.2-0.2-7.1c0,1.3-0.1,3.3,0.2,3.5c0.7-4.5-0.8-5.5-1-8.9c-0.1-2.1-0.1-5.6,0-8.9
					c0.1-3.7,0.1-9,0.2-11.5c0.1-1.7,0.8-2.8,1-4.4c0.2-2.3,0.2-8.8,0.2-9.7c0-1.3-0.4-1.5-0.5-2.7c0,0,0.5-1.1,0.5-1.8
					c0-0.4-0.5-0.8-0.5-1.8c0-1.2,0.4-1.7,0.2-3.5c-1-1.8-0.5-5.7-0.5-12.4c0.1-12.9-0.1-27.3,0.2-35.5c0.4-0.1,0.8,0.1,0.7-1.8
					c-0.3-1.3-0.5,0.4-0.7-0.9c-0.2-1-0.3-5.4-0.2-7.1c0-1.3,0.3-0.3,0.5-0.9c0.7-2,0-9.9,0-10.6c0-0.2,0.4-2,0.5-2.7
					c0.3-5.2-0.5-7.3-0.5-10.6c0-1.2,0.4-2.9,0.5-4.4c0-0.9-0.2-2.8-0.2-4.4c0-1.1,0.2-1.2,0.2-2.7c0-1.2-0.2-1.7-0.2-3.5
					c0-1.7,0.2-2,0.2-3.5c0-1.3-0.3-1.6-0.2-3.5c0.1-2.6,0.4-4,0.5-6.2c0-1.4-0.3-3.1-0.2-4.4c0.1-1.4,0.6-3,0.7-4.4
					c0.1-1.3,0-3.1,0-4.4c0.1-2.5,0.4-5.6,0.5-8c0-1.7-0.3-2-0.2-3.5c0-3.7,0.2-9.1,0.2-14.2c0-3.5,0.2-6.9,0.2-9.7
					c0-3.8-0.4-6-0.2-8c0.2-2.1,0.9-3.1,1-5.3c0.1-1.6-0.4-4.3-0.5-6.2c0-1,0.2-1.3,0.2-2.7c0-1.2-0.4-1.7-0.2-3.5
					c0.1-1.3,0.2-0.2,0.5-0.9c0.5-1.6,0-6.8,0-8.9c0-6.2,0.6-13.6,0.7-18.6c0-1.4-0.1-3.1,0-4.4c0.1-1.2,0.4-2.1,0.5-3.5
					c0.1-3.4,0-7,0-8.9c0-0.4,0.3-1.1,0.2-2.7c0-1.7-0.3-2.7-0.2-4.4c0-1.8,0.6-3.6,0.7-5.3c0.1-1.9-0.5-2.9-0.2-5.3
					c0.4-3.5-0.2-4.5-0.2-7.1c0-1.3,0.4-2,0.5-3.5c0-1.3-0.2-3-0.2-4.4c-0.2-6.6,0.5-6.9,0.7-10.6c0-0.8-0.2-2-0.2-3.5
					c0-2.1,0.3-4.1,0.2-5.3c-0.1-1.5-0.5-1.9-0.5-3.5c0-4,0.5-10.4,0.5-15.1c0-3.8-0.2-2.7,0.2-5.3c0.7-4.4,1-9,0.2-12.4
					c0.3-2.1,0.9-2.7,1-4.4c0.3-5.1-2.1-12-0.5-14.2c0.2,2-0.4,6.9,0.5,6.2c0.1-11-0.5-20.2,0.2-27.5c0.6-0.4-0.1,4,0.7,2.7
					c0.5-2.9,0-9.5,0.7-11.5c-1.5-1.2,0.1-6.8-0.5-8.9c-0.9,2.8,0.2-5.1-0.5-7.1c0.6,0.3,1,1.7,1.4,0c-0.3-3.8-0.3-8.1-0.7-10.6
					c-0.2-1.1-0.7,0-0.7-2.7c0.1-2.2,0.4-2.5,0.5-5.3c0.1-3.2-0.5-7.4,0.2-8c0.6,0.1,0.3,3.5,1,3.5c0.3-2.8,0.8-7.6,0.7-10.6
					c0-1.6-0.8-1.9-1-3.5c-0.2-1.7-0.2-9.3-0.2-8.9c0-0.2,0.7,1.9,0.7,1.8c0.7-1.5-0.4-2.3-0.2-3.5c0.1-0.5,0.8-0.5,1-0.9
					c0.2-0.7,0.1-2.7,0.2-3.5c0.1-2.7-1.5-3.7-1-5.3c0.3,0,0.2,1.6,0.5,1.8c0.4-3.8,0.9-7.4,0.7-13.3c-0.9-1.3,0,4-1,2.7
					c-0.4-4,0.7-2.7,0.5-6.2c0.4-1.5,0.9,1.3,1-2.7c0.1-2-0.7-1-0.7-2.7c0.7-0.6,0-2.4,0-3.5c0-1.5,0.3-3.1,0.2-4.4
					c0-0.2-0.4-1.1-0.5-1.8c-0.1-1.2,0-3.4,0.2-3.5c0.5,0.1,0.1,3.8,0.2,5.3c1.5-1.9,0.6-8.9,0.7-13.3c0.1-2.2,0.7-4,0.7-6.2
					c0-1.6-0.2-2.1-0.2-3.5c-0.2-4.7-0.2-5.7-0.5-8.9c1.3-1,0.4-7.8,0.5-11.5c0-0.7,0.4-2.4,0.5-3.5c0.1-2.2-0.1-4.4,0-6.2
					c0-0.7,0.4-2.6,0.5-3.5c0.5-5.6-0.1-7.2,0.7-8c0.5-0.5,0-5.3,0-6.2c0-1.7,0.3-2,0.2-3.5c0-1.2-0.3-1.2-0.2-2.7
					c0-1.3,0.4-1.8,0.5-3.5c0-0.1-0.3-0.8-0.2-1.8c0.2-3.8,0.2-9.7,0.5-14.2c-0.1-1-1.3,1-1-3.6c0.7-2.6,0.4,2.2,1.2,1.8
					c-0.3-5,0.4-7.5,0.5-9.8c0.1-1.1-0.3-1.2-0.2-2.7c0.1-1.2,0.4-2.2,0.5-3.5c0.2-4.6,0.6-10.9,0.5-15.1c-0.1-2.7-0.6-5.5-0.7-8
					c-0.2-5.7,0.5-10.5,0.2-16.8c0.4,0,0.8,0,1.2,0c0.3-3.3-0.5-2.9-0.7-4.4c1.5-1,0.6-4.7,0.7-8.9c0,0.2,0.2-2,0.2-2.7
					c0.2-2.6,0.2-5.8,0-8c0.6-2.4,0.6,2.4,1.2,0c-0.2-3.5,0.1-6.9,0-10.6c0-1.7-0.3-3.2-0.2-5.3c0.1-2.7,0.8-5.4,1-8
					c0.1-1.7-0.3-4.3-0.2-6.2c0.1-4.7,0.8-10.6,1-16.8c0.2-5.3,0-11.1,0.2-16c0.2-4.2,0.9-8.4,1-12.4c0-1.4-0.4-2.9-0.5-4.4
					c-0.2-7.8,1-11.7,1.2-17.7c0-1.5-0.1-3,0-4.4c0.1-1.1,0.5-2.5,0.5-2.7c0-1.7-0.5-3.6-0.5-5.3c0.3-1.8,0.8-2.1,1-4.4
					c0.1-1.5-0.3-3.8-0.2-5.3c0-3.2,0.6-6.9,0.7-8.9c0-0.9-0.3-1.1-0.2-1.8c0-1.3,0.2-5.9,0.2-8c0.1-2.6,0.6-5.4,0.7-8
					c0.1-2.2-0.1-4.6,0-6.2c0.1-1.4,0.4-2.4,0.5-3.5c0.1-1.3-0.3-3.1-0.2-3.5c0-0.5,0.3-2.6,0.5-3.5c0-0.2,0.2-1.3,0.2-1.8
					c0,0.1,0.5-1.4,0.5-0.9c0.1-1.1-0.2-2.3-0.2-4.4c0-1.9,0.3-3.3,0.2-4.4c-0.1-1.8-0.6-3.5-0.5-5.3c0.2-3.9,1.2-6.4,1.4-8.9
					c0.4-4.7,0-10.7,0-17.7c0-6.4,0.5-13.4,0.5-19.5c0-3.7-0.5-8.3-0.5-11.5c-0.1-11.4,1.6-27.3-0.2-32.8c0.2,0.7-0.9,0.1-1,0
					c-0.7-1-0.5-1.6-1-1.8c-0.2-0.1-0.6,0.8-1.2,0.9c-1.5,0.3-0.9-1.4-1.9,1.8c-1.1,3.3-0.7,2.8-1.4,8c-0.3,2.4-0.7,3.7-0.5,4.4
					c0.2,0.5-0.2,1.1-0.2,0.9c0,1.3,0.1,3.6,0,5.3c-0.1,1.2-0.4,2.6-0.5,3.5c0-0.1,0.3,2.3,0.2,3.5c-0.1,2.1-0.6,4.1-0.7,6.2
					c-0.1,1.6,0.1,3.8,0,5.3c-0.2,4.1-1,7.9-1,11.5c0,1.3,0.3,1.6,0.2,3.5c-0.1,2.2-0.7,4.5-1,8c-0.1,2.2,0.2,5.2,0,8
					c-0.1,1.9-0.5,3.1-0.5,4.4c0,2.3,0.3,4.1,0.2,5.3c-0.1,0.9-0.7,2.3-1,3.5c0.3,2.9,0.3,6.2,0.2,8.9c0,1.1-0.4,2.7-0.5,3.5
					c-0.1,1.7,0.3,2,0.2,3.5c-0.1,2.1-0.6,1.5-0.7,3.5c1,3.2,0.2,5,0,8c-0.1,1,0.4,4.1-0.2,3.5c0.2-2.2,0.5-4.6-0.5-4.4
					c-0.1,4.5,0.5,6.5,1,8.9c-0.8,0.4-0.1,3.8-0.5,6.2c-0.3,1.9-0.8,1.1-1,3.5c-0.2,4.1,0.9,8.8,0,11.5c-0.6,0.4,0.1-4-0.7-2.7
					c0,2.2,0.6,2.8,0.7,5.3c0,1.4-0.4,3.6-0.5,5.3c-0.1,1.4,0.3,3.2,0.2,4.4c0,0.2-0.4,2-0.5,2.7c-0.1,1.3,0.1,3.3-0.2,3.5
					c-0.5-0.2-0.2-3.3-0.7-3.5c0.2,4.8-0.4,11.1,0,12.4c0.2,0.8,0.1,0.4,0.2,1.8c0.5,5.7-0.5,5.3-0.5,10.6c0,1.7,0.3,3.3,0.2,4.4
					c-0.2,2.2-1.5,4.1-0.7,7.1c0-0.9,0.4-1.1,0.5,0c-0.3,1.9-1,3-1.2,5.3c-0.3,3.3,0.4,6.4,0.2,9.7c-0.1,2.3-0.8,2.6-1,5.3
					c0,0.4,0.2,3.5,0.2,4.4c0,0.9,0.7,2.7,0,3.6c-0.7,0.4-0.2-3.3-0.7-3.6c-0.4,5.4-0.2,12.9-0.7,16c0.3,2,0.6-1.1,0.7,0.9
					c0.2,2.7-0.5,9.6-0.5,10.6c0,0.5,0.3,0.4,0.2,1.8c-0.1,1.4-0.4,2-0.5,3.6c-0.1,3.4,0.2,7.3,0,10.6c-0.1,1.4-0.4,0.7-0.5,2.7
					c-0.1,4,0.5,9.2-0.5,12.4c-0.3,0-0.2-1.6-0.5-1.8c-0.7,4.2-1.2,10-0.7,15.1c0.1,0.9,0.7,1.7,0.7,2.7c0,1.2-0.2,3.7-0.2,5.3
					c0,2.2,0.2,4.1-0.2,5.3c-1,0.4-0.7-3.8-1.4-4.4c-0.1,5.3,0.7,4.7,1.2,7.1c0.5,4.3-0.7,6.2-1,8.9c-0.2,2.7,0.3,5.7-0.5,8
					c-0.5-3.5-0.1-10.2-0.2-15.1c0.4-0.1,0.8,0.1,0.7-1.8c0.5-2-0.6-1.2-0.7-2.7c-0.2-2.2,0.7-8.8,0.7-15.1c0-2.4-0.3-3.6-0.2-5.3
					c0-1.6,0.4-3.1,0.5-4.4c0.1-2.1,0.3-5.9,0.2-7.1c-0.1-2-0.9-2.1-0.7-4.4c-0.1-2.3,0.9-0.7,0.7-3.5c-1.2-3.1,0.4-7.1,0-12.4
					c0.3,0,0.3,1.1,0.7,0.9c-0.3-4.1-0.7-8.1-0.7-11.5c0-3.4,0.4-2.6,0.5-4.4c0-0.3-0.4-1.9-0.2-3.5c0.1-1.6,0.7-2.5,0.7-4.4
					c0,0,0-3.9,0-3.5c-0.1-3-0.9-6.6-1-9.8c0-0.6,0.4-2.3,0.5-3.5c0.4-4.8,0.2-8,0-11.5c0.5-0.4,1,2.7,1-0.9c0.2-4.1-0.9-1.2-1-2.7
					c0.9-2.9,0.2-6.9,0.2-10.6c0-1.3,0.4-1.8,0.5-3.5c0,0.2-0.2-1.1-0.2-1.8c0-1.2,0.2-2,0.2-2.7c0-2.2-0.3-4.3-0.2-6.2
					c0-1,0.5-2.1,0.5-2.7c0-4.4-0.6-7.5-0.2-11.5c0.1-1.6,0.6-2.5,0.7-4.4c0.2-4.7-0.1-9.6-0.2-15.1c0-0.9,0.2-1,0.2-1.8
					c0-1.1-0.3-1.2-0.2-2.7c0.1-5.5,0.2-14.8,0.2-19.5c0-0.4-0.4-1.9-0.2-3.5c0.1-1.5,0.4-0.7,0.5-2.7c0-2.1-0.5-3.9-0.5-6.2
					c0-1,0.4-2.7,0.5-4.4c0.2-3.9-0.2-9.5,0-12.4c0.1-1.3,0.5-2.1,0.5-3.5c0-1.6-0.4-3.5-0.5-5.3c-0.1-3.4,0.4-3.5,0.5-4.4
					c0.1-1.2-0.3-3.2-0.2-4.4c0,0,0.2-2.5,0.2-3.5c0.3-4.4,0.2-4.8,1-4.4c-0.7-5.2-1.1-11.1-1-17.7c0-1,0.1-0.4,0.2-0.9
					c0.6-1.6,0.1-6.2,0.2-8.9c0.2-3.2,1.2-5.4,1-8.9c-0.4-0.3-0.6,1.3-0.7,0c-0.3-3.5,0.3-8.1,0.2-11.5c0-1.6-0.7-3.7-0.7-5.3
					c0-0.6,0.2-5.1,0.2-7.1c0.2-4.2,0-9.9,0-14.2c0-1.4,0.4-3.1,0.5-4.4c0-1.3-0.2-3.1-0.2-4.4c0-1.3,0.3-3.1,0.2-4.4
					c0-1.6-0.3-2-0.2-3.5c0-1.7,0.4-3.7,0.5-5.3c0-1.1-0.2-1.8-0.2-3.5c0-1.8,0.2-3.7,0.2-5.3c0-2.6-0.3-4.8-0.2-7.1
					c0-2.6,0.5-5.2,0.5-8c0-4.2-0.4-8.3-0.2-12.4c0-1.2,0.2-1.2,0.2-2.7c0-1.1-0.3-3-0.2-4.4c0-0.5,0.5-1.8,0.5-2.7
					c0-2.6-0.7-6-0.7-8c1-2.3,0.5-3.5,0.5-7.1c0-4.7,0-8.3,0-11.5c0-5.6,0.7-12,0.7-17.7c0-4-0.1-5.7,0-8.9
					c0.1-3.6-0.2-6.8-0.2-10.6c0-11.7,0.5-23.4,0-35.5c-0.9,0.4-0.3,6.4-1.4,6.2c-0.2-2.1-0.6-7.9,0-9.7c0.6-2.4,0.8,0.6,1.4,0.9
					c0.5-4,0.1-9.2,0.2-13.3c0-1.2,0.5-2.5,0.5-3.5c0,0-0.5-0.8-0.5-0.9c-0.5-3.9,0-8.8,0-11.5c-0.1-4.4-0.2-10.2,0-15.1
					c0.1-1.8,0.6-2.8,0.7-5.3c0,0.2-0.3-2.3-0.2-3.5c0.1-2.1,0.5-3.2,0.5-4.4c0-1.2-0.4-4.6-1-4.4c-0.7,2,0.5,5.8-0.5,6.2
					c-0.2-4.9,0-9.2,0-12.4c0-2.1-0.3-4.2-0.2-5.3c0.1-1.4,0.6-3.2,0.7-4.4c0.3-4,0.1-9.9,0-12.4c-0.2-5.9,0.5-15-0.2-17.7
					c-0.3-1.2-0.8-2.5-1-3.5c-0.6-4.2,0.2-5.9,0.2-8.9c0.1-2.3-0.3-4.3-0.2-6.2c0,0,0.9-1,0.2-1.8c-0.1,1-0.3,1.4-0.5,1.8
					c0.1-3.7,0.5-7.9,1.2-4.4c0.2-3.2-1.3-4.1-1.2-6.2c0,0.1,1.1-5,1.4-3.5c0.2,2.8-0.4,2.7-0.5,4.4c1.3-0.6,1-7.1,0.7-11.5
					c-0.1-1.5-0.6-3-0.7-4.4c-0.2-2.2,0.1-3.4-0.2-4.4c-1-0.8,0,5.9-1,5.3c0.5-5.9-0.7-14.5,0.5-18.6c0,1.6,0.2,3,0.5,3.5
					c-0.3-5,0.7-9.6-0.2-11.5c-0.7,1.9,0.5,5.5-0.5,6.2c-0.2-1.3-0.3-2.8-0.5-4.4c-0.1-1.3-0.1-4.7-0.7-4.4
					c-0.7,3.2,0.2,6.5,0.5,8.9c-0.9,2.2-0.6,6.9-0.5,10.6c0.1,3.1,0,6.3,0,8.9c0,1.9,0.4,1.3,0.5,3.5c0.1,2.4-0.5,2.2-0.5,4.4
					c-0.1,4.2,0.3,8,0.2,12.4c0,7.1-0.2,12.4-0.2,19.5c0,4.7-0.2,10.3,0,14.2c0.1,1.5,0.5,3,0.5,4.4c0,1.8-0.4,3.6-0.5,5.3
					c-0.1,2.7-0.2,6.2,0,8.9c0.1,1.9,0.5,2.5,0.5,4.4c0,1.5-0.4,3.3-0.5,5.3c-0.3,5.5,0.2,12.1-0.2,15.1c-0.5,2.7-0.3,2-0.2,4.4
					c0,1.7-0.3,2-0.2,3.5c0,3.2,0.2,7.4,0.2,10.6c0,1.8-0.3,3.2-0.2,4.4c0,1.1,0.4,2.2,0.5,3.5c0,1.4-0.3,2.7-0.2,4.4
					c0.1,4.1,0.5,9.3,0.5,11.5c0,1.3-0.6,3-0.7,4.4c-0.3,3.1,0,5.5-0.2,8c-0.6-2.1-0.7,0.3-0.7,1.8c-0.1,4.9,0.7,4.7,1,8
					c0.1,1.3-0.3,3.5-0.2,5.3c0,1.2,0.4,1.9,0.5,3.5c0,1-0.2,4-0.2,6.2c0,2.4,0.1,6.1,0,8c-0.1,1.7-0.5,2.6-0.5,4.4
					c0,3.2,0.4,6.7,0.5,9.7c0.1,2.1,0.3,5.5,0.2,7.1c0-0.1-0.5,0.8-0.5,0.9c-0.8,2.5,0,9.4,0,14.2c0,5.6-0.1,24.2-0.5,26.6
					c-0.5,3.1,0.1,4.5,0.2,7.1c0.3,5.9-0.3,13.6-0.5,21.3c-0.1,4.1-0.2,8.6-0.2,12.4c0,3.3,0.3,6.8,0.2,9.8c0,2.4-0.4,4.7-0.5,7.1
					c-0.1,4.1,0.2,8.1,0,10.6c-0.1,2-0.9,3.2-0.7,5.3c1.2,2.8,0.6,7.3,0.5,12.4c0,1.7,0.3,2.8,0.2,4.4c0,3-0.3,6.1-0.2,8.9
					c0.1,1.5,0.3,2.1,0.2,3.5c0,0.9-0.5,3.1-0.5,3.5c0,0.4,0.3-0.2,0.2,0.9c-0.1,1.9-0.9,3.3-0.5,5.3c0.2,1.8,1.4-0.5,1.2,2.7
					c0,1.1-0.3,1.3-0.5,1.8c-0.4,1-0.2-0.1-0.5,1.8c-0.4,3.3,0.3,6.9,0.2,11.5c0,1.4-0.4,3.5-0.5,5.3c0,1.5,0.2,2.7,0.2,4.4
					c0,3.8-0.5,8.6-0.5,13.3c0,2.5,0.3,4.8,0.2,7.1c0,1.9-0.4,3.4-0.5,5.3c-0.2,6.1-0.3,15.4,0,19.5c0.1,1.3,0.6,0.7,0.5,2.7
					c0.1,2.3-0.9,0.7-0.7,3.5c-0.1,2.6,0.5,2.7,0.5,5.3c-1.2,3.9-0.7,8.1-0.7,12.4c-0.1,6.4,0,15.7,0,21.3c0,1.5-0.3,3.5-0.2,5.3
					c0,1.4,0.3,3.4,0.2,4.4c-0.1,2.6-0.6,5.2-0.7,8c-0.2,4.4,0.1,9.6,0,15.1c-0.1,2.6-0.4,4.7-0.5,7.1c0,2.7,0.2,5.1,0.2,8
					c0,2.8-0.3,5.5-0.2,6.2c0,1.8,0.5,3,0.5,4.4c-0.1,4.7-0.8,8.3-0.7,11.5c0,1.1,0.5,3.2,0.5,4.4c-0.1,2.3-0.6,4.5-0.7,7.1
					c-0.3,4.9-0.4,11.3-0.5,16.8c0,1,0.3,3.3,0.2,4.4c-0.1,1.6-0.5,2.7-0.5,4.4c0,4.5,0.4,9,0.2,14.2c0,1.4-0.2,3-0.2,4.4
					c0,2.2,0.5,4.7,0.5,7.1c0,2.2-0.1,5.5-0.2,7.1c-0.1,1.5-0.6,4.6-1.2,5.3c0-5,0.1-10.6,0-14.2c-0.3-13.4,0.4-30.9,0-42.5
					c0-1.2-0.4-2.6-0.5-3.6c0-0.9,0.2-0.7,0.2-0.9c0-0.8-0.2-0.8-0.2-0.9c-0.1-4.7-0.3-6.7-1-8c-0.5-2.6,0.1-6.4-0.2-8
					c-1.1,0.6-1.8,0-2.9,1.8c0.1-5,0.9-7.7-0.5-9.8c0.4-0.9-0.1-1.9,0-2.7c0.2-1.9,0.6-1.5,0.7-3.5c0.1-1.6-0.3-2-0.2-3.5
					c0.1-2.1,1-4.4,0.7-7.1c-0.8-1.8-0.7,3.5-1,0.9c0.9-3.3,0.5-6.4,0.5-8.9c0-1.2,0.3-1.2,0.2-2.7c0-1.5-0.3-2.1-0.2-3.5
					c0.1-4,1-5.8,1-8.9c0-1.7-0.7-3.8-0.7-6.2c0-1.5,0.5-3,0.5-4.4c-0.4-1.4-0.7-2.2-0.2-3.5c0.7-2,0.2-5.2,0.2-8
					c0-2.2,0.5-11.5,0.5-12.4c0-1.7-0.5-2.7-0.5-4.4c0-0.3,0.5-1.2,0.5-2.7c0-1.3-0.3-1.6-0.2-3.6c0.1-2.1,0.5-3.9,0.5-6.2
					c0-1.5-0.4-3-0.5-4.4c-0.2-4,0.1-7.3,0.7-10.6c-0.2-2.6-1.1-6.4-0.2-7.1c0.3-0.2,0.2,1.7,0.5,1.8c0.1-3.8,0.1-7.6-0.7-8
					c0.5-0.3,0.6-2.1,0.7-3.5c0.1-1.3,0.3-5.4,0.2-7.1c-0.1-1.8-0.5-2.5-0.5-4.4c0-2.2,0.4-4.2,0.5-7.1c0.2-5.3-0.2-11.6,0-16
					c0.1-1.5,0.5-2.9,0.5-4.4c0-1.1-0.3-1.2-0.2-2.7c0-1.1,0.3-1.2,0.2-2.7c-0.1-1.1-0.5-2.4-0.5-3.5c0-1.5,0.9-3,0.5-4.4
					c-1-1,0,5.4-1.2,3.5c-0.2-6.8,0.9-9.5,0-14.2c0.3-2.2,0.9,1,1-0.9c-0.5-0.8-0.5-5.2-0.5-8c0-4,0.3-8.9,0.5-12.4
					c0.7-0.2-0.3,5.8,0.7,4.4c0.5-3.5-0.2-7.6,0-11.5c0.1-2.6,1.2-4.8,0.5-7.1c-0.3-2.4-0.6,2.3-1,2.7c-0.6-0.9-0.1-4.3-0.2-7.1
					c-0.1-1.6-0.6-1.8-0.5-3.5c0-0.2,0.6-1.7,0.7-2.7c0.2-1.8-0.3-4.6,0.5-3.5c-0.2,5.6-1,10.6,1,11.5c-0.6-11.8,0.5-24.6,0.2-38.1
					c-0.8-2.2-1,3.4-2.2,2.7c0-2.1,0-4.1,0-6.2c0.5,0,0.3,2.4,1,1.8c-0.8-16.2,1.6-30.6,0-43.4c0.7,0.7,0.5-2.4,1.2-1.8
					c0.1,1.6-0.2,4.4,0.5,3.5c0.3-3.7,0.3-7.3,0.2-10.6c-0.1-2.6-0.6-4.8-0.7-6.2c-0.1-1.3,0.1-3,0-4.4c0-0.4-0.4-1.9-0.5-2.7
					c-0.1-1.1,0.1-2.4,0-3.5c-0.1-2.2-0.5-2.2-0.5-3.5c0-3,0.3-5.9,0.7-8.9c-0.2-2.4-0.9,1.7-1-1.8c0.6-1.3,0.6-2.1,0.7-4.4
					c0.1-1.1,0.4-1.1,0.5-1.8c0.1-1.2-0.2-1.9-0.2-2.7c0-2.3,0.7-6.4,0.7-8c0-2.3-0.4-5.6-0.5-8c0-0.9,0.2-1,0.2-1.8
					c0-0.4-0.3-1.1-0.2-2.7c0.1-1.4,0.4-2.3,0.5-3.5c0-1.2-0.5-0.8-0.5-1.8c0-0.1,1-2.7,0.5-4.4c-0.6-1.2-1,2.6-1.2,0
					c0.1-3.6,0.7-6.2,0.7-8.9c0-2.8-0.5-4.4-0.5-6.2c0-0.4,0.8,0.4,0.7-0.9c0,0.2-1.4-1.6-0.7-2.7c0.5-1.5,0.3,0.1,1,0
					c0.4-4.5,0-7.3,0-11.5c0-7.3,1.1-15.3,0-18.6c-0.1,0.7,0,1.8-0.2,1.8c0.5-2.8-0.2-5.4-0.2-8c0-2.3,0.5-2.9,0.5-5.3
					c0-1.9-0.6-2.1-0.5-4.4c0.5-0.2,0.5,1,1,0.9c0-2.5-0.4-3.7-0.5-6.2c0-1.4,0.2-2.7,0.2-4.4c0-6-0.6-13-0.5-18.6
					c0.1-2.4,0.4-4.7,0.5-7.1c0,0.1-0.5-0.8-0.5-0.9c-0.1-0.6,0-2,0-2.7c0-2.3,0.4-5.4,0.5-8c0-1.8-0.2-3.8-0.2-6.2
					c0-2.4,0.3-5,0.2-7.1c0-1.3-0.4-3.2-0.5-4.4c0-0.9,0.3-1.1,0.2-1.8c-0.1-5.1-0.4-11.1-0.5-16.8c-0.1-4.3,0.3-8.9,0.2-13.3
					c-0.1-3.5-0.5-6.3-0.5-9.8c0-1.7,0.3-3.6,0.2-5.3c0-1.4-0.4-2.8-0.5-4.4c-0.4-8.2,0.2-18.8,0-27.5c0-1.3-0.4-2.9-0.5-4.4
					c-0.1-2.4,0.5-7.5-0.7-7.1c-0.4,5.2,0.1,9.1,0.2,15.1c0.2,8.2-0.1,18.1,0.2,23.9c0.1,1.4,0.5,2.1,0.5,3.5c0,0.9-0.5,2.8-0.5,3.5
					c-0.1,2.8,0.3,6.5,0.2,7.1c-0.1,1.1-0.5,1.6-0.5,2.7c0,0,0.5,0.8,0.5,0.9c0.1,0.6,0,1.9,0,2.7c0.2,5.1,0.3,11.6-0.7,12.4
					c-0.4-3.5,0-8.5,0-11.5c0-2.9-0.4-5.7-0.5-8.9c0-0.9,0.2-1,0.2-1.8c0-5.5-0.1-15.2-0.2-21.3c-0.1-3.6,0.1-6.5,0-9.8
					c-0.1-2.8-0.4-5.7-0.5-8.9c-0.1-2.8,0.1-5.7,0-8c-0.1-1.5-0.4-2.9-0.5-4.4c-0.2-1.9,0.3-6-0.7-5.3c0.1,3.4-0.2,7.1,0,10.6
					c0.1,1.8,0.4,2.7,0.5,4.4c0,1.1-0.3,1.8-0.2,3.5c0,3.3,0.4,6.8,0.5,10.6c0.2,12-0.5,26.2,0,34.6c0.1,1.4,0.5,2.2,0.5,3.5
					c0,1.8-0.6,3.9-0.7,6.2c-0.1,2.4,0.2,4.3,0.2,7.1c0.2,7.7-0.1,19.9-0.2,31c0,1.7,0.3,2,0.2,3.5c-0.1,4.8-0.4,9-0.2,13.3
					c0.1,4.3,0,6,0,9.8c0,1.6,0.3,3.1,0.2,4.4c-0.1,1.5-0.5,2.1-0.5,3.5c0,1.3,0.4,2,0.5,3.5c0-0.1-0.3,1.5-0.2,2.7
					c0,1.1,0.3,1.2,0.2,2.7c0,1.9-0.6,4-0.7,6.2c-0.2,3.1,0.1,7.5,0,11.5c0,1.4-0.4,3.4-0.5,4.4c-0.2,2.5,0,5.7,0,6.2
					c0.1,1.1-0.4,3.3-0.2,5.3c0.1,1.4,0.7,2.2,0.7,3.5c0.1,1.5-0.3,2.6-0.2,4.4c0,2.5,0.4,5.1,0.5,8c0.1,4.3-0.4,8.5-0.5,13.3
					c0,1.8,0.3,3.6,0.2,5.3c0,1.5-0.4,3.6-0.5,5.3c-0.2,6.5,0.2,13.7,0,19.5c0,1.5-0.4,3.1-0.5,4.4c-0.2,2.5,0,5.1,0,8
					c0,1.5-0.3,2.7-0.2,4.4c0,1.7,0.3,3,0.2,4.4c-0.1,3.1-0.5,7.7-0.7,9.8c-0.4,4.7,0.4,5.2,0.5,8.9c0,0.8-0.2,3.3-0.2,5.3
					c0,1.8-0.1,4.5,0,6.2c0,1.6,0.4,2.3,0.5,3.5c0.3,6-0.6,7.5-0.7,10.6c-0.1,2,0.5,4.2,0.5,6.2c0,1.6-0.4,3.7-0.5,5.3
					c0,1.6,0.2,2.9,0.2,4.4c0,1.2-0.3,1.6-0.2,3.5c0.1,2.8,0.1,7.7,0,10.6c0,1.2-0.4,2.3-0.5,3.5c-0.1,1.4,0.1,3,0,4.4
					c-0.1,1.9-0.5,3.1-0.5,4.4c0-0.6,0.2,2.2,0.2,2.7c0.1,1.4,0.3,6,0,8c0,0.2-0.4-0.2-0.5,0c-0.4,1.6,0.2,8.6,0.2,8
					c0,1.6-0.5,2.9-0.5,4.4c0,0.2,0.4,2,0.5,2.7c0.1,0.9-0.2,1.1-0.2,1.8c0,0.3,0.2,0.7,0.2,1.8c0.1,6.3-0.5,10.6-0.5,14.2
					c0,1.2,0.5,3.3,0.5,4.4c0,0.4-0.5,1.1-0.5,2.7c0,1.6,0.3,2,0.2,3.5c0,1-0.4,2.5-0.5,3.5c-0.4,4.9,0.2,7,0.2,10.6
					c0,1.1-0.5,2.7-0.5,4.4c0.1,3.9,0.7,2.1,0,4.4c-0.6,1.9,0,8.9-0.2,14.2c-0.1,3.4-0.8,6.5-0.7,8.9c0,1.9,0.5,3.6,0.5,5.3
					c0,5.1-0.1,12.8-0.2,18.6c0,1.2-0.4,2.6-0.5,3.5c-0.2,2.7-0.2,7.9,0,9.8c0.1,1.3,0.7,2.2,0.7,3.5c0,2-0.6,4.2-0.7,7.1
					c-0.1,2.7,0.1,6.1,0,8c-0.1,1.2-0.4,1.8-0.5,2.7c-0.4,4.1,0,7.4,0,10.6c0,4.8-0.7,8.7-0.7,11.5c-0.1,3.8,0.3,7.7,0.2,11.5
					c0,1.8-0.5,4.1-0.5,6.2c0,0.4,0.3,1.9,0.2,3.5c0,1.7-0.4,1.9-0.5,2.7c-0.1,1,0.3,3.3,0.2,5.3c-0.1,2.7,0,4.6,0,7.1
					c0,3.4-0.5,13.8-0.5,16c0,0.4,0.3,0.5,0.2,1.8c-0.1,0.8-0.4,1-0.5,2.7c-0.2,3.4,0,5.6-0.2,7.1c-0.6,3.6-1.2,9.7-0.2,12.4
					c-1.2,3-0.5,5.5-0.2,8.9c0.3,4.6,0,4.7-0.2,8.9c-0.2,2.4-0.1,5.2-0.2,6.2c0,0.2-0.4-0.2-0.5,0c-0.6,2.3,0.5,7.9,0.5,9.8
					c0,1.6-0.4,3.7-0.5,5.3c-0.1,1.6,0.3,2,0.2,3.5c0,4.9-0.5,11.5-0.5,16.8c0,1.7,0.3,3,0.2,4.4c-0.1,1.4-0.4,1.9-0.5,3.6
					c-0.1,1.4,0,3,0,4.4c-0.8,1-0.6-0.3-1.2,0.9c-0.1,1.3,0.3,4.6-0.2,4.4c-0.9-0.7-0.4-4.6-0.5-7.1c-0.1-3.2-0.5-7.6-0.5-10.6
					c0-1.9,0.6-3,0.7-5.3c0.2-5.2-0.4-6.1-0.5-8.9c0-1.3,0.5-4,0-5.3c0,1.2-0.9,3.5-1,1.8c-0.5-4.1,0.8-5.5,1-8
					c0-0.9-0.2-1.5-0.2-1.8c0-1.9,0.4-3.6-0.5-4.4c0.1,2.9-0.2,5.5-0.7,3.5c0.1-3.8,1.2-4.6,1.4-8c0.2-2.5-0.3-4.8-0.2-8
					c0,0.1,0.2-1.8,0.2-2.7c0.2-3.6,0.2-11.9,0.7-14.2c-1,0.6-1.1-2.4-1.2-3.5c0-0.4,0.1-4,0.2-5.3c0-0.3,0.4,0.2,0.5,0
					c0.1-0.3-0.1-1.5,0-1.8c0.1-0.2,0.7-0.7,0.7-0.9c0.3-2.1,0.1-5.2,0-6.2c-0.3,0.3-1.2-0.1-1.7-0.9c-0.1-3.5,0.7-2.8,1-0.9
					c0.5-3.8-0.7-3.9-0.7-4.4c-0.2-1.7-0.7-3.8,0.2-5.3c0,1.7,0.2,3,0.5,3.5c0.6-2.5-0.1-5.8,0-8.9c0.1-1.9,0.4-2.7,0.5-4.4
					c0-1.2-0.5-0.8-0.5-1.8c0-1.1,0.4-2.3,0.5-3.5c0.3-3.7,0.4-8.5,0.2-12.4c0-1.5-0.6-3-0.7-4.4c-0.1-2.3-0.3-11.2-0.2-11.5
					c0.1-2.2,1.1-5.2,1-7.1c-0.2-2.7-1-3.5-1.2-6.2c0.8-1,0.2-4.5,0.2-5.3c0-0.2,0.4-1.3,0.5-1.8c0.5-3.1-0.1-6.1-0.2-9.7
					c0.2-1.6,1-1.1,0.7-4.4c-0.6-1-0.9,4.2-1,0c0-4,1.3,1.3,1.4-2.7c0-5.2-1.2-2-1.4-2.7c-0.4-2.7,0.7-2.8,1-4.4
					c0.2-1.1-0.1-3.2,0-4.4c0.1-0.9,0.4-0.9,0.5-2.7c0-1.1-0.2-3.1-0.2-4.4c-0.1-2.1,0-4.4,0-6.2c0-2.5,0.5-10,0.5-11.5
					c-0.1-4.1-1.2-9.3-0.7-14.2c0.5-1.5,0.3,0.1,1,0c0-4.4-0.6-0.5-1-3.5c-0.6-4.9,0.8-11,0-15.1c0.5-0.2,0.5,1,1,0.9
					c0.6-3.2-0.1-6.4-0.2-9.8c-0.1-2.8-0.3-7-0.2-8c0.1-1.5,0.5-2.1,0.5-3.5c0-1.4-0.4-2.9-0.5-4.4c-0.1-2.5,0.3-5.8,0.2-8.9
					c0-1.3-0.3-1.6-0.2-3.5c0.1-2.6,0.4-5.8,0.5-8.9c0-2.1-0.1-4.5,0-6.2c0.1-1.4,0.5-3.3,0.5-4.4c0-1.6-0.8-3-0.7-4.4
					c0.9,0,1-8.9,1-11.5c0-1.2-0.6-3.2-0.7-4.4c0-0.8,0.3-2.4,0.2-4.4c-0.1-4.6-0.2-9.3-0.5-13.3c0.2,1.5,0.8,2.8,1,0
					c-0.3-3.8-0.6-0.7-1-1.8c0-3.4-0.5-5.6,0-7.1c0.3-1.1,0.3,0.3,0.5-1.8c0.1-0.9-0.2-1.5-0.2-1.8c0-1.9,0.6-4.8-0.2-5.3
					c0.8,0.4,0.7-2.2,1-3.5c-0.9-3.2-1.5-7.3-1-11.5c0-0.2,0.4,0.1,0.5,0c0.7-0.7,0-5.1,0-7.1c0-1.3,0.3-1.6,0.2-3.5
					c-0.1-2.2-0.5-4.3-0.5-6.2c0-1.7,0.4-3.5,0.5-5.3c0.1-2.7,0.3-6.2,0.2-8.9c0-5-0.8-10.2-0.7-15.1c0-5.7,0-12.2,0-16.8
					c0-7.9,0.6-15.7,0-23.9c0-2.3,0.9-1.3,1-3.5c-1.4-2.6-0.7-7.2-0.7-11.5c0-3.7-0.1-5.8,0-8.9c0.1-3.9-0.3-9.5-0.2-11.5
					c0-1,0.3-2.3,0.2-2.7c-0.1-2.3-0.7-4-0.7-6.2c-0.1-6.2,0.9-12.8,0.2-18.6c-0.2,2.2-0.5,5.1-0.7,6.2c-0.1,0.3-0.5,1.8-0.5,1.8
					c-0.1,1.8,1.2,5.2,0,6.2c0.4-3.4-0.6-4.9-0.7-8c-0.1-1.6,0.2-2,0.2-3.5c0-2.2-0.3-3.6-0.2-5.3c0-1.9,0.3-3.5,0.2-5.3
					c0-1.7-0.3-2.8-0.5-4.4c-0.1-1,0.3-5.2-0.5-4.4c-0.3,5-0.2,10.4-0.2,14.2c-0.2,8.9,0.2,17.6,0.5,26.6c0.1,3.2,0.3,8.4,0.2,9.8
					c-0.1,2.5-0.6,4.8-0.7,7.1c-0.2,5.4,0.5,11.9,0.5,17.7c0,1.8-0.3,2.8-0.2,4.4c0.1,1.7,0.5,3.5,0.5,5.3c0,1.2-0.6,3.1-0.7,4.4
					c-0.1,2.1,0.2,5,0.2,8c0,4.3-0.3,7.4-0.2,10.6c0,1.8,0.2,2.7,0.2,4.4c0,2.1-0.5,4.2-0.5,6.2c0,1.8,0.2,4.7,0.2,7.1
					c0,2.8-0.1,5.6,0,8c0.2,6.2-0.2,12.2-0.2,18.6c0,2.6,0.3,4.5,0.2,7.1c-0.1,3.8-0.4,7.7-0.5,11.5c0,2.5,0.2,4.3,0.2,7.1
					c0,3.6-0.2,8-0.2,11.5c-0.1,8.6,0,16.3,0,23.9c0,3.5-0.4,7.2-0.5,10.6c0,1.7,0.2,1.9,0.2,3.5c0,2.4-0.2,5.6-0.2,8
					c-0.1,3.4,0,5.1,0,8c0,2-0.3,4-0.2,6.2c0,1.6,0.3,3,0.2,4.4c0,1.2-0.4,1.8-0.5,3.5c0-0.1,0.3,1.5,0.2,2.7c-0.1,1.8,0,4,0,5.3
					c0-0.7,0,2.9,0,2.7c0,1-0.5,2-0.5,2.7c0,1.7,0.3,4.2,0.2,6.2c0,1.9-0.3,2.8-0.2,4.4c0.1,4.1,0.4,8,1,11.5c-1.3,4-0.7,8.7-0.7,16
					c0,2-0.1,7.1-0.2,9.8c-0.1,1.6-0.5,2.4-0.5,3.5c0,0.6,0.5,0.9,0.5,2.7c-0.1,2.2-0.5,1.6-0.5,4.4c0,6.6,0.8,13.6,0,20.4
					c-1.3-2.1-1.4,1-2.4,0.9c0.3,4.3-0.1,9.8-1,10.6c-0.3-8.5,0.6-16.7,0.2-23.9c-0.1-1.7-0.4-2.9-0.5-4.4c0-1.1,0.3-1.7,0.2-3.5
					c-0.1-1.1-0.5-1.6-0.5-2.7c0,0,0.4-1.3,0.5-1.8c0.6-7.3-1.4-7.7-1.4-12.4c0.6-0.8,1.2,4,1.2,0c-1.6-0.5,0.3-2.1,0.2-1.8
					c0.1-1.9-0.4-4.1-0.5-6.2c-0.3-5.6-0.1-13.5-0.2-19.5c-0.1-5.6-1-11.2,0-16c1.1,2.3-0.5,9.4,1.2,9.8c-0.4-2.7,0.1-5,0-6.2
					c-0.1-1.5-0.4-1.9-0.5-3.5c-0.1-2.5,0.7-6-0.2-8c-0.1,1.7-0.1,3.8-0.7,3.5c-0.7-3.7,0.1-6.8,0-10.6c0-1.3-0.4-3-0.5-4.4
					c-0.1-2.7,0.2-6.3,0.2-9.8c0-0.9-0.2-1-0.2-1.8c0-1.7,0.3-2.8,0-4.4c-0.3-1.7-0.1-9,0-10.6c0-0.1,0.6-0.4,0.7-0.9
					c0.1-1-0.1-3.5-0.2-3.5c0,1.1-0.1,2.1-0.5,1.8c-0.7-5-0.2-12.7-0.2-16.8c0-1.3-0.4-3-0.5-4.4c0-1.1,0.3-1.2,0.2-2.7
					c-0.2-9.1,0-20.3-0.2-30.1c0-1.3-0.4-1.5-0.5-2.7c0,0.2,0.3-1.6,0.2-2.7c0-0.5-0.7-5,0.2-3.5c0.2-3.7-1.1-1.7-1-5.3
					c0.7-2.5,0.3-7.5,0.5-11.5c0.1-1.4,0.7-1.9,0.5-3.5c-1.2-0.6-0.3-5.7-0.5-8.9c-0.1-1.7-0.7-3.7-0.7-5.3c0-1.1,0.4-2.9,0.5-4.4
					c0.1-1.5,0.3-3.8,0.2-5.3c0-2.1-0.5-4.2-0.5-6.2c0-1.9,0.3-3.5,0.5-5.3c-0.3-2.2-0.7,1.6-1-0.9c0.2-2.4-0.2-5.4,0-8.9
					c0.1-1.8,0.5-2.3,0.5-4.4c0-1.3-0.2-2.9-0.2-4.4c-0.1-4.6-0.2-11.6,0-16c0.1-2.4,0.5-4.1,0.5-6.2c0-1.3-0.4-3.2-0.5-4.4
					c-0.1-1.1,0.3-2.7,0.2-4.4c0-1.5-0.5-3-0.5-4.4c0-1,0.3-2.9,0.2-4.4c0-0.4-0.3-1.1-0.2-2.7c0-1.5,0.3-2.1,0.2-3.5
					c-0.1-1.8-0.5-2.9-0.5-4.4c0-1.5,0.5-2.8,0.5-4.4c0-1.1-0.5-2.6-0.5-3.5c0-1.4,0.2-3,0.2-4.4c0-8.6-0.4-20.4-0.5-30.1
					c0-1,0.3-3.3,0.2-4.4c-0.1-2-0.5-1.6-0.5-3.5c0-1.7,0.2-2,0.2-3.5c0-1.4-0.3-3-0.2-3.5c0.1-1.6,0.5-1.8,0.5-3.5
					c0-1.4-0.4-2.3-0.5-3.5c0-0.7,0.2-5.5,0.2-7.1c-0.1-15,0.2-44.6-0.5-58.5c-0.1-1.6-0.5-3.7-0.5-5.3c0,0.1,0.5-0.8,0.5-0.9
					c0.5-2.2,0-4.3,0-6.2c0-2,0-6.1,0-8c0-2.6,0.3-5.7,0.2-8c0-0.9-0.4-2.3-0.5-3.5c0-1.1,0.3-1.2,0.2-2.7c-0.2-8.1,0-19.2-0.2-31
					c-0.1-2.6-0.1-5.6-0.2-8c-0.1-2.7-0.6-4.7-0.7-7.1c-0.3-4.5,0-8.4-0.5-10.6c-0.1-0.2-0.4,0.1-0.5,0C57-17.3,57-18.9,56.8-19
					c-0.3-0.3-0.9,1-1,0.9c-0.6-1-0.6-4.3-1.2-3.5c-0.4,0.4-1.1,3.5-1.2,6.2c-0.1,1.7,0.4,3.6,0.5,5.3c0.1,1.6-0.2,2-0.2,3.5
					c0,1.1,0.2,1.3,0.2,2.7c0,1.7-0.3,2-0.2,3.5c0,2.2,0.4,4.8,0.5,7.1c0.1,3.7-0.1,8.3,0,12.4c0.1,3.1,0.5,6.1,0.5,8.9
					c0,2.6-0.1,4.5,0,7.1c0.3,13-0.6,32.4,0,43.4c0.1,1.2,0.5,2.3,0.5,3.5c0.1,4.8-0.5,10.6-0.5,15.1c0,1.4,0.4,3.1,0.5,4.4
					c0,1.2-0.2,3.3-0.2,4.4c0,2.9,0,6.7,0,9.7c0,5.5,0.6,11.2,0.7,16.8c0,1.2-0.2,3.1-0.2,4.4c0,4.6,0.2,10,0,13.3
					c-0.1,1.6-0.4,2.8-0.5,4.4c-0.1,3,0.3,6.2,0.2,7.1c-0.1,4.1-0.9,5.1,0.2,8c0,3.1-0.8,5.2-1,8c0,0.5,0.3,2.8,0.2,4.4
					c0,0.8-0.2,3-0.5,3.5c-0.1-5.4-0.4-15.4-0.5-19.5c-0.1-5,0-11.3-0.2-15.1c-0.1-1.4-0.6-2.3-0.7-3.5c-0.1-0.9-0.2-2.2-0.2-2.7
					c-0.4-3.4,0.4-4.4,0.2-7.1c-0.1-2.5-0.8-5.1-1-8c-0.1-2,0.1-4.5,0-7.1c0-0.9-0.4-2.2-0.5-3.5c-0.1-1.3,0.1-3.2,0-4.4
					c-0.4-3.9-1.1-5.7-1.7-8.9c-0.9,0.2-0.4,2.8-1,2.7c-0.2,0-0.1-4-1-2.7c-0.7,4.3-0.3,7.9-0.2,12.4c0.1,3.3-0.1,7,0,9.8
					c0,1.3,0.4,1.5,0.5,2.7c0,1-0.2,1.8-0.2,3.5c0,2.8,0.4,5.9,0.5,8.9c0.1,2.9-0.1,5.9,0,8.9c0.1,1.7,0.4,3.4,0.5,5.3
					c0.2,5-0.2,10.6,0,16c0.1,1.7,0.4,3.5,0.5,5.3c0.1,3.8-0.1,7.8,0,11.5c0.1,2.1,0.4,3.9,0.5,6.2c0.2,6.5-0.2,13.7,0,20.4
					c0.1,6.3,0.6,16.7,0.7,22.2c0,1.6-0.2,2.7-0.2,3.5c0,0.3,0.5,2,0.5,3.5c0,1.1-0.3,1.2-0.2,2.7c0.1,1.2,0.5,2.2,0.5,3.5
					c0,0.2-0.3,1.2-0.2,2.7c0.2,6.6-0.1,15.7,0.2,22.2c0.1,1.6,0.5,2.8,0.5,4.4c0,2.2-0.4,4.7-0.5,7.1c-0.1,2.1,0.2,4.4,0.2,7.1
					c0,1.2-0.3,1.6-0.2,3.5c0.1,2.6-0.1,3.4,0,6.2c0,1.3,0.3,1.6,0.2,3.5c0,2-0.3,4.2-0.2,6.2c0,1.6,0.6,2.7,0.7,4.4
					c0,0.8-0.2,1.6-0.2,2.7c-0.3,8.6,0.1,23.5,0.2,31.9c0,1.1-0.3,1.2-0.2,2.7c0,0.2,0.4,0.6,0.5,0.9c0.4,3.3-0.5,6.5-0.5,8.9
					c0,1.9,0.4,4,0.5,6.2c0.1,3.6-0.2,7.2-0.2,11.5c0,4.6,0.5,9.8,0.5,14.2c0,1.4-0.3,3-0.2,4.4c0.1,5.6,0.4,11.4,0.5,16.8
					c0,1.4-0.2,3.2-0.2,3.5c0,1.3,0.3,1.6,0.2,3.5c-0.1,1-0.5,2-0.5,2.7c0,1.3,0.2,1.8,0.2,2.7c0,1.7-0.3,1.9-0.2,3.5
					c0.1,5.8,0.5,12.5,0.2,17.7c-0.1,1-0.5,2.4-0.5,3.5c0,0.2,0.5,2.3,0.5,2.7c0.1,1.3-0.1,3.2,0,4.4c0.2,1.5,1.1,2.4,1,4.4
					c-1.4,4.7-0.6,13.4-0.7,21.3c0,3.2-0.4,6.4-0.5,9.7c0,1.3,0.3,2.9,0.2,4.4c0,1.6-0.3,2-0.2,3.5c0.1,2.3,0.4,4.6,0.5,7.1
					c0.1,4-0.2,8-0.2,12.4c0,3.9,0.4,6.7,0.2,9.7c-0.1,1.7-0.5,2.7-0.5,4.4c0,1,0.4,3.2,0.5,4.4c0.3,5.9-0.5,14.1-0.2,17.7
					c0.1,0.9,0.5,1,0.5,1.8c0,0.5-0.4,2.5-0.5,3.5c-0.4,4.6,0,8.1,0,11.5c0,1.9-0.2,3.9-0.2,6.2c0,2.9,0.2,5.1,0,6.2
					c-0.1,0.5-0.8,0.4-1,0.9c-0.2,0.7,0,2.8-0.2,3.5c-0.1,0.3-0.4-0.3-0.5,0c-0.6,2.5-1,4.4-1.2,6.2c-0.2,1.7-0.7,3.6-0.7,4.4
					c-0.1,1,0.1,2.6,0,3.5c-0.2,2-0.6,2.6-0.7,4.4c-0.1,1.4,0.1,3,0,4.4c-0.1,1.7-0.4,2.2-0.5,3.5c-0.2,4-0.1,4.2-0.5,6.2
					c-0.2,1-0.3,1.9-0.5,2.7c-0.4,1.4-1,0-1.4,0.9c-0.4,0.8-1.3,4.9-1.4,6.2c-0.1,1.2,0.3,1.5,0.2,4.4c0,1.3-0.3,1.6-0.2,3.5
					c0,1.9,0.4,3.9,0.5,6.2c0.2,5.7,0.2,14.1,0,20.4c0,1.2-0.4,1.8-0.5,2.7c-0.1,1.5,0.1,3.4,0,5.3c-0.1,1.8-0.4,3.1-0.5,4.4
					c-0.1,1.9,0.1,3.7,0,5.3c-0.1,2-0.4,3.4-0.5,5.3c-0.1,3.7,0.1,7,0,10.6c-0.1,3.3-0.6,6.5-0.7,9.8c-0.1,1.8,0.1,4,0,5.3
					c-0.1,1.8-0.4,2.9-0.5,4.4c-0.1,4.1,0.1,7.9,0,11.5c0,1.7-0.4,3-0.5,4.4c-0.1,2.6-0.2,7.7-0.2,8c0,0.8,0.3,1.2,0.2,1.8
					c-0.1,1.6-0.4,3-0.5,4.4c-0.3,4.2,0.1,6.7,0,9.7c-0.1,1.9-0.5,2.9-0.5,4.4c0,2.4,1.1,5.5,0,7.1c-1.3-2.6-0.5-9-0.5-14.2
					c0-3.1-0.3-5.7-0.2-8.9c0-1.5,0.3-3,0.2-4.4c-0.1-3.8-0.8-9.1-0.7-12.4c0-1.8,0.5-3.3,0.5-5.3c0-6-0.5-12.1-0.5-17.7
					c0-3.4,0.5-6.6,0.5-9.7c0-0.7-0.4-2.8-0.5-3.5c-0.1-2.9-0.2-7.9,0-10.6c0-0.9,0.5-2.5,0.5-3.6c0-1-0.6-1.7-0.7-2.7
					c0,0.6,0.2-0.8,0.2-0.9c0.3-3.1-0.4-5.7-0.5-7.1c-0.3-9.1,0-19.2,0-29.3c0-4.3-0.4-8.1-0.2-12.4c0.1-1.5,0.2-2.9,0.2-4.4
					c0-3-0.4-5.6-0.5-8.9c0-1.3,0.2-3.1,0.2-4.4c0-2.9-0.2-6.2-0.2-9.7c0-1.7,0.3-2,0.2-3.5c0-0.4-0.3-1.9-0.2-3.5
					c0-1.5,0.3-3,0.2-4.4c-0.1-3.3-0.5-5.9-0.5-8.9c0-2,0.4-4,0.5-6.2c0.3-5.9,0.2-12.3,0.2-16.8c0-1.7-0.3-2-0.2-3.5
					c0.1-4.5,0.6-8.7,0.5-12.4c-0.1-1.5-0.5-3.1-0.5-4.4c0-1.2,0.5-3.2,0.5-4.4c0-1.7-0.3-3.5-0.2-5.3c0-1.9,0.4-4,0.5-6.2
					c0.3-8.9-0.1-16.8,0.2-24.8c0.1-2.1,0.1-5.5,0.2-8c0.1-1.4,0.4-3,0.5-4.4c0.1-1.1-0.1-2.4,0-3.5c0.1-1.5,0.4-3.1,0.5-4.4
					c0.3-6.2,0.7-13.9,1-19.5c0.3-7.5,0.1-11-0.5-16c-1.8-0.2-2.7,3.1-3.8,0.9c0-3.4,0.2-6.3,0.5-8.9c0.7-0.6,0.5-0.6,1.2,0
					c0.4-4.5,1.7-8.9,1.4-15.1c0-1.2-0.4-1.7-0.5-2.7c-0.1-1.2,0-2.6-0.2-3.5c-0.4-2-1.2-1.2-1.4-1.8c-1.2-2.9-0.7-7-0.7-11.5
					c0-1.8-0.2-5.8-0.2-6.2c-0.1-0.3-2-3.6-1.9-3.5c-0.9-1.1-1.6-0.1-1.9,0c-0.3,0.1-0.3-1-0.7-0.9c-0.6,0.2-1.2,1.5-1.7,0
					c-0.3,3.3-1.4,5.7-1.7,9.7c-0.1,1.1,0.3,4,0.2,7.1c0,3.2-0.1,4.2,0.2,7.1c0.2,1.7,0.4,2.8,0.5,4.4c0.1,2.7-0.1,5.4,0,7.1
					c0.2,2.4,0.9,4,1,6.2c0,0.5-0.3,3-0.2,4.4c0.1,2.9,0.1,5.1,0,8c-0.1,4.9,0.3,9.5,0.2,13.3c0,1.9-0.3,3.4-0.2,5.3
					c0.1,2,0.5,3.7,0.5,5.3c0,3.2-0.5,4.4-0.5,5.3c0,1.7,0.4,3.1,0.5,5.3c0.3,4.6-0.1,8.6,0,11.5c0,1.3,0.4,3.1,0.5,5.3
					c0,0.1-0.1,4.6,0,6.2c0.1,1.4,0.6,2.2,0.7,3.5c0.1,1.2-0.3,2.8-0.2,4.4c0,2.7,0.6,4.5,0.5,7.1c-0.2,2.2-1.1,2-1,5.3
					c0.3,2.7,0.6-0.1,1,1.8c0,1.9-0.4,2.6-0.5,4.4c0,1,0.3,1.3,0.2,2.7c0,1.1-0.3,1.3-0.2,2.7c0.1,1.6,0.5,1.9,0.5,3.5
					c0,1.6-0.4,3.3-0.5,4.4c-0.3,5.8,0.4,9,0.5,12.4c0.1,3.3-0.5,4.4-0.5,5.3c0,1.9,0.5,3.4,0.5,5.3c0,1.8-0.5,4.1-0.5,6.2
					c0,1.3,0.2,7.3,0.2,8.9c0.1,2,0.5,3.8,0.5,5.3c0,0.1-0.4,2.2-0.5,2.7c-0.6,6.1,0.1,12.3,0,19.5c0,3.3-0.4,6.1-0.2,8.9
					c0.1,1.8,0.5,3.4,0.5,5.3c0,6.2-0.9,12.8-0.5,20.4c0.1,1.8,0.5,2.7,0.5,4.4c0,1-0.4,1.9-0.5,3.6c0,1.2,0.3,3.5,0.2,4.4
					c-0.1,3,0,5.9,0,8.9c0,4.8-0.3,9,0,13.3c0.6,0.3,1,0.6,1,5.3c-0.5,1.6-0.2,1.6-1,0.9c-0.4,7.9,1.2,8.8,1.2,15.1
					c-0.5,1.2-1.9,3.7-1,7.1c0-1.7,0.2-3,0.5-3.5c0.9,5.2-0.6,8.3-1,11.5c1,4.1-0.1,10.1,0.2,15.1c0.1,1.2,0.5,2.2,0.5,3.6
					c0.1,4.7-0.4,9.5-0.2,15.1c0.1,3.5,0,5.5,0,8c0,1.7,0.3,2,0.2,3.5c0,1.1-0.3,1.3-0.2,2.7c0.1,2.4,0.7,3.9,0.7,6.2
					c0,1.2-0.2,3.2-0.2,4.4c-0.1,2.8,0.2,5.3,0.2,8c0,4-0.3,8.9-0.2,10.6c0,1.1,0.5,2.3,0.5,3.5c0,1.9-0.3,3.9-0.2,6.2
					c0,1.2,0.2,3.1,0.2,4.4c0,2.7-0.3,5-0.2,8c0.1,3.5-0.1,5.7,0,8.9c0,1.7,0.4,2.7,0.5,4.4c0.4,7.5-0.4,15.4,0,22.2
					c0.1,1.1,0.4,2.2,0.5,3.5c0,1.6-0.2,3.9-0.2,5.3c0,4.6,0.5,9,0.5,13.3c0,1.5-0.2,2.9-0.2,4.4c0,1.4,0.2,2.8,0.2,4.4
					c0,2.6-0.3,5.4-0.2,8c0,3.5,0.4,9.9,0.5,15.1c0,2.2-0.3,4.5-0.2,5.3c0.2,2,0.7,1.3,0.7,3.5c0,1.3-0.4,2.7-0.5,4.4
					c-0.5,8.3,0.2,13.8,0.2,23c0,4.4-0.3,8.5-0.2,13.3c0.1,8.3-0.1,19.3,0.2,23c0.1,1.3,0.9,2,0.7,3.5c-0.5-0.4-0.6,1.1-0.7,2.7
					c0-0.5,0,4.5,0,3.5c0.1,3.1,0.7,3.7,0.7,6.2c0,2-0.7,3.9-0.7,6.2c0,1.1,0.2,4.3,0.2,6.2c0.1,1.3,0.2,1.6,0.2,3.5
					c0,1.6-0.4,1.9-0.5,3.5c-0.1,1.6,0.2,4.5,0.2,7.1c0.2,10.5-0.3,24.2,0.2,35.5c0.1,1.7,0.4,3.5,0.5,5.3c0,0.9-0.2,1.5-0.2,2.7
					c-0.3,7.2,0.7,11.6,0.2,16.8c-0.1,1.4-0.4,2.1-0.5,3.5c-0.1,2.8,0.2,7.3,0.2,8c0,0.3-0.3,1.2-0.2,2.7c0.1,1.9,0.5,4.1,0.5,6.2
					c0,2.5-0.3,5.9-0.2,8c0.1,3.9,1.1,6.9,0.7,10.6c-0.6,0.3-0.3-2.6-0.7-2.7c0.2,4.5-0.3,6.4-0.2,10.6c0.1,1.2,0.9,0.1,1,1.8
					c0.3,4.7-0.3,8.6-0.2,13.3c0,3.2,0.6,8.8,0.5,11.5c-0.1,1.9-0.7,4-0.7,6.2c0,1.4,0.4,2.8,0.5,4.4c0.1,3,0.3,13.4,0.2,14.2
					c-0.1,1.6-1,2.4-1,4.4c0.3,0.1,0.7-0.2,0.7,0.9c-1,5.5-0.6,16.2-1,23.9c0.2,3.2,1.1-1.3,1,3.5c-0.1,1.9-0.6-1.3-1,0.9
					C35.5,1216.9,34.8,1219.2,34.8,1222z M19.2,853.3c-0.9-1.1-0.9-5.5-0.2-6.2C19.5,846.4,20.1,850.6,19.2,853.3z M18.9,871
					c0.9-0.4,1.3,5.9,0.7,8C18.5,877.8,19.4,873.8,18.9,871z M20.8,948.1c0-3,0-5.9,0-8.9c0.5-1,0.8,5.3,0.7,6.2
					C21.5,947.2,21.2,948.7,20.8,948.1z M25.6,1136.9c0-2.2,0-4.3,0.2-5.3C26.5,1131.3,26.8,1138.6,25.6,1136.9z M28,1280.6
					c0-1.5,0-3,0-4.4C28.8,1274.8,28.8,1281.9,28,1280.6z M29.5,1252.2c-0.1,1.8,0.4,6.2-0.5,5.3
					C28.8,1255.3,28.6,1252.4,29.5,1252.2z M29.5,1190.1c0.9,0.6,1.4,3,1,6.2C29.8,1195.6,29.4,1193.8,29.5,1190.1z M33.3,1373.6
					c0-2.1,0-4.1,0-6.2c0.2,0,0.3,0,0.5,0c0,2.1,0,4.1,0,6.2C33.6,1373.6,33.5,1373.6,33.3,1373.6z M34.3,1347c0.2,0,0.5,0,0.7,0
					c0.1,2.1,0,3.4-0.2,4.4C34.4,1350.7,34.2,1349.2,34.3,1347z M35.7,1351.5c1.3,1.6,0.9,10.7,1.4,15.1c-0.4,0.1-0.5-1.1-1-0.9
					c-0.6-0.4,0.1,4-0.7,2.7C35.4,1363,35.2,1357.5,35.7,1351.5z M37.2,1386.9c0.3,0.5,0.1,2.6,0,4.4c-0.1,1.7,0.3,5.2-0.5,4.4
					C36.5,1393.6,35.9,1386.5,37.2,1386.9z M37.9,1296.5c0.9-0.8,0.4,3.8,0.2,4.4C37.7,1301.4,37.3,1296.9,37.9,1296.5z M38.8,786.8
					c1,0.2,0.9,5.3,1,8c0,0.7-0.3,0.9-0.2,1.8c0,1.3,0.2,1.6,0.2,2.7c0,2.4-0.3,5.1,0,8.9c-0.7,1.8-0.3-2.5-0.5-3.5
					c0-0.2-0.5,0.2-0.5,0c-0.1-1.6,0.2-3.4,0.2-5.3C39.1,795.4,38.6,791,38.8,786.8z M40,1293.9C41.1,1299.1,38.1,1298.8,40,1293.9
					L40,1293.9z M40,1187.5c0.8,2.8,1.4,9.9,1,15.1c0,0.4-0.9-0.4-1,0c-0.1,0.5,0.1,7.8-0.5,4.4c-0.6-1.3,0.2-2.4,0.2-4.4
					C40,1197.8,39.5,1191.2,40,1187.5z M39.8,1218.5c0.5-0.4,0.6,0.6,1,0.9c0-2.3-0.6-2-0.7-4.4c-0.1-1.4,0.3-4.5,0.5-6.2
					c0.9-0.2,0.6,4.6,0.7,6.2c0.3,2.8,0,8.5,0.2,12.4c0.1,1.2,0,3.9,0.7,3.5c0.1,2.8-0.6,2.3-0.7,4.4c-0.3,2.5,0.4,2.6,0.5,4.4
					c0.1,2.6-0.5,5.6-0.5,8c0.1,4.7,1,8.4,1.2,13.3c0.2,4.4-0.5,7.1-0.5,11.5c0,1.9,0.4,3.5,0.5,5.3c0.1,2-0.2,2.3-0.2,3.5
					c0,1.4,0.2,1.5,0.2,2.7c0,1.7-0.3,2.5-0.2,3.5c0,1.9,0.4,3.7,0.5,5.3c0.1,2.2,0,4.1,0.2,6.2c0.1,1,0.4,2.6,0.5,3.5
					c0.1,1.6-0.1,3.4,0,5.3c0,1.4,0.3,2.1,0.2,3.5c-0.1,2.2-0.4,1.7-0.7,3.5c0.6,2.7,0.4,5.9,0.7,7.1c0.1,0.5,0.4,2.7,0.2,5.3
					c-1.2-1.2-0.8,1.5-1.4,4.4c-0.4,1.8-0.6,1.7-0.7,2.7c-0.3,4,0.9,9.5-0.2,12.4c-1.1-0.4-0.3-4.2-0.2-6.2c0-2.8-0.1-6.7,0-9.7
					c0.1-2.9,0.6-3.1,0.5-8c0-1.4-0.6-2-0.7-3.5c-0.2-2.1,0.1-4.6,0-8c-0.1-5.1-0.4-11.4-0.2-15.1c0.1-1.4,0.5-3,0.5-4.4
					c0-2.5-0.9-4.6-1-7.1c0,0.5,0.4-1.6,0.5-3.5c0-2.2-0.2-3.8-0.2-6.2c0-1.9,0.3-2.3,0.2-3.5c-0.1-6.3,0.1-17.5-0.2-27.5
					c0-1.6-0.4-3-0.5-4.4c-0.3-3.8-0.1-8.4-0.2-12.4C40,1224.2,39.6,1221.6,39.8,1218.5z M39.8,1168c0.7-0.6,1,5.1,0.5,6.2
					C39.4,1174.9,40,1170,39.8,1168z M41,1349.7c0.8-0.7,0.5,1.3,0.5,3.5c0,1.5,0.3,6.3-0.5,5.3C40.7,1356,41.2,1354,41,1349.7z
					 M42,941c0.4-2.8-0.4-4.7-0.5-7.1c0-1.4,0.4-2.4,0.5-4.4c0.1-1.9-0.2-2.3-0.2-3.5c0-1.6,0.5-2.9,0.5-3.5c0-1.7-0.6-4.5-0.7-7.1
					c0-0.8,0.3-2.9,0.2-4.4c-0.1-0.9-0.6-0.7-0.5-2.7c0.1-1.3,0.7-2.3,0.7-3.5c0-2.6-0.5-5.4-0.5-8c0-1.8,0.6-2,0.7-3.5
					c0.2-1.8-0.3-2.4-0.2-3.5c0-0.8,0.4-0.9,0.5-2.7c0.1-3.2-0.4-3.9-0.5-6.2c0-1.5,0.1-7.8,0.2-11.5c0.1-1.7,0.4-1.9,0.5-2.7
					c0.1-2.1-0.3-2.9,0-6.2c0.3-3.5,0.8-7.7,0.7-13.3c0-0.7-0.3-1-0.2-1.8c0.1-1.5,0.2-1.2-0.5-2.7c-0.4-1.9,0.6-1.9,0.7-3.5
					c0.1-1.6-0.3-2.7-0.2-4.4c0-1.6,0.4-2.6,0.5-4.4c0.2-3.3-0.1-7.9,0-10.6c0.1-2,0.7-4.4,0.7-6.2c0.1-2.3-0.3-4.8-0.2-7.1
					c0-1.7,0.4-1.9,0.5-3.5c0.1-1.9-0.3-2.4-0.2-3.6c0-0.8,0.4-1.5,0.5-2.7c0.2-5.4-0.1-11,0-16.8c0-2.7,0.5-6.2,0.5-8.9
					c0-2.4-0.3-5.1,0-8.9c0.1-1,0.4-2.4,0.5-3.5c0.1-2-0.2-2.3-0.2-3.6c0-1.8,0.3-8,0.5-11.5c1.2,2,1.2,5.1,1,8.9
					c-0.1,1.3-0.5,2.5-0.5,3.5c0,2.7-0.1,5.3,0,8c0.1,2.3,0.7,4.6,0.7,7.1c0,0.8-0.5,3-0.5,3.5c-0.4,8.1,0.5,23.5,0.5,33.7
					c0,3.9-0.4,5.6,0,8.9c0.2,1.6,0.3,1.6,0.5,2.7c0.3,1.7,0.7,6,0.5,10.6c-0.1,1.9-0.7,3.2-0.7,5.3c0,1.9,0.4,3.4,0.5,5.3
					c0.1,2.3-0.2,5.1-0.2,8c0,3.2,0.1,7.3,0.2,10.6c0.1,4,0.6,6.8,0.2,11.5c0.1,1.8,0.9,0.8,1,2.7c0.6,4.2-0.3,4.3-0.5,7.1
					c-0.1,1.8-0.2,6.4-0.2,9.8c0,1.5,0.3,2.9,0.2,4.4c0,1.6-0.5,3.8-0.5,5.3c0,2.2,0.4,5.2,0.5,8c0.2,7.9-0.1,16,0.2,18.6
					c0.2,1.3,0.9,1.9,1,3.5c-0.3,4.3-1.2,7.1-0.7,13.3c0.1,1.3,0.4,2.3,0.5,3.5c0.1,1.5-0.2,2.4-0.2,4.4c0,2.4,0.5,8.6,0.2,14.2
					c-0.1,1.4-0.5,3.1-0.5,4.4c0,1.6,0.4,2.9,0.5,4.4c0.1,2.3,0,5.4-0.2,7.1c-0.5,3.7,0.1,11.3,0,17.7c-0.1,4.5-0.4,12.8-0.2,20.4
					c-0.5,1.5-0.3-0.1-1,0c-0.1,2.8,0.4,2.7,0,4.4c0.4,1.3,1.1,1.3,1,4.4c-0.5,0.5-0.3-1.7-0.7-1.8c-0.6,1.5-0.1,6.8-0.2,9.8
					c0,2.2,0.8,0.2,0.7-0.9c0.5,1.2,0.1,6.2,0.2,8.9c-0.3,0.9-0.9,0.9-1.2,1.8c-0.3,1.6,0.5,1.5,0.5,1.8c0,1.2-0.4,2.3-0.5,3.5
					c-0.1,1.7,0,3.9,0,5.3c0,1.8,0.4,2.7,0.5,4.4c0.1,1.4,0.3,7.7,0.2,8.9c0,0.7-0.3,0.9-0.2,1.8c0.1,2.6,0.5,4.2,0.5,6.2
					c0,4.3-0.4,8.7-0.5,13.3c0,2.8,0.4,6.6,0,8.9c-0.5,2.7,0.1,2.8,0.2,6.2c0,0.6-0.3,2.1-0.2,3.5c0,1.3,0.2,1.6,0.2,2.7
					c0,4.4-0.6,8.9-0.7,13.3c0,1.3,0.2,3.1,0.2,4.4c0,4.4-0.2,14.4-0.2,19.5c0,5.6,0.1,13.1,0,17.7c0,3.2-0.4,1.5-0.7,2.7
					c-0.2,2.8,0.4,5.1,0.5,8c0,1.4-0.5,3-0.5,4.4c0,2.4,0.5,5.3,0.5,8c0,1.9-0.4,1.3-0.5,3.5c0-0.4,0.3,4.5,0.2,5.3
					c0-0.2-0.4,5.2-1,4.4c-0.1-2.4-0.3-4.3-0.2-7.1c0-0.9,0.3-3.3,0.2-4.4c-0.1-2.2-0.7-3.8-0.7-6.2c0-0.5,0.5-1.7,0.5-2.7
					c0-2-0.4-4-0.5-6.2c-0.1-3.3,0.2-6.9,0-10.6c-0.1-2.9-0.6-5.9-0.7-8.9c0-1.1,0.2-3.5,0.2-4.4c0.1-8.3-0.6-17.5-0.7-24.8
					c0-1.3,0.2-2.9,0.2-4.4c0-1.8-0.5-3.3-0.5-4.4c0-1.6,0.5-3.1,0.5-4.4c0-1.6-0.3-3.7-0.2-5.3c0.1-2.2,0.5-4.3,0.7-6.2
					c-0.1-3.5-0.7,0.7-1-1.8c0.4-5.2-0.4-10.3-0.5-15.1c0-1.4,0.5-3,0.5-4.4c0-1.6-0.5-4.1-0.5-6.2c0-0.7,0.5-3,0.5-3.5
					c0-1.6-0.4-3.6-0.5-5.3c-0.1-3.5,0.1-7.1,0-10.6c-0.1-1.9-0.4-4-0.5-6.2c-0.1-2.5,0.1-5.1,0-7.1c-0.1-1.6-0.6-2.2-0.7-3.5
					c-0.5-4.9,0.1-9.5,0-15.1c0-1.4-0.4-2.9-0.5-4.4c0-1.3,0.3-3.1,0.2-4.4c-0.1-2-0.5-3.2-0.5-5.3c0-2.4,0.2-4.5,0.2-7.1
					c0-1.2-0.2-3-0.2-4.4c0-1.8,0.5-2,0.5-2.7c0-1.5-0.5-2.4-0.5-3.5c0-0.8,0.5-0.9,0.5-2.7c0-4.5-0.2-9.6-1-11.5
					c0.4-3,0.4-5.5,0-10.6c-0.1-1.6-0.4-3.2-0.5-4.4c-0.1-1.6,0.2-3.1,0.2-5.3c0-3-0.1-4.6,0-7.1c0.2-3,0.7,0.3,0.2-2.7
					c-0.1-0.5-0.4-4.8-0.2-7.1C41.2,938.5,41.4,941.6,42,941z M43.4,1618.3c0.7,1.5,0.2,2.3,0.2,5.3
					C43,1623.6,43.1,1619.4,43.4,1618.3z M44.8,1331.1c-0.4,5,0.8,10.9-0.5,11.5C44.1,1340.3,43.6,1330.7,44.8,1331.1z M44.8,1647.5
					c0.3,0.7,0.8,2,1,3.5c0.2,1.9-0.3,2.3-0.2,3.5c0,3.4,0.8,8.1,0.2,10.6c-1.2,0.1-0.7-3.6-0.7-7.1
					C45.1,1654.2,44.3,1650,44.8,1647.5z M45.3,1371.9c1,0.9,0.9,7.4,1,10.6c0.1,5.3-0.5,10.9,0,15.1c0.2,1.4,0.2,4.1,0.2,6.2
					c0,1.6-0.3,2.7-0.2,3.5c0.1,1.8,0.6,3.3,0.7,5.3c0.3,8.5-0.3,15.6-1,21.3c-0.4,3.2,0.8,0.5,0.7,2.7c0.2,2.7-0.4,2.6-0.2,5.3
					c-1.7-2-1.2-8.6-1.2-13.3c0-3.7-0.1-8.6,0-13.3c0-1.1,0.2-3.7,0.2-3.5c0-1.8-0.6-3.9-0.7-5.3c-0.1-1.7,0.2-3.2,0.2-3.6
					c0-0.8-0.3-1.4-0.2-2.7c0.1-3,0.3-5.3,0.2-8c0-0.3-0.5-1.7-0.5-1.8c0-0.8,0.2-0.8,0.2-0.9C44.8,1383.3,44.3,1376.4,45.3,1371.9z
					 M46.3,1671.5c0.2,4.8,0.7,10.5,0,14.2C45.8,1682.9,45,1672.6,46.3,1671.5z M45.8,1470.3c0.9-1.2,0.7,2.9,0.7,5.3
					c0.1,2.6-0.1,5.7,0,8c0.1,2.8,0.8,5.8,1,8.9c0.2,3.5,0.2,17.2-0.2,18.6c-0.2,0.5-0.3,3.2-0.2,3.5c0.1,2.7,0.7,2.6,0.7,4.4
					c0.1,1.5-0.2,2.9-0.2,4.4c0,4.7,0.2,10,0.2,14.2c0,4,0.7,9.6-0.7,10.6c0.3-5.5-0.2-10.5-0.2-16c0-2.1,0.3-4,0.2-6.2
					c0-1.6-0.5-3.6-0.5-5.3c0-1,0.5-2.5,0.5-3.5c0-0.7-0.7-2-0.7-3.5c-0.2-4.9,0.2-11.3,0-17.7c-0.1-2.5-0.4-4.8-0.5-7.1
					c-0.1-4.2,0-8.3,0-11.5c0-1.6,0.3-3.3,0.2-4.4C46,1471.9,45,1471.5,45.8,1470.3z M46.5,1687.4c0.1,5,0.7,11.6,0.7,18.6
					c0,1.7,0,9.7-0.7,9.7c-0.5-1.2,0-2.8,0-4.4c0-3-0.3-7.1-0.2-10.6c0-1.4,0.3-3.3,0.2-4.4C46.5,1694.3,44.8,1689.2,46.5,1687.4z
					 M47,1717.6c1.1-0.3,0.4,4.4,0.5,7.1c0.1,3.1,0.5,6.9,0.5,9.7c0,1.4-0.5,2.5-0.5,2.7c0.1,4.5,1.2,8.8,0.5,13.3
					c-0.9-2.1-0.5-6.4-0.5-8.9c0-1.4-0.2-1.5-0.2-2.7c-0.1-1.8,0.3-2.4,0.2-3.5c0-0.5-0.7-1.3-0.7-1.8c-0.1-1.9,0.2-2.3,0.2-3.5
					c0-1.6-0.2-2.6-0.2-4.4C46.8,1723.1,47.3,1720.3,47,1717.6z M47,1206.1c0.8-0.1,1.2,7.6,0,7.1
					C46.8,1211.2,46.5,1207.8,47,1206.1z M47.5,1556.2c0.7,1.2,0.4,6.1,0.5,9.7C47,1565.9,46.8,1557.1,47.5,1556.2z M47.7,1550
					c0.1,2.1,0.5,3.7,0,5.3C46.9,1555.7,46.6,1549.4,47.7,1550z M47.5,1573.1c1.2,0.8,0.5,4,0.5,7.1
					C47.2,1580,47.6,1575.8,47.5,1573.1z M47.7,1566.9c0.4,0.8,0.6,3.1,0.2,4.4C47.4,1571.2,47.4,1568,47.7,1566.9z M48.2,1757.5
					c0.6,3,0.3,9.1,0.5,14.2c0.1,3.1,0.9,5.7,0.2,8c-0.4,0.2-0.4-0.8-0.7-0.9C47.6,1771.8,48.2,1762.8,48.2,1757.5z M49.6,1815.1
					c1-0.3,0.6,3.2,0.5,5.3C49.5,1820.3,49.6,1817.4,49.6,1815.1z M51.8,217.7c0.1-3.3-0.2-7.8,0.2-9.8
					C52.8,208.4,52.9,218.5,51.8,217.7z M53,770.9c0.1-1.8-0.4-6.2,0.5-5.3C53.3,767.4,53.9,771.7,53,770.9z M53,289.5
					c0.5,0.6,1.2,0.8,1.7,1.8C54.6,294.2,52.5,293.9,53,289.5z M53.5,743.4c-0.7-1.2,0.2-3.9,0.2-5.3
					C54.4,739.3,53.7,742.4,53.5,743.4z M53.5,722.1c0.9-0.3,0.3,4.7,0.7,6.2c-0.2,0.6-0.2,2-0.7,1.8
					C53,727.8,54.1,725.1,53.5,722.1z M53.5,704.4c1-0.3,0.6,3.2,0.5,5.3C53.5,708.9,53.4,706.9,53.5,704.4z M53.5,697.3
					c1-0.1,0.6,2.3,0.5,4.4C53.4,701.6,53.4,699.5,53.5,697.3z M53.5,668c0-1.2,0-2.4,0-3.5C54.4,663.8,54.4,668.7,53.5,668z
					 M54.7,1421.5c0,2.2,0,4.3-0.2,5.3C53.8,1425.9,53.3,1420.4,54.7,1421.5z M53.7,396.8c0.8-0.3,1.3,2.4,0.7,4.4
					C54,400.4,53.6,399.6,53.7,396.8z M54.7,1405.5c-0.3,5.7,0.9,10.7,0.5,14.2c-0.7,1-0.9-5.4-1-8
					C54.2,1412,53.4,1404.6,54.7,1405.5z M54.4,1390.5c0.5,4.3,0.3,6,0.5,11.5C53.6,1401.6,53.8,1393,54.4,1390.5z M54,616.6
					c0-1.5,0-3,0-4.4C54.9,611.3,54.9,617.5,54,616.6z M54.7,532.4c0.2,2.7-0.2,3.2-0.2,5.3C53.7,537.7,53.7,531.4,54.7,532.4z
					 M54.2,447.3c0.9-0.9,0.4,3.8,0.2,4.4C54,452.2,53.7,447.7,54.2,447.3z M54.2,437.5c1.1,0.1,0.1,4,0.2,6.2
					C53.8,444.1,53.7,438.2,54.2,437.5z M54.2,418c0.9-0.9,0.4,3.8,0.2,4.4C54,422.9,53.7,418.4,54.2,418z M54,390.6
					c0-1.4-0.1-3.4,0.2-3.5C55,386.1,54.8,392.5,54,390.6z M54.2,497.8c0-1.5,0-3,0-4.4C54.8,494.1,55.3,498.2,54.2,497.8z
					 M54.4,202.6c-0.1-3,0.1-5.1,1-4.4C55.7,199.5,55.5,203.9,54.4,202.6z M55.2,192c0.1,2.1,0.4,4.1-0.5,4.4
					C54.3,195.1,54.3,191.4,55.2,192z M54.7,238.1c1-5.7,0-12.7,0.5-17.7c0.9,0.4,1,4,1,6.2c0,3.3-0.7,5.4-0.2,9.8
					C55.4,236.7,55.3,238.2,54.7,238.1z M54.9,215.1c-0.2-2.5,0.3-2.3,0.2-4.4c0.7-0.1,0.7,2.2,0.7,4.4
					C55.4,213.6,55.6,215.1,54.9,215.1z M55.2,175.2c0.8-0.8,0.4,2.7,0.5,4.4c0.1,2.8,0.5,7.3-0.5,7.1
					C54.7,183.2,55.4,180.2,55.2,175.2z M55.2,1702.5c0.9-0.7,1.2,1,1.2,3.5C55.9,1707.7,55.2,1705,55.2,1702.5z M55.9,283.3
					c0.4,5,1.5,11.2,0.7,17.7c-0.7,0.6-0.6-2.7-0.7-4.4C55.6,292.9,55.4,289.2,55.9,283.3z M55.6,1593.5c0.2-3.9-0.3-10,0.2-12.4
					c0.5-0.9,0.8,7.3,0.7,8.9C56.5,1591.6,56.2,1593.9,55.6,1593.5z M55.9,354.2c0.7,0,0.6,4.2,0.2,5.3
					C55.7,358.8,55.5,355.6,55.9,354.2z M55.6,263.8c1-0.8,0.8,4.8,0.5,6.2C55.4,269.9,55.7,266.3,55.6,263.8z M56.8,399.4
					C57.1,408.8,54.8,400,56.8,399.4L56.8,399.4z M56.4,309.9c1.3,1.5,0.1,8.2,0.2,11.5c0.1,1.8,0.7,3.1,0.7,4.4
					c0,0.8-0.4,2.3-0.5,3.5c-0.1,1.9,0.1,3.6-0.2,4.4c-1.1-2.5-0.2-7.8-0.2-11.5c0-0.9-0.5-2.7-0.5-3.5
					C55.9,316.1,56.2,312.5,56.4,309.9z M56.4,1745.9c0.6,0.1,0.6,3.3,0.2,4.4C56.2,1749.6,56,1747.3,56.4,1745.9z M56.4,1621.8
					c0.6-0.5,0.9,6.9,0,6.2C56,1626.9,56,1623,56.4,1621.8z M56.4,1603.2c0.8,0.3,0.3,4.5,0.5,7.1c0.3,4.5,0.6,4.1,0,8
					c-0.2,1,0,2.1-0.5,1.8C56,1614.5,56.2,1608,56.4,1603.2z M56.4,334.7c0.5,0.6,0.6,2.4,0.7,4.4C56.6,338.5,55.7,337,56.4,334.7z
					 M56.4,431.3c0-1.2,0-2.4,0-3.5C57.6,426.6,57.6,432.5,56.4,431.3z M56.6,1672.4c0.6-1.2,1.9,1.4,2.9,1.8
					c-0.4,2.9,0.4,5.8,0.5,8.9c0,1.8-0.4,3.1-0.5,5.3c0,1.5,0.2,3.1,0.2,5.3c0,1.7-0.3,4.2-0.2,5.3c0,1.8,0.4,2.6,0.5,4.4
					c0.1,2.4-0.1,6.7,0,9.8c0,1.9,0.3,4.4,0.2,5.3c-0.1,2.2-0.7,4.8-0.7,7.1c0,2.4,0.6,3.4,0.7,6.2c0,0.4-0.5,1.8-0.5,2.7
					c0,1.1,0.2,3.6,0.2,5.3c0,1.9,0,4,0,5.3c0.2,5.6,0.9,9-0.5,13.3c1,9.1,0.2,19.5-0.7,27.5c0-1.9-0.9-3.4-1-5.3
					c-0.1-1.5,0.4-4.9,0.5-6.2c0.1-3.4-0.4-6-0.5-9.7c0-1.8,0.3-4,0.2-6.2c-0.1-6.7,0-17.9-0.2-26.6c-0.1-4.3-0.7-12.1-0.7-18.6
					c0-2.3,0.3-4.8,0.2-7.1c-0.1-3-0.6-5.6-0.7-8.9c0-1.8,0.3-3.4,0.2-5.3C56.7,1685.1,56.7,1678.6,56.6,1672.4z M57.3,1084.6
					c0.2,2.9,0.3,5.6,0,8.9C56.5,1093.6,56.1,1084.2,57.3,1084.6z M56.8,1076.7c0.9-0.7,0.9,4.2,0,3.5
					C56.4,1078.5,56.9,1079.1,56.8,1076.7z M57.3,1003.1c0.4,1.8,0,1.1,0,3.5C56.4,1007.3,56.4,1002.4,57.3,1003.1z M57.3,573.2
					c-0.3,4.7,0.5,5.3,0.5,8.9C57.3,580.6,55.8,574.1,57.3,573.2z M56.8,382.6c-0.7-0.8,0.1-2.8,0-4.4
					C57.6,378.6,57.3,382,56.8,382.6z M56.8,355.1c0.5-0.5,0.9,6.1,0,5.3C56.5,359.3,56.5,356.2,56.8,355.1z M56.8,1427.7
					c0.1-1.8-0.4-6.2,0.5-5.3C57.2,1424.2,57.7,1428.5,56.8,1427.7z M57.8,234.5c0.2,0,0.5,0,0.7,0c0.1,1.9-0.2,2.4-0.2,3.5
					C57.9,237.9,57.7,236.6,57.8,234.5z M59,517.3c1.6,0.7,0.7,9.5,0.5,16c0,1.5,0.2,1.5,0.2,2.7c0,0.2-0.2,1.6-0.2,2.7
					c0,3.6,0.2,7.1,0,9.8c-0.1,0.7-0.7,0.9-0.5,2.7c-0.2,0-0.5,0-0.7,0c-0.2-1.7-0.1-2.7,0-4.4c0.1-1.9,0.7-3.4,0.7-5.3
					c0.1-2.2-0.4-7.1-0.2-11.5C58.9,526.2,59,521.8,59,517.3z M59.5,508.5c0.4,1.5,0.3,6.2-0.5,6.2C58.8,512.6,58.4,508,59.5,508.5z
					 M59.2,254.1c0.3,2.3,0.9,3.8,0.7,8C58.8,261.6,58.5,256.7,59.2,254.1z M59,496.9c0-1.5,0-3,0-4.4C60,491.6,60,497.8,59,496.9z
					 M59,311.7c-0.3-3.3,0.5-2.9,0.7-4.4C60.3,308.2,59.8,312.8,59,311.7z M59.2,1211.4c0.6-0.3,0.8,1.2,0.7,3.5
					C59.3,1215.2,59.2,1213.7,59.2,1211.4z M59.5,405.6c0-4.3,1.1-4.8,1-9.7c1.2-0.4,0.4,4,0.5,6.2c0,3,0.6,6.1,0,8
					c-0.4-1.3-0.5-3.5-0.5-6.2C59.7,402.8,60.3,406.7,59.5,405.6z M60.2,413.6c0.1-4.8,1.5,1.2,0.7,2.7
					C60.3,416.6,61.1,412.2,60.2,413.6z M61.2,1082c-0.1,1.7,0.3,5.3-0.5,4.4C60.5,1084.3,60.2,1081.9,61.2,1082z M61.2,437.5
					c0.9-0.6,0.6,6.7-0.2,5.3C60.8,440.7,60.7,439.2,61.2,437.5z M62.1,1181.3c-0.1,1.3-0.4,2.2-0.5,3.5
					C60.6,1183.7,61.1,1178.2,62.1,1181.3z M61.6,448.2c0,2.7,0,5.3,0,8C60.9,456.9,60.9,447.4,61.6,448.2z M61.4,1311.6
					c0-2.5,0-4.8,0.7-4.4C62.5,1308.6,62.3,1312.3,61.4,1311.6z M62.1,1245.1c0,1.9,0.6,6.5-0.5,7.1
					C61.8,1248.9,60.8,1245.2,62.1,1245.1z M61.6,1305.4c0-1.5,0-3,0-4.4C62.4,1299.6,62.4,1306.7,61.6,1305.4z M61.6,496.9
					c-0.1-1.9,0.2-2.4,0.2-3.5c0.4,0.2,0.5,1.5,0.5,3.5C62.1,496.9,61.9,496.9,61.6,496.9z M61.6,482.8c0-1.2,0-2.4,0-3.5
					C62.6,478.5,62.6,483.5,61.6,482.8z M61.9,513.8c0.1-0.9,0.3-0.4,0.5,0c0.3,0.5,0.6,1.4,0.5,4.4c0-0.2-0.4,0.4-0.2,0.9
					c0,0.1,0.7,4.7,0,5.3C61.4,524.4,62.7,515.2,61.9,513.8z M67.2,721.2c0-2.2,0-4.3,0.2-5.3C68.2,716.1,68,721.6,67.2,721.2z
					 M67.9,679.5c0.5,1.2,0.1,6.2,0.2,8.9C67.5,687.1,67.7,682.2,67.9,679.5z M67.6,666.2c1,1.1,0.7,5.2,0.5,8
					C67.3,673.9,67.7,669.1,67.6,666.2z M68.8,639.7C68.5,649.6,66.4,636.1,68.8,639.7L68.8,639.7z M68.1,623.7c0.2,0,0.5,0,0.7,0
					c0.1,2.1,0,3.4-0.2,4.4C68.2,627.4,68.3,625.3,68.1,623.7z M68.4,590.9c1.2,0.5,0.9,5.4,0.7,8.9
					C68.1,597.8,68.6,594.5,68.4,590.9z M69.3,707.9c-0.1,1.7,0.3,5.3-0.5,4.4C68.5,711.1,68.6,707.7,69.3,707.9z M68.8,575.8
					c0.8,0.5,0.4,5.8,0.5,8.9C68.5,584.2,68.4,578,68.8,575.8z M68.8,569.6c0.7,0,0.6,4.2,0.2,5.3C68.7,573.8,68.4,571,68.8,569.6z
					 M68.8,543c-0.4-2.1,0.5-2.3,0.5-2.7c0.1-1.6-0.7-4.7,0.5-4.4c-0.1,1.3,0.1,3.1,0,4.4c0,0.2-0.4-0.2-0.5,0
					C69.1,541.3,69.5,543.8,68.8,543z M70.3,694.6c0.1,3.3-0.2,5.2-1,5.3C68.7,697.3,69.5,694.6,70.3,694.6z M69.6,481.9
					c0-2.3,0-4.6,0.7-4.4C70.3,480,70.3,482.3,69.6,481.9z M70.3,1334.6c1.2-0.5,0.5,3.8,0.5,6.2c0,3.2,0.5,7.3-0.5,8
					C69.6,1343.3,70.2,1340.4,70.3,1334.6z M70,435.8c0.6,0.1,0.6,3.3,0.2,4.4C69.7,440.1,69.7,436.9,70,435.8z M71,394.1
					C68.9,396.9,70.4,383.3,71,394.1L71,394.1z M70.5,1317.8c0.9,0.2,0.2,3.6,0.2,5.3c0.1,2.2,0.7,5.4,0.2,7.1
					C69.8,1328.4,70.2,1321.9,70.5,1317.8z M72.2,1230c0.2,2.7,0.5-0.8,1,0c-1.2,4.1-1.2,13.3-1.2,23.9c0,4.5-0.3,8.9-0.2,11.5
					c0,0.7,0.5,2.9,0.5,3.5c0,1.9-0.6,2.7-0.7,4.4c0,0.1,0,3,0,4.4c-0.1,3.5-0.2,10.9,0,15.1c0.1,2,0.9,4.3,0.5,8
					c-0.1,0.8-0.4,0.5-0.5,1.8c-0.1,2.2,0.3,3.7,0.2,5.3c-0.1,1.8-0.2,2.6-0.5,4.4c-0.1,1-0.2,4.1-0.7,3.5c-0.6-2.4,0-4.6,0-7.1
					c0-1.2-0.2-3.7-0.2-3.5c0-0.7,0.5-1.6,0.5-1.8c0-1.9-0.4-1.8-0.5-2.7c-0.1-1.2,0.5-7.1,0.5-8.9c0-1.7-0.5-3.4-0.5-5.3
					c0,0.5,0.1-4.1,0-3.5c0.1-0.8,0.5-0.7,0.5-1.8c0-2.7-0.5-5.3-0.5-8c0-1.7,0.6-2.7,0.7-4.4c0-0.3-0.2-2.4-0.2-3.5
					c0-1.4,0.3-1.5,0.2-2.7c0-0.7-0.3-0.9-0.2-1.8c0.1-3.2,0.2-12.8,0-17.7c-0.1-1.8-0.4-1.8-0.5-2.7c-0.1-1.5,0.3-1.9,0.2-3.5
					c0-0.8-0.4-0.9-0.5-2.7c0,0.1,0.5-0.1,0.5-0.9c-0.1-1.7-0.1-1.8-0.2-2.7c-0.3-2.5,0.2-3.1,0.2-6.2c0.1-2.5-0.2-4.1-0.2-7.1
					c0-3.8,0.5-8.7,0.5-13.3c0-2-0.3-3.6-0.2-5.3c0.1-1.6,0.4-3.6,0.5-5.3c0.1-4.5-0.3-8.5,0-13.3c0.1-1.2,0.5-2.3,0.5-2.7
					c0-0.5-0.2-1.6-0.2-2.7c0-2.7,0.3-4.8,0.2-6.2c-0.1-2.1-0.6-2.7-0.7-4.4c-0.1-1.3,0.1-3.1,0-4.4c-0.1-1.9-0.5-3.4-0.5-4.4
					c-0.1-4.2,0.5-9.4,0.5-14.2c0-2.5-0.6-5.8-0.2-8.9c0-0.2,0.5-0.8,0.5-0.9c0.1-1.6-0.3-2.9-0.2-4.4c0.1-1.5,0.6-2.3,0.7-3.5
					c0.5-5.7,0-12,0-19.5c0-1.3,0.2-2.5,0.2-2.7c0-0.8-0.3-1.4-0.2-2.7c0-1.4,0.4-3.1,0.5-4.4c0-1.5-0.2-1.5-0.2-2.7
					c0-1.6,0.2-1.9,0.2-3.5c0-2-0.2-4.1-0.2-6.2c0-1.6,0.3-1.9,0.2-3.5c0-1.9-0.4-1.7-0.5-3.5c0-0.7,0.4-2,0.2-3.5
					c1-0.2,0.4,2.6,0.5,4.4c0.1,1.4,0.4,3.1,0.5,4.4c0.1,4.4-0.3,8.7-0.2,13.3c0,2,0.2,8.8,0.5,9.7c0.6,1.9,0.2,0.9,0.2,5.3
					c0,3.1,0.3,6.4,0.2,8.9c0,4.9-0.2,17.8,0,23.9c0.1,1.7-0.3,2.6-0.2,3.5c0.2,2.1,0.9,3.6,1,5.3c0.2,3-0.5,6.1,0,8.9
					c-0.5,0-0.3-2.4-1-1.8c0.1,1.7,0.1,3.8,0.7,3.5c-0.9,3.5,0,12.9-0.2,20.4c0,0.7,0.1,2,0,2.7c0,0.1-0.5,0.9-0.5,0.9
					c0,0.8,0.8,3.2,0.5,7.1c-0.8,1.4-0.4-1.2-0.5,2.7c0,1.3-0.5,2.8-0.5,3.5c0,1.5,0.2,1.9,0.2,3.5c0,4-0.5,9.2-0.5,12.4
					C72.4,1219.8,73.3,1226.4,72.2,1230z M70.5,1418.8c0.9,1.6,1.4,10.1,0.7,12.4c-0.8-0.6-0.4-5.4-0.5-8
					C70.7,1421.1,69.9,1419.9,70.5,1418.8z M70.3,1394c1.8-0.1,0.7,4.7,1.2,8.9C69.9,1404.1,70.3,1398.3,70.3,1394z M70.3,1350.6
					c1.3-0.7,0.6,5,0.7,8c0,1.2,0.5,2.6,0.5,3.6c0,1.7-0.4,3.2-0.5,5.3c-0.2,3.8,0.1,8.2,0,11.5c0,1.5-0.1,1.7-0.5,1.8
					c0-0.7-0.2-0.9-0.2-1.8c0-0.8,0.5-1.6,0.5-1.8c0-1.2-0.4-3-0.5-4.4C70,1366.1,70.6,1357.1,70.3,1350.6z M70.5,780.6
					c0.3,1.5,0.6,4.8,0.2,6.2C70.3,786.1,70.1,782.1,70.5,780.6z M70.5,770c0.8-1.2,0.6,5.3,0.2,5.3C70,776.5,70.2,770,70.5,770z
					 M71.2,725.6c0.1,2.1-0.4,1.9-0.2,4.4c1.3-0.4,0-6.9,1.7-7.1c0.6,2.6-0.7,2.9-0.7,3.5c-0.1,1.8,0.4,3.3,0.2,4.4
					c-0.2,1.2-0.7,2.3-1.2,2.7c0,2.6,0.1,5.8-0.2,7.1c-0.5-1.2-0.2-4.5-0.2-7.1C70.5,730.6,69.7,725,71.2,725.6z M70.5,375.5
					c0.6,0.1,0.6,3.3,0.2,4.4C70.2,379.8,70.2,376.6,70.5,375.5z M70.3,367.5c0.1-1.3-0.3-4.6,0.2-4.4c0.9-0.3,0.3,4.7,0.7,6.2
					C70.9,368.9,71,366.5,70.3,367.5z M70.3,357.8c0.2,0,0.5,0,0.7,0c0,1.2,0,2.4,0,3.5C70.7,360.5,70.1,360.6,70.3,357.8z
					 M70.3,333.8c0-2.1,0-4.1,0-6.2C71.3,327.2,71.8,334.8,70.3,333.8z M70.8,1411.7c-0.3-0.7-0.6-8.7,0.2-8
					C71.2,1407.4,70.6,1408.3,70.8,1411.7z M70.5,286.8c0.7-4.9,0-9.4,0.5-14.2c0.7-0.4,0.4,3.7,0.5,6.2
					C71.6,282.4,71.9,286.4,70.5,286.8z M71,204.4c0.8,1.6,0.6,10.5,0.5,12.4c-0.2,0-0.5,0-0.7,0C70.5,214.5,70.8,207.8,71,204.4z
					 M71,316.1c0.8,0.6,0.5,8.7,0.2,10.6c-0.9-0.2-0.2-3.2-0.2-4.4C71,320.1,70.4,318,71,316.1z M71,292.2c1,0.2,0.2,8.1,0.7,10.6
					c-0.2,0-0.5,0-0.7,0C71.1,300.9,70.4,295.2,71,292.2z M71,263.8c-0.5-1.1-0.3-6.8,0.5-6.2C72,259.5,71.4,262.6,71,263.8z
					 M71,231.9c1.2,0.2,0.4,5.2,0.5,8c0,3.3,0.6,6.5,0,8.9c0.1,1.5-0.2,1.7-0.5,1.8C70.6,246.1,70.6,236.3,71,231.9z M71.2,221.3
					c0.6,2.2,0.2,3.7,0.5,8c-0.2,0.4-0.4,0.8-0.5,1.8C70.4,230.2,70.7,222.4,71.2,221.3z M71.2,750.5c-0.5-0.1-0.1-3.8-0.2-5.3
					C71.7,745.2,71.6,749.3,71.2,750.5z M72.7,823.2c0,7.1,0,12.6-0.2,16.8c-0.8,0.4-0.2-2.6-0.2-4.4
					C72.1,831.5,71.3,823.7,72.7,823.2z M73.2,798.3c-0.1,1.8,0.4,6.2-0.5,5.3C72.3,802.2,72.4,798.1,73.2,798.3z M72.9,1027.9
					c-0.2-3.1,0.3-3.7,0.5-5.3C74.3,1023.3,73.8,1028.4,72.9,1027.9z M73.6,1008.4c0,5.5,0.3,8.3,0,11.5
					C72.9,1019.1,72.3,1008.6,73.6,1008.4z M72.9,784.1c0.7-0.2,1.3-0.1,1.2,2.7C73.6,788.6,72.9,786.8,72.9,784.1z M72.9,777.1
					c1.1-0.4,1,3,0.5,4.4C72.9,781.4,72.9,779.3,72.9,777.1z M73.4,1033.2c1.2-0.6,1.1,7.1,0.7,9.8
					C72.6,1042.5,73.5,1038,73.4,1033.2z M75.3,934c0,5.3,0.3,9.4,0,15.1c-0.2,4.1-0.6,8.9,0,14.2c0.1,1.3,0,1,0.2,1.8
					c0.7,2.2,0.3,14.4-0.7,17.7c0.9,5.4-0.1,11.3-0.2,17.7c-0.9-2.7-0.4-7.6-0.5-11.5c-0.1-3-0.4-7-0.5-11.5c0-1.9,0.3-2.4,0.2-3.5
					c-0.1-6-0.2-15.8,0.2-23c0.2-2.7,0.5-5.2,0.5-8c0-1.2-0.2-1.4-0.2-1.8C74.4,940.9,74.4,933.7,75.3,934z M73.6,756.7
					c0-2.8-0.2-6.5,0.2-8C74.5,748.8,74.7,756.7,73.6,756.7z M73.9,1058.9c1.2-1.7,1.3,6.1,0.2,5.3
					C74.1,1062.2,73.7,1061.7,73.9,1058.9z M73.9,927.8c0-1.8,0.6-2,0.7-4.4c0.3-5.1-0.6-13.5,1.4-9.7c-0.4,0.2-0.2,3-0.2,3.5
					c-0.2,1.9-0.4,2-0.5,3.6c-0.1,3,0.3,6.1-0.2,8.9C74.3,930.3,74.3,928.1,73.9,927.8z M74.8,738.9c-0.1,3.1,0.4,8.5-0.7,8
					C73.9,744.5,73.4,737.7,74.8,738.9z M74.1,848c0-2.9-0.1-6.3,0.7-6.2C75.1,844.2,75.3,848.6,74.1,848z M75.8,812.5
					c-0.2,4.3-0.8,9-0.7,13.3c0.1,3.6,0.7,5.6,0.7,8.9c-1.2,1.6-1.4-4-1.4-8c0-2.6,0.1-7.4,0.2-8.9c0.2-2.1,0.3-1.4,0.7-3.5
					C75.1,815.4,75.1,811.4,75.8,812.5z M74.4,811.6c0.4-3.7,0.5-3.7,0-7.1c0.6-0.5,0.5-3.4,1.4-2.7c0.6,2.1-0.4,2.4-0.5,4.4
					c0.1,1.7,0.7,1.6,0.5,4.4C75.1,810.1,74.9,811.6,74.4,811.6z M74.4,720.3c0-3.5,1.2-4.9,1,0C75,720.3,74.7,720.3,74.4,720.3z
					 M75.6,790.3c-0.2,1.2-0.2,3.3-0.5,4.4C74.2,794.1,74.8,790,75.6,790.3z M75.3,715.9c-1.3,0.3-0.7-6.9,0-7.1
					C75.7,709,75.1,713.2,75.3,715.9z M75.8,894.9c-0.1,1.8,0.4,6.2-0.5,5.3C74.9,898.8,75,894.7,75.8,894.9z M75.3,865.7
					c0.8-0.6,0.9,3.1,0.5,4.4C75.3,869.5,74.8,867.5,75.3,865.7z M75.8,1555.3c0.6,0.2,0.1,3.9,0,4.4
					C75,1559.4,75.3,1556,75.8,1555.3z M75.3,887.9c0.3-4,0.1-9.8,0.5-13.3C77.1,875.8,76.6,887.8,75.3,887.9z M75.3,765.5
					c0.1-2.5,0.7-5.2,1.2-3.6C76.7,765.3,75.9,767.5,75.3,765.5z M76,666.2c0.8,1.8,0.8,11.8-0.5,11.5c-0.8-2.9,0.3-4.7,0.5-7.1
					C76.1,668.8,75.5,667.8,76,666.2z M75.6,1524.3c0-1,0.2-0.5,0.2,0c0.8,1.1,0.2-2.9,1-1.8c0,2.9-0.3,4.8-1,5.3
					C75.8,1526.5,75.9,1524.5,75.6,1524.3z M76,746.9c0.5,0.4,0,4.1,1,2.7c0.1,2.3-0.1,3.8-0.7,3.5C76.6,749.3,75.5,749,76,746.9z
					 M76.5,1654.6C78.5,1657.1,75.7,1662.4,76.5,1654.6L76.5,1654.6z M76.3,643.2c0.3,0,0.6,0,1,0c0,2.2-0.4,2.7-0.5,4.4
					C76.2,647.5,76.2,645.4,76.3,643.2z M77.5,624.6c-0.1,1.7,0.3,5.3-0.5,4.4C76.8,626.9,76.5,624.5,77.5,624.6z M77,613.9
					c0.9,0.3,0.9,6.3,0,7.1C76.7,618.6,76.7,616.4,77,613.9z M78.2,1333.7c1,0.1,0.3,3.2,0.2,4.4c0,1,0.1,2.7,0,3.5
					c0,0.1-0.5,0.9-0.5,0.9c0,1.3,0.2,3.6,0.2,5.3c0.1,4.3-0.2,8.2-0.2,12.4c-0.5-0.3-0.9-3.6-1-4.4c-0.1-2.7,0.3-6.2,0.5-9.7
					c0-0.7-0.3-0.9-0.2-1.8c0-0.2,0.5-0.8,0.5-0.9c0-1.6-0.3-1.9-0.2-3.5C77.6,1337.6,78,1335.6,78.2,1333.7z M77,723.9
					c0.5-3.2,0-12.5,0.2-14.2c1.4,0.8,0.4,10.3,1,14.2C77.8,723.9,77.4,723.9,77,723.9z M77.2,673.3c1.3-1,1,3.8,0.7,6.2
					C77.3,679.1,77.5,675.3,77.2,673.3z M77.5,760.2c1.2-0.6,1.6,4.9,1,8C77.4,768.3,77.8,762.9,77.5,760.2z M77.5,731
					c0-1.5,0-3,0-4.4C78.4,725.7,78.4,731.8,77.5,731z M77.5,658.3c0.4,0,0.5,1.1,0.7,1.8c0.6,2,0.7,1.6,0.5,6.2
					C77.9,664.9,77.4,662.9,77.5,658.3z M78.2,1297.4c0.9,1.1,0.4,9,0.2,11.5C77.2,1307.7,78,1300.9,78.2,1297.4z M78.4,680.4
					c0,1.2,0,2.4,0,3.5C77.5,684.7,77.5,679.7,78.4,680.4z M77.7,653c0.1-3.2,0.7-8.1,1.4-6.2c-0.1,2.7-0.2,5-0.5,7.1
					C78.2,654.2,78,653.2,77.7,653z M78.7,1541.2c0.2,2.7-0.4,2.6-0.2,5.3C77.8,1546.7,78,1541.1,78.7,1541.2z M78,1502.2
					c0.3-4.3,1.8,0.4,1,2.7C78.3,1505.1,78.7,1501.4,78,1502.2z M78.2,1309.8c0.6,0.1,0.6,3.3,0.2,4.4
					C77.8,1314.1,77.9,1310.9,78.2,1309.8z M78,752.2c-0.1-3.8,0.2-6.4,1-7.1c0.6,1.6-0.1,2.2-0.2,3.5
					C78.5,749.9,78.9,753.7,78,752.2z M78.2,554.6c1.2-0.4,0.4,4,0.2,6.2C77.8,560,78.2,556.2,78.2,554.6z M78.2,639.7
					c2,4.6-0.3-6.4,0.5-9.8c0.3,0.4,0.5,1.1,0.5,2.7c0.6-0.4,0.6-3.9,1.2-1.8c0.3,4.4-0.8,6.2-1,8.9c-0.1,1.8,0.7,4.2,0,6.2
					C78.9,644.2,78.4,642.5,78.2,639.7z M78.4,699.9c0.6-0.5,0.9,0.4,0.7,2.7c1.1-4.2-0.5-14.8,1.4-16.8c0.6,3.7-0.4,6.6-0.5,9.8
					c-0.1,1.8,0.4,3.6,0.2,7.1c0-0.2-0.4,0.4-0.2,0.9c0.3,0.8-0.4,6.4,0,10.6c-0.9,1.4-0.1-3-0.7-2.7c-0.6-0.3,0.2,5-0.7,3.5
					c-0.1-4.7-0.1-9.1,0.7-10.6C79,703,78.3,703,78.4,699.9z M78.7,524.4c-0.2-1.8,0.4-2,0.5-2.7c0.1-1.2-0.6-4.1,0.5-3.6
					C79.7,521.7,79.4,523.8,78.7,524.4z M79.6,1430.4c-0.1,1.4,0.3,1.5,0.2,2.7c0,0.8-0.5,1.5-0.5,1.8c0,1,0.8,5.4-0.2,5.3
					C78.9,1438.2,78.5,1429.7,79.6,1430.4z M79.6,1408.2c0,1.8,0,3.5,0,5.3C78.9,1413.6,78.6,1407.5,79.6,1408.2z M80.1,1579.3
					c0.3,1.1,0.2,3.8,0.2,6.2C78.7,1587.4,78.9,1578.7,80.1,1579.3z M79.2,1400.2c0-2.5,0-4.8,0.7-4.4
					C80.4,1397.6,79.9,1400.3,79.2,1400.2z M79.2,1381.6c0.7-1.9,0.1-3.9,0.5-6.2c0.2,0.5,0.4,0.9,0.7,0.9
					C80.2,1379,80,1381.4,79.2,1381.6z M80.4,1565.1c0,2.3,0,4.6-0.7,4.4C79.2,1568,79.5,1564.3,80.4,1565.1z M79.6,1373.6
					c0-1.5,0-3,0-4.4C80.4,1367.8,80.4,1375,79.6,1373.6z M79.6,618.4c0.5,2.8,0.8,5,0.5,8.9C79.3,626.8,79.8,621.5,79.6,618.4z
					 M80.1,684C79.1,677.3,82.2,680.7,80.1,684L80.1,684z M80.1,586.5c0.8-0.6,0.9,3.1,0.5,4.4C80.1,590.8,80.1,588.7,80.1,586.5z
					 M80.1,567c0.3-1.3,0.9-1.4,1.2-2.7c0.1,1.5,0.2,10.6-0.2,13.3c-0.9,0.3-0.3-4-0.5-6.2C80.5,569.2,80.1,568.7,80.1,567z
					 M80.1,457c0.8-1.4,1.1,5.9,0.2,5.3C80.1,461.3,80.1,459.2,80.1,457z M80.4,676.9c-0.1-2.9,0.3-4.3,1-4.4
					C81.5,675.8,81.1,676.8,80.4,676.9z M81.3,1204.3c1.1,1.3,0.1,4.7-0.2,6.2C80.2,1208.6,80.9,1206.2,81.3,1204.3z M80.8,1196.3
					c1.1,0,0.8,6.7,0.2,8C80.3,1202.8,80.8,1199.3,80.8,1196.3z M81.8,551.9c-0.1,3.8,0.2,9.1-0.2,11.5c-0.8,0.2-0.8-5.2-0.7-6.2
					C81,555.5,81.1,550.8,81.8,551.9z M81.1,520.9c-1-2.3,0-5.2,0.2-8c0.6,0.5,0.5,2.4,0.5,3.5c0,0.2-0.7-0.2-0.7,0
					C80.7,518,82,520.7,81.1,520.9z M81.3,494.3c-0.2,2,0.4,6.9-0.5,6.2C80.5,499.1,80.3,493.4,81.3,494.3z M80.8,1534.1
					c0-2.1,0-4.1,0-6.2c0.2,0,0.3,0,0.5,0c0,2.1,0,4.1,0,6.2C81.2,1534.1,81,1534.1,80.8,1534.1z M80.8,1229.1
					c-0.1-2.1,0-3.4,0.2-4.4c0.8-0.4,1.4,0.3,1.2,3.5c-0.3-0.3-0.4-1.6-0.7-1.8C81,1226.1,81.7,1230.5,80.8,1229.1z M82.3,1153.8
					c-0.2,2.7-0.5,5.3-0.7,8C80.9,1158.8,81.1,1154.1,82.3,1153.8z M81.1,550.1c-0.2-2.7,0.2-3.2,0.2-5.3c0.5,0.9,0.5,3.4,0.5,6.2
					C81.6,550.5,81.4,550.1,81.1,550.1z M81.8,417.2c-0.1,1.7,0.3,5.3-0.5,4.4C81.2,419.4,80.8,417,81.8,417.2z M81.8,409.2
					c0,2.9,0.6,4.3-0.5,4.4C81.1,412.8,81.1,409,81.8,409.2z M81.3,1186.6c0-1.2,0-2.4,0-3.5C82.2,1182.3,82.2,1187.3,81.3,1186.6z
					 M81.3,1178.6c-0.1-3.4,0.3-5.6,1-6.2C82.8,1174.6,82.1,1178.5,81.3,1178.6z M81.3,394.1c0-1.5,0-3,0-4.4
					C82.3,388.8,82.3,395,81.3,394.1z M81.6,1144.9c0.3,0,0.6,0,1,0c-0.1,1.8,0.3,5.8-0.2,6.2C81.5,1151,81.6,1147.6,81.6,1144.9z
					 M83,1132.5c0.4,3-0.6,2.9-0.7,4.4c-0.1,1.7,0.7,3.6,0,5.3c-1,0.7-0.2-3.3-0.2-5.3c0-2.2-0.5-8.8,0.5-10.6
					C82.8,1124,81.7,1132.3,83,1132.5z M82,835.6c0.8,0.6,0.5,8.7,0.2,10.6C81.5,845.6,81.7,837.5,82,835.6z M83,713.2
					c1.4,0.5,0.4,6.9,0.5,9.7c0.1,5.5,0.1,14.5,0.2,22.2c0,1.8-0.3,4.2-0.2,6.2c0,2.1,0.5,3.9,0.5,5.3c0,1.7-0.4,3.6-0.5,5.3
					c-0.3,8,0.1,17.1,0,25.7c0,3.5-0.2,7.1-0.2,10.6c0,3.2,0.3,6.9,0.2,9.8c0,2.1-0.4,4-0.5,6.2c-0.2,5.2,0.3,10.9-0.2,16
					c-0.2,0-0.5,0-0.7,0c-0.6-3.2,0.2-3.7,0.2-6.2c0.2-6.2-0.1-11.9,0-17.7c0.1-4.5,0-9.4,0-14.2c0-4.4,0.2-8.5,0.2-12.4
					c0-2.2-0.3-3.3-0.2-5.3c0.1-2.5,0.4-5.4,0.5-8c0-1.8-0.2-3.3-0.2-5.3c0-1.6,0.3-3.2,0.2-4.4c0-2.1-0.4-4.2-0.5-6.2
					c0-1.6,0.3-1.9,0.2-3.5c0-1.4-0.3-1.6-0.2-2.7c0-2.7,0.4-5.3,0.5-8C82.8,729.9,82.4,720.9,83,713.2z M82,512.9
					c-0.5-0.8-0.3-6.4,0.5-5.3C82.7,510.6,82.3,511.3,82,512.9z M82,488.1c0.3,0,0.6,0,1,0c-0.5,4,0.5,8.3-0.7,8.9
					C82.3,493.5,82.3,490.4,82,488.1z M83,1092.6c0.2,2.5-0.3,2.3-0.2,4.4C82,1097,82.1,1091.8,83,1092.6z M83.7,432.2
					c-0.2,3.2,0.5,4.3,0,6.2c-1-4.5,0,1.9-1.2,1.8C82.1,437.4,82.7,432.4,83.7,432.2z M82.5,331.2c1.2,2.2-0.2,9.1,0.5,12.4
					c-0.2,0-0.2,1.1-0.2,1.8C81.9,343.8,82.2,334.1,82.5,331.2z M83.5,289.5c0.7,1.4,0,5.3-0.2,6.2C82.3,294.8,82.9,290,83.5,289.5z
					 M83.2,302.8c-0.5-0.1-0.1-3.8-0.2-5.3C83.7,297.5,83.6,301.7,83.2,302.8z M83.2,273.6c-0.7,1.3,0.2-3.1,0.2-5.3
					c0.1-2.8-0.1-4.8,0-7.1C84.7,263.3,83.7,270.3,83.2,273.6z M84,252.3c0.1,2.9,0.6,6.7-0.5,7.1C83.4,256.5,82.9,252.7,84,252.3z
					 M83.2,190.2c0.5-1.9,1-4.6,0.5-8C85.6,181.1,84.6,195.3,83.2,190.2z M83.7,1154.7c0.5-0.2,1.3,5.3,0.2,5.3
					C83.7,1158.9,83.7,1156.9,83.7,1154.7z M84,1152c-0.4-0.7-0.2-6.4,0.5-6.2C84.7,1149.5,83.9,1149.3,84,1152z M84.9,200.9
					c-0.4,2.1,0.1,7.6-1,7.1c0-3.3-0.6-4.2,0.2-5.3C84.5,202.3,84.4,200.4,84.9,200.9z M84.2,145c0.7,0,0.7,6.3-0.2,5.3
					C83.7,147.6,83.8,146.9,84.2,145z M84,1121.9c-0.1-3,0.1-5,0.2-7.1C84.6,1116,85.1,1122.3,84,1121.9z M84,407.4
					c0.1-1.8-0.4-6.2,0.5-5.3C84.3,403.9,84.8,408.2,84,407.4z M84,337.4c0.4-6.9,0.3-10,0.7-16.8c1.1,1,0.1,4.2,0.2,6.2
					c0.1,2.7,1.1,5.4,0.7,9.8C85.1,337.3,84.9,336.6,84,337.4z M84.2,212.4c1-1,0.2,3.4,0.2,5.3c0,2.5,0.5,4.8,0,7.1
					C83.5,222.5,84.2,214.5,84.2,212.4z M84.2,129.9c0.6-0.2,0.7,6.2,0.2,7.1C83.5,137.6,84,130.8,84.2,129.9z M84.7,115.8
					c0,2.8,0.2,6.5-0.2,8C83.7,123.6,83.6,114.8,84.7,115.8z M86.4,993.3c0.4,1,0.6,1,1,0c0.1-3.4-0.2-5.2,0-8
					c0.1-1.3,0.4-2.3,0.5-3.5c0.1-3.9-0.2-7.9,0-13.3c0-3.3-0.9-0.1-1-1.8c-0.1-1.9,0.3-1.7,0.7-1.8c0.1-1.9-0.4-1.3-0.5-2.7
					c-0.1-1.3,0.2-1.6,0.2-2.7c0.1-2.8-0.3-3.2,0-6.2c0.2-1.5,0.2-1.6,0.5-2.7c0.3-1.2,0.9-9.6,0.7-13.3c-0.2-3.4-0.7-3.6-1-7.1
					c0.5-0.4,0.1-3.1,0.5-4.4c0.1-0.2,0.4,0.3,0.5,0c0.2-1.6,0-3.6,0.2-5.3c0.1-0.4,0.4-0.6,0.5-0.9c0.3-2.3,0.6-5.9,0.2-9.8
					c-0.2-1.5-0.6-2.4-0.7-4.4c0.8,0.4,1-1.1,1.2-2.7c0.2-2-0.3-4-0.2-6.2c0.1-2.4,0.8-3.8,1-6.2c0.1-1.9-0.1-4.9,0-8
					c0.1-1.8,0.4-3.7,0.5-5.3c0.1-2.7-0.1-5.3,0-7.1c0.1-1.2,0.5-2.9,0.5-3.5c0-0.4-1.1-7.1-0.2-8c0.9-0.9,0.3-0.9,0.2-3.5
					c0-1.3,0.7-4.4-0.2-4.4c0-3,0.7-1.7,1-3.5c0.2-1.4-0.4-2.5-0.2-4.4c0-0.6,0.7-1,0.5-2.7c-0.2-3-0.5-0.1-1-1.8
					c0.2-2.2,0.5-2.4,0.5-4.4c0-1.7-1.1-5.4-0.2-6.2c1.2-1.1,0-0.3,0.2-3.5c0.1-0.9,1.1-2.6,1.2-4.4c-0.5-2.4-0.6-12.3,0.5-14.2
					c0-2.5,0.2-6.1-0.5-6.2c0.2-2.5,0.6,1.3,1-0.9c-0.1-4.5-0.7-6.6-0.2-12.4c0.3-3.9,1.9-8.4,0.2-10.6c0.7-1.6,0.3-4.5,0.5-7.1
					c0-0.3,0.6-2.3,0.7-3.5c0.1-1.1-0.1-2.5,0-3.5c0.2-2.1,0.7-5.9,0.7-9.8c0-1.8-0.5-3.7-0.5-5.3c0.1-2.1,0.5-1.8,0.5-3.5
					c0-0.7-0.5-2.8,0.5-2.7c0.3-2-0.3-2.7-0.2-4.4c0-1.8,0.4-2,0.5-3.5c0.1-3.2-0.3-4.4,0-7.1c0-0.4-0.1-1.5,0-1.8
					c0-0.2,0.5,0.2,0.5,0c0.1-2,0.3-5.7,0.2-7.1c0-1.6-0.5-3.6-0.5-5.3c0-2.1,0.6-2.3,0.7-4.4c0.1-1.9-0.2-2.3-0.2-3.5
					c0-1.9,0.5-3.3,0.5-4.4c0-1.9-0.2-6.2,0-9.8c0.1-1.4,0.4-2.2,0.5-3.5c0.1-1.5-0.1-3.4,0-5.3c0.1-0.9,0.4-1.5,0.5-2.7
					c0.1-2,0.2-5.1,0.2-7.1c0-1.4-0.3-1.6-0.2-2.7c0-1.3,0.4-2.2,0.5-3.5c0.2-3.2,0.1-7.6,0.2-11.5c0.1-2,0.4-4.3,0.5-6.2
					c0.1-2.1-0.1-4.9,0-7.1c0.1-1.6,0.4-2.9,0.5-4.4c0.1-1.8-0.2-5,0-8c0.1-1,0.4-2.5,0.5-3.5c0.2-6.1-0.4-12.8,1-17.7
					c0.7,3.6-0.1,8-0.2,12.4c-0.1,1.5,0.1,3.7,0,5.3c-0.1,1.7-0.4,1.8-0.5,2.7c-0.1,1.3,0.2,1.3,0.2,1.8c0-0.1-0.5,3.9-0.5,4.4
					c0,0.8,0.3,1.9,0.2,3.5c-0.1,1.7-0.4,3.9-0.5,6.2c-0.2,5.4,0.2,14.6-0.5,18.6c-0.1,0.5-0.3-1.5-0.2-1.8
					c-0.1,3.4,0.3,6.3,0.2,9.8c0,1.3-0.6,2.4-0.7,3.5c-0.1,1.4,0.2,1.5,0.2,2.7c0,2.3-0.5,10.6-0.5,14.2c0,0.8,0.3,1.4,0.2,2.7
					c0,0.5-0.5,1.5-0.5,1.8c-0.1,0.8,0.1,1.9,0,2.7c-0.1,1.2-0.4,2.6-0.5,3.6c0,0.5,0.2,2.2,0.2,3.5c0,3.5-0.4,8-0.5,11.5
					c0,2.3,0.1,5,0,7.1c-0.1,1.4-0.5,3-0.5,4.4c0,2.4,0.2,4.9,0.2,7.1c0,2.6-0.1,11.3-0.5,12.4c-0.6,2-0.2,0.7-0.2,4.4
					c0,1.6-0.5,2.9-0.5,3.5c0,1.5,0.4,1,0.5,3.5c0-0.3-0.3,0.3-0.2,0.9c0,0.2,0.2,0.1,0.2,0.9c0,1.5-0.4,2.6-0.5,4.4
					c-0.2,4.6,0.1,10.1,0,12.4c-0.2,2.9-1,5.2-1.2,8c-0.1,2,0.2,4.1,0.2,6.2c0.1,5.8-0.8,12.6-0.7,18.6c0,1.7,0,3.3,0.5,4.4
					c-1.5,5.5-0.8,19.7-1.7,30.1c-0.9,1.4-0.1-3-0.7-2.7c-0.5,0.9-0.1,5.6-0.2,8c1.1,1.4-0.1-5.8,1-4.4c-0.1,2.3,0.5,1.9,0.2,4.4
					c-0.1,1-0.7,0.4-0.7,1.8c-0.2,4.5,0.1,10.1,0,15.1c0,1.5-0.4,2.8-0.5,4.4c-0.1,1.6,0.1,3.4,0,5.3c-0.1,2.1-0.4,4.1-0.5,6.2
					c-0.1,4,0.1,8.2,0,12.4c-0.1,3.4-0.6,7.1-0.7,10.6c0,1.8,0.2,6.4,0,9.8c-0.1,0.9-0.4,2.4-0.5,3.5c-0.3,7.7,0.4,16,0,23
					c-0.1,1.4-0.6,1.8-0.7,2.7c-0.4,3.7,0.1,8.1,0,12.4c-0.1,2.8-0.5,4.1-0.5,8.9c0,1.1,0.2,3.8,0.2,3.5c-0.1,1.9-0.5,2.9-0.5,4.4
					c0,1.4,0.2,3,0.2,4.4c0,2.4-0.4,5.2-0.5,8c0,1.1,0.1,2.4,0,3.5c-0.2,3.3-0.7,7.3-0.7,13.3c0,1.6,0.3,1.9,0.2,3.5
					c0,1.7-0.3,2.5-0.2,3.5c0.1,4,0.7,5.5,0,8c-0.3,1.2-0.1,3.7-0.2,7.1c-0.1,3.5-0.6,6.6-0.7,10.6c-0.1,2,0.3,4.1,0.2,6.2
					c0,3.3-0.4,6.4-0.5,9.8c-0.1,2.8,0.1,6.2,0,8.9c-0.1,2.6-0.6,4.7-0.7,7.1c-0.1,3.3-0.2,9.9-0.2,12.4c0,0.8,0.3,1.4,0.2,2.7
					c0,1.3-0.4,1.9-0.5,3.5c-0.1,1.6,0.3,6.1,0,7.1c-0.2,0.6-0.7,0.8-0.7,1.8c-0.1,1.9,0.3,3.6,0.2,5.3c-0.1,1.8-1.2,4-0.7,8.9
					c-1.5-0.9,0.1-8.3-1.2-8.9c-0.3-2.9,0.3-6.1,0.2-8c-0.1-1.9-0.4-1.4-0.5-3.5c-0.2-3.1,0.6-0.9,1-2.7c0.2-0.9-0.1-3.3,0-4.4
					c0-0.5,0.7-2.5,0.7-4.4c0.1-2.1-1.1,0.5-0.7-2.7c-0.1-3.6,0.5-0.5,1-0.9c0-1.8,0-3.5,0-5.3c-0.4-2.8-0.6,5.1-1.2,1.8
					c0-2.7-0.2-5.4,0-8c0.1-1.2,0.6-1,0.7-1.8c0.2-0.9,0.1-2.1,0.2-2.7c0.4-2.5,1.5-11.5,0.5-16c0,0-0.6,2.8-0.5,0.9
					c0-0.5,0.4-2.4,0.2-3.5c-0.1-0.6-0.4,0.1-0.5-0.9c-0.1-0.5-0.2-2.9-0.2-2.7c-0.1-1.9,0.4-1.9,0.5-2.7c0.1-1.5-0.5-2.8-0.5-3.6
					c0-1.7,0.4-2,0.5-3.5c0-1.5-0.5-2-0.5-3.6c0-1.6,0.5-1.2,0.5-4.4c0-5.3-0.6-11.9,1-16C86.7,998,86.5,995.8,86.4,993.3z
					 M84.4,824c0.3-2.3,0-7,0.7-8C85.2,816.4,85.6,825.3,84.4,824z M84.4,286c0-2.4-0.1-5.1,0.2-6.2C85.2,280.4,85.5,286.7,84.4,286
					z M85.6,762.9c-0.2,2,0.4,6.9-0.5,6.2C84.8,767.7,84.7,762,85.6,762.9z M86.1,1043c0,3.3,0,6.5,0,9.8c-0.7,1-0.5-1.6-0.5-2.7
					C85.6,1048.1,85.4,1042.5,86.1,1043z M85.4,872.8c0-0.6,0-1.2,0-1.8c0.2,0.2,0.2-0.3,0.2-0.9c0.2,0,0.3,0,0.5,0
					c0,0.8,0.1,0.8,0.2,0.9c0,0.6,0,1.2,0,1.8c-0.2-0.2-0.2,0.3-0.2,0.9c-0.2,0-0.3,0-0.5,0C85.7,872.9,85.5,872.8,85.4,872.8z
					 M86.4,754.9c0,2.2-0.4,2.7-0.5,4.4C85.2,758.3,85.2,753.9,86.4,754.9z M85.6,862.2c1-0.8,1.1,5.3,1,6.2
					C85.9,867.6,85.8,865,85.6,862.2z M86.4,735.4c0.4,1,0,5.3,0,7.1c0,2.6,0.4,8.5-0.5,8.9c-0.3-2.5-0.4-4.3-0.2-7.1
					c0.1-1.1,0.5-2.5,0.5-2.7C86.1,741.1,84.8,735.4,86.4,735.4z M85.9,844.4c0-1.3,0.5-0.4,0.7-0.9c0,0,0.4-1.7,0.2-1.8
					c0.5,0.3,0.3,4.4,1,5.3c-0.2,2.6-0.4,1-1,0.9c-0.1,2.1,0.5,2.2,0.5,3.5c0,2.6-0.9,4.1-0.2,8.9c-0.4-1-0.9-2.1-1-3.5
					c-0.1-1.8,0.4-1.7,0.5-3.5C86.6,851.9,86,847,85.9,844.4z M86.6,983.6c0,1.8,0,3.6,0,5.3C86.2,988.7,85.6,983.1,86.6,983.6z
					 M86.4,837.3c-0.1-2.3,0.1-3.8,0.7-3.5C87.1,836.1,87.2,838.2,86.4,837.3z M86.6,825.8c0.9-0.5,0.7,2.6,0.7,5.3
					C86.6,831.2,86.7,828,86.6,825.8z M87.3,817.8c0.4,1.3,0.2,4.6-0.5,4.4C86.5,820.9,86.5,817.2,87.3,817.8z M86.8,808.1
					c0-1.6,0.3-1.9,0.2-3.5c0.7-0.4,0.8,1.9,0.7,4.4C87.3,809.3,87.2,808.4,86.8,808.1z M87.1,800.1c-0.6-0.9,0.3-3.4,0-6.2
					C88.9,793.7,87.6,798.9,87.1,800.1z M86.8,770c-0.1-2.2,0.7-2.5,1-3.5c0.2-1-0.2-3.4,0.5-2.7c-0.2,4.3,0.4,5.9,0,8.9
					C87.7,772.1,87.8,769.2,86.8,770z M87.8,941C88.5,949.2,86.1,943.4,87.8,941L87.8,941z M87.3,792.1c0-2.4,0-4.7,0-7.1
					C88.2,785.2,88.3,792.3,87.3,792.1z M87.3,778.8c0-1.2,0-2.4,0-3.5C88.2,774.2,88.4,780.2,87.3,778.8z M87.8,721.2
					c0.6-5.3,1.8,3.3,1,6.2C88.4,725.6,88.4,722.3,87.8,721.2z M88.3,715.9c-0.1-2.1,0-3.4,0.2-4.4
					C89.1,711.2,89.4,717.5,88.3,715.9z M89,793c0.4,1.2,1.1,3.6,0.7,5.3C88.9,798.5,88.5,795,89,793z M89,786.8
					c1.1-0.8,1.4,5.5,0,4.4C88.7,790.1,88.7,788,89,786.8z M89.5,783.3c0.1,0.5-0.4,1.1-0.5,0.9c-0.1-0.4,0.5-1.9,0.5-1.8
					c0-2.1-0.6-7,0-8.9c1.3-0.2,0.9,5.4,1,9.8C89.9,784.5,89.5,781,89.5,783.3z M89.7,878.1c1.1,1.8-0.1,6.9,0.2,11.5
					C88.8,888.3,89.5,881.6,89.7,878.1z M89.2,669.8c-0.1-1.9,0.2-2.4,0.2-3.6c0.4,0.2,0.5,1.5,0.5,3.6
					C89.7,669.8,89.5,669.8,89.2,669.8z M90,650.3c0.3,1.2,0.2,5.3-0.5,5.3C89.1,654.2,89.2,650,90,650.3z M89.2,629
					c0.1-3.3,0.7-5.2,1-8C91.3,622.9,90.5,630,89.2,629z M90,602.4c0.3-1.5,0.6-3,0.5-6.2c1.5,0.4,0.2,5.7,0.5,9.8
					C90.6,604.9,90.6,602.4,90,602.4z M90.4,811.6c-0.1-2.3,0.1-3.8,0.7-3.5C91.2,810.4,91.2,812.5,90.4,811.6z M91.2,571.4
					c0.3,1.1,0.5,3,0.5,5.3c-0.2,0.5-0.4,0.9-0.7,0.9C90.4,575.6,90.9,573.2,91.2,571.4z M90.7,569.6c-0.1-2.8,0.3-3.5,0.5-5.3
					C91.7,565.1,91.5,570.8,90.7,569.6z M90.9,543c0-2.7-0.1-5.8,0.7-5.3C91.9,540.1,92.1,543.8,90.9,543z M92.1,476.6
					C90.5,471.3,93.6,469.1,92.1,476.6L92.1,476.6z M91.6,464.1c-0.2-4.4,0.7-4.4,1.4-5.3C93.4,463.4,92.6,464,91.6,464.1z
					 M91.9,499.6c0.9-0.6,1.1,1.4,1,4.4C92,504.6,91.9,502.2,91.9,499.6z M92.1,443.8c0-2.2,0-4.3,0.2-5.3
					C93,438.1,93.2,445.4,92.1,443.8z M92.8,402.1c-0.4-1.1-0.5-8.2,0.5-7.1C93.4,398.4,93.3,400.7,92.8,402.1z M92.6,387.9
					c0-2.3,0-4.6,0.7-4.4c0,1.6,0.3,1.9,0.2,3.5C93.3,387.7,93,388,92.6,387.9z M93.6,374.6c0.2,3.1-0.3,3.7-0.5,5.3
					C92.4,379,92.3,373.4,93.6,374.6z M93.8,309.9c0.2,0.5,0.4,0.9,0.7,0.9c-0.3,6.1,0.4,11.3-1.2,13.3c-0.5-1.3,0.2-1.4,0.2-2.7
					C93.8,318.1,93.4,313.2,93.8,309.9z M93.6,217.7c0.2-3.1,0.8-1,1.2,0c-0.3,2.3-0.1,6.6-1,7.1C93.5,221.3,94.5,218.6,93.6,217.7z
					 M93.8,203.5c1-0.2,1,9.9,0,9.8C93.6,209.4,93.7,208.3,93.8,203.5z M94.5,759.3c0.6,1.2,0.4,3.1,0.2,5.3
					C94.1,764.6,94.2,760.5,94.5,759.3z M102.7,597.1c-0.5-0.7-0.1-5-0.2-7.1c0.6-0.6,0.3,1.2,0.2,0.9
					C102.9,592.2,103.7,594.8,102.7,597.1z"/>
			</g>
		</g>
	</g>
</g>
</svg>
