<?xml version="1.0" encoding="utf-8"?>
<!-- Generator: Adobe Illustrator 28.0.0, SVG Export Plug-In . SVG Version: 6.00 Build 0)  -->
<svg version="1.1" id="Layer_1" xmlns="http://www.w3.org/2000/svg" xmlns:xlink="http://www.w3.org/1999/xlink" x="0px" y="0px"
	 viewBox="0 0 30 21.7" style="enable-background:new 0 0 30 21.7;" xml:space="preserve">
<style type="text/css">
	.st0{fill:#403D34;}
</style>
<path class="st0" d="M29.3,9.6c-0.1-0.2-0.3-0.3-0.5-0.3c-0.1,0-0.1,0-0.1,0c0-0.1,0-0.1-0.1-0.2c-0.1,0-0.3,0.1-0.4,0.1
	C28,9,27.8,9,27.6,9.1c-0.1,0-0.2,0.1-0.2,0.1l-0.1,0c0,0,0,0,0,0v0c0,0-0.1-0.1-0.1,0c0,0.1,0,0.2-0.1,0.3C27,9.3,27,9.2,27,9.1
	c0,0-0.1,0-0.1,0c0,0.1,0,0.1-0.1,0.2c0,0-0.1-0.1-0.1-0.1c0,0-0.1,0.1-0.1,0.1c0-0.1,0-0.2-0.1-0.2c0,0-0.1,0.1-0.1,0.1
	c0-0.2-0.1-0.2-0.1-0.4c0,0,0,0.1,0,0.1c0,0,0-0.1,0-0.1c0,0.1,0,0.1-0.1,0.2h-0.1c0,0.1-0.1,0.2-0.1,0.3c-0.1,0.1-0.2-0.3-0.2,0
	l-0.2-0.4c0,0-0.1,0-0.2,0c0,0-0.1,0.2-0.1,0.2c0,0-0.1,0.1-0.1,0c0,0.1-0.1,0.2-0.1,0.3c0-0.1,0-0.1-0.1-0.2
	C25,9.5,24.9,9,24.8,9.3c0-0.1,0-0.2,0-0.2l-0.1,0.1c0-0.1,0-0.1,0-0.1c0,0,0-0.1,0-0.1c-0.1,0.1-0.1-0.1-0.2,0c0,0.1,0,0.2-0.1,0.3
	c-0.1-0.1-0.2,0.1-0.3-0.1C24.1,9.2,24,9.2,24,9.2c0,0-0.1-0.1-0.1-0.1c-0.1,0.1-0.1,0.1-0.3,0c0,0-0.1,0-0.1,0
	c-0.1-0.1-0.1-0.1-0.2-0.2c0,0,0,0,0,0.1c-0.1,0.2-0.1,0.4-0.2,0.2c0-0.1-0.1,0-0.1-0.1c0-0.1-0.1-0.1-0.1,0.1
	c-0.1-0.2-0.1,0-0.2,0.1c-0.1-0.2-0.2-0.4-0.2-0.5c0,0.1-0.1,0.1-0.1,0.1c0-0.1-0.1-0.1-0.1,0C22,8.9,21.9,8.9,21.9,9
	c-0.1,0.1-0.1,0.1-0.2,0c0,0.1,0,0.2-0.1,0.3c0,0-0.1,0-0.1,0c0,0.1-0.1,0.1-0.1,0.2c0,0,0,0,0-0.1c-0.1-0.3-0.2-0.3-0.3-0.1
	c-0.1,0.1-0.2,0.1-0.3,0c-0.1-0.1-0.2-0.3-0.4-0.2c0,0-0.1-0.1-0.1-0.1c-0.1-0.1-0.1-0.1-0.2,0c0,0-0.1,0.1-0.1,0.1l-0.2,0.2
	c0-0.1,0-0.1-0.1-0.2c-0.1,0.2-0.1,0.2-0.2,0.2c0,0.1,0,0.1,0,0.1c0,0-0.1,0.1-0.1,0.1c-0.1-0.1-0.1-0.2-0.2-0.3
	c-0.1,0.1-0.1,0.2-0.2,0c0,0,0,0,0,0c-0.1,0.2-0.1,0.1-0.2,0c0,0-0.1-0.1-0.1,0c0,0.1-0.1,0.1-0.1,0.1c-0.1-0.1-0.1-0.2-0.2-0.3
	c-0.1,0.1-0.2,0.1-0.3,0.2c0,0,0-0.1,0-0.2c0,0-0.1,0.1-0.1,0.1c0,0-0.1,0-0.2-0.1c0-0.1-0.1,0-0.1-0.1c0,0.1-0.1,0-0.1,0.1
	c0,0.1-0.1,0-0.1-0.1c-0.1,0.2-0.1,0.1-0.2,0.1c0-0.1,0-0.2-0.1-0.3c-0.1-0.1-0.1,0.1-0.1,0.2C17.2,9,17.1,8.9,17,9c0,0,0,0-0.1-0.1
	c0,0-0.1,0-0.1,0c0,0-0.1,0-0.1,0.1c0,0,0,0-0.1-0.1l-0.1-0.1c0,0.1,0,0.2,0,0.3c-0.1,0.1-0.1,0.1-0.2,0.1c-0.1-0.2-0.2-0.3-0.2-0.1
	c0-0.1-0.1-0.1-0.1-0.2c0,0.1,0,0.1-0.1,0.2c0-0.1-0.1-0.2-0.1-0.2c0,0,0,0.1,0,0.1c0,0-0.1,0-0.1,0c0,0-0.1,0.1-0.1,0
	c0-0.1-0.1,0-0.1,0.1c0,0-0.1-0.1-0.1,0.1c0-0.1-0.1-0.1-0.2-0.1c0,0,0-0.1-0.1-0.1c0,0.1-0.1,0.2-0.1,0.3C15,9.3,15,9.2,14.9,9.1
	c-0.1,0.2-0.2,0.2-0.2,0.1c0-0.1-0.1-0.1-0.1,0c0,0.1-0.1,0-0.1-0.1c0,0,0,0.1,0,0.1c-0.1,0-0.2,0.1-0.2-0.1c0-0.1-0.1,0-0.1,0
	c-0.1,0.1-0.1,0-0.2,0.1c0-0.1-0.1-0.1-0.1-0.1c0,0,0,0,0,0c0,0,0,0.1,0,0.1c0,0.1,0,0.1,0,0.1c-0.1,0-0.3-0.1-0.4-0.3
	c-0.1,0.1-0.1,0.2-0.2,0.1c-0.1,0-0.1-0.1-0.2,0c0,0,0,0,0,0c-0.1-0.1-0.1-0.2-0.2-0.1c0,0-0.1,0-0.1,0c-0.1,0.1-0.1,0.1-0.2,0.2
	C12.2,9.1,12.1,9,12,8.9c0,0.1,0,0.2-0.1,0.3c0,0-0.1,0.1-0.1,0.1c-0.1-0.1-0.1-0.2-0.2-0.4c-0.1,0.1-0.1,0.1-0.1,0.2
	c0,0,0-0.1-0.1-0.2c0,0-0.1,0.1-0.1,0.1c0,0-0.1,0-0.1,0c0,0-0.1,0-0.1,0C11,9,11,9.2,11,9.1c0,0-0.1,0-0.1,0.1c0,0-0.1,0-0.1,0.1
	c0,0,0-0.1,0-0.1c-0.1,0-0.1,0-0.2-0.1c-0.1-0.1-0.1,0.1-0.2,0.1c0,0-0.1,0.1-0.1,0.1c0,0,0,0,0,0c0-0.1,0-0.1,0-0.1
	c0,0-0.1-0.1-0.1-0.1C10,9,10,9.1,10,9.1c0,0-0.1-0.1-0.1-0.1C9.8,9.2,9.7,9,9.6,9c0,0.1,0,0.1-0.1,0.2c0,0,0-0.1,0-0.1
	c0,0.1-0.1,0.2-0.1,0.3C9.3,9.4,9.3,9.3,9.2,9.2c0,0.1,0,0.2,0,0.2c0-0.1-0.1-0.1-0.1-0.2C9,9.3,9,9.3,9,9.4C8.9,9.2,8.8,9.1,8.8,9
	c0,0.1,0,0.1-0.1,0.2C8.7,9.1,8.6,9.1,8.6,9C8.5,9.1,8.4,9.2,8.4,9c0,0,0,0.1,0,0.1c0,0-0.1,0-0.1,0L8,9.1l-0.1,0
	c0,0.2-0.1,0-0.1,0.1c0,0,0-0.1-0.1-0.1c-0.2,0.1-0.2,0.1-0.4,0c0,0-0.1,0-0.1,0c0,0,0-0.1,0-0.1c0,0.1-0.1,0-0.1,0C7,8.9,7,9.1,7,9
	c0-0.1-0.1-0.1-0.1-0.1c0,0,0,0.1,0,0.2c0,0-0.1,0-0.1,0c-0.1,0.2-0.1,0.1-0.2,0C6.5,9,6.4,9,6.4,9c0,0-0.1-0.1-0.1,0
	C6.2,9.1,6.2,9.1,6.1,9.1c0,0.1,0,0.2-0.1,0.2c0,0,0-0.1,0-0.1c0,0,0,0.1,0,0.1C5.9,9,5.8,9,5.7,8.9c0,0.1-0.1,0.2-0.1,0.2
	c0,0,0,0-0.1,0.1c0,0,0,0,0,0c0,0-0.1,0-0.1,0.1c0,0-0.1,0-0.2,0c0,0,0-0.1,0-0.1c0,0,0,0,0.1,0c0.1,0,0.2,0,0.2,0
	c0,0,0.1-0.1,0.1-0.1c0-0.1,0-0.2,0-0.2c0.2,0,0.4,0,0.5,0C6.1,8.6,6.1,8.5,6,8.4c0-0.1,0-0.1,0-0.2c0.1,0,0.3,0.1,0.4,0.1
	c0-0.1,0-0.2,0-0.2c0,0,0.1,0.1,0.2,0.1c0,0,0-0.1,0-0.1c0,0,0-0.1,0.1-0.1c0,0,0-0.1,0.1-0.1c0.1,0,0-0.2,0.1-0.1c0,0,0-0.1,0-0.1
	c0,0,0-0.1,0.1-0.1c0,0,0.1,0.1,0.1,0.1c0.1,0,0.1-0.1,0.2-0.1c0.1,0,0.1-0.1,0.1-0.2c0-0.1,0-0.1,0-0.2c0,0,0,0,0,0
	c0,0,0.1,0.1,0.1,0.1c0.1,0,0.1,0,0.2,0c0,0,0-0.1,0-0.1c0,0,0.1,0,0.1,0C7.9,6.9,8.1,7,8.2,6.9c0-0.1-0.1-0.1-0.1-0.2
	c0,0,0.1,0,0.1,0c0-0.1-0.1-0.2-0.1-0.3c0-0.1,0.2,0,0.4,0c0-0.1-0.1-0.1-0.1-0.2c0.1,0,0.1,0,0.2,0.1c0-0.1,0-0.1,0-0.2
	c0.1,0.1,0.3,0.1,0.4,0.2c0-0.1,0-0.1-0.1-0.2c0.1,0,0.2,0,0.3,0.1c0-0.1,0-0.3,0.2-0.2c0,0,0-0.1,0-0.1c0,0,0.1-0.1,0.1-0.1
	l0.1-0.1l0.1-0.1c-0.1-0.2,0.1,0,0.1-0.2c0,0,0.1,0,0.1,0c0.1-0.2,0.1-0.2,0.3-0.3c0,0,0-0.1,0.1-0.1c0,0,0.1,0,0.1,0.1
	C10.3,5,10.4,5,10.4,5c0.1,0-0.1-0.2,0.1-0.1c0.1,0,0.1,0,0.2,0c0,0,0-0.1-0.1-0.1c0,0,0.1,0,0.1-0.1c0-0.2,0.1-0.2,0.2-0.2
	c0.1,0,0.2,0,0.2,0c0-0.1,0.1,0,0.1-0.1c0-0.1,0.1-0.1,0.1-0.2c0-0.1-0.1-0.1-0.1-0.2c0,0,0.1,0,0.1,0c0,0,0-0.1,0-0.1
	C11.4,4.1,11.5,4,11.7,4c0-0.1,0-0.2,0-0.2c0,0,0-0.1,0-0.1c0,0,0,0,0-0.1c0,0,0-0.1,0-0.1c0,0,0.1-0.1,0.1-0.1
	c0.3-0.1,0.5-0.3,0.7-0.6c0.1-0.1,0.1-0.2,0.3-0.2c0-0.2,0.1-0.4,0.1-0.6C13,2,13.1,2,13.1,1.9c0.1-0.4,0.2-0.8,0.2-1.2
	c0-0.1-0.2-0.2-0.4-0.2c-0.2,0-0.3-0.2-0.5-0.2c0-0.1,0-0.1,0-0.2c-0.2,0-0.4,0-0.5,0c-0.2,0-0.3-0.2-0.5,0c-0.2-0.1-0.3,0.1-0.5,0
	c-0.1,0.1-0.3,0.1-0.5,0.1c0,0.1,0,0.2-0.1,0.4c-0.2,0.1-0.5,0.3-0.7,0.4l-0.2,0C9.4,1,9.4,1,9.4,1c0,0,0,0.1,0,0.1
	c0.1,0.2,0.1,0.3,0,0.4c0,0,0.1,0.1,0,0.1c0,0,0,0.1,0,0.1c0,0-0.1,0-0.1,0.1c0,0-0.1,0-0.1,0.1c0,0,0,0.1,0,0.1
	c0,0.1-0.1,0.2-0.1,0.2C9,2.1,8.9,2,8.9,2C8.8,2,8.8,2,8.7,2c0,0,0,0.1,0,0.1C8.6,2,8.6,2,8.5,2c0,0.2,0.1,0.4,0.1,0.5L8.4,2.4
	c-0.1,0,0,0.3-0.1,0.2C8.2,2.6,8.1,2.5,8.1,2.5C8.2,2.6,8,2.5,8,2.6C8,2.7,8,2.7,8,2.7c0,0,0.1,0.2-0.1,0.1c0.1,0.2-0.1,0-0.1,0.1
	c0,0.1-0.1,0.1-0.1,0.1c0,0,0.1,0.1,0.1,0.2C7.7,3,7.6,3,7.5,3c0.1,0.2-0.2,0-0.2,0.2c0,0,0,0.1,0.1,0.2C7.3,3.3,7.2,3.3,7.2,3.3
	c0,0.2,0,0.3-0.1,0.3C7,3.5,7,3.5,6.9,3.5c0,0,0,0-0.1,0.1c-0.1,0-0.1-0.1-0.1-0.1c0,0-0.1,0-0.1,0.1c0,0.2-0.1,0.1-0.2,0.2
	C6.1,3.6,6.3,4,6.1,4c0,0,0,0.1,0,0.1c0,0.1,0,0.1-0.1,0.1c0,0-0.1,0.1-0.1,0.1c0,0-0.1-0.1-0.2-0.1C5.9,4.4,5.8,4.5,6,4.7
	c-0.1,0-0.2,0-0.2,0c0,0,0,0.1,0,0.1c0,0-0.1,0-0.1,0C5.5,4.9,5.4,5,5.4,5c0,0,0,0,0,0c0,0-0.1-0.1-0.1-0.1c0,0,0,0,0,0
	C5.1,4.9,5,4.9,5.1,5c0,0,0,0.1,0,0C4.9,5,5,5.2,4.9,5.1c-0.1,0-0.1,0-0.1,0c0,0,0,0.1,0,0.1c0,0-0.1,0-0.1,0c0,0.1,0,0.2,0,0.2
	c-0.1,0-0.2,0-0.2,0.1c0,0.1-0.1,0-0.2,0.1c0,0.1,0,0.2-0.1,0.2c0,0-0.1-0.1-0.2-0.1C4.1,5.8,4,5.8,4,5.9c0,0,0,0-0.1,0
	c0,0,0,0.1,0,0.1L3.8,6c0,0,0,0.1,0,0.1c0,0,0,0-0.1-0.1c0.1,0.1,0.1,0.2,0.2,0.2C3.6,6.1,3.8,6.4,3.8,6.6c-0.1,0-0.1,0.1-0.1,0.1
	c0,0-0.1-0.1-0.1-0.1c0,0.1-0.2,0.1-0.1,0.2c-0.1,0-0.2,0-0.3,0.1C3.1,6.8,3,6.9,3,6.9C3,7,3,7.1,2.9,7C2.9,7,2.8,7,2.8,7.1
	c0,0.1-0.1-0.1-0.1,0c0,0,0,0,0,0.1c0,0.1-0.1,0.1-0.2,0.1c0,0.1,0.1,0.3,0,0.2c-0.1,0-0.1,0-0.2,0c0,0-0.1-0.1-0.2-0.1
	c0,0.1,0.1,0.2,0,0.2C2,7.7,2,7.8,2,7.9C1.9,7.9,1.9,7.9,1.8,7.8c-0.1,0-0.1,0.1-0.1,0.3c0,0-0.1,0-0.1,0C1.6,8.2,1.5,8.3,1.5,8.5
	c-0.1,0-0.3-0.1-0.3,0C1,8.5,0.9,8.5,0.8,8.4c0,0.2,0.1,0.3,0.1,0.4c0,0-0.1,0.1-0.2,0.1C0.5,9,0.5,9.3,0.5,9.5
	c-0.1,0-0.2,0.1-0.2,0.1c0.1,0.2,0,0.2-0.1,0.3C0.2,9.9,0.3,10,0.3,10c-0.1,0.2-0.1,0.3,0,0.5c0.1,0.1,0.1,0.3,0.1,0.4
	c-0.1,0.1-0.2,0.2-0.3,0.2c-0.1,0-0.1,0-0.1,0c0,0-0.1,0.1-0.1,0.2c0,0,0.1,0,0.1,0c0,0-0.1,0.1-0.1,0.1c0,0,0.1,0,0.1,0.1
	c0.1,0.1,0.1,0.2,0.2,0.2c0.1,0,0.1,0.2,0,0.3c-0.1,0.1,0.1,0.1,0.1,0.2c0,0.1,0,0.3,0.2,0.3c0.1,0,0.1,0.1,0.2,0.1
	c0.1,0,0.1,0.1,0.1,0.1c0,0,0.1,0.1,0,0.2c0.1,0,0.1,0.1,0.1,0.1c0,0,0.1,0,0.1,0c0,0,0,0.1,0,0.1c0.1,0,0.1,0,0.1,0
	c0,0.1,0,0.1,0,0.1c0.1,0,0.2,0,0.2,0.1c0,0.1,0,0.2,0,0.3c0,0,0.1,0.1,0.1,0.1c0,0.1-0.1,0.1-0.1,0.2c0.2-0.1,0.4,0,0.6,0
	C2,13.9,2,14,2.1,14c0.2,0,0.2,0.1,0.3,0.1c0,0.1-0.1,0.1-0.1,0.2c0.1,0.1,0.4-0.1,0.5,0c0,0.2,0.1,0.2,0.1,0.3
	c0,0.1-0.1,0.1-0.1,0.1c0.1,0,0.1,0.1,0.1,0.1c0,0,0.1,0,0.1,0.1c0,0.1,0.1,0,0.2,0c0,0.1,0,0.2,0.1,0.2c0.1,0,0.1,0,0.2,0
	c0.1,0,0.1,0.1,0.2,0.1c0,0-0.1,0.1-0.1,0.2c0.1,0,0.1-0.1,0.2-0.1c0,0,0,0.1,0,0.1c0.1,0,0.2-0.1,0.3-0.1c0,0.1,0,0.2-0.1,0.3
	c0.2-0.1,0.3-0.1,0.3,0c0,0.1,0.1,0.1,0.1,0.2c0,0,0.1,0,0,0.1c0,0,0,0.1,0.1,0.1c0,0,0.1-0.1,0.1,0c0,0,0,0.1,0.1,0.1
	c0.1-0.1,0,0.1,0.1,0c0,0,0,0,0,0.1c0,0,0,0.1,0,0.1c0,0,0.1,0.1,0.1,0.1c0.1,0,0.1,0,0.2-0.1c0.1-0.1,0.1,0.1,0.1,0
	c0.1,0,0,0.1,0.1,0.1c0.1,0,0.1,0,0.2-0.1c0,0,0,0.1,0,0.1c0,0,0.1,0,0.1,0c-0.1,0.1-0.1,0.2-0.1,0.3c0.2,0,0.2,0,0.2,0.1
	c0,0.1,0,0.2,0.1,0.2c0.1-0.1,0.3-0.1,0.4-0.1c0,0,0,0,0,0.1c0,0,0.1,0,0.1,0c0,0.1,0,0.1-0.1,0.2c0,0,0.1,0.1,0.1,0.1
	c-0.1,0.1-0.1,0.2-0.1,0.3c0.1,0,0.2,0.1,0.3,0.1c0.1,0,0.2-0.1,0.3-0.1c0,0.1-0.1,0.1-0.1,0.2c0.1,0,0.1,0.1,0.2,0.1
	c0,0.1-0.1,0.1-0.1,0.2c0,0.2,0.2,0,0.4,0c0,0.1,0.2,0.1,0.1,0.2c0,0,0.1,0,0.1,0c0,0.1,0,0.2,0,0.2c0.1,0,0.1-0.1,0.2-0.1
	c0.1,0,0.2-0.1,0.2-0.2c0.1,0.1-0.1,0.3-0.1,0.5c0.1,0,0.1,0,0.1,0c0,0,0.1,0,0.2,0c0,0.1,0,0.1,0,0.2c0.1,0,0.2-0.1,0.3-0.1
	C8,18.9,8,18.9,8,19c0,0.1,0.1,0,0.1,0.2C8.2,19.1,8.4,19,8.6,19c0,0.1,0,0.2,0,0.3c-0.1,0.1-0.1,0.1-0.2,0.2c0.1,0,0.1,0,0.2,0
	c0,0,0,0.1,0,0.1c0.1,0,0.1-0.1,0.2-0.1c0,0,0,0.1,0,0.1c0,0,0,0.1,0.1,0.1c0.2,0,0.2,0.1,0.3,0.1c0.1,0,0.1-0.1,0.1-0.1
	c0.1,0,0.1,0,0.2,0.1c0,0.1,0.1,0.1,0.1,0.1c0.1,0,0.2,0,0.3-0.1c-0.1,0.2-0.1,0.4-0.2,0.6c0.1,0,0.2,0,0.3,0c0,0,0.1,0.1,0.1,0.1
	c0,0.1-0.1,0.1-0.1,0.2l0,0l0,0c0,0,0,0.1,0,0.1c0.3,0.1,0.5,0.3,0.7,0.5c0.2,0.2,0.5,0.3,0.7,0.4c0.3,0.1,0.7,0.1,0.9-0.2
	c0,0,0.1,0,0.1,0c0.4,0,0.7-0.2,1-0.6c0-0.4,0-0.8,0.1-1.2c0.1-0.3,0-0.4-0.2-0.6c0,0-0.1-0.1-0.1-0.1c0-0.1,0-0.1,0.1-0.2
	c-0.1-0.1-0.3-0.1-0.4-0.2c0-0.2-0.2-0.3-0.3-0.4c-0.1,0-0.2-0.1-0.2-0.1l-0.1-0.1c0,0,0,0,0,0l0,0c0,0,0-0.1-0.1-0.1
	c-0.1,0-0.1,0.1-0.3,0.2c0-0.1,0.1-0.2,0.1-0.3c0,0,0,0-0.1-0.1c-0.1,0-0.1,0.1-0.2,0.1c0-0.1,0-0.1,0-0.1c-0.1,0-0.1,0-0.1,0
	c0-0.1,0.1-0.2,0.1-0.2c-0.1,0-0.1,0-0.2,0c0.1-0.2,0.1-0.2,0.2-0.4c0,0-0.1,0-0.1,0.1c0,0,0-0.1,0-0.1c-0.1,0-0.1,0.1-0.2,0.1
	l-0.1-0.1c-0.1,0-0.2,0.1-0.2,0.1c-0.1,0,0-0.3-0.2-0.2c0-0.1,0-0.3,0.1-0.4c0,0-0.1-0.1-0.1-0.1c0,0-0.2,0.1-0.2,0.1
	c0,0-0.2,0-0.1-0.1c-0.1,0-0.2,0.1-0.3,0.1c0-0.1,0-0.1,0.1-0.2c-0.3,0.2-0.1-0.3-0.3-0.2c0-0.1,0.1-0.2,0.1-0.2l-0.1,0
	c0,0,0-0.1,0.1-0.1c0,0,0,0,0-0.1c-0.1,0,0-0.2-0.1-0.1C9.7,15.9,9.6,16,9.6,16c0-0.1-0.2-0.1-0.2-0.3c-0.1,0-0.2,0-0.3-0.1
	c0,0,0-0.1,0-0.1c-0.2,0-0.2,0-0.3-0.2c0,0-0.1,0-0.1-0.1c0-0.1,0-0.2,0-0.3c0,0,0,0-0.1,0c-0.2,0.1-0.4,0.2-0.3,0
	c0-0.1,0-0.1,0-0.1c0-0.1-0.1-0.1-0.2-0.1c0.1-0.2-0.1-0.1-0.2-0.1c0-0.2,0.1-0.4,0.1-0.6c-0.1,0.1-0.2,0-0.1,0c0-0.1,0-0.1-0.1-0.1
	c-0.1,0-0.2,0-0.3,0c-0.1,0-0.2-0.1-0.2-0.2C7.2,13.8,7.1,13.9,7,14c0,0-0.1,0-0.1-0.1c-0.1,0-0.2,0.1-0.2,0.1c0,0,0-0.1,0-0.1
	c0.1-0.3,0-0.3-0.1-0.3c-0.1,0-0.2,0-0.3-0.2c0-0.2,0-0.4-0.2-0.4c0,0,0-0.1,0-0.2c0-0.1-0.1-0.1-0.2-0.2c-0.1,0-0.1,0-0.2,0l-0.3,0
	c0,0,0,0,0,0c0.1-0.2,0.1-0.3,0.2-0.3c0,0,0-0.1,0.1-0.1c0,0,0,0,0.1,0c0,0,0.1,0,0.1,0c0,0,0.1,0,0.1,0c0,0,0,0,0.1-0.1
	c0.1,0,0.1-0.1,0.2-0.1c0,0.1,0.1,0.1,0.1,0.2c0,0.1,0.1,0.1,0.1,0.2c0,0,0-0.1,0-0.1c0,0.1,0.1,0.2,0.1,0.2
	c0.1-0.2,0.2-0.3,0.3-0.5c0,0,0,0.1,0,0.2C7,12.3,7,12.1,7.1,12.2c0,0.1,0,0.2,0.1,0.3c0-0.2,0.1,0,0.1,0c0-0.1,0.1-0.1,0.1-0.1
	c0,0,0.1-0.2,0.1,0c0-0.2,0.1,0.1,0.1,0c0,0,0.1,0,0.1,0c0,0,0-0.1,0-0.2c0.1,0.1,0.1,0.2,0.1,0.2c0.1-0.2,0.2,0.1,0.3,0
	c0,0,0-0.1,0-0.2c0,0.1,0.1,0.2,0.1,0.2c0.1-0.1,0.2-0.2,0.3-0.2c0,0.1,0,0.1,0.1,0.2c0,0,0.1,0,0.1,0c0,0.1,0,0.1,0,0.2
	c0,0,0.1,0,0.1,0c0.1-0.2,0.2,0,0.2-0.1c0.1,0.3,0.2-0.1,0.3,0c0,0,0.1,0,0.1-0.1c0-0.1,0.1,0,0.1,0c0,0,0.1,0,0.1,0
	c0,0,0,0.1,0,0.2c0-0.2,0.1-0.2,0.1-0.5c0.1,0,0.1,0.1,0.2,0.1c0,0,0.1-0.1,0.1-0.1s0.1,0.1,0.1,0.1c0.1,0,0.2,0,0.2,0c0,0,0,0,0,0
	c0,0,0,0.1,0,0.2c0,0,0,0,0,0c0,0.1,0.1,0.2,0.1,0c0,0,0,0,0.1,0c0,0.2,0.1-0.1,0.1,0c0,0.1,0.1,0.1,0.1,0.1c0,0,0-0.1,0-0.1
	c0,0,0,0.1,0.1,0.1c0-0.1,0.1-0.1,0.1-0.2c0.1,0,0.1,0.1,0.2,0.1c0.1-0.1,0.1,0.1,0.2,0c0.1-0.1,0.1-0.1,0.2-0.1
	c0,0.1,0,0.1,0.1,0.2c0.1,0,0.1-0.1,0.2-0.1c0,0,0,0,0,0.1c0,0,0-0.1,0.1-0.1l0.1,0.1c0,0,0-0.1,0-0.1c0,0,0,0,0.1,0.1
	c0-0.1,0-0.2,0-0.3c0.1,0.3,0.2-0.1,0.2-0.2c0.1,0,0.1,0,0.1,0c0,0.1,0,0.1,0,0.2c0.1,0,0.1,0.1,0.2-0.1c0.1,0.1,0.2,0.1,0.2,0.2
	c0,0,0.1,0,0.1,0c0-0.1,0.1-0.1,0.1,0c0,0.1,0.1,0,0.1,0c0,0,0.1,0.1,0.1,0c0,0,0,0,0.1,0c0.1,0,0.1-0.1,0.2,0
	c0.1-0.1,0.1-0.3,0.2-0.1c0,0.1,0.1,0,0.2,0.1c0,0,0,0.1,0.1,0.3c0-0.1,0.1-0.2,0.1-0.2c0.1,0,0.2-0.1,0.2-0.2c0,0.1,0,0.1,0,0.2
	c0.1,0.1,0.1,0,0.2-0.2c0,0,0,0.1,0,0.1c0.1-0.1,0.1-0.1,0.2-0.2c0,0.1,0.1,0.3,0.1,0.2c0,0.1,0,0.2,0.1,0.3
	c0.1-0.1,0.1-0.2,0.2-0.4c0,0,0.1,0,0.1,0.1c0.1,0.1,0.2,0.1,0.3-0.1c0,0.1,0.1,0.1,0.1,0.2c0.1-0.2,0.1,0,0.2,0
	c0-0.1,0-0.1,0.1-0.2c0.1,0,0.2,0,0.2-0.1c0.1-0.1,0.2-0.1,0.2-0.1c0,0.1,0.1,0.2,0.1,0.3c0,0.1,0,0.1,0,0.1c0,0,0,0.1,0.1,0.1
	c0,0,0,0,0-0.1c0,0,0,0.1,0,0.1c0,0,0-0.1,0-0.1c0-0.1,0.1,0,0.1-0.1c0-0.1,0.1,0,0.1,0c0,0.1,0.1-0.1,0.1,0c0.1,0.1,0.1,0.1,0.2,0
	c0,0,0.1-0.1,0.1-0.1c0,0,0.1,0,0.1,0c0,0,0.1,0,0.1,0.1c0-0.1,0,0,0.1,0c0,0,0,0,0-0.1c0,0,0,0.1,0,0.1c0,0,0-0.1,0-0.1
	c0,0,0,0.1,0,0.1c0,0,0.1-0.1,0.1-0.1c0,0.1,0,0.1,0.1,0.2c0,0,0.1,0,0.1,0c0,0.1,0,0.1,0,0.2c0.1-0.2,0.3-0.2,0.4-0.3
	c0,0.1,0.1,0.1,0.1,0.1c0.1-0.1,0.2-0.1,0.2-0.1c0,0.1,0,0.1,0,0.2c0.1,0,0.2-0.3,0.3-0.3c0.1,0.2,0.2,0,0.3,0.2c0,0.1,0,0.1,0,0.2
	c0.1,0,0.1,0,0.2,0c0,0,0.1-0.1,0.1,0c0,0,0.1-0.1,0.1-0.2c0.1,0,0.1,0.1,0.1,0.1c0-0.1,0.1-0.1,0.1-0.1c0.1,0,0.1,0,0.2,0
	c0,0,0,0.1,0,0.2c0-0.1,0-0.1,0.1-0.2c0,0,0,0.1,0,0.1c0-0.1,0.1-0.2,0.1-0.3c0,0.1,0.1,0.2,0.1,0.3c0.1-0.2,0.1-0.3,0.2-0.2
	c0.1,0.1,0.1,0.1,0.2,0.1c0,0,0.1,0,0.1,0.1c0,0,0.1,0,0.1,0c0,0,0-0.1,0.1,0c0,0,0.1,0,0.1,0c0-0.1,0.1,0.1,0.1,0c0,0,0,0,0.1,0
	c0,0,0.1,0.1,0.1,0.1c0.1,0,0.1,0,0.1,0c0-0.1,0.1-0.1,0.1-0.2c0-0.1,0.1,0,0.1-0.1c0,0,0.1,0,0.1,0.1c0-0.1,0.1-0.1,0.1-0.2
	c0,0,0,0.1,0.1,0.1c0,0,0-0.1,0.1-0.1c0,0.1,0,0.2,0.1,0.3c0.1-0.1,0.2-0.1,0.2,0c0.1,0.1,0.1,0.2,0.2,0.1c0.1-0.1,0.1-0.3,0.2-0.3
	c0,0,0,0,0,0.1c0,0,0-0.1,0-0.1c0,0.1,0,0.1,0.1,0.2c0,0,0.1,0,0.1,0c0,0.1,0,0.2,0.1,0.3c0.1,0,0.2-0.1,0.2-0.1l0.1-0.3
	c0,0.1,0,0.1,0.1,0.2c0.1,0,0.1,0,0.2-0.1c0,0.1,0,0.1,0,0.2c0.1,0.1,0.1-0.2,0.2-0.3c0.1,0,0.1-0.1,0.2,0.1c0,0,0-0.1,0-0.1
	c0,0.1,0.1,0.1,0.1,0.2c0-0.1,0.1-0.1,0.1-0.2c0-0.1,0-0.2,0.1-0.3c0.1,0,0.2,0.3,0.2,0.5c0,0,0.1-0.1,0.1-0.1c0,0,0.1-0.1,0.1-0.1
	c0,0,0.1,0.1,0.1,0.1c0.1-0.1,0.1-0.2,0.1-0.2c0,0.1,0,0.1,0,0.2c0,0,0.1-0.1,0.1,0.1c0.1-0.2,0.1-0.3,0.2-0.5
	c0,0.1,0.1,0.2,0.1,0.2c0,0.1,0,0.2,0,0.3c0-0.1,0.1-0.1,0.1-0.1c0,0,0,0.1,0,0.1l0.1-0.2c0,0,0.1,0,0.1,0.1c0,0,0.1,0.1,0.1,0
	c0.1-0.1,0.2-0.1,0.2-0.1c0-0.1,0-0.1,0-0.2c0.1,0,0.1-0.1,0.2-0.1c0.1,0,0.1,0.1,0.1,0.1c0.1-0.1,0.1-0.2,0.1-0.2
	c0.1,0.2,0.1,0.4,0.2,0.6c0,0,0.1-0.1,0.2-0.2c0,0,0.1,0,0.1,0c0,0.1,0,0.1,0,0.2v0l0,0c0,0,0,0.1,0,0c0.3-0.1,0.6,0,0.8-0.1
	c0.3,0,0.5-0.1,0.8-0.1c0.3-0.2,0.6-0.4,0.6-0.7c0,0,0-0.1,0.1-0.1c0.3-0.3,0.4-0.6,0.4-1.1C29.8,10.2,29.5,9.9,29.3,9.6z M5,12.6
	C5,12.6,5,12.6,5,12.6c0.1,0,0.1,0,0.2,0c0,0,0,0,0,0C5.1,12.6,5,12.6,5,12.6z"/>
</svg>
