<?xml version="1.0" encoding="utf-8"?>
<!-- Generator: Adobe Illustrator 27.5.0, SVG Export Plug-In . SVG Version: 6.00 Build 0)  -->
<svg version="1.1" id="Layer_1" xmlns="http://www.w3.org/2000/svg" xmlns:xlink="http://www.w3.org/1999/xlink" x="0px" y="0px"
	 viewBox="0 0 40 40" style="enable-background:new 0 0 40 40;" xml:space="preserve">
<style type="text/css">
	.st0{fill:#2C2923;}
	.st1{fill:#2E2B25;}
</style>
<g>
	<ellipse class="st0" cx="21" cy="21" rx="14.5" ry="15.2"/>
	<g>
		<g>
			<path class="st1" d="M30.8,21.1c0-0.1,0-0.1,0-0.1h7c0,0,0,0,0,0c0.1,0.2,0.1,0.3,0.1,0.5c0,0.3,0.1,0.4,0.3,0.5
				c0,0.1,0,0.2,0,0.3c0,0.2-0.2,0.3,0,0.5c0,0,0,0.1-0.1,0.2c-0.1,0.3,0.4,0.6,0.5,0.8c0.1,0.3,0,0.6,0.1,0.9c0,0.1,0,0.2-0.1,0.3
				c-0.2,0.2-0.1,0.5-0.3,0.7c0.1,0,0.2-0.1,0.3-0.1c-0.1,0.6-0.3,1.2-0.6,1.7c-0.3,0.4-0.6,0.8-0.7,1.3c-0.1,0.2-0.2,0.3-0.1,0.5
				c-0.2,0.1-0.2,0.3-0.3,0.4c-0.1,0.2-0.1,0.5-0.2,0.6c-0.2,0.2-0.3,0.4-0.4,0.6c0,0.1,0,0.2,0,0.3c0,0-0.1,0-0.1,0.1
				c-0.3,0.1-0.5,0.2-0.5,0.4c-0.1,0.5-0.5,0.8-0.7,1.1c-0.1,0.2-0.3,0.2-0.5,0.4c-0.2,0.1-0.3,0.3-0.4,0.4
				c-0.1,0.1-0.3,0.2-0.4,0.2c-0.2,0-0.3,0-0.4,0.1c-0.1,0.1-0.2-0.1-0.4,0.1c-0.1,0.1-0.3,0-0.4,0.1c0-0.1,0-0.1,0-0.2
				c-0.3,0.2-0.6,0.4-0.9,0.5c-0.1,0-0.1,0.1-0.2,0.2c-0.1,0.1-0.2,0.3-0.3,0.3c-0.4,0.1-0.6,0.5-0.9,0.7c-0.3,0.2-0.5,0.6-0.8,0.8
				c-0.1,0.1-0.2,0.2-0.2,0.3c0,0.3-0.3,0.4-0.6,0.5c-0.2,0.1-0.4,0.1-0.6,0.3c-0.1,0.1-0.3,0.3-0.5,0.4c0,0-0.1,0.1-0.1,0.1
				c0,0.1,0,0.1-0.2,0.2c-0.3,0.1-0.6,0.3-0.8,0.4c-0.3,0.1-0.6,0.1-1,0.2c0,0,0-0.1-0.1-0.1c-0.4,0.1-0.9,0.1-1.3,0.2
				c-0.7,0.1-0.7,0.2-1.4,0.1c-0.2,0-0.3,0-0.4,0c-0.4,0.1-0.7,0.2-1.1,0.3c-0.4,0-0.8,0-1.2,0c-0.1,0-0.2,0-0.3,0
				c-0.4-0.2-0.8-0.1-1.2,0c0-0.1-0.1-0.2-0.1-0.2c-0.5,0-1,0.1-1.5-0.1c-0.1,0-0.3,0-0.4,0c-0.1,0-0.2-0.1-0.3-0.1
				c-0.3,0,0-0.2-0.2-0.2c-0.3,0-0.5,0-0.8-0.2C15,38.1,14.7,38,14.3,38c-0.1,0-0.2-0.1-0.3-0.2c0,0.1-0.1,0.1-0.2,0.1
				c-0.4,0-0.7-0.1-1-0.3c-0.3-0.1-0.5-0.4-0.8-0.4c-0.1,0-0.2-0.1-0.2,0c-0.3,0.1-0.4,0.1-0.7-0.1c-0.4-0.2-0.6-0.5-0.9-0.8
				c-0.3-0.4-0.8-0.7-1.2-1c-0.3-0.2-0.5-0.3-0.6-0.6c-0.2-0.1-0.3-0.4-0.6-0.5c0,0-0.1-0.1-0.1-0.1c0-0.3-0.2-0.4-0.5-0.7
				c-0.3-0.2-0.6-0.6-0.7-1c-0.1-0.3-0.2-0.5-0.4-0.8C6,31.6,5.9,31.3,6,31.2c0-0.1,0-0.2,0-0.2c-0.3-0.4-0.6-0.8-1-1.2
				c-0.3-0.3-0.8-0.6-0.9-1.3c0-0.1-0.1-0.2-0.2-0.3c-0.1-0.3-0.4-0.5-0.4-0.9c-0.1-0.3-0.2-0.6-0.3-0.9l0.1-0.1
				c-0.2-0.3-0.2-0.3-0.4-0.8c-0.1-0.3-0.2-0.6-0.4-0.7l-0.4-0.9c0.2-0.4-0.1-0.5-0.2-0.7c0-0.1-0.2-0.2-0.2-0.3
				c0-0.4,0-0.8,0.1-1.2c0.1-0.3,0-0.5,0.1-0.8c0-0.4,0.1-0.7,0.2-1C2,19.6,2,19.5,2,19.3c-0.1-0.5,0-0.5,0.2-1.4
				c0.1-0.4,0.1-0.8,0.2-1.2c0.2-0.1,0.4-0.2,0.4-0.5c0-0.3,0.2-0.5,0.3-0.7c0.1-0.3,0.2-0.3,0.4-0.3c0.1-0.2,0.2-0.5,0.2-0.7
				c0-0.1-0.1-0.1-0.1-0.2c0.1-0.2,0.1-0.3,0.2-0.5c0-0.1,0.1-0.3,0.1-0.4c0-0.1,0-0.3,0.1-0.4C4,12.7,3.9,12.5,4,12.3
				c0.1-0.2,0.1-0.5,0.2-0.7c0.2-0.6,0.3-1.2,0.7-1.7c0.5-0.7,0.8-1.5,1.4-2.1c0.1-0.1,0.1-0.2,0.2-0.4c0.1,0,0.2,0,0.2,0
				C7.1,7,7.3,6.6,7.6,6.2c0-0.1,0.1-0.2,0.1-0.2c0-0.1,0-0.2,0-0.3c0.4-0.7,0.4-0.7,0.9-1c0.1-0.1,0.3-0.2,0.3-0.2
				c0.6,0,0.7-0.5,1.1-0.8c0.1-0.1,0.2-0.2,0.3-0.3C10.6,3.1,10.9,3,11,2.8c0.2-0.3,0.4-0.2,0.6-0.3C12.1,2.2,12.5,2,13,1.9
				c0.1-0.1,0.5-0.2,0.5,0c0,0.1,0.2,0.1,0.3,0.1c0.4-0.1,0.7,0.2,1,0.2c0.1,0,0.3-0.1,0.4-0.1c0.1,0.2-0.3,0.4-0.4,0.6
				c0.1,0,0.3-0.1,0.4-0.1c0.1-0.1,0.2-0.3,0.4-0.2c0,0,0.4,0.1,0.4,0.1c0,0,0.1,0.1,0.1,0.1c0,0,0.1,0,0.1,0c0.1,0,0.2-0.1,0.2-0.1
				c0.1,0.3,0.3,0.1,0.5,0c0.3-0.1,0.5-0.2,0.7-0.3c0.3-0.1,0.6-0.2,0.9-0.3c0.7-0.3,1.4-0.2,2.1-0.4c0.3-0.2,0.8-0.1,1.2-0.1
				c0.4,0,0.8,0.1,1.2,0.2c0.2,0.1,0.5,0.2,0.7,0.2c0.3,0.1,0.7,0.1,0.9,0.3c0.2,0.2,0.6,0.3,0.9,0.3c0.4,0.1,0.8,0.2,1.1,0.5
				c0.1,0.1,0.2,0.3,0.4,0.2c0.2,0.1,0.4,0.2,0.5,0.3c0.1,0.1,0.2,0.2,0.3,0.3c0.2,0.1,0.3,0.2,0.5,0.3c0.1,0,0.2,0.1,0.2,0.1
				c0.1,0.3,0.4,0.4,0.7,0.5c0,0.2,0.1,0.3,0.1,0.3c0.6,0.5,1.2,0.8,1.7,1.3C31.4,6.8,31.7,7,32,7.3c0.2,0.3,0.5,0.5,0.7,0.8
				c0.1,0,0.3,0,0.4,0c0.5,0,0.9,0.4,1.2,0.9c0.1,0.2,0.2,0.1,0.3,0.1c0-0.1-0.1-0.2-0.1-0.2c0,0,0.1,0,0.1,0
				c0.1,0.2,0.2,0.4,0.3,0.5c0.2,0.3,0.4,0.6,0.7,0.8c0.4,0.3,0.5,0.8,0.7,1.1c0,0.3,0.2,0.6,0.2,0.9c0,0.1-0.1,0.2-0.1,0.3
				c0.2,0.2,0.4,0.5,0.4,0.7c-0.1,0.3,0.2,0.6,0.2,0.9c0,0.3,0.2,0.6,0.4,0.8c0.1,0.1,0.2,0.3,0.1,0.4c0,0.1,0.1,0.3-0.1,0.3
				c-0.2,0-0.1-0.2-0.1-0.3c0-0.1-0.1-0.3-0.3-0.5c-0.2,0.1,0.1,0.7-0.2,0.4c0.1,0.4-0.4,0.5-0.2,0.5c0.5,0,0.4,0.4,0.4,0.4
				c-0.3,0.4,0.4,0.5,0.3,0.9c0,0.1,0.2,0.4,0.3,0.6c0.1,0.5,0.2,1,0.2,1.5c0,0.4-0.1,0.7,0,1c0,0.2,0,0.5-0.1,0.7h-7
				c0-0.1-0.1-0.2-0.2-0.3c0,0,0-0.2,0-0.2c0.2-0.2,0-0.3-0.2-0.3c-0.1,0-0.1-0.1-0.1-0.1c-0.1-0.3-0.2-0.5-0.2-0.7
				c-0.2-0.4-0.2-0.5-0.2-1c-0.2-0.1,0-0.2-0.1-0.3c-0.1-0.1-0.1-0.2-0.2-0.3c-0.1-0.1-0.1-0.3-0.3-0.4c0-0.2-0.2-0.2-0.3-0.2
				c0.1-0.1,0.1-0.3,0.3-0.4c0.1-0.1,0.1-0.2,0.2-0.3c0,0,0-0.1,0-0.2c0,0,0.1-0.1,0.1-0.1c0,0,0.1,0.1,0.2,0.1
				c0-0.2,0.1-0.4,0.1-0.6c0,0,0.1,0,0.1,0c0-0.3,0.2-0.5,0.3-0.7c0.1-0.2,0-0.2-0.1-0.3c0.1,0,0.2-0.1,0.2-0.1c0-0.1,0.1-0.3,0-0.4
				c-0.2-0.3-0.4-0.7-0.8-0.7c-0.1,0-0.1-0.1-0.2-0.1c-0.1-0.1-0.1-0.1-0.2-0.1c-0.1,0-0.1,0-0.2-0.1c-0.2-0.2-0.4-0.3-0.6-0.5
				c-0.2-0.1-0.4-0.2-0.6-0.2c-0.2-0.1-0.5-0.2-0.7-0.3C27,12.1,26.9,12,26.7,12c-0.2,0-0.3-0.2-0.5-0.3c-0.1-0.1-0.1-0.2-0.1-0.3
				c-0.1,0.1-0.2-0.1-0.3-0.1c-0.2,0-0.4-0.1-0.6-0.2c-0.1,0.1-0.2,0.1-0.3,0.2c-0.1-0.2-0.1-0.3-0.2-0.4c0-0.1-0.1-0.2-0.1-0.3
				c0,0-0.1,0-0.1-0.1c0-0.4,0-0.4-0.2-0.6c0,0,0,0,0,0c0.1,0,0.1-0.1,0.2-0.3c0,0-0.1,0-0.1-0.1c-0.2-0.3-0.5-0.5-0.6-0.9
				c0,0,0-0.1,0-0.1c-0.1-0.1-0.3-0.2-0.4-0.4c-0.2-0.2-0.5-0.2-0.8-0.3c-0.4-0.2-0.8-0.2-1.3-0.2c-0.2,0-0.4,0-0.6,0.1
				c-0.2,0-0.4,0.1-0.6,0.1c-0.1,0-0.3-0.1-0.4,0c-0.3,0.2-0.7,0.2-1,0.4c-0.1,0-0.2,0-0.3,0.1c-0.4,0.1-0.7,0.2-0.9,0.5
				c-0.1,0.1-0.3,0.2-0.4,0.4c0,0-0.1,0-0.2,0c0,0.2,0,0.3,0,0.4c-0.1-0.1-0.3,0-0.3,0.1c-0.1,0.4-0.3,0.6-0.6,0.7
				c-0.2,0.1-0.4,0.3-0.6,0.3c-0.1,0-0.2,0.1-0.1,0.2c0.1,0.2,0,0.3-0.2,0.4c-0.1,0-0.2,0.1-0.2,0.2c0,0-0.1,0.1-0.1,0.1
				c-0.2,0-0.6,0-0.6,0.4c0,0-0.1,0-0.1,0c-0.3-0.1-0.3,0.2-0.3,0.3c0,0.2-0.1,0.3-0.2,0.4c0,0,0,0.1-0.1,0.2c0,0.1-0.2,0.1-0.2,0.1
				c-0.1-0.3-0.2,0-0.4-0.1c0-0.1,0-0.1,0.1-0.2c-0.1,0-0.2,0.1-0.3,0.1c-0.2,0-0.3,0-0.5-0.2c-0.2-0.2-0.4-0.1-0.6-0.1
				c-0.1,0-0.2,0.2-0.3,0c-0.1,0-0.2,0.1-0.3,0.2c-0.1,0.1-0.1,0.2-0.1,0.3c0.1,0.1,0.1,0.2,0,0.3c0,0-0.1,0.1-0.1,0.1
				c0,0.4-0.2,0.7-0.4,1c0.1,0.2,0.1,0.4,0.1,0.7c0,0.2,0,0.4,0,0.6c-0.1,0.4,0,0.8-0.1,1.1c0,0.1,0.1,0.2,0.1,0.3
				c0,0.3-0.1,0.7-0.1,1c0.1,0.1,0.3,0.2,0.2,0.4c0,0.1,0,0.3-0.1,0.4c-0.1,0.2,0,0.4,0.1,0.7c-0.4,0.3-0.3,0.4-0.5,0.4
				c-0.1,0.2,0.1,0.4,0.1,0.6c0.2,0.5,0.5,0.9,0.4,1.4c-0.2,0.1-0.4,0.2-0.6,0.2c-0.2,0.1-0.3,0.2-0.5,0.3c-0.1,0.1-0.3,0-0.2,0.2
				c-0.2,0-0.2,0.2-0.4,0.3c-0.2,0.2-0.4,0.3-0.4,0.6c0,0.1-0.1,0.2-0.1,0.2c-0.2,0.1-0.1,0.3-0.1,0.4c-0.1,0-0.2,0-0.3-0.1
				c0.2,0.3,0.3,0.6,0.7,0.8c0.3,0.1,0.6,0.4,0.8,0.8c0.1,0.2,0.3,0.3,0.3,0.5c0,0.2,0.1,0.3,0.2,0.5c0.2,0,0.4-0.1,0.6-0.1
				c0.1,0.2,0.2,0.4,0.3,0.5c0.1,0.2,0.2,0.4,0.5,0.3c0.2,0,0.3,0.2,0.3,0.3c0,0,0.1,0.1,0.1,0.1c0.2,0,0.3,0.1,0.4,0.2
				c0.1,0,0.2,0.1,0.2,0.2c0,0.2,0.1,0.3,0.3,0.4c0,0,0,0.1,0.1,0.1c0.1,0.2,0.2,0.4,0.5,0.4c0.1,0,0.3,0,0.3,0.2c0,0,0,0,0.1,0
				c0.2,0,0.3,0,0.4,0.3c0.1,0.1,0.3,0.3,0.3,0.4c0,0.1,0.1,0.2,0.2,0.3c0.1,0.1,0.3,0.2,0.4,0.4c0.1,0.1,0.2,0.2,0.4,0
				c0.1,0.1,0.3,0.1,0.4,0.2c0.1,0.1,0.1,0.3,0.2,0.4c0,0,0,0.1,0,0.1c0,0,0,0-0.1,0c0,0,0,0,0,0.1c0,0,0,0,0.1,0
				c0.1,0.2,0.3,0.5,0.2,0.8c0.1,0.2,0.2,0.5,0.4,0.5c0.2,0,0,0.3,0.2,0.3c0.1,0,0.1-0.2,0.3-0.1c0.2,0.1,0.4,0.1,0.6-0.1
				c0.2-0.2,0.5-0.2,0.7-0.3c0.2,0,0.4-0.1,0.6-0.1c0.1,0,0.2,0,0.2,0.1c0,0,0.1-0.1,0.1-0.1c0.3,0.1,0.6,0,0.9-0.2
				c0.3,0.2,0.5-0.2,0.7-0.1c0.1,0,0.2-0.1,0.3-0.2c0.2,0,0.4,0.1,0.5-0.2c0,0,0.1,0,0.1,0c0.2,0,0.4-0.1,0.7-0.2c0,0,0.1,0,0.1-0.1
				c0.1-0.2,0.2-0.2,0.3-0.1c0.1,0,0.1-0.1,0.1-0.2c0,0,0,0,0,0l0-0.2l0.4,0c0.1,0,0.3,0.1,0.4,0c0.2-0.2,0.4-0.2,0.5-0.3
				c0.1,0,0.2-0.1,0.2,0c0.1,0.2,0.3,0,0.3,0c0.1-0.1,0.2,0.1,0.2,0.1c0.2,0,0.3-0.3,0.6,0c0,0,0.1,0,0.1-0.1
				c0.2-0.2,0.4-0.2,0.6-0.1c0.1,0,0.2,0,0.1-0.1c0,0,0.2,0,0.1-0.2c0-0.1,0-0.1,0.1-0.2c0.1,0.1,0.2,0.3,0.3,0.4
				c0.1,0,0.1,0,0.2-0.1l0.1,0.2c0.1,0,0.2,0.2,0.4,0.1c0.1-0.1,0.1,0.1,0.1,0.2c0.1,0,0.3,0,0.5,0.1c0.2-0.1,0.4-0.3,0.5-0.5
				c0-0.1,0-0.2-0.1-0.2c0-0.1,0-0.2,0-0.2c0.3-0.1,0.2-0.4,0.3-0.7c0.1-0.2,0.1-0.5,0.2-0.7c0-0.1,0.2-0.1,0.2-0.3
				c0-0.1,0.1-0.2,0.2-0.4c0-0.2,0.3-0.3,0.2-0.4c0-0.2,0-0.3,0-0.5c0-0.1,0-0.1,0-0.2c0.3-0.1,0.2-0.4,0.2-0.6
				c0-0.3,0.1-0.5,0.1-0.8c0-0.2-0.1-0.4,0.2-0.5c0,0,0-0.1,0-0.2c0-0.2,0-0.4-0.1-0.6c0,0,0-0.1,0-0.1c0.4,0,0.2-0.2,0.1-0.4
				c0-0.2,0-0.4,0.2-0.5c0.1-0.1,0.1-0.1,0-0.3c0,0,0.1,0,0.1-0.1c0.4-0.1,0-0.4-0.1-0.6c-0.1-0.2,0-0.4,0.1-0.5
				c0.1-0.1,0.1-0.1,0-0.2C30.8,21.3,30.8,21.2,30.8,21.1z M8.3,23.6c0,0.1-0.1,0.1-0.1,0.2C8.4,23.9,8.4,23.8,8.3,23.6z"/>
		</g>
	</g>
</g>
</svg>
