<?xml version="1.0" encoding="utf-8"?>
<!-- Generator: Adobe Illustrator 28.0.0, SVG Export Plug-In . SVG Version: 6.00 Build 0)  -->
<svg version="1.1" id="Layer_1" xmlns="http://www.w3.org/2000/svg" xmlns:xlink="http://www.w3.org/1999/xlink" x="0px" y="0px"
	 viewBox="0 0 46.6 95.3" style="enable-background:new 0 0 46.6 95.3;" xml:space="preserve">
<style type="text/css">
	.st0{fill:#565656;}
</style>
<g>
	<g>
		<g>
			
				<rect x="5.7" y="50.6" transform="matrix(1 -4.010008e-03 4.010008e-03 1 -0.2059 3.679281e-02)" class="st0" width="6.8" height="1.5"/>
			<g>
				<path class="st0" d="M7.8,51l-0.6-6.8l1.3,0l0,4l2.8,0c0.3,0,0.6-0.3,0.5-0.6l0-4.9l-1.2,0l0,4l-1.2,0l0-3.5
					c0-0.3-0.2-0.6-0.6-0.5l-2.5,0C6.2,42.7,6,43,6,43.3L6.7,51L7.8,51z"/>
				<path class="st0" d="M3.8,50.6l0-4.6L5,46l0-1.5l-4.2,0c-0.3,0-0.5,0.2-0.5,0.5l0,6.6c0,0.3,0.2,0.5,0.5,0.5l4.3,0l0-1.4
					L3.8,50.6L3.8,50.6z M2.6,46.1l0,4.6l-1,0l0-4.6L2.6,46.1z"/>
			</g>
		</g>
		<path class="st0" d="M3.8,57.3l0,4.8c0,0.3,0.2,0.6,0.6,0.5l6.7,0c0.3,0,0.6-0.2,0.5-0.6l0-4.8c0-0.3-0.2-0.6-0.6-0.5l-6.7,0
			C4.1,56.8,3.8,57,3.8,57.3 M10.3,58.2l0,3l-5.2,0l0-3L10.3,58.2z"/>
		<g>
			<g>
				<path class="st0" d="M11.8,32.4l-0.1-0.8c-0.1,0-4.8,0.5-7.9-3.1l-1,0.9c1.2,1.4,2.6,2.3,4,2.8l-3.4,2.5l0.8,1.1l4.2-3.1
					c1.2,0.3,2.3,0.3,3,0.3C11.6,32.9,11.8,32.6,11.8,32.4"/>
			</g>
			
				<rect x="0.1" y="37.1" transform="matrix(1 -4.010008e-03 4.010008e-03 1 -0.1517 2.553465e-02)" class="st0" width="12.4" height="1.5"/>
		</g>
		<g>
			<path class="st0" d="M4.9,1.7l5.1,0l0,3.4l1.3,0l0-4.2c0-0.3-0.2-0.6-0.6-0.5L4,0.4c-0.3,0-0.6,0.3-0.5,0.6l0.5,5l1.4-0.1
				L4.9,1.7z"/>
			<polygon class="st0" points="12.4,9.2 12.4,9.2 12.4,9.2 7.6,9.2 7.6,8.1 12.1,8.1 12.1,8.1 12.1,8.1 12.1,6.6 12.1,6.6 
				12.1,6.5 0.4,6.5 0.4,6.7 0.4,6.7 0.4,8.1 0.4,8.1 0.4,8.1 6.3,8.1 6.3,9.2 0,9.2 0,9.3 0,9.3 0,10.8 0,10.8 12.4,10.8 
				12.4,10.8 			"/>
		</g>
		<g>
			<path class="st0" d="M7,18.3l-2.1,2.6l1,0.9L8,19.2c1.4,1,2.5,1,2.6,1l0.1,0c0.3,0,0.6-0.2,0.5-0.6l0-4.8l-1.4,0l0,3.7
				c-1-0.4-2.8-1.4-4.4-4.4l-1.2,0.7C5.3,16.5,6.2,17.5,7,18.3"/>
			<path class="st0" d="M1.4,18.3l2.6,0l0-1.4l-3.3,0c-0.3,0-0.6,0.2-0.5,0.6l0,7.4l1.2,0L1.4,18.3z"/>
			<polygon class="st0" points="12.3,22.8 12.3,22.8 9,22.8 8.9,20.6 7.7,20.6 7.7,22.8 3.4,22.8 3.4,24.4 3.5,24.4 12.3,24.4 			
				"/>
		</g>
		
			<rect x="0.2" y="64.6" transform="matrix(1 -4.010008e-03 4.010008e-03 1 -0.2621 2.619888e-02)" class="st0" width="12.4" height="1.5"/>
		<g>
			<path class="st0" d="M10.6,75.4l-2.4,4.3l1.2,0.7l2.5-4.4c0.1,0,0.1,0,0.1,0c0.3,0.1,0.6-0.2,0.6-0.6l0-0.8c-0.1,0-2.3,0-3.2-4.1
				l-1.4,0.4C8.7,73.4,9.6,74.7,10.6,75.4"/>
			<path class="st0" d="M6.4,81.2l1.2,0l0-11.7l-1.2,0l0,5.2l-1,0l0-3.4l-1.2,0l0,6.6l-0.8,0l0-6.2c0-0.2-0.1-0.3-0.3-0.3l-2.4,0
				c-0.2,0-0.3,0.1-0.3,0.3l0,8l1.2,0l0-7.2l0.8,0l0,6.5c0,0.2,0.1,0.3,0.3,0.3l2.3,0c0.2,0,0.3-0.1,0.3-0.3l0-3l1,0L6.4,81.2
				L6.4,81.2z"/>
		</g>
		<g>
			<path class="st0" d="M7.8,88.9L7.3,90c2,1,3.9,0.7,3.9,0.6l0.1,0c0.3-0.1,0.4-0.3,0.4-0.6l0-5.7l-1.2,0l0,5
				C9.9,89.5,8.9,89.4,7.8,88.9"/>
			<polygon class="st0" points="6.7,92 6.5,87.6 8.9,87.6 8.9,86.1 6.4,86.1 6.3,83.5 5.1,83.6 5.4,92.1 			"/>
			<polygon class="st0" points="8.1,93.4 12.6,93.4 12.5,91.9 3.6,91.9 3.6,93.4 6.9,93.4 6.9,95.3 8.1,95.3 			"/>
			<path class="st0" d="M4,87.2l0-1.5l-3,0c-0.3,0-0.6,0.2-0.5,0.6l0,7.7l1.2,0l0-6.7C1.7,87.2,4,87.2,4,87.2z"/>
		</g>
	</g>
	<g>
		<path class="st0" d="M45.5,8.1l0-0.8l0-6.3c0-0.6-0.5-1-1-1l-27,0.1l0,7.3l20.6-0.1l0,0.8c0,7-5.5,12.6-12.5,12.6l-0.7,0l0,7.3
			l0.7,0C36.7,28,45.6,19,45.5,8.1z"/>
		<path class="st0" d="M25.2,91l20.9-11.8c0.2-0.1,0.4-0.3,0.4-0.6c0-0.2-0.1-0.4-0.3-0.6l0,0L17.8,62.3l0,8.4l14.4,8l-7.1,4l0-7.9
			l-7.3-4l0.1,24.5L25.2,91z"/>
		<g>
			<polygon class="st0" points="25.2,74.7 17.8,70.6 17.9,95.1 25.2,91 			"/>
		</g>
		<g>
			<path class="st0" d="M17.6,10.2l0.1,17.9l7.3,0l-0.1-16.9c0-0.6-0.4-1-1-1L17.6,10.2z"/>
		</g>
		<path class="st0" d="M37.7,59.8l8.1,0c0.3,0,0.6-0.3,0.6-0.6c0-0.1-0.1-0.3-0.1-0.4l0,0l-11-13.2l10.9-13.2l0,0
			c0.1-0.1,0.1-0.3,0.1-0.4c0-0.3-0.3-0.6-0.6-0.6l-28.1,0.1l0,7.3l13.9-0.1L26.4,45c-0.1,0.1-0.2,0.3-0.2,0.6
			c0,0.2,0.1,0.4,0.2,0.6L37.7,59.8z"/>
		<polygon class="st0" points="17.8,59.9 37.7,59.8 31.7,52.5 17.8,52.6 		"/>
		<path class="st0" d="M45.5,7.3l0,0.8c0,11-8.8,19.9-19.9,20L25,28l0-7.3l0.7,0c7,0,12.5-5.6,12.5-12.6l0-0.8L45.5,7.3z"/>
	</g>
</g>
</svg>
