<?xml version="1.0" encoding="utf-8"?>
<!-- Generator: Adobe Illustrator 28.0.0, SVG Export Plug-In . SVG Version: 6.00 Build 0)  -->
<svg version="1.1" id="Layer_1" xmlns="http://www.w3.org/2000/svg" xmlns:xlink="http://www.w3.org/1999/xlink" x="0px" y="0px"
	 viewBox="0 0 128.5 12" style="enable-background:new 0 0 128.5 12;" xml:space="preserve">
<style type="text/css">
	.st0{fill:#403D34;}
</style>
<g>
	<path class="st0" d="M5.4,2.8c0-0.3,0-0.5,0-0.8c0-0.3,0-0.5,0-0.8c0-0.1,0-0.3,0.1-0.4s0.1-0.2,0.2-0.3C5.8,0.4,5.9,0.4,6,0.3
		c0.1,0,0.2,0,0.4,0c0.3,0.1,0.6,0.1,0.9,0c0.2,0,0.3,0,0.4,0c0.1,0,0.2,0.1,0.3,0.2C8.1,0.8,8.2,0.9,8.2,1c0,0.1,0,0.3,0,0.4
		c0,0.1-0.1,0.2-0.1,0.3C8,2,8,2.2,8,2.5C8,2.7,8,3,8,3.2c0,0.1,0,0.2,0.1,0.3c0,0.1,0,0.2,0.1,0.3c0.1,0.5,0.1,0.9,0,1.3
		C8,5.3,8,5.6,8,5.9c0,0.3,0,0.5,0.1,0.8c0,0.1,0,0.2,0.1,0.3c0,0.1,0.1,0.2,0.1,0.3c0,0.4,0,0.7-0.1,1.1c-0.2,0.6-0.2,1.2,0,1.8
		c0.1,0.2,0.1,0.5,0.1,0.8c0,0.2-0.1,0.4-0.3,0.6c-0.2,0.1-0.4,0.2-0.6,0.2c-0.3,0-0.6,0-0.9,0c-0.3,0.1-0.5,0-0.7,0
		c-0.2-0.1-0.4-0.2-0.5-0.4c0-0.1-0.1-0.1-0.1-0.2c0,0-0.1-0.1-0.1-0.2c-0.2-0.3-0.3-0.7-0.5-1C4.4,9.6,4.2,9.3,4.1,8.9
		C4.1,8.7,4,8.4,3.8,8.2C3.7,8,3.6,7.8,3.4,7.6C3.4,7.5,3.3,7.4,3.2,7.4C3.2,7.3,3.1,7.3,3,7.4c-0.1,0-0.1,0.1-0.2,0.2
		c0,0.2,0,0.3,0,0.5c0,0.3,0,0.7,0,1c0,0.3-0.1,0.7-0.2,1c0,0.1,0,0.2,0,0.3c0,0.1,0,0.2,0.1,0.3c0.1,0.2,0.1,0.4,0,0.6
		c0,0.2-0.2,0.4-0.3,0.5c-0.1,0.1-0.2,0.1-0.3,0.2c-0.1,0-0.2,0-0.4,0c-0.4-0.1-0.7-0.1-1.1-0.2c-0.3-0.1-0.5-0.3-0.5-0.6
		c0-0.1,0-0.2,0-0.2c0-0.1,0-0.1,0-0.2c0.1-0.5,0.1-1,0-1.6C0.1,8.9,0,8.6,0,8.3c0-0.3,0-0.5,0.1-0.8c0.1-0.4,0.2-0.8,0.1-1.1
		c0-0.4-0.1-0.7-0.2-1.1C0,5.1,0,5,0,4.8c0-0.2,0-0.4,0.1-0.6c0.1-0.2,0.1-0.5,0.1-0.7c0-0.3,0-0.5,0-0.7c0-0.1,0-0.2-0.1-0.4
		c0-0.1,0-0.2-0.1-0.4c0-0.2,0-0.3,0-0.5c0-0.1,0-0.3,0.1-0.4c0-0.1,0.1-0.2,0.2-0.3c0.1-0.1,0.3-0.2,0.5-0.3
		c0.1-0.1,0.3-0.1,0.4-0.2c0.1,0,0.3-0.1,0.4-0.1c0.3,0,0.6,0,0.8,0.2C2.7,0.5,2.9,0.7,3,0.9c0.2,0.3,0.3,0.6,0.5,0.9
		c0.1,0.3,0.3,0.6,0.4,0.9C3.9,2.9,4,3.1,4.1,3.4C4.2,3.6,4.3,3.8,4.4,4c0.1,0.1,0.1,0.2,0.2,0.3c0.1,0.1,0.1,0.2,0.2,0.3
		C4.8,4.9,5,5,5.1,4.9c0.2,0,0.3-0.2,0.3-0.4L5.4,2.8L5.4,2.8z M5.6,8.7L5.6,8.7c0,0.1,0,0.2,0,0.2c0,0,0,0.1,0.1,0.1
		c0,0,0,0,0.1-0.1c0,0,0-0.1,0-0.1c0-0.1,0-0.1-0.1-0.2c0,0,0,0,0,0c0,0,0,0-0.1,0C5.6,8.6,5.6,8.6,5.6,8.7L5.6,8.7z"/>
	<path class="st0" d="M17.8,1.8c0,0.2,0,0.4-0.1,0.6c0,0.2,0,0.4,0,0.6c0,0.3,0,0.6,0,0.9c0,0.3,0,0.6,0.1,0.9c0,0.4,0,0.9,0,1.3
		c0,0.3-0.1,0.5-0.1,0.8c0,0.3,0,0.5,0,0.8c0,0.5,0.1,0.9,0.1,1.4c0,0.5,0,0.9-0.1,1.4c0,0.1,0,0.1,0,0.1c0,0,0,0.1,0,0.1
		c0,0.4-0.2,0.7-0.6,0.9c-0.3,0.1-0.6,0.2-0.9,0.2c-0.2,0-0.5,0-0.6-0.2c-0.2-0.2-0.3-0.4-0.3-0.6c0-0.1,0-0.3,0-0.5
		c0-0.2,0-0.3,0-0.5C15.1,10,15,9.8,15,9.6c-0.1-0.2-0.1-0.5-0.2-0.7c-0.1-0.2-0.2-0.3-0.3-0.4c-0.1-0.1-0.3-0.1-0.5-0.2
		c-0.1,0-0.2,0-0.3,0c-0.1,0-0.2,0-0.3,0c-0.2,0-0.3,0-0.4,0.1c-0.1,0.1-0.2,0.2-0.3,0.3c-0.1,0.2-0.2,0.4-0.2,0.6
		c0,0.3-0.1,0.6-0.1,0.9c0,0.3,0,0.6,0,0.9c0,0.2-0.1,0.4-0.1,0.5c-0.1,0.1-0.2,0.2-0.5,0.2c-0.1,0-0.2,0-0.2,0c-0.1,0-0.2,0-0.2,0
		c-0.1,0-0.3,0-0.4,0c-0.1,0-0.3,0-0.4-0.1c-0.4-0.1-0.6-0.3-0.7-0.7c-0.1-0.3-0.1-0.6-0.1-0.9c0-0.3,0-0.6,0.1-0.9
		C9.9,9,9.9,8.7,9.9,8.4C9.8,8.1,9.8,7.8,9.7,7.5c0-0.3-0.1-0.6-0.1-0.9c0-0.1,0-0.3,0-0.4c0.1-0.4,0.2-0.8,0.2-1.2
		c0-0.4-0.1-0.8-0.2-1.1C9.6,3.8,9.6,3.6,9.6,3.5c0-0.1,0-0.3,0.1-0.5c0.1-0.2,0.1-0.4,0.1-0.6c0-0.2,0.1-0.4,0.1-0.6
		c0-0.2,0-0.4,0-0.5c0-0.1,0-0.2,0-0.3c0-0.1,0.1-0.2,0.1-0.3c0.1-0.1,0.1-0.2,0.2-0.2c0.1-0.1,0.2-0.1,0.4-0.1c0.3,0,0.5,0,0.8,0
		c0.3,0,0.5-0.1,0.8-0.2c0.1-0.1,0.3-0.1,0.5-0.1c0.2,0,0.3,0,0.5,0.1c0.1,0,0.3,0,0.4,0.1s0.3,0.1,0.4,0.1c0.4,0.1,0.7,0.1,1.1-0.1
		c0.3-0.1,0.6-0.2,0.8-0.2c0.3,0,0.6,0,0.9,0.1c0.1,0,0.2,0.1,0.3,0.1c0.1,0,0.2,0.1,0.3,0.1c0.2,0.1,0.3,0.2,0.4,0.4
		c0.1,0.1,0.1,0.3,0.1,0.5c0,0.1,0,0.1,0,0.2C17.8,1.7,17.8,1.7,17.8,1.8L17.8,1.8z M12.2,2.2C12.2,2.2,12.3,2.2,12.2,2.2
		c0.1,0,0.1,0,0.1,0c0,0,0,0,0-0.1c0,0,0,0,0-0.1c0,0-0.1,0-0.1-0.1c0,0-0.1,0-0.1,0C12.1,2,12,2,12,2.1c-0.1,0-0.1,0.1-0.2,0.1
		c0,0,0,0,0,0.1c0,0,0,0.1,0,0.1c0,0,0.1,0,0.1,0c0,0,0.1,0,0.1,0c0.1,0,0.1-0.1,0.1-0.1C12,2.1,12.1,2.1,12.2,2.2z M12.4,4
		c0,0.1,0,0.3,0,0.5c0,0.2,0,0.3,0,0.5V5c0,0.2,0.2,0.4,0.3,0.5c0.2,0.1,0.4,0.2,0.6,0.2c0.3-0.1,0.6-0.2,0.9-0.3
		C14.6,5.3,14.8,5,15,4.7c0.1-0.1,0.2-0.3,0.2-0.5c0-0.2,0-0.3,0-0.5c0-0.2-0.1-0.3-0.3-0.4c-0.1-0.1-0.3-0.2-0.5-0.3
		C14.2,3,14,3,13.9,3c-0.2,0-0.4,0-0.6,0c-0.3,0-0.5,0.1-0.7,0.3C12.5,3.4,12.4,3.7,12.4,4z"/>
	<path class="st0" d="M26.2,11.8c-0.1,0-0.3,0-0.4,0c-0.1,0-0.3,0-0.4,0c-0.5-0.1-0.7-0.3-0.8-0.8c0,0,0-0.1,0-0.1c0,0,0-0.1,0-0.1
		c0.1-0.3,0.1-0.6,0-0.9c0-0.3-0.1-0.6-0.1-0.9c0-0.1,0-0.2,0-0.3c0-0.1,0-0.2,0-0.3c0-0.1,0-0.1,0-0.2c0-0.1,0-0.1,0-0.2
		c-0.2-0.5-0.5-0.7-0.9-0.5c-0.2,0.1-0.4,0.1-0.6,0.2c-0.2,0.1-0.4,0.1-0.6,0.1c-0.1,0-0.3,0.1-0.3,0.2C22,7.9,21.9,8,21.9,8.2
		c0,0.1,0,0.2,0,0.4s0,0.2,0,0.4c0.2,0.6,0.1,1.3-0.1,1.9c0,0,0,0.1,0,0.1c0,0.1,0,0.2,0,0.3c0,0.1-0.1,0.2-0.2,0.2
		c-0.1,0.1-0.3,0.2-0.4,0.3c-0.1,0.1-0.3,0.1-0.5,0.2c-0.3,0-0.5,0-0.8-0.1c-0.2,0-0.3-0.1-0.4-0.3c-0.1-0.2-0.2-0.3-0.2-0.5
		c0-0.3,0-0.5,0-0.8c0-0.3-0.1-0.5-0.1-0.8c0-0.1,0-0.2,0-0.4c0-0.1,0-0.2,0-0.4c0-0.2,0-0.4,0.1-0.5c0-0.2,0-0.3,0.1-0.5
		c0-0.3,0-0.5,0-0.7s-0.1-0.5-0.1-0.7c0-0.3,0-0.5,0-0.8c0-0.3,0.1-0.5,0.1-0.8c0-0.2,0-0.3,0-0.5c0-0.2,0-0.3,0-0.5
		c0-0.1,0-0.3-0.1-0.5c0-0.2-0.1-0.3-0.1-0.5c-0.1-0.7,0-1.4,0.3-2c0.1-0.2,0.2-0.3,0.3-0.4c0.1-0.1,0.3-0.1,0.5-0.1
		c0.2,0,0.4,0.1,0.7,0.1c0.2,0,0.4,0.1,0.7,0.1c0.2,0,0.3,0.1,0.5,0.1c0.2,0,0.3,0,0.5-0.1c0.1-0.1,0.3-0.1,0.4-0.1
		c0.1,0,0.3-0.1,0.4-0.1c0.4-0.1,0.9,0,1.3,0.1c0.4,0.2,0.9,0.2,1.3,0c0.3-0.1,0.5-0.1,0.7,0c0.2,0.1,0.3,0.3,0.4,0.6
		c0.1,0.3,0.1,0.5,0.2,0.8c0,0.3,0,0.5-0.1,0.8c-0.2,0.7-0.2,1.3,0,1.9c0.1,0.2,0.1,0.4,0.1,0.6c0,0.2-0.1,0.3-0.3,0.5
		c-0.1,0-0.1,0.1-0.2,0.2c-0.1,0.2-0.2,0.3-0.2,0.5c0,0.2,0,0.3,0.1,0.5C26.9,6.8,27,6.9,27,7.1c0,0.1,0.1,0.2,0.2,0.4
		c0.2,0.4,0.3,0.7,0.2,1.1c0,0.4-0.1,0.8-0.2,1.1c-0.1,0.2-0.1,0.4-0.1,0.6c0,0.2,0,0.4,0.1,0.6c0.1,0.2,0.1,0.3,0,0.5
		c0,0.1-0.1,0.3-0.2,0.3c-0.1,0.1-0.2,0.2-0.3,0.2c-0.1,0-0.3,0-0.4,0C26.2,11.8,26.2,11.8,26.2,11.8L26.2,11.8z M23.4,3
		c-0.1,0-0.1,0-0.2,0S23.1,3,23,3c-0.3,0-0.6,0.1-0.8,0.4c-0.1,0.2-0.2,0.3-0.3,0.5c-0.1,0.2-0.1,0.4,0,0.5c0.1,0.2,0.2,0.3,0.4,0.4
		c0.1,0.1,0.2,0.1,0.3,0.1c0.2,0,0.4,0,0.5,0c0.2,0,0.3,0,0.5,0c0.3,0,0.6-0.2,0.7-0.5c0.1-0.1,0.1-0.2,0.1-0.3c0-0.1,0-0.2,0-0.3
		c0-0.2-0.1-0.4-0.2-0.5C24.2,3.1,24,3,23.8,3H23.4z"/>
	<path class="st0" d="M33.9,5.1c0,0.2,0,0.5,0.1,0.7c0,0.2,0,0.4,0,0.6c0,0.3,0,0.5,0,0.8c0,0.3,0,0.5,0,0.8c0,0.3,0,0.5,0,0.8
		C34,9,34,9.2,34,9.5c0,0.3,0,0.5,0,0.8c0,0.3,0,0.5-0.1,0.8c-0.1,0.3-0.2,0.4-0.3,0.6c-0.1,0.1-0.4,0.2-0.6,0.2
		c-0.5,0-0.9,0-1.3-0.1c-0.3-0.1-0.4-0.2-0.5-0.3c-0.1-0.2-0.1-0.4,0-0.6c0-0.2,0.1-0.3,0.1-0.5c0.1-0.2,0.1-0.3,0.1-0.5
		c0-0.1,0-0.3,0-0.4c0-0.1,0-0.3,0-0.4c0-0.2-0.1-0.4-0.1-0.6c0-0.2-0.1-0.4-0.1-0.6c-0.1-0.4-0.1-0.7,0.1-1
		c0.1-0.3,0.2-0.5,0.2-0.8c0-0.2,0-0.5-0.1-0.8c0-0.1-0.1-0.2-0.1-0.4c0-0.1,0-0.2-0.1-0.4c0-0.2,0-0.3,0-0.5c0-0.2,0-0.3,0-0.5
		c0.1-0.4-0.1-0.7-0.5-0.7c-0.1,0-0.1,0-0.2,0c-0.1,0-0.1,0-0.2,0c-0.1,0-0.3,0-0.4,0c-0.1,0-0.3,0-0.4,0c-0.2,0-0.4-0.1-0.6-0.3
		c-0.2-0.2-0.2-0.4-0.3-0.6c0-0.3,0-0.5,0-0.8s0.2-0.5,0.4-0.7c0.2-0.2,0.5-0.4,0.8-0.4c0.2,0,0.4,0,0.6,0c0.2,0,0.4,0,0.6,0.1
		c0.1,0,0.1,0.1,0.2,0.1c0.1,0,0.1,0,0.2,0c0.5,0.1,1,0.1,1.4,0c0.5-0.2,1-0.2,1.5-0.1c0.1,0,0.3,0.1,0.4,0.1c0.1,0,0.3,0.1,0.5,0.1
		c0.1,0,0.2,0,0.3,0c0.1,0,0.2,0,0.3,0c0.3-0.1,0.6,0,0.8,0.2c0.2,0.2,0.3,0.4,0.3,0.7c0,0.3-0.1,0.7-0.2,1c-0.2,0.5-0.5,0.7-1,0.7
		h-0.5c-0.3,0-0.6,0.1-0.8,0.2c-0.2,0.2-0.3,0.4-0.4,0.7c0,0.2,0,0.5-0.1,0.7C34,4.8,34,5,33.9,5.1z M32.8,8.1V7.8h0c0,0,0,0,0,0
		C32.8,7.9,32.8,8,32.8,8.1c0,0,0,0.1,0,0.1C32.8,8.1,32.8,8.1,32.8,8.1z M33.3,2.6c0.1,0,0.2,0,0.2,0c0.1,0,0.1,0,0.1-0.1
		c0,0-0.1-0.1-0.1-0.1c-0.1,0-0.1-0.1-0.2-0.1c-0.1,0-0.1,0-0.1,0.1s0,0.1,0,0.2C33.2,2.5,33.2,2.5,33.3,2.6
		C33.2,2.5,33.3,2.6,33.3,2.6z"/>
	<path class="st0" d="M38,1.7c0-0.1,0-0.2,0-0.2c0-0.1,0-0.1,0-0.2c0-0.6,0.2-0.9,0.8-1c0.3,0,0.7-0.1,1-0.2c0.5-0.1,0.9,0,1.2,0.4
		c0.1,0.2,0.2,0.4,0.3,0.6c0.1,0.2,0.2,0.4,0.3,0.6c0.1,0.1,0.1,0.2,0.2,0.3c0.1,0.1,0.1,0.2,0.2,0.3c0.1,0.2,0.3,0.3,0.5,0.3
		s0.3-0.1,0.5-0.3c0.2-0.3,0.3-0.6,0.5-0.9c0.2-0.3,0.3-0.6,0.5-0.9c0.1-0.2,0.2-0.3,0.4-0.4c0.2-0.1,0.3-0.1,0.5-0.1
		c0.2,0.1,0.5,0.1,0.7,0.1c0.2,0,0.5,0,0.7,0c0.3,0,0.5,0.1,0.7,0.2c0.2,0.2,0.3,0.4,0.3,0.6c0,0.3,0,0.6,0,0.9c0,0.3,0,0.6,0,0.9
		c0,0.2,0,0.5,0,0.7c0,0.2,0,0.5,0,0.7c0,0.2,0,0.4,0,0.5c0,0.2,0,0.4,0.1,0.5c0,0.3,0,0.5,0,0.8C47,6.4,47,6.8,47,7.1
		c0,0.4,0,0.7,0.1,1.1c0,0.3,0,0.6,0,0.8c0,0.3,0,0.6,0,0.8c0,0.2,0,0.4,0,0.6c0,0.2,0,0.4,0,0.6c0,0.2-0.1,0.4-0.2,0.6
		c-0.1,0.1-0.3,0.2-0.6,0.2c-0.2,0-0.5,0-0.7,0c-0.2,0-0.5,0-0.7,0c-0.3,0-0.5-0.2-0.6-0.4c-0.1-0.2-0.2-0.3-0.2-0.5
		c0-0.1-0.1-0.3-0.1-0.4c0-0.1-0.1-0.3-0.1-0.4c0-0.1,0-0.2,0-0.4c0-0.1,0-0.3,0.1-0.4c0.2-0.3,0.2-0.6,0.2-0.9c0-0.3,0-0.6-0.1-0.9
		c0-0.2-0.1-0.4-0.1-0.7c0-0.2-0.1-0.4-0.1-0.7c0-0.2-0.1-0.3-0.3-0.3c-0.1,0-0.1,0-0.2,0.1c-0.1,0.1-0.1,0.1-0.1,0.2
		c0,0.1,0,0.2,0,0.2c0,0.1,0,0.2,0,0.2c0,0.1,0,0.2-0.1,0.3c0,0.1-0.1,0.2-0.1,0.3c-0.1,0.2-0.2,0.3-0.4,0.3c-0.2,0-0.3-0.1-0.4-0.2
		C42.1,7.2,42.1,7.1,42,7c0-0.1-0.1-0.2-0.2-0.4c0-0.1-0.1-0.2-0.2-0.2c-0.1-0.1-0.2-0.1-0.3-0.1c-0.3,0-0.4,0.1-0.4,0.3
		c0,0.2,0,0.5,0,0.7c0,0.2,0,0.5,0,0.8c0,0.5,0.1,0.9,0.1,1.4c0,0.5,0,0.9-0.1,1.4c0,0.1,0,0.1,0,0.2c0,0.1,0,0.1,0,0.2
		c0,0.2-0.1,0.4-0.2,0.5c-0.1,0.2-0.3,0.2-0.6,0.2c-0.1,0-0.3,0-0.5,0c-0.1,0-0.2,0-0.4-0.1c-0.1,0-0.2-0.1-0.4-0.1
		c-0.3-0.1-0.5-0.2-0.7-0.4c-0.2-0.2-0.3-0.5-0.3-0.8c0-0.2,0-0.4,0.1-0.7c0-0.2,0-0.5,0-0.7c0-0.1,0-0.3,0-0.4c0-0.1,0-0.3,0-0.4
		c-0.1-0.4-0.1-0.7-0.1-1.1c0-0.4,0-0.7,0.1-1.1c0-0.3,0-0.5,0-0.8c0-0.3,0-0.5,0-0.8c0-0.2,0-0.3-0.1-0.5c0-0.2,0-0.3,0-0.5
		c0-0.1,0-0.3,0-0.4c0-0.1,0-0.3,0.1-0.4c0-0.2,0-0.4,0.1-0.5C38,2.1,38.1,1.9,38,1.7L38,1.7z M39.6,2.7C39.6,2.7,39.6,2.8,39.6,2.7
		C39.6,2.8,39.5,2.8,39.6,2.7c-0.1,0.1-0.1,0.1,0,0.2c0.1,0,0.1,0.1,0.2,0.1c0,0,0.1,0,0.1,0c0,0,0.1,0,0.1,0c0,0-0.1-0.1-0.2-0.1
		C39.8,2.8,39.7,2.7,39.6,2.7z M39.5,5.1c0,0.1,0,0.1,0,0.1c0,0,0,0.1,0,0.1c0.1-0.1,0.1-0.1,0.1-0.2c0,0,0,0,0,0c0,0,0,0,0-0.1
		C39.6,5,39.6,5,39.5,5.1C39.6,5,39.6,5,39.5,5.1z M43.2,4.9c0.1,0,0.1,0,0.1,0c0,0,0,0,0.1-0.1c0,0,0-0.1,0-0.1c0,0,0-0.1,0-0.1
		c0,0,0.1,0,0.1-0.1c0,0,0-0.1,0-0.1c0,0,0,0-0.1,0c-0.1,0-0.1,0-0.1,0c-0.1,0-0.2,0-0.2,0.1c0,0,0,0-0.1,0.1c0,0,0,0.1-0.1,0.1
		C43,4.8,43.1,4.9,43.2,4.9C43.1,4.9,43.2,4.9,43.2,4.9z M45.3,1.8C45.2,2,45.2,2,45.2,2c0,0,0,0.1,0.1,0.1c0,0,0.1,0.1,0.1,0.1
		c0,0,0,0,0.1-0.1c0,0,0,0,0-0.1c0,0,0,0-0.1-0.1C45.4,2,45.3,1.9,45.3,1.8z M45.5,2.4C45.5,2.4,45.5,2.4,45.5,2.4
		C45.5,2.5,45.4,2.5,45.5,2.4c0,0.1,0,0.1,0,0.2c0,0,0.1,0.1,0.1,0.1c0,0,0,0,0,0c0,0,0,0,0,0c0-0.1,0-0.1-0.1-0.1
		C45.6,2.4,45.5,2.4,45.5,2.4z"/>
	<path class="st0" d="M56.6,1.5c0,0.2,0,0.4,0.1,0.6c0,0.2,0,0.4,0.1,0.6c0.1,0.7,0.1,1.4,0,2c-0.1,0.3-0.1,0.6,0,0.9
		c0,0.2,0.1,0.5,0.1,0.7c0,0.2,0,0.5,0,0.7c0,0.1,0,0.2,0,0.3c0,0.1,0,0.2,0,0.3c0,0.1,0,0.1,0,0.1c0,0,0,0.1,0,0.1
		c0,0.4,0,0.8,0,1.1c0,0.4,0,0.8,0,1.1c0,0.2,0,0.4,0,0.5c0,0.2-0.1,0.3-0.2,0.5c-0.1,0.2-0.2,0.4-0.4,0.4c-0.2,0.1-0.4,0.1-0.6,0.2
		c-0.2,0-0.3,0-0.5,0c-0.2,0-0.3,0-0.5,0c-0.2,0-0.4,0-0.5,0c-0.2,0-0.4,0-0.5-0.1c-0.2,0-0.3,0-0.5,0c-0.2,0-0.3,0-0.5,0
		c-0.2,0-0.4,0-0.7,0.1c-0.2,0-0.4,0-0.7,0c-0.3,0-0.5,0-0.8,0c-0.3,0-0.5,0-0.8-0.1c-0.2,0-0.4-0.1-0.6-0.1c-0.5-0.2-0.7-0.5-0.5-1
		c0-0.1,0-0.2,0.1-0.2c0-0.1,0.1-0.2,0.1-0.2c0.1-0.2,0.2-0.5,0.2-0.7c0-0.2,0-0.5-0.1-0.8c-0.1-0.2-0.1-0.4-0.2-0.6
		c-0.1-0.2-0.1-0.4-0.1-0.6c0-0.3,0.1-0.5,0.2-0.7c0.1-0.2,0.2-0.4,0.2-0.5c0-0.2,0-0.4-0.1-0.6c-0.1-0.2-0.1-0.4-0.2-0.6
		c0-0.2-0.1-0.4-0.1-0.6c0-0.1,0-0.3,0-0.4c0-0.1,0-0.3,0.1-0.4c0.3-0.8,0.3-1.5,0-2.3c-0.1-0.2-0.1-0.3,0-0.5
		c0-0.2,0.1-0.3,0.3-0.4c0.1-0.1,0.3-0.2,0.5-0.2c0.2,0,0.3,0,0.5,0c0.2,0,0.3-0.1,0.5-0.1c0.3-0.1,0.6-0.1,0.9-0.1
		c0.3,0,0.6,0.1,0.9,0.1c0.1,0,0.2,0,0.3,0.1c0.1,0,0.2,0.1,0.3,0.1c0.1,0,0.3,0,0.4,0c0.1,0,0.3,0,0.4-0.1C53.9,0,54.5,0,55.1,0.2
		c0.1,0,0.3,0.1,0.4,0.1c0.1,0,0.3,0.1,0.4,0.1c0.3,0.1,0.5,0.2,0.5,0.3c0.1,0.1,0.1,0.3,0.1,0.6L56.6,1.5L56.6,1.5z M50.7,1.9
		c0,0-0.1,0.1-0.1,0.1c0,0-0.1,0.1-0.1,0.1c0,0,0,0.1,0,0.1c0,0,0,0.1,0.1,0.1h0c0,0,0,0,0,0c0.1-0.1,0.1-0.1,0.1-0.2
		c0-0.1,0-0.1,0-0.2C50.8,2,50.8,2,50.7,1.9z M52.8,9.1L52.8,9.1c0.1,0,0.2,0,0.3,0c0.1,0,0.2,0,0.3,0c0.4,0,0.6-0.2,0.7-0.6
		c0-0.2,0-0.3,0.1-0.5c0-0.2,0-0.3-0.1-0.5c-0.2-0.6-0.2-1.2,0-1.8c0.1-0.3,0.1-0.7,0.1-1c0-0.3-0.1-0.6-0.2-1
		c-0.1-0.3-0.3-0.5-0.4-0.6C53.3,3,53,2.9,52.7,2.9h-0.3c-0.3,0-0.5,0.1-0.7,0.2c-0.2,0.1-0.3,0.4-0.3,0.6c0,0.3-0.1,0.5-0.1,0.8
		c0,0.3,0,0.5,0,0.8c0,0.1,0,0.2,0,0.4c0,0.1,0,0.2,0,0.4c0,0.2,0,0.3,0,0.5c0,0.2,0,0.3,0,0.5c0,0.2,0,0.4,0,0.6
		c0,0.2,0,0.4-0.1,0.6c0,0.2,0,0.4,0.1,0.6C51.5,8.8,51.7,9,51.9,9c0.1,0,0.3,0,0.4,0.1C52.5,9.1,52.6,9.1,52.8,9.1z M51.9,10.6
		C51.9,10.6,51.8,10.6,51.9,10.6c-0.1,0-0.1,0-0.1,0c0,0,0,0,0,0c0,0.1,0,0.1,0,0.1c0,0,0.1,0,0.1,0.1c0,0,0.1,0,0.1,0
		c0,0,0.1,0,0.1,0c0,0,0.1,0,0.1,0c0,0-0.1,0-0.1-0.1c0,0,0,0-0.1-0.1C52,10.6,52,10.6,51.9,10.6C51.9,10.6,51.9,10.6,51.9,10.6z
		 M54.2,1.9c-0.1,0-0.1-0.1-0.1-0.1c0,0-0.1,0-0.1,0c0,0,0,0-0.1,0.1c0,0-0.1,0.1-0.1,0.1c0,0,0.1,0,0.1,0c0,0,0.1,0,0.1,0
		c0,0,0,0,0.1,0C54.1,1.9,54.1,1.9,54.2,1.9z"/>
	<path class="st0" d="M63.5,2.8c0-0.3,0-0.5,0-0.8c0-0.3,0-0.5,0-0.8c0-0.1,0-0.3,0.1-0.4s0.1-0.2,0.2-0.3c0.1-0.1,0.2-0.1,0.3-0.2
		c0.1,0,0.2,0,0.4,0c0.3,0.1,0.6,0.1,0.9,0c0.2,0,0.3,0,0.4,0c0.1,0,0.2,0.1,0.3,0.2c0.1,0.1,0.2,0.2,0.2,0.4c0,0.1,0,0.3,0,0.4
		c0,0.1-0.1,0.2-0.1,0.3C66.1,2,66,2.2,66,2.5c0,0.2,0,0.5,0.1,0.7c0,0.1,0,0.2,0.1,0.3c0,0.1,0,0.2,0.1,0.3c0.1,0.5,0.1,0.9,0,1.3
		C66.1,5.3,66,5.6,66,5.9c0,0.3,0,0.5,0.1,0.8c0,0.1,0,0.2,0.1,0.3c0,0.1,0.1,0.2,0.1,0.3c0,0.4,0,0.7-0.1,1.1
		c-0.2,0.6-0.2,1.2,0,1.8c0.1,0.2,0.1,0.5,0.1,0.8c0,0.2-0.1,0.4-0.3,0.6c-0.2,0.1-0.4,0.2-0.6,0.2c-0.3,0-0.6,0-0.9,0
		c-0.3,0.1-0.5,0-0.7,0c-0.2-0.1-0.4-0.2-0.5-0.4c0-0.1-0.1-0.1-0.1-0.2c0,0-0.1-0.1-0.1-0.2c-0.2-0.3-0.3-0.7-0.5-1
		c-0.2-0.3-0.3-0.7-0.4-1.1c-0.1-0.3-0.2-0.5-0.3-0.7c-0.1-0.2-0.3-0.4-0.4-0.6c-0.1-0.1-0.1-0.1-0.2-0.2c-0.1-0.1-0.2-0.1-0.2,0
		C61,7.4,61,7.5,61,7.5c0,0.2,0,0.3,0,0.5c0,0.3,0,0.7,0,1c0,0.3-0.1,0.7-0.2,1c0,0.1,0,0.2,0,0.3c0,0.1,0,0.2,0.1,0.3
		c0.1,0.2,0.1,0.4,0,0.6c0,0.2-0.2,0.4-0.3,0.5c-0.1,0.1-0.2,0.1-0.3,0.2c-0.1,0-0.2,0-0.4,0c-0.4-0.1-0.7-0.1-1.1-0.2
		c-0.3-0.1-0.5-0.3-0.5-0.6c0-0.1,0-0.2,0-0.2c0-0.1,0-0.1,0-0.2c0.1-0.5,0.1-1,0-1.6c-0.1-0.3-0.1-0.5-0.1-0.8c0-0.3,0-0.5,0.1-0.8
		c0.1-0.4,0.2-0.8,0.1-1.1c0-0.4-0.1-0.7-0.2-1.1c0-0.2-0.1-0.4-0.1-0.6c0-0.2,0-0.4,0.1-0.6c0.1-0.2,0.1-0.5,0.1-0.7
		c0-0.3,0-0.5,0-0.7c0-0.1,0-0.2-0.1-0.4c0-0.1,0-0.2-0.1-0.4c0-0.2,0-0.3,0-0.5c0-0.1,0-0.3,0.1-0.4c0-0.1,0.1-0.2,0.2-0.3
		c0.1-0.1,0.3-0.2,0.5-0.3c0.1-0.1,0.3-0.1,0.4-0.2c0.1,0,0.3-0.1,0.4-0.1c0.3,0,0.6,0,0.8,0.2c0.2,0.1,0.4,0.3,0.6,0.6
		c0.2,0.3,0.3,0.6,0.5,0.9c0.1,0.3,0.3,0.6,0.4,0.9c0.1,0.2,0.2,0.4,0.2,0.7c0.1,0.2,0.2,0.4,0.3,0.6c0.1,0.1,0.1,0.2,0.2,0.3
		c0.1,0.1,0.1,0.2,0.2,0.3C62.9,4.9,63,5,63.2,4.9c0.2,0,0.3-0.2,0.3-0.4L63.5,2.8L63.5,2.8z M63.7,8.7L63.7,8.7c0,0.1,0,0.2,0,0.2
		c0,0,0,0.1,0.1,0.1c0,0,0,0,0.1-0.1c0,0,0-0.1,0-0.1c0-0.1,0-0.1-0.1-0.2c0,0,0,0,0,0c0,0,0,0-0.1,0C63.7,8.6,63.7,8.6,63.7,8.7
		L63.7,8.7z"/>
	<path class="st0" d="M79.4,11.8c-0.1,0-0.3,0-0.4,0s-0.3,0-0.4,0c-0.5-0.1-0.7-0.3-0.8-0.8c0,0,0-0.1,0-0.1c0,0,0-0.1,0-0.1
		c0.1-0.3,0.1-0.6,0-0.9c0-0.3-0.1-0.6-0.1-0.9c0-0.1,0-0.2,0-0.3c0-0.1,0-0.2,0-0.3c0-0.1,0-0.1,0-0.2c0-0.1,0-0.1,0-0.2
		c-0.2-0.5-0.5-0.7-0.9-0.5c-0.2,0.1-0.4,0.1-0.6,0.2c-0.2,0.1-0.4,0.1-0.6,0.1c-0.1,0-0.3,0.1-0.3,0.2c-0.1,0.1-0.1,0.2-0.2,0.3
		c0,0.1,0,0.2,0,0.4s0,0.2,0,0.4c0.2,0.6,0.1,1.3-0.1,1.9c0,0,0,0.1,0,0.1c0,0.1,0,0.2,0,0.3c0,0.1-0.1,0.2-0.2,0.2
		c-0.1,0.1-0.3,0.2-0.4,0.3c-0.1,0.1-0.3,0.1-0.5,0.2c-0.3,0-0.5,0-0.8-0.1c-0.2,0-0.3-0.1-0.4-0.3c-0.1-0.2-0.2-0.3-0.2-0.5
		c0-0.3,0-0.5,0-0.8c0-0.3-0.1-0.5-0.1-0.8c0-0.1,0-0.2,0-0.4c0-0.1,0-0.2,0-0.4c0-0.2,0-0.4,0.1-0.5c0-0.2,0-0.3,0.1-0.5
		c0-0.3,0-0.5,0-0.7c0-0.2-0.1-0.5-0.1-0.7c0-0.3,0-0.5,0-0.8c0-0.3,0.1-0.5,0.1-0.8c0-0.2,0-0.3,0-0.5c0-0.2,0-0.3,0-0.5
		c0-0.1,0-0.3-0.1-0.5c0-0.2-0.1-0.3-0.1-0.5c-0.1-0.7,0-1.4,0.3-2c0.1-0.2,0.2-0.3,0.3-0.4c0.1-0.1,0.3-0.1,0.5-0.1
		c0.2,0,0.4,0.1,0.7,0.1c0.2,0,0.4,0.1,0.7,0.1c0.2,0,0.3,0.1,0.5,0.1c0.2,0,0.3,0,0.5-0.1c0.1-0.1,0.3-0.1,0.4-0.1s0.3-0.1,0.4-0.1
		c0.4-0.1,0.9,0,1.3,0.1c0.4,0.2,0.9,0.2,1.3,0c0.3-0.1,0.5-0.1,0.7,0c0.2,0.1,0.3,0.3,0.4,0.6c0.1,0.3,0.1,0.5,0.2,0.8
		c0,0.3,0,0.5-0.1,0.8c-0.2,0.7-0.2,1.3,0,1.9c0.1,0.2,0.1,0.4,0.1,0.6c0,0.2-0.1,0.3-0.3,0.5c-0.1,0-0.1,0.1-0.2,0.2
		C80,5.9,79.9,6,79.9,6.2c0,0.2,0,0.3,0.1,0.5c0.1,0.1,0.1,0.2,0.2,0.4c0,0.1,0.1,0.2,0.2,0.4c0.2,0.4,0.3,0.7,0.2,1.1
		c0,0.4-0.1,0.8-0.2,1.1c-0.1,0.2-0.1,0.4-0.1,0.6c0,0.2,0,0.4,0.1,0.6c0.1,0.2,0.1,0.3,0,0.5c0,0.1-0.1,0.3-0.2,0.3
		c-0.1,0.1-0.2,0.2-0.3,0.2c-0.1,0-0.3,0-0.4,0C79.5,11.8,79.4,11.8,79.4,11.8L79.4,11.8z M76.6,3c-0.1,0-0.1,0-0.2,0
		c-0.1,0-0.1,0-0.2,0c-0.3,0-0.6,0.1-0.8,0.4c-0.1,0.2-0.2,0.3-0.3,0.5c-0.1,0.2-0.1,0.4,0,0.5c0.1,0.2,0.2,0.3,0.4,0.4
		c0.1,0.1,0.2,0.1,0.3,0.1c0.2,0,0.4,0,0.5,0c0.2,0,0.3,0,0.5,0c0.3,0,0.6-0.2,0.7-0.5c0.1-0.1,0.1-0.2,0.1-0.3c0-0.1,0-0.2,0-0.3
		c0-0.2-0.1-0.4-0.2-0.5C77.4,3.1,77.3,3,77,3H76.6z"/>
	<path class="st0" d="M88.5,2.9c-0.2,0-0.4,0-0.6,0.1c-0.2,0-0.4,0-0.6,0.1c-0.2,0-0.4,0-0.6,0c-0.2,0-0.4,0-0.6,0
		c-0.1,0-0.3,0-0.4,0c-0.1,0-0.2,0-0.4,0c-0.1,0-0.3,0.1-0.4,0.2c-0.1,0.1-0.1,0.2-0.1,0.4c0,0.2,0,0.3,0.1,0.5
		c0,0.1,0.1,0.3,0.2,0.4c0.1,0.1,0.3,0.2,0.4,0.3c0.4,0.1,0.8,0.1,1.2,0.2c0.4,0,0.8,0.1,1.2,0.2c0.1,0,0.2,0,0.2,0
		c0.1,0,0.1,0,0.2,0c0.2,0,0.4,0.1,0.5,0.3c0.1,0.2,0.2,0.3,0.2,0.5c0,0.1,0,0.2,0,0.2c0,0.1,0,0.1,0,0.2c0,0.3-0.1,0.5-0.3,0.7
		c-0.2,0.2-0.4,0.3-0.6,0.4c-0.5,0.1-1.1,0.2-1.6,0.3c-0.1,0-0.2,0-0.3,0c-0.1,0-0.2,0-0.3-0.1c-0.2-0.1-0.3,0-0.4,0
		c-0.1,0.1-0.2,0.2-0.3,0.3c-0.2,0.2-0.2,0.5,0,0.7c0.1,0.2,0.2,0.3,0.4,0.4c0.1,0.1,0.3,0.1,0.5,0.1c0.3,0,0.6,0,0.9,0
		c0.3,0,0.6,0,0.9-0.1c0.2,0,0.4-0.1,0.7,0c0.2,0,0.5,0,0.7,0c0.2,0,0.4,0.1,0.5,0.2c0.2,0.1,0.3,0.2,0.4,0.4
		c0.1,0.1,0.2,0.3,0.3,0.5c0.1,0.2,0.1,0.4,0,0.6c0,0.2-0.1,0.4-0.2,0.6c-0.1,0.2-0.3,0.3-0.5,0.3c-0.3,0.1-0.6,0.2-0.9,0.2
		c-0.3,0.1-0.6,0.1-1,0.1c-0.2,0-0.3,0-0.5-0.1s-0.3,0-0.5-0.1c-0.2,0-0.4-0.1-0.6-0.1c-0.2,0-0.4,0-0.6,0.1c-0.6,0.1-1.2,0.2-1.8,0
		c-0.1,0-0.2,0-0.3-0.1c-0.1,0-0.2,0-0.3-0.1c-0.3-0.1-0.6-0.2-0.8-0.4c-0.2-0.2-0.2-0.5-0.2-0.9c0-0.2,0.1-0.5,0.1-0.7
		c0-0.2,0-0.5,0-0.7c0-0.2,0-0.3-0.1-0.5s0-0.3,0-0.5c0-0.2,0-0.4,0-0.6c0-0.2,0-0.4,0.1-0.6c0.1-0.3,0.1-0.5,0.1-0.8
		c0-0.3,0-0.5-0.1-0.8c-0.1-0.4-0.1-0.7-0.1-1.1c0-0.4,0-0.7,0.1-1.1c0.1-0.3,0.1-0.5,0-0.8c0-0.3-0.1-0.5-0.1-0.8
		c-0.1-0.3,0-0.6,0.1-0.7s0.4-0.3,0.7-0.3c0.2,0,0.5-0.1,0.7-0.1c0.2-0.1,0.5-0.1,0.7-0.2c0.2,0,0.4,0,0.5,0
		c0.2,0.1,0.4,0.1,0.6,0.2c0.2,0,0.4,0.1,0.6,0.1c0.2,0,0.4,0,0.5,0c0.2,0,0.3-0.1,0.5-0.1c0.3-0.1,0.5-0.1,0.8-0.1
		c0.3,0,0.5,0,0.8,0.1c0.1,0,0.2,0.1,0.3,0.1c0.1,0,0.2,0,0.3,0c0.3,0.1,0.6,0.2,0.8,0.5c0.1,0.2,0.1,0.4,0.1,0.6
		c0,0.1-0.1,0.2-0.1,0.3c0,0.1,0,0.2,0,0.3c0,0.3-0.1,0.6-0.2,0.7c-0.1,0.1-0.4,0.2-0.7,0.2L88.5,2.9L88.5,2.9z M83.8,7.5
		C83.8,7.5,83.9,7.5,83.8,7.5c0.1,0,0.1,0,0.1,0c0,0,0.1,0,0.1-0.1c0,0,0,0,0,0c0,0,0,0,0,0c0,0,0,0-0.1,0c0,0-0.1,0-0.1,0
		c-0.1,0-0.1,0-0.2,0.1c0,0,0,0,0,0c0,0,0,0,0,0.1L83.8,7.5L83.8,7.5z M83.7,6C83.7,6,83.7,6,83.7,6c0.1,0.1,0.1,0.1,0.1,0.1
		c0.1,0,0.1,0,0.1-0.1c0-0.1,0-0.1,0-0.2c0,0,0,0,0-0.1c0-0.1,0-0.1,0-0.1c0,0-0.1,0-0.1,0C83.7,5.7,83.7,5.8,83.7,6z M83.7,10.5
		c0,0,0,0.1,0,0.1c0,0,0,0.1,0,0.1c0,0.1,0.1,0.1,0.1,0c0,0,0,0,0,0c0,0,0,0,0-0.1c0-0.1,0-0.1,0-0.2c0-0.1,0-0.1,0.1-0.2
		c0,0,0-0.1,0-0.1c0,0,0,0-0.1-0.1c-0.1,0-0.1,0-0.2,0.1c0,0,0,0.1,0,0.1C83.7,10.4,83.7,10.4,83.7,10.5z M84.1,9.7
		c-0.1-0.1-0.1-0.1-0.2-0.2h-0.1v0C83.9,9.7,83.9,9.7,84.1,9.7C84,9.8,84,9.8,84.1,9.7L84.1,9.7z M84.2,6.7
		c-0.1,0.1-0.1,0.1-0.1,0.1c0,0,0,0.1,0.1,0.1c0,0,0,0.1,0.1,0.1c0.1-0.1,0.1-0.1,0.1-0.1c0,0,0-0.1,0-0.1
		C84.3,6.8,84.3,6.7,84.2,6.7z M84.5,10.6c-0.1-0.1-0.1-0.1-0.1-0.1s-0.1-0.1-0.1-0.1c0,0-0.1,0-0.1,0.1l0.2,0.3
		C84.4,10.7,84.4,10.7,84.5,10.6C84.5,10.7,84.5,10.7,84.5,10.6C84.5,10.7,84.5,10.6,84.5,10.6z M84.4,5.8c0,0-0.1,0.1-0.1,0.1
		c0,0-0.1,0.1-0.1,0.1c0.1,0,0.1,0.1,0.1,0.1c0.1,0,0.1,0,0.2,0c0,0,0.1,0,0.1,0c0,0,0.1,0,0.1,0c0,0,0,0,0-0.1c0,0,0-0.1,0-0.1
		c0,0-0.1,0-0.1-0.1C84.5,5.9,84.4,5.8,84.4,5.8z M85.3,6.6c0,0,0.1-0.1,0.1-0.1c0,0,0.1-0.1,0.1-0.1c0,0,0,0,0-0.1
		c0,0-0.1-0.1-0.1-0.1c0,0,0,0.1-0.1,0.1c0,0-0.1,0.1-0.1,0.1L85.3,6.6z M88.4,10.9C88.5,10.8,88.5,10.8,88.4,10.9
		c0.1-0.1,0.1-0.1,0.1-0.1c0,0,0,0,0-0.1c0,0,0,0,0,0c0,0-0.1,0-0.2,0.1C88.3,10.7,88.4,10.8,88.4,10.9z"/>
	<path class="st0" d="M91.7,10.2c0-0.4,0-0.8,0-1.2c0-0.4,0-0.8,0-1.2c0-0.3,0-0.6,0-0.9c0-0.3,0-0.6,0-0.9c0-0.1,0-0.2,0-0.3
		c0-0.1,0-0.2,0-0.3c0-0.3,0-0.5,0-0.8c0-0.3,0-0.5,0-0.8c0-0.4,0-0.8,0-1.1c0-0.4,0-0.8-0.1-1.1c0-0.4,0-0.7,0.2-0.9
		c0.2-0.2,0.4-0.4,0.8-0.4c0.2,0,0.3-0.1,0.5-0.1c0.2,0,0.3-0.1,0.5-0.1C93.8,0,94,0,94.2,0c0.2,0,0.4,0,0.6,0.1
		c0.1,0.1,0.3,0.1,0.4,0.1c0.1,0,0.3,0.1,0.4,0.1c0.3,0.1,0.7,0,1-0.1c0.5-0.2,1.1-0.2,1.6,0c0.1,0,0.2,0,0.3,0c0.1,0,0.2,0,0.3,0
		c0.1,0,0.3,0.1,0.4,0.2c0.1,0.1,0.2,0.2,0.3,0.3c0.1,0.1,0.2,0.2,0.2,0.3c0,0.1,0,0.2,0,0.4c-0.1,0.3-0.1,0.7-0.1,1
		c0,0.3,0.1,0.7,0.1,1c0.1,0.3,0.1,0.6,0.1,0.9c0,0.3,0,0.6-0.2,0.9c-0.1,0.2-0.1,0.4-0.1,0.5c0,0.2,0,0.3,0,0.5c0,0.1,0,0.3,0,0.4
		c0,0.1,0,0.3,0,0.4c0,0.2-0.1,0.4-0.2,0.5c-0.1,0.1-0.3,0.2-0.5,0.2c-0.1,0-0.2,0-0.3,0c-0.1,0-0.2,0-0.3-0.1
		c-0.3-0.1-0.7-0.1-1,0.1c-0.3,0.1-0.6,0.2-1,0.2c-0.3,0-0.7,0-1-0.2c-0.1,0-0.1,0-0.2-0.1c-0.1,0-0.1,0-0.2,0c-0.2,0-0.3,0-0.4,0.1
		c-0.1,0.1-0.2,0.2-0.2,0.4c0,0.1,0,0.2,0,0.2c0.1,0.3,0.1,0.5,0.1,0.8c-0.1,0.3-0.1,0.5-0.2,0.8c-0.1,0.2-0.1,0.4-0.1,0.6
		c0,0.2,0,0.4,0.1,0.6c0.1,0.6-0.1,0.9-0.8,0.9c-0.2,0-0.4,0-0.6,0c-0.2,0-0.4-0.1-0.6-0.1c-0.2,0-0.3-0.1-0.4-0.3
		c-0.1-0.1-0.2-0.3-0.2-0.5c0-0.1,0-0.3,0-0.4C91.7,10.5,91.7,10.3,91.7,10.2z M93.3,6.7C93.3,6.7,93.3,6.7,93.3,6.7
		c0-0.1-0.1-0.1-0.1-0.2c0,0,0-0.1-0.1-0.1c0,0,0,0.1,0,0.1c0,0,0,0.1,0,0.1c0,0,0,0.1,0,0.1c0,0,0,0,0.1,0
		C93.3,6.8,93.3,6.7,93.3,6.7z M93.4,2.4L93.4,2.4l0.3-0.3c0,0,0,0,0,0c0,0,0,0,0,0c0,0-0.1,0-0.1,0.1c0,0-0.1,0.1-0.1,0.1
		c0,0-0.1,0-0.1,0.1C93.4,2.3,93.4,2.3,93.4,2.4C93.4,2.4,93.4,2.4,93.4,2.4z M95.6,2.8C95.6,2.8,95.6,2.9,95.6,2.8l-0.4,0
		c-0.2,0-0.4,0.1-0.6,0.3c-0.2,0.1-0.3,0.3-0.3,0.6c0,0.2,0,0.4,0.1,0.6c0.1,0.2,0.3,0.3,0.5,0.4c0.3,0.1,0.6,0.1,0.9,0.1
		s0.6-0.1,0.9-0.2c0.1,0,0.1-0.1,0.2-0.1c0.1-0.1,0.2-0.2,0.3-0.3C97,4,97.1,3.9,97,3.8c0-0.2-0.1-0.3-0.2-0.5
		c-0.1-0.2-0.3-0.3-0.5-0.3c-0.1,0-0.3-0.1-0.4-0.1C95.8,2.9,95.7,2.8,95.6,2.8z M98.2,2c0,0-0.1,0.1-0.1,0.1c0,0-0.1,0-0.1,0.1
		c0,0,0,0,0.1,0.1c0,0,0,0,0.1,0c0,0,0.1,0,0.1,0c0,0,0.1,0,0.1,0C98.2,2.1,98.2,2.1,98.2,2C98.2,2,98.2,2,98.2,2z"/>
	<path class="st0" d="M109.3,1.5c0,0.2,0,0.4,0.1,0.6c0,0.2,0,0.4,0.1,0.6c0.1,0.7,0.1,1.4,0,2c-0.1,0.3-0.1,0.6,0,0.9
		c0,0.2,0.1,0.5,0.1,0.7c0,0.2,0,0.5,0,0.7c0,0.1,0,0.2,0,0.3s0,0.2,0,0.3c0,0.1,0,0.1,0,0.1c0,0,0,0.1,0,0.1c0,0.4,0,0.8,0,1.1
		c0,0.4,0,0.8,0,1.1c0,0.2,0,0.4,0,0.5c0,0.2-0.1,0.3-0.2,0.5c-0.1,0.2-0.2,0.4-0.4,0.4c-0.2,0.1-0.4,0.1-0.6,0.2
		c-0.2,0-0.3,0-0.5,0s-0.3,0-0.5,0c-0.2,0-0.4,0-0.5,0c-0.2,0-0.4,0-0.5-0.1c-0.2,0-0.3,0-0.5,0c-0.2,0-0.3,0-0.5,0
		c-0.2,0-0.4,0-0.7,0.1c-0.2,0-0.4,0-0.7,0c-0.3,0-0.5,0-0.8,0c-0.3,0-0.5,0-0.8-0.1c-0.2,0-0.4-0.1-0.6-0.1c-0.5-0.2-0.7-0.5-0.5-1
		c0-0.1,0-0.2,0.1-0.2c0-0.1,0.1-0.2,0.1-0.2c0.1-0.2,0.2-0.5,0.2-0.7c0-0.2,0-0.5-0.1-0.8c-0.1-0.2-0.1-0.4-0.2-0.6
		c-0.1-0.2-0.1-0.4-0.1-0.6c0-0.3,0.1-0.5,0.2-0.7c0.1-0.2,0.2-0.4,0.2-0.5c0-0.2,0-0.4-0.1-0.6c-0.1-0.2-0.1-0.4-0.2-0.6
		c0-0.2-0.1-0.4-0.1-0.6c0-0.1,0-0.3,0-0.4c0-0.1,0-0.3,0.1-0.4c0.3-0.8,0.3-1.5,0-2.3c-0.1-0.2-0.1-0.3,0-0.5
		c0-0.2,0.1-0.3,0.3-0.4c0.1-0.1,0.3-0.2,0.5-0.2c0.2,0,0.3,0,0.5,0c0.2,0,0.3-0.1,0.5-0.1c0.3-0.1,0.6-0.1,0.9-0.1
		c0.3,0,0.6,0.1,0.9,0.1c0.1,0,0.2,0,0.3,0.1c0.1,0,0.2,0.1,0.3,0.1c0.1,0,0.3,0,0.4,0s0.3,0,0.4-0.1c0.6-0.3,1.1-0.3,1.8-0.1
		c0.1,0,0.3,0.1,0.4,0.1c0.1,0,0.3,0.1,0.4,0.1c0.3,0.1,0.5,0.2,0.5,0.3c0.1,0.1,0.1,0.3,0.1,0.6L109.3,1.5L109.3,1.5z M103.4,1.9
		c0,0-0.1,0.1-0.1,0.1c0,0-0.1,0.1-0.1,0.1c0,0,0,0.1,0,0.1s0,0.1,0.1,0.1h0c0,0,0,0,0,0c0.1-0.1,0.1-0.1,0.1-0.2c0-0.1,0-0.1,0-0.2
		C103.5,2,103.5,2,103.4,1.9z M105.5,9.1L105.5,9.1c0.1,0,0.2,0,0.3,0c0.1,0,0.2,0,0.3,0c0.4,0,0.6-0.2,0.7-0.6c0-0.2,0-0.3,0.1-0.5
		c0-0.2,0-0.3-0.1-0.5c-0.2-0.6-0.2-1.2,0-1.8c0.1-0.3,0.1-0.7,0.1-1c0-0.3-0.1-0.6-0.2-1c-0.1-0.3-0.3-0.5-0.4-0.6
		c-0.2-0.1-0.4-0.2-0.7-0.2h-0.3c-0.3,0-0.5,0.1-0.7,0.2c-0.2,0.1-0.3,0.4-0.3,0.6c0,0.3-0.1,0.5-0.1,0.8c0,0.3,0,0.5,0,0.8
		c0,0.1,0,0.2,0,0.4c0,0.1,0,0.2,0,0.4c0,0.2,0,0.3,0,0.5s0,0.3,0,0.5c0,0.2,0,0.4,0,0.6c0,0.2,0,0.4-0.1,0.6c0,0.2,0,0.4,0.1,0.6
		c0.1,0.2,0.3,0.3,0.5,0.3c0.1,0,0.3,0,0.4,0.1C105.2,9.1,105.4,9.1,105.5,9.1z M104.6,10.6C104.6,10.6,104.6,10.6,104.6,10.6
		c-0.1,0-0.1,0-0.1,0c0,0,0,0,0,0c0,0.1,0,0.1,0,0.1c0,0,0.1,0,0.1,0.1c0,0,0.1,0,0.1,0c0,0,0.1,0,0.1,0c0,0,0.1,0,0.1,0
		c0,0-0.1,0-0.1-0.1c0,0,0,0-0.1-0.1C104.7,10.6,104.7,10.6,104.6,10.6C104.7,10.6,104.6,10.6,104.6,10.6z M106.9,1.9
		c-0.1,0-0.1-0.1-0.1-0.1c0,0-0.1,0-0.1,0c0,0,0,0-0.1,0.1c0,0,0,0.1-0.1,0.1c0,0,0.1,0,0.1,0c0,0,0.1,0,0.1,0c0,0,0,0,0.1,0
		C106.8,1.9,106.9,1.9,106.9,1.9z"/>
	<path class="st0" d="M117.9,11.8c-0.1,0-0.3,0-0.4,0c-0.1,0-0.3,0-0.4,0c-0.5-0.1-0.7-0.3-0.8-0.8c0,0,0-0.1,0-0.1c0,0,0-0.1,0-0.1
		c0.1-0.3,0.1-0.6,0-0.9c0-0.3-0.1-0.6-0.1-0.9c0-0.1,0-0.2,0-0.3c0-0.1,0-0.2,0-0.3c0-0.1,0-0.1,0-0.2c0-0.1,0-0.1,0-0.2
		c-0.2-0.5-0.5-0.7-0.9-0.5c-0.2,0.1-0.4,0.1-0.6,0.2c-0.2,0.1-0.4,0.1-0.6,0.1c-0.1,0-0.3,0.1-0.3,0.2c-0.1,0.1-0.1,0.2-0.2,0.3
		c0,0.1,0,0.2,0,0.4s0,0.2,0,0.4c0.2,0.6,0.1,1.3-0.1,1.9c0,0,0,0.1,0,0.1c0,0.1,0,0.2,0,0.3c0,0.1-0.1,0.2-0.2,0.2
		c-0.1,0.1-0.3,0.2-0.4,0.3c-0.1,0.1-0.3,0.1-0.5,0.2c-0.3,0-0.5,0-0.8-0.1c-0.2,0-0.3-0.1-0.4-0.3c-0.1-0.2-0.2-0.3-0.2-0.5
		c0-0.3,0-0.5,0-0.8c0-0.3-0.1-0.5-0.1-0.8c0-0.1,0-0.2,0-0.4c0-0.1,0-0.2,0-0.4c0-0.2,0-0.4,0.1-0.5c0-0.2,0-0.3,0.1-0.5
		c0-0.3,0-0.5,0-0.7c0-0.2-0.1-0.5-0.1-0.7c0-0.3,0-0.5,0-0.8c0-0.3,0.1-0.5,0.1-0.8c0-0.2,0-0.3,0-0.5c0-0.2,0-0.3,0-0.5
		c0-0.1,0-0.3-0.1-0.5c0-0.2-0.1-0.3-0.1-0.5c-0.1-0.7,0-1.4,0.3-2c0.1-0.2,0.2-0.3,0.3-0.4c0.1-0.1,0.3-0.1,0.5-0.1
		c0.2,0,0.4,0.1,0.7,0.1c0.2,0,0.4,0.1,0.7,0.1c0.2,0,0.3,0.1,0.5,0.1c0.2,0,0.3,0,0.5-0.1c0.1-0.1,0.3-0.1,0.4-0.1
		c0.1,0,0.3-0.1,0.4-0.1c0.4-0.1,0.9,0,1.3,0.1c0.4,0.2,0.9,0.2,1.3,0c0.3-0.1,0.5-0.1,0.7,0s0.3,0.3,0.4,0.6
		c0.1,0.3,0.1,0.5,0.2,0.8c0,0.3,0,0.5-0.1,0.8c-0.2,0.7-0.2,1.3,0,1.9c0.1,0.2,0.1,0.4,0.1,0.6c0,0.2-0.1,0.3-0.3,0.5
		c-0.1,0-0.1,0.1-0.2,0.2c-0.1,0.2-0.2,0.3-0.2,0.5c0,0.2,0,0.3,0.1,0.5c0.1,0.1,0.1,0.2,0.2,0.4c0,0.1,0.1,0.2,0.2,0.4
		c0.2,0.4,0.3,0.7,0.2,1.1c0,0.4-0.1,0.8-0.2,1.1c-0.1,0.2-0.1,0.4-0.1,0.6c0,0.2,0,0.4,0.1,0.6c0.1,0.2,0.1,0.3,0,0.5
		c0,0.1-0.1,0.3-0.2,0.3c-0.1,0.1-0.2,0.2-0.3,0.2c-0.1,0-0.3,0-0.4,0C117.9,11.8,117.9,11.8,117.9,11.8L117.9,11.8z M115.1,3
		c-0.1,0-0.1,0-0.2,0c-0.1,0-0.1,0-0.2,0c-0.3,0-0.6,0.1-0.8,0.4c-0.1,0.2-0.2,0.3-0.3,0.5c-0.1,0.2-0.1,0.4,0,0.5
		c0.1,0.2,0.2,0.3,0.4,0.4c0.1,0.1,0.2,0.1,0.3,0.1c0.2,0,0.4,0,0.5,0c0.2,0,0.3,0,0.5,0c0.3,0,0.6-0.2,0.7-0.5
		c0.1-0.1,0.1-0.2,0.1-0.3c0-0.1,0-0.2,0-0.3c0-0.2-0.1-0.4-0.2-0.5c-0.1-0.1-0.3-0.2-0.5-0.2H115.1z"/>
	<path class="st0" d="M125.6,5.1c0,0.2,0,0.5,0.1,0.7c0,0.2,0,0.4,0,0.6c0,0.3,0,0.5,0,0.8c0,0.3,0,0.5,0,0.8c0,0.3,0,0.5,0,0.8
		c0,0.3,0,0.5,0.1,0.8c0,0.3,0,0.5,0,0.8c0,0.3,0,0.5-0.1,0.8c-0.1,0.3-0.2,0.4-0.3,0.6c-0.1,0.1-0.4,0.2-0.6,0.2
		c-0.5,0-0.9,0-1.3-0.1c-0.3-0.1-0.4-0.2-0.5-0.3c-0.1-0.2-0.1-0.4,0-0.6c0-0.2,0.1-0.3,0.1-0.5c0.1-0.2,0.1-0.3,0.1-0.5
		c0-0.1,0-0.3,0-0.4c0-0.1,0-0.3,0-0.4c0-0.2-0.1-0.4-0.1-0.6c0-0.2-0.1-0.4-0.1-0.6c-0.1-0.4-0.1-0.7,0.1-1
		c0.1-0.3,0.2-0.5,0.2-0.8c0-0.2,0-0.5-0.1-0.8c0-0.1-0.1-0.2-0.1-0.4c0-0.1,0-0.2-0.1-0.4c0-0.2,0-0.3,0-0.5c0-0.2,0-0.3,0-0.5
		c0.1-0.4-0.1-0.7-0.5-0.7c-0.1,0-0.1,0-0.2,0c-0.1,0-0.1,0-0.2,0c-0.1,0-0.3,0-0.4,0c-0.1,0-0.3,0-0.4,0c-0.2,0-0.4-0.1-0.6-0.3
		c-0.2-0.2-0.2-0.4-0.3-0.6c0-0.3,0-0.5,0-0.8c0-0.3,0.2-0.5,0.4-0.7c0.2-0.2,0.5-0.4,0.8-0.4c0.2,0,0.4,0,0.6,0
		c0.2,0,0.4,0,0.6,0.1c0.1,0,0.1,0.1,0.2,0.1c0.1,0,0.1,0,0.2,0c0.5,0.1,1,0.1,1.4,0c0.5-0.2,1-0.2,1.5-0.1c0.1,0,0.3,0.1,0.4,0.1
		c0.1,0,0.3,0.1,0.5,0.1c0.1,0,0.2,0,0.3,0c0.1,0,0.2,0,0.3,0c0.3-0.1,0.6,0,0.8,0.2c0.2,0.2,0.3,0.4,0.3,0.7c0,0.3-0.1,0.7-0.2,1
		c-0.2,0.5-0.5,0.7-1,0.7h-0.5c-0.3,0-0.6,0.1-0.8,0.2c-0.2,0.2-0.3,0.4-0.4,0.7c0,0.2,0,0.5-0.1,0.7C125.7,4.8,125.7,5,125.6,5.1z
		 M124.5,8.1V7.8h0c0,0,0,0,0,0C124.5,7.9,124.5,8,124.5,8.1c0,0,0,0.1,0,0.1C124.5,8.1,124.5,8.1,124.5,8.1z M125,2.6
		c0.1,0,0.2,0,0.2,0s0.1,0,0.1-0.1c0,0-0.1-0.1-0.1-0.1c-0.1,0-0.1-0.1-0.2-0.1c-0.1,0-0.1,0-0.1,0.1c0,0.1,0,0.1,0,0.2
		C124.9,2.5,124.9,2.5,125,2.6C124.9,2.5,125,2.6,125,2.6z"/>
</g>
</svg>
