<?xml version="1.0" encoding="utf-8"?>
<!-- Generator: Adobe Illustrator 28.0.0, SVG Export Plug-In . SVG Version: 6.00 Build 0)  -->
<svg version="1.1" id="Layer_1" xmlns="http://www.w3.org/2000/svg" xmlns:xlink="http://www.w3.org/1999/xlink" x="0px" y="0px"
	 viewBox="0 0 45.1 157.3" style="enable-background:new 0 0 45.1 157.3;" xml:space="preserve">
<style type="text/css">
	.st0{fill:#565656;}
	.st1{clip-path:url(#SVGID_00000004519431757333119720000015587827357900892579_);fill:#565656;}
</style>
<g>
	<g>
		
			<rect x="16.7" y="74.9" transform="matrix(1 -4.009976e-03 4.009976e-03 1 -0.3146 0.1214)" class="st0" width="26.9" height="7.2"/>
		<polygon class="st0" points="43.6,113 38,113.1 38.1,122 16.8,122.1 16.9,129.3 38.1,129.2 38.2,138.1 43.7,138.1 		"/>
		<path class="st0" d="M33,103.1v-5.9c0-1.6,0.6-2.9,2.5-2.9c1.8,0,2.5,1.3,2.5,2.8l0.1,12.8h5.6l-0.1-13.7c0-5.1-3-9.2-8.1-9.2
			s-8,4.2-8,9.3v6.1c0,1.6-0.6,2.9-2.5,2.9c-1.8,0-2.5-1.3-2.5-2.8l-0.1-14.4h-5.6l0.1,15c0,5.1,3,9.2,8.1,9.2S33,108.3,33,103.1"/>
		<polygon class="st0" points="43.4,53.2 19.2,43.2 29.9,33.5 43.3,45.5 43.3,37.3 30.5,26 43.2,26 43.2,18.8 16.4,18.9 16.4,26 
			29.2,26 16.5,37.4 16.5,49.3 36.8,57.4 21.9,63.4 21.9,54 16.6,56.2 16.6,72.9 43.4,61.5 		"/>
	</g>
	<g>
		<g>
			<g>
				<path id="SVGID_1_" class="st0" d="M5,2.4C1.6,27.3-0.1,52.8,0,78.7s2,51.3,5.6,76.2c3.5-24.9,5.1-50.4,5-76.3S8.7,27.3,5,2.4"
					/>
			</g>
			<g>
				<defs>
					<path id="SVGID_00000034054170521792213840000016360979376380664208_" d="M4.7,2.4C1.4,27.3-0.2,52.8,0,78.7s2.2,51.3,5.9,76.2
						c3.4-24.9,4.9-50.4,4.7-76.3C10.5,52.7,8.5,27.3,4.7,2.4"/>
				</defs>
				<clipPath id="SVGID_00000111152874602371380980000000420402581900160434_">
					<use xlink:href="#SVGID_00000034054170521792213840000016360979376380664208_"  style="overflow:visible;"/>
				</clipPath>
				
					<rect x="0" y="2.4" transform="matrix(1 -4.009976e-03 4.009976e-03 1 -0.3153 2.221008e-02)" style="clip-path:url(#SVGID_00000111152874602371380980000000420402581900160434_);fill:#565656;" width="10.8" height="152.5"/>
			</g>
		</g>
	</g>
</g>
</svg>
