<?xml version="1.0" encoding="utf-8"?>
<!-- Generator: Adobe Illustrator 28.0.0, SVG Export Plug-In . SVG Version: 6.00 Build 0)  -->
<svg version="1.1" id="Layer_1" xmlns="http://www.w3.org/2000/svg" xmlns:xlink="http://www.w3.org/1999/xlink" x="0px" y="0px"
	 viewBox="0 0 62.6 103.9" style="enable-background:new 0 0 62.6 103.9;" xml:space="preserve">
<style type="text/css">
	.st0{fill:#AFADA3;}
</style>
<g>
	<path class="st0" d="M0,106.6V-3.2c17.1-0.6,34.2-0.3,51.3-0.4v110.3C34.3,106.6,17.1,106.4,0,106.6z"/>
	<g>
		<g>
			<g>
				<path class="st0" d="M56,16.8c-0.1,0-0.3,0-0.1-0.2c0.2-0.3,0.2-0.4,0.1-0.5h-0.1c-0.2,0.2-0.4-0.1-0.5-0.1c0,0-0.1-0.1-0.1-0.2
					c0.1-0.1,0-0.1,0-0.2c0-0.1,0-0.2,0-0.2c-0.1,0-0.2,0.1-0.3,0.1c-0.2,0-0.1,0.1-0.2,0.2h-0.1c-0.1,0-0.3-0.1-0.4-0.1
					c0.1-0.1,0.2-0.2,0.3-0.3c0-0.1-0.1-0.2-0.1-0.3c0,0,0,0-0.1,0s-0.1,0.5-0.3,0.2c-0.1,0.1-0.2,0.1-0.4,0.3
					c0.1,0,0.2,0.1,0.3,0.1c0,0.1-0.1,0.1-0.1,0.2c0.4,0,0.7,0.2,1,0.2c0.1,0,0.1,0.2,0,0.3c0.2,0.1,0.3,0.2,0.5,0.3
					c0,0.1,0,0.2,0,0.3c0.1,0,0.2,0.2,0.2-0.1c0-0.1,0.1-0.2,0.2-0.2c0.1,0,0.2,0,0,0.2c-0.2,0.3-0.2,0.4-0.2,0.5
					c0,0.3-0.1,0.6-0.4,1c0-0.2,0-0.3,0-0.4c-0.1,0.1-0.2,0.2-0.3,0.3c-0.1,0.1-0.2,0.2-0.3,0.2c0-0.1,0-0.1,0-0.2
					c-0.1,0.1-0.2,0.2-0.2,0.3c-0.1-0.2-0.2-0.3-0.2-0.5c0.1-0.1,0.2-0.1,0.3-0.2c-0.2-0.3-0.2-0.3,0.2-0.4c0.1,0,0.1-0.1,0.2-0.1
					C54.8,17,54.6,17,54.5,17s-0.2-0.3-0.3-0.2c-0.2,0.2-0.3-0.2-0.4,0c0,0.1,0,0.2,0,0.3c0.2,0,0.3-0.1,0.4-0.1c0,0.2,0,0.4,0,0.6
					c-0.1-0.1-0.2-0.1-0.3-0.2c0,0.4,0,0.7,0,1.1c-0.1-0.1-0.2-0.1-0.2-0.2c0-0.3-0.1-0.4-0.3-0.5c-0.2,0.2-0.2,0.4-0.2,0.6
					s0,0.3-0.2,0.3c-0.3-0.1-0.1-0.5-0.4-0.6c-0.2,0.1-0.4,0.3-0.7,0.3c-0.2,0-0.4,0.2-0.4,0.4C51.4,19,51.3,19,51.2,19
					c-0.2-0.1,0-0.3,0-0.3c-0.2-0.1,0-0.2,0-0.4c-0.1,0-0.3,0-0.4,0c-0.1,0.3-0.2,0.8-0.1,1.1c-0.1-0.2-0.2-0.3-0.3-0.4
					s-0.2-0.1-0.2-0.2c0,0.1-0.1,0.2-0.1,0.2s0,0.1-0.1,0.2c-0.1-0.1-0.2-0.2-0.2-0.2c0-0.2-0.1-0.1-0.2-0.2c-0.1-0.1-0.2,0-0.3,0
					c-0.1-0.1-0.1-0.2-0.2-0.3H49c-0.1,0.3-0.3,0.5-0.5,0.8c0-0.3,0-0.4,0-0.5c-0.2-0.2-0.3-0.3-0.5-0.4c-0.1,0.1-0.2,0.3-0.3,0.4
					c-0.2-0.1-0.3-0.3-0.5-0.4c0.1-0.2,0.3-0.4,0.3-0.6c-0.1,0-0.2,0-0.3-0.1c0.1-0.1,0.1-0.1,0.2-0.2c0.1,0,0.1,0,0.2,0.1
					c0-0.1,0.1-0.1,0.1-0.1c-0.1-0.2-0.1-0.4-0.2-0.6c-0.1,0.1-0.2,0.3-0.3,0.4c-0.1-0.2-0.3-0.3-0.6-0.2c-0.1,0-0.1,0-0.2,0
					c0.1-0.1,0.1-0.2,0.2-0.3c-0.1-0.1-0.2-0.1-0.3-0.2s-0.2-0.2-0.1-0.3c0-0.1,0.1-0.1,0.2-0.2c0-0.1,0-0.3-0.1-0.4
					c0-0.1-0.1-0.2-0.1-0.2c-0.3,0-0.4-0.3-0.5-0.4c0.1-0.1,0.1-0.2,0.1-0.3c-0.2,0-0.3,0-0.5,0c0-0.2,0.1-0.3,0.1-0.4
					c-0.1,0-0.2-0.1-0.2-0.1c-0.3,0-0.4-0.1-0.5-0.4c0-0.1,0.1-0.2,0.1-0.2c0.1,0.1,0.1,0.1,0.2,0.3c0-0.3,0-0.4,0-0.6
					c-0.1,0-0.1,0-0.1,0.1c-0.1-0.3-0.3-0.5-0.4-0.8c0.4-0.1,0.4,0.3,0.6,0.5c0-0.1,0.1-0.2,0.1-0.3s0-0.3,0.1-0.4
					c0.1,0.1,0.2,0.1,0.4,0.3c0-0.4,0.1-0.7-0.2-1c-0.1,0-0.2,0.1-0.3,0.1c-0.2-0.1-0.1,0.3-0.3,0.2c0-0.1-0.1-0.2-0.2-0.4
					c0.3,0.1,0.5-0.1,0.6-0.2c0.1-0.2,0.1-0.4,0.2-0.6c0.2,0,0.1-0.2,0.2-0.3c0.1,0,0.2,0.1,0.3,0.1c0.3-0.2,0.3-0.4,0.2-0.7
					c-0.1,0-0.2,0-0.1-0.2c0.2,0,0.3,0,0.5,0c0-0.1,0-0.1-0.1-0.2c-0.1-0.4-0.1-0.6,0.2-0.8c0,0,0,0,0.1,0c0,0.1,0.1,0.3,0.1,0.4
					c0.4,0,0.3-0.4,0.5-0.6c0.1,0,0.1,0.1,0.1,0.1c0.1-0.2,0.2-0.3,0.1-0.5c-0.1-0.2,0.1-0.4,0.3-0.5C48,7.9,48.2,8,48.3,8.2
					c0.4-0.2,0-0.4,0.1-0.6c-0.2,0-0.3,0-0.4,0c0-0.1,0-0.1,0-0.1V7.4c0.3,0.1,0.3,0.1,0.4,0c0,0.1,0.1,0.1,0.1,0.2
					c0.1-0.2,0.2-0.3,0.3-0.4C49,7.1,49,6.8,49.1,6.6c0-0.1,0-0.1,0-0.3C49.6,6.9,49.8,7,50,7.1c0-0.1,0-0.3,0-0.4
					c0.1-0.2,0.1-0.3,0.2-0.4c0.1-0.1,0.2-0.1,0.3,0c0.1,0,0.3,0.1,0.4,0.2c0.1,0.1,0.2,0.1,0.3-0.1s0.4-0.4,0.5-0.7
					c0-0.1,0.1-0.2,0.3,0c0.1,0.1,0.1,0,0.2,0l0.1-0.1c0.1,0.2,0.4,0,0.5,0.2c-0.2,0.2-0.1,0.3,0,0.6C53,6.2,53.2,6,53.4,5.9
					c0.1-0.1,0.3-0.2,0.4-0.2c0.1,0,0.2,0,0.2,0.1c0.1,0,0.1,0.1,0.2,0.1c-0.2,0.2,0,0.3,0,0.4c0.1,0,0.3,0,0.4,0
					c0-0.4-0.2,0-0.3-0.2c0.1-0.1,0.2-0.2,0.2-0.3c0-0.2,0.2-0.1,0.3-0.1s0.1,0.1,0.2,0.2c-0.3,0.5-0.3,0.5-0.2,0.9
					c0,0.1,0.2,0.4,0.2,0.5c0,0,0.1,0,0.2,0.1c0-0.1,0-0.2,0-0.3c0-0.1-0.1-0.2-0.1-0.3c0-0.1,0-0.3,0-0.5S55.2,6,55.3,6
					c0,0.2,0.1,0.3,0.1,0.4c0.1,0.1,0.2,0.2,0.3,0.4c0-0.1,0-0.2,0.1-0.4c0.2,0,0.1-0.2,0.2-0.3c0.3,0,0.4-0.2,0.6-0.4
					c0.1-0.1,0.2-0.1,0.3,0c0,0.3-0.2,0.5-0.3,0.7c0.1,0.1,0.1,0.1,0.2,0.2c0.1,0,0.1,0,0.2,0c0,0.1,0,0.2,0,0.3V7
					c0,0.2-0.1,0.3-0.4,0.2c-0.2,0.2,0.2,0.1,0.2,0.3c0,0.1-0.1,0.1-0.2,0.2c0.1,0,0.1,0,0.2,0c0.1,0,0.1-0.1,0.2-0.1
					c0,0,0.1,0,0.2,0c0,0.1,0,0.3,0,0.4c0.3-0.2,0.5-0.1,0.7,0.1c0,0.1-0.1,0.1-0.1,0.2c0.1,0.1,0.2,0.1,0.3,0.2c0,0.1,0,0.2,0,0.4
					c0.1,0,0.2-0.1,0.3-0.1c0,0.2,0.1,0.4-0.2,0.5C58,9.4,58,9.5,58.1,9.7c0.1,0.2,0.2,0.3,0.1,0.5c0,0.1,0,0.1,0,0.2
					c-0.1,0-0.2,0-0.3,0.1c0,0.1-0.1,0.2-0.1,0.3c0.2,0,0.4,0,0.7,0.1c-0.1,0.1-0.3,0.2-0.4,0.3c0.1,0.2,0.1,0.4,0.2,0.6
					C58,11.7,58,12,57.8,12.1c-0.1,0-0.3,0-0.5,0c0.1,0.1,0.1,0.3,0.2,0.3c0.1,0.1,0.2,0.1,0.2,0.3s0.2,0.2,0.4,0.1l0.1-0.1
					c0.1-0.1,0.2-0.1,0.4,0c-0.2,0-0.1,0.2-0.3,0.2c-0.1,0-0.2,0.2-0.3,0.3c-0.2-0.1-0.4,0.1-0.6-0.1c0,0-0.2,0-0.3,0
					c-0.1,0.1-0.3,0.1-0.4,0.1c0,0-0.1,0-0.1,0.1s0.1,0.2,0.1,0.3c0.1,0,0.3,0,0.3,0.1c0.2,0.2,0.2,0.2,0.4,0.1
					c0.2,0,0.3-0.2,0.4-0.3c0,0,0.1,0,0.1-0.1l0.1,0.1c0,0,0,0.1,0.1,0.1c-0.2,0.2-0.3,0.3-0.6,0.6c0.2,0,0.3,0,0.4,0
					c0.1,0.2,0.2,0.4,0.3,0.6c-0.1,0.1-0.3,0.1-0.4,0.2c0.1,0.2,0.2,0.4,0.4,0.4c0.1,0,0.3,0.1,0.3,0.3c-0.1,0.1-0.2,0.1-0.3,0.2
					c0.2,0.1,0.3,0.2,0.2,0.3c-0.1,0-0.1-0.1-0.2-0.1c-0.1,0-0.3,0-0.4,0c-0.2-0.2-0.3,0.1-0.4,0c-0.1,0.3-0.3,0.2-0.5,0.3
					c0.1,0.2,0.2,0.4,0.1,0.6c-0.1-0.1-0.1-0.2-0.2-0.3c0,0.1-0.1,0.2-0.1,0.2c-0.1,0.1-0.2,0-0.2,0.1c-0.1,0.1-0.1-0.1-0.2,0
					c-0.1,0-0.2,0-0.2,0c0,0.1,0,0.2,0,0.3c0,0.1,0,0.1-0.1,0.2C55.9,17.3,55.9,17.1,56,16.8z M57.6,11L57.6,11L57.6,11L57.6,11
					c-0.1-0.1-0.1-0.1-0.1-0.2L57.6,11C57.5,11,57.5,11,57.6,11c-0.1-0.1-0.1-0.1-0.1-0.1C57.6,11.1,57.6,11,57.6,11z M53.3,11.5
					c0.3-0.1,0.2-0.4,0.4-0.5c0.1-0.2,0.3-0.4,0.4-0.6c-0.1-0.1-0.2-0.1-0.3-0.2c0,0-0.1,0-0.1,0.1c-0.3,0.1-0.4,0.3-0.5,0.6
					c0,0.1-0.1,0.1-0.2,0.2C53.1,11.2,53.2,11.3,53.3,11.5z M52.5,10.5c-0.2,0.1-0.1,0.2,0,0.3c0.6-0.4,0.6-0.5,0.2-0.9
					c-0.1,0.1-0.2,0.1-0.2,0.2C52.4,10,52.3,9.7,52,9.8c0.1,0.1,0.1,0.2,0,0.3c0.1,0.1,0.1,0.2,0.2,0.4
					C52.3,10.3,52.4,10.4,52.5,10.5z M51.9,9.8c-0.2-0.2-0.5-0.2-0.8-0.1c0,0.3,0.1,0.5,0.1,0.8C51.6,10.4,51.6,10,51.9,9.8z
					 M52.4,12c0-0.1,0.1-0.3,0.1-0.5c-0.2,0-0.4,0.1-0.5,0.3C52.1,12,52.2,12,52.4,12z M55.3,14.4C55.4,14.4,55.4,14.5,55.3,14.4
					c0.2,0.1,0.3,0.2,0.4,0.2c0.1-0.1,0-0.2,0-0.3c-0.1-0.1-0.1-0.2-0.2-0.3C55.4,14.1,55.4,14.3,55.3,14.4z M50.8,6.7
					c-0.1,0-0.2,0-0.3,0c-0.1,0.2-0.1,0.4-0.2,0.6C50.6,7.1,50.9,7,50.8,6.7z M54,14.1c0.1,0,0.2-0.1,0.2-0.1c0-0.3,0-0.3-0.4-0.4
					C53.9,13.8,53.9,13.9,54,14.1z M50.2,9.7c0.1-0.1,0.2-0.1,0.3-0.2c0-0.2-0.1-0.2-0.2-0.3c-0.2-0.1-0.1,0.2-0.3,0.2
					C50.1,9.6,50.2,9.6,50.2,9.7z M48.6,18.6c0.2-0.1,0.2-0.2,0.2-0.3c0-0.2-0.2-0.2-0.4-0.2C48.4,18.3,48.5,18.5,48.6,18.6z M55,13
					c0.1-0.1-0.2-0.2,0-0.3c-0.1,0-0.1-0.1-0.1,0c-0.1,0.1-0.2,0.2-0.2,0.4C54.8,13,54.9,13,55,13z M53.6,17.3c-0.1,0-0.2,0-0.3,0
					c0,0.1,0.1,0.3,0.3,0.4C53.6,17.6,53.6,17.5,53.6,17.3z M50.3,10.9c0.2,0.2,0.3,0,0.5-0.1c0,0,0-0.1,0-0.2
					C50.6,10.7,50.5,10.8,50.3,10.9z M52.4,8.9c-0.2,0.3,0.4,0.1,0.2,0.4c0.1,0,0.1-0.1,0.3-0.2C52.6,9,52.5,8.9,52.4,8.9z
					 M54.3,6.5c-0.1,0-0.1,0.1-0.2,0.1c0,0.1,0.1,0.2,0.3,0.2C54.4,6.7,54.3,6.6,54.3,6.5z M55.9,15.4c-0.1,0-0.1-0.1-0.1-0.1
					c-0.1,0.1-0.2,0.1-0.1,0.4C55.7,15.6,55.8,15.5,55.9,15.4z M50.2,17.9c0.2-0.1,0.2-0.2,0.1-0.4C50.2,17.6,50.1,17.7,50.2,17.9z
					 M53.3,10c-0.1,0-0.2-0.1-0.2,0.1v0.1c0.1,0,0.2,0,0.3,0C53.4,10,53.3,10,53.3,10z M53.5,17.1V17h-0.1c-0.1,0.1-0.2,0.1-0.2,0.3
					C53.3,17.2,53.4,17.1,53.5,17.1z M54,6.2c-0.3-0.1-0.3,0.2-0.4,0.2C53.8,6.5,53.8,6.3,54,6.2z M53.2,16.7c0-0.1,0.1-0.2-0.1-0.2
					H53C53,16.7,53.1,16.7,53.2,16.7C53.1,16.8,53.1,16.8,53.2,16.7C53.2,16.8,53.2,16.7,53.2,16.7z M57.9,11.3v-0.1h-0.1l-0.1,0.1
					c0,0,0,0.1,0,0.2C57.8,11.4,57.9,11.4,57.9,11.3z M56.8,10.6c0.1,0,0.2,0.1,0.2-0.1v-0.1C56.8,10.3,56.8,10.4,56.8,10.6
					C56.7,10.5,56.7,10.5,56.8,10.6C56.7,10.6,56.8,10.6,56.8,10.6z M45.8,12.1c0.1-0.1,0.1-0.3-0.2-0.4
					C45.7,11.9,45.7,12,45.8,12.1z M57.9,9.3c-0.1-0.1-0.1-0.1-0.2-0.2C57.6,9.2,57.7,9.3,57.9,9.3z M57.7,14.5
					c-0.1,0-0.2,0-0.1,0.2C57.6,14.6,57.7,14.6,57.7,14.5z M54.5,12.6C54.5,12.6,54.6,12.6,54.5,12.6c0.1-0.1,0.1-0.2,0.1-0.3h-0.1
					C54.5,12.4,54.5,12.5,54.5,12.6z M56,15.7C56,15.6,56,15.6,56,15.7C56,15.7,55.9,15.7,56,15.7c-0.1,0.1-0.1,0.1,0,0.1
					C56,15.7,56,15.7,56,15.7z M55.4,17.3C55.4,17.3,55.4,17.4,55.4,17.3c0,0.1,0,0.1,0,0.2C55.4,17.5,55.5,17.4,55.4,17.3
					C55.5,17.4,55.4,17.3,55.4,17.3z M56.3,15.1L56.3,15.1C56.2,15.2,56.2,15.2,56.3,15.1C56.2,15.2,56.3,15.2,56.3,15.1L56.3,15.1z
					 M53.9,14.9L53.9,14.9c0,0.1,0,0.1,0,0.1S53.9,15,53.9,14.9L53.9,14.9z M54.1,9.2C54.1,9.1,54.1,9.1,54.1,9.2c0-0.1,0-0.1,0-0.1
					C54.1,9.1,54.1,9.1,54.1,9.2C54.1,9.1,54.1,9.2,54.1,9.2z"/>
				<path class="st0" d="M56,18.7c0.1,0.1,0.1,0.1,0.2,0.3c0-0.1,0-0.1,0-0.2s-0.1-0.2-0.1-0.3c0-0.1-0.1-0.2-0.1-0.3
					C56,18.3,56,18.5,56,18.7z"/>
				<path class="st0" d="M49.8,6.6c0-0.1,0-0.2,0-0.3c-0.2,0.1-0.3,0.2-0.6,0.3C49.5,6.6,49.6,6.6,49.8,6.6z"/>
				<path class="st0" d="M54.9,19.4c0.1,0.2,0.2,0.4,0.3,0.5c0.1,0,0.2,0,0.3,0C55.2,19.8,55.1,19.5,54.9,19.4z"/>
				<path class="st0" d="M56,19.5c0.2-0.2,0.1-0.3,0.2-0.5c-0.1,0-0.2,0.1-0.2,0.1C56,19.2,56,19.3,56,19.5z"/>
				<path class="st0" d="M44.9,12.8C45,12.9,45,12.9,45,13c0.1,0,0.1-0.1,0.2-0.1c0.1,0,0.1,0,0.1-0.1l-0.1-0.1
					C45.1,12.7,45,12.8,44.9,12.8z"/>
				<path class="st0" d="M54.2,19.4c0.1,0.1,0.1,0.1,0.1,0.2c0.1,0,0.1,0,0.2-0.1l0.1-0.1l-0.1-0.1C54.4,19.3,54.3,19.4,54.2,19.4z"
					/>
				<path class="st0" d="M53.7,19c0,0.2,0,0.3,0,0.4C53.9,19.2,53.9,19.1,53.7,19z"/>
				<path class="st0" d="M51.9,19.3c0,0.2,0,0.3,0,0.4C52.1,19.5,52.1,19.4,51.9,19.3z"/>
				<path class="st0" d="M46,16.2c0,0.2,0,0.3,0,0.5C46.2,16.4,46.2,16.4,46,16.2z"/>
				<path class="st0" d="M54.9,18.8c-0.1-0.2-0.1-0.3-0.2-0.5c0,0.1-0.1,0.1-0.1,0.2C54.6,18.5,54.7,18.6,54.9,18.8z"/>
				<path class="st0" d="M51.1,6.4c0-0.2,0.1-0.2,0.1-0.3L51.1,6C51,5.9,51,6.1,51,6.1C51,6.2,51.1,6.2,51.1,6.4z"/>
				<path class="st0" d="M49.5,19.6c0-0.1,0-0.2,0-0.3l0,0C49.4,19.4,49.4,19.5,49.5,19.6C49.4,19.6,49.5,19.6,49.5,19.6z"/>
				<path class="st0" d="M56,17.4c0,0.3,0,0.4,0.2,0.3C56.2,17.6,56.1,17.5,56,17.4z"/>
				<path class="st0" d="M51.3,19.5c0,0-0.1,0.1-0.2,0.1C51.3,19.6,51.3,19.6,51.3,19.5z"/>
				<path class="st0" d="M49.2,19.2c-0.1-0.1-0.1-0.1-0.1-0.1C49,19.2,49,19.2,49.2,19.2z"/>
				<path class="st0" d="M55.8,6.1C55.8,6.1,55.8,6,55.8,6.1C55.8,6,55.8,6,55.8,6.1C55.8,6,55.7,6,55.8,6.1C55.7,6,55.7,6,55.8,6.1
					z"/>
				<path class="st0" d="M56.3,18.1C56.4,18.1,56.4,18.1,56.3,18.1c0.1,0,0.1,0,0.1-0.1C56.4,18,56.4,18,56.3,18.1
					C56.4,18,56.3,18.1,56.3,18.1z"/>
				<path class="st0" d="M54.9,20C54.9,20,54.9,19.9,54.9,20c-0.1-0.1-0.1-0.1-0.2,0v0.1C54.8,20,54.8,20,54.9,20z"/>
				<path class="st0" d="M52.6,19.8C52.6,19.8,52.6,19.7,52.6,19.8C52.5,19.8,52.5,19.8,52.6,19.8c-0.1,0-0.1,0.1,0,0.1V19.8z"/>
				<path class="st0" d="M52.6,19.4c0,0.1,0,0.1,0,0.2l0,0C52.6,19.6,52.6,19.5,52.6,19.4L52.6,19.4z"/>
				<path class="st0" d="M51.9,5.1C52,5.1,52,5.1,51.9,5.1C52,5.1,52,5.1,51.9,5.1C52,5.1,52,5,51.9,5.1C51.9,5,51.9,5.1,51.9,5.1z"
					/>
				<path class="st0" d="M53.5,19.8L53.5,19.8c0-0.1,0-0.1,0-0.1S53.4,19.7,53.5,19.8C53.4,19.8,53.4,19.8,53.5,19.8z"/>
				<path class="st0" d="M49.3,6.8L49.3,6.8L49.3,6.8C49.3,6.8,49.2,6.8,49.3,6.8C49.2,6.8,49.2,6.8,49.3,6.8z"/>
				<path class="st0" d="M51.5,5.7C51.6,5.7,51.6,5.7,51.5,5.7C51.6,5.7,51.5,5.7,51.5,5.7L51.5,5.7L51.5,5.7z"/>
				<path class="st0" d="M58.3,11.8C58.2,11.8,58.2,11.8,58.3,11.8C58.2,11.8,58.2,11.9,58.3,11.8C58.3,11.9,58.3,11.8,58.3,11.8
					L58.3,11.8z"/>
				<path class="st0" d="M51.9,18.8C51.9,18.8,52,18.8,51.9,18.8C51.9,18.8,51.9,18.7,51.9,18.8C51.9,18.7,51.9,18.8,51.9,18.8
					L51.9,18.8z"/>
				<path class="st0" d="M52.4,18.9C52.4,18.9,52.4,19,52.4,18.9C52.4,19,52.4,19,52.4,18.9C52.4,19,52.4,19,52.4,18.9
					C52.4,19,52.4,18.9,52.4,18.9z"/>
				<path class="st0" d="M47,8.9L47,8.9L47,8.9L47,8.9L47,8.9z"/>
				<path class="st0" d="M55.6,18.9L55.6,18.9L55.6,18.9C55.6,18.8,55.6,18.8,55.6,18.9C55.6,18.8,55.6,18.9,55.6,18.9z"/>
			</g>
		</g>
		<g>
			<g>
				<path class="st0" d="M51.3,58.3L51.3,58.3C51.3,58.2,51.3,58.2,51.3,58.3C51.3,58.2,51.3,58.3,51.3,58.3
					c0.3-0.2,0.6-0.3,0.7-0.5c0-0.2,0-0.2,0-0.3h0.1c0,0.1,0,0.2,0,0.3c0.1-0.1,0.2-0.2,0.3-0.3s0.4-0.1,0.5-0.3
					c0.1-0.1,0.2-0.1,0.4-0.1c0.1,0,0.1,0.1,0.2,0.2c0,0.1-0.1,0.1-0.1,0.1c-0.2,0.2-0.2,0.3,0,0.5s0.4,0.2,0.7,0.2
					c-0.3-0.2-0.4-0.3-0.4-0.7c0.2,0,0.3,0,0.5,0c0,0.2-0.1,0.3-0.1,0.5c0.1,0,0.2-0.1,0.2-0.1c0.1,0.1,0.2,0.1,0.3,0.1
					c0.1-0.1,0.1-0.2,0.1-0.3s0.1-0.1,0.2-0.2c0.1,0.1,0.1,0.2,0.2,0.3c0,0.1,0.1,0.2,0.1,0.3c0.1,0,0.3-0.1,0.4-0.1
					c0,0.2,0,0.3-0.2,0.3c-0.1,0-0.2,0-0.3,0H55c0,0.1,0,0.2,0,0.3c0.1-0.1,0.2-0.2,0.3-0.2c0.3,0.2,0.1,0.4,0,0.6
					c0.5-0.4,0.5-0.4,0.8-0.4c0,0.1,0,0.3,0.1,0.4c0.1,0.2-0.2,0.2-0.1,0.3c0.1,0,0.1,0.1,0.2,0.1c-0.1,0.1-0.2,0.2-0.3,0.3
					c0.2,0.1,0.3,0.2,0.5,0.3c0-0.1,0.1-0.3,0.1-0.4c0.2-0.1,0.2,0.1,0.3,0.2c0.1,0,0.1,0.1,0.1,0.2c0,0.2,0.1,0.4,0.3,0.4
					c0.1,0,0.2,0.1,0.2,0.1c0.1,0,0.1,0.1,0.1,0.2c0.1,0.2,0.2,0.4,0.1,0.7c0,0.1-0.1,0.2-0.2,0.4c0.1,0.3,0.3,0.3,0.6,0.3
					c-0.2,0.2-0.3,0.3-0.4,0.4c0.1,0.1,0.1,0.1,0.1,0.2c-0.1,0.2-0.2,0.4-0.4,0.7c0.3,0.1,0.6-0.4,0.8,0.2c-0.3,0.2-0.3,0.2-0.3,0.5
					c0.1-0.1,0.1-0.1,0.2-0.2c0.2,0.3-0.2,0.5-0.2,0.7c0,0-0.1,0.1-0.1,0.2c0,0-0.1,0.1-0.1,0c-0.2-0.2-0.2,0.1-0.3,0.1
					c0.1,0.1,0.2,0.2,0.3,0.3c-0.1,0.1-0.2,0.2-0.2,0.2c0.2,0.2,0,0.3-0.1,0.5v0.1c0.1,0.1,0.2,0.2,0.3,0.3
					c-0.1,0.1-0.1,0.2-0.2,0.2c-0.3,0.2-0.3,0.2-0.2,0.6c0,0.1-0.1,0.2-0.1,0.3c0,0.2-0.1,0.4,0,0.6c0.1,0.1,0.2,0.2,0.3,0.3
					c0,0,0,0.1,0,0.2c-0.1,0-0.2,0-0.3,0c0,0.1,0.1,0.3,0.1,0.3c-0.1,0.1-0.2,0.2-0.3,0.1l0.1-0.1c0-0.1-0.1-0.2-0.1-0.2
					c-0.1,0.1-0.2,0.2-0.3,0.4c0,0.2-0.1,0.4,0.2,0.6c0,0,0,0,0,0.1s0,0.3-0.1,0.4c0,0.1-0.1,0.1-0.2,0.1c0,0,0,0.1-0.1,0.2
					c0,0-0.1,0.1-0.2,0.1c0-0.1,0.1-0.2,0.1-0.4c-0.2,0.1-0.3,0.1-0.4,0.2c-0.3,0.1-0.3,0.2-0.4,0.5c0,0.2,0,0.3,0.1,0.4v0.1
					c0,0.1,0,0.2,0,0.2c-0.1,0-0.1,0-0.2-0.1c0-0.1-0.1-0.1-0.1-0.2c-0.1,0.1-0.1,0.1-0.1,0.2s0,0.1,0.1,0.2l-0.1,0.1
					c-0.1-0.1-0.2-0.1-0.3-0.2c0-0.1,0.1-0.2,0.1-0.3C55,71.1,55,71,54.9,71c-0.1,0.1-0.1,0.2,0.1,0.4c0,0.1,0,0.3,0,0.4
					c-0.1-0.1-0.2-0.2-0.4-0.3c0-0.1,0-0.2,0-0.2c-0.2-0.2-0.3-0.3-0.4-0.4c0,0-0.1-0.1-0.2-0.2c0.1,0.3,0.1,0.5,0.1,0.7
					c-0.1,0.1-0.2,0-0.3,0s-0.2,0.2-0.1,0.4c0.1,0,0.2-0.1,0.3-0.1c0.1,0.1,0.2,0.2,0.2,0.3c-0.1,0.1-0.2,0.4-0.5,0.4
					c0,0,0,0.1-0.1,0.1c-0.2,0.1,0,0.3,0,0.5c-0.1,0-0.2,0-0.3,0h-0.1c0-0.1,0-0.2,0-0.3c0-0.1,0.1-0.2,0.2-0.3
					c-0.1,0-0.2-0.1-0.3,0.1c-0.1,0.3-0.3,0.6-0.6,0.8c0,0.1,0.1,0.2,0.1,0.3c-0.1-0.1-0.2-0.3-0.3-0.4c0-0.1,0.1-0.3-0.1-0.3l0,0
					l0,0c0.2,0.1,0,0.2,0,0.3c0,0.1,0,0.2,0,0.2c0,0.1-0.1,0.2-0.1,0.3C52,73.5,52,73.3,52,73.1c0.2-0.2,0.1-0.4,0.1-0.6
					c-0.2,0.3-0.2,0.7-0.3,1.1c-0.2,0-0.4-0.2-0.3-0.3c0-0.2-0.1-0.4-0.1-0.7c0,0,0,0-0.1-0.1c-0.1,0.1-0.1,0.2-0.2,0.3
					c-0.1,0-0.2,0-0.3-0.1c0,0,0,0-0.1-0.1c-0.1,0.2-0.2,0.3-0.3,0.5c0,0-0.1,0-0.2,0c0-0.1,0-0.1,0-0.2s0.1-0.2,0.1-0.3
					c-0.1,0-0.1,0-0.2-0.1c0-0.1,0-0.3,0-0.4c-0.2,0.2-0.3,0.4-0.4,0.7c-0.1,0-0.2,0-0.4,0c-0.1,0-0.1,0-0.1-0.1
					c0-0.2-0.2-0.1-0.3-0.1c-0.1,0.1-0.2,0.2-0.4,0.3c0-0.2,0-0.3,0.1-0.4c0-0.1-0.1-0.2,0-0.4c0.1-0.1,0.1-0.4,0.1-0.4
					c-0.1-0.2,0-0.3-0.1-0.5c-0.1,0-0.1,0-0.2,0c-0.3,0-0.5,0.1-0.6,0.4c0,0.1-0.1,0.2-0.2,0.3c-0.1-0.1-0.2-0.2-0.4-0.3
					c0-0.2-0.1-0.3,0.1-0.5L47.2,71c-0.1,0.1-0.2,0.1-0.4,0.2c0-0.3,0.1-0.5,0.1-0.7c-0.1,0-0.2,0.1-0.2,0.1c0-0.1-0.1-0.2-0.1-0.2
					c0-0.1,0-0.1-0.1-0.2c0,0.5,0,0.5-0.2,0.7c-0.1-0.2-0.2-0.5-0.3-0.8c-0.1,0.2-0.2,0.3-0.3,0.4c-0.5-0.1-0.4-0.6-0.4-0.9
					c-0.2,0-0.3,0.1-0.5,0.1c-0.3-0.2-0.1-0.4,0-0.7c-0.1,0-0.2,0.1-0.3,0.1s-0.2-0.2-0.2-0.3c0-0.2-0.1-0.4,0.1-0.6
					c0.1,0.1,0.2,0.1,0.2,0s0.1-0.2,0.2-0.2c0.1,0,0.1-0.1,0.1-0.2c-0.1,0-0.1,0-0.2,0c-0.2,0-0.2-0.1-0.2-0.3c0-0.1,0-0.2,0-0.3
					c-0.1,0-0.1,0-0.2,0c0.1,0.3-0.1,0.5,0,0.7c-0.1-0.1-0.3-0.1,0-0.3c-0.1-0.1-0.2-0.2-0.3-0.3c0-0.1,0.1-0.2,0.1-0.3
					c0.1-0.4,0.2-0.8,0.3-1.1c0-0.1,0.1-0.3,0.1-0.4c-0.1-0.2,0-0.3,0.1-0.4c0.2-0.1,0.1-0.3,0.2-0.5c0.2-0.1,0.1-0.4,0.1-0.6
					c0-0.1,0-0.1,0-0.2c0.1-0.2,0.1-0.4,0.2-0.6c0.2,0,0.2,0.2,0.3,0.3l0,0c0.2-0.2,0.4-0.4,0.2-0.7c0-0.3-0.1-0.6,0.2-0.7
					c0-0.1-0.1-0.2-0.1-0.3c0.1,0,0.2,0,0.3,0c0-0.1,0.1-0.3,0.1-0.4c0-0.1,0-0.3,0.1-0.2c0-0.1,0-0.2,0.1-0.4c0.1,0,0.1,0,0.2,0
					c0,0.1,0.1,0.2,0.1,0.3c0,0,0,0-0.1,0.1c-0.1,0-0.1-0.1-0.2-0.1c0,0.1,0,0.2,0,0.3c0.1,0,0.2,0,0.3,0c0-0.2,0.1-0.4,0.2-0.6
					c0.1-0.1,0.2,0,0.3,0.1c0,0,0.1,0.1,0.2,0.1c0-0.4-0.1-0.7,0.2-0.9c0.1,0.1,0.1,0.3,0.2,0.4h0.1c0-0.2,0-0.3,0-0.5
					c0.2,0,0.2,0,0.1-0.2l-0.1,0.1c-0.1-0.1-0.2-0.2-0.1-0.4c0.1-0.2,0.3-0.1,0.4-0.1c0.1,0.2,0.1,0.4,0.2,0.7c0,0,0.1,0,0.1,0.1
					c0-0.1,0-0.1,0-0.2c0-0.1,0.1-0.1,0.1-0.2c-0.1-0.1-0.2-0.2-0.1-0.3c0.2,0,0.2,0.1,0.3,0.2c0.1,0.1,0.1,0.2,0.2,0.3
					c0.2,0.1,0,0.2,0,0.3c0.1,0,0.2,0,0.3,0c0-0.1,0-0.3,0-0.3c-0.1-0.1-0.1-0.1-0.2-0.2c0.2-0.1,0.3-0.1,0.4-0.2
					c0.2,0,0.2-0.2,0.3-0.3c0-0.2-0.3-0.3,0-0.3c0-0.3,0.3-0.2,0.4-0.2c0-0.2,0-0.3,0-0.4c0.1,0,0.2,0.1,0.4,0.1
					C51.3,57.9,51.3,58.1,51.3,58.3C51.2,58.3,51.3,58.3,51.3,58.3z M51.3,71.5L51.3,71.5C51.2,71.5,51.2,71.6,51.3,71.5
					C51.2,71.6,51.3,71.6,51.3,71.5C51.2,71.7,51.2,71.6,51.3,71.5c-0.1,0.1-0.2,0.1-0.2,0.2c0,0,0,0,0.1,0.1
					C51.3,71.6,51.3,71.5,51.3,71.5z M52.7,70.1C52.7,70.1,52.7,70,52.7,70.1C52.7,70,52.7,70,52.7,70.1C52.7,70,52.7,70,52.7,70.1
					c0.3-0.2,0.1-0.3,0.1-0.5C52.8,69.7,52.8,69.8,52.7,70.1C52.7,70,52.7,70.1,52.7,70.1z M52.3,70.7c0,0.1,0,0.2,0,0.3
					c0.1,0,0.3,0,0.5,0c0.1,0,0.3,0.1,0.5,0.2c0-0.2,0-0.3,0.1-0.5c0.1-0.1,0.2-0.2,0.3-0.3c-0.1-0.3-0.4-0.4-0.6-0.5
					c-0.2,0.2,0.1,0.3,0.2,0.5c-0.1,0.1-0.2,0.2-0.3,0.3c-0.2,0-0.1-0.3-0.3-0.3c0-0.2,0-0.3,0-0.5C52.3,70.3,52.1,70.5,52.3,70.7z
					 M50.4,70.4c-0.2-0.1-0.3,0.1-0.5,0.2c0.2,0.1,0.4,0.3,0.6,0.5C50.4,70.8,50.4,70.6,50.4,70.4z M50.9,71.2
					C51,71,51,71,51.3,71.1c0-0.1,0-0.2,0-0.3c-0.1,0-0.2,0-0.3,0s-0.1,0-0.2-0.1C50.8,70.9,50.8,71,50.9,71.2z M51.5,71.1
					c0.1,0.1,0.2,0.1,0.3,0.2c0.1-0.2,0-0.4,0.1-0.7C51.7,70.8,51.6,71,51.5,71.1z M51.9,70.2L51.9,70.2c0.1-0.1,0.1-0.3,0.1-0.4
					c-0.1,0-0.3,0.2-0.3,0.3C51.9,70.1,51.9,70.1,51.9,70.2z M52.2,58c-0.1,0.1-0.2,0.2-0.3,0.3c0.1,0,0.1,0.1,0.2,0
					c0.1,0,0.2-0.1,0.2-0.1C52.3,58.2,52.3,58.2,52.2,58z M49,60.9c-0.1,0-0.2,0-0.2,0c-0.1,0.1-0.1,0.3-0.1,0.4h0.1
					C48.8,61.3,48.9,61.1,49,60.9z M53,69.5c0.2,0.2,0.2,0.2,0.4,0C53.2,69.5,53.1,69.3,53,69.5z M46.7,68.7c-0.1,0-0.2-0.1-0.2,0.1
					v0.1c0.1,0,0.2,0,0.3,0C46.8,68.7,46.8,68.7,46.7,68.7z M50.2,71.7c-0.1-0.2-0.2-0.3-0.3-0.5C49.9,71.5,49.9,71.6,50.2,71.7z
					 M51.7,63.5c-0.3-0.1-0.4-0.1-0.6,0C51.3,63.5,51.4,63.5,51.7,63.5z M49.9,60.4c-0.2-0.1-0.2-0.1-0.4-0.2
					C49.5,60.5,49.7,60.4,49.9,60.4z M47.9,70.1c0,0.1-0.1,0.2-0.1,0.2C47.9,70.4,47.9,70.3,47.9,70.1z M52.6,71.6L52.6,71.6
					c-0.1,0.1-0.1,0.2-0.1,0.3h0.1C52.6,71.8,52.6,71.7,52.6,71.6z M48.1,61.9c-0.1,0-0.1,0-0.1,0.2C48,62,48.1,61.9,48.1,61.9z
					 M55.2,70.1c-0.1,0-0.1,0-0.1,0.2C55.2,70.2,55.2,70.1,55.2,70.1z M47.7,60.5L47.7,60.5c0.1-0.1,0-0.1,0-0.2h-0.1
					C47.6,60.5,47.7,60.5,47.7,60.5z M45.9,68.7L45.9,68.7c-0.1,0-0.1,0-0.2,0C45.8,68.7,45.8,68.8,45.9,68.7
					C45.9,68.8,45.9,68.7,45.9,68.7z M56.2,65L56.2,65C56.2,65,56.1,65,56.2,65C56.1,64.9,56.1,64.9,56.2,65
					C56.1,65,56.2,65,56.2,65z M49.5,72C49.5,71.9,49.5,71.9,49.5,72c0.1-0.1,0-0.1,0-0.2h-0.1C49.4,71.9,49.5,71.9,49.5,72z
					 M49.5,71.1L49.5,71.1C49.5,71,49.4,71,49.5,71.1C49.4,71.1,49.4,71.1,49.5,71.1C49.5,71.2,49.5,71.1,49.5,71.1z M48,69.7
					L48,69.7C47.9,69.7,47.9,69.8,48,69.7C47.9,69.8,47.9,69.8,48,69.7C48,69.8,48,69.8,48,69.7z M51.1,71.9L51.1,71.9L51.1,71.9
					C51.1,71.9,51.1,72,51.1,71.9C51.1,72,51.1,71.9,51.1,71.9z M44.8,66.6L44.8,66.6C44.8,66.7,44.8,66.7,44.8,66.6
					C44.9,66.6,44.9,66.6,44.8,66.6C44.9,66.6,44.9,66.6,44.8,66.6z M45.8,68.3C45.8,68.3,45.9,68.3,45.8,68.3
					C45.9,68.3,45.9,68.3,45.8,68.3C45.9,68.3,45.9,68.3,45.8,68.3C45.9,68.3,45.9,68.3,45.8,68.3z M56.3,59.9L56.3,59.9
					C56.3,60,56.3,60,56.3,59.9C56.3,60,56.3,60,56.3,59.9C56.3,60,56.3,59.9,56.3,59.9z M54.6,58.2L54.6,58.2
					C54.6,58.2,54.6,58.3,54.6,58.2C54.6,58.3,54.6,58.3,54.6,58.2C54.6,58.3,54.6,58.3,54.6,58.2z M56,70L56,70
					C56,70.1,56,70,56,70L56,70L56,70z M55.9,69.8C55.9,69.8,55.9,69.9,55.9,69.8L55.9,69.8C56,69.8,55.9,69.8,55.9,69.8L55.9,69.8z
					 M49.1,70.4C49.1,70.4,49.1,70.5,49.1,70.4C49.1,70.5,49.1,70.4,49.1,70.4L49.1,70.4L49.1,70.4z M54.3,70.4L54.3,70.4
					C54.3,70.3,54.3,70.3,54.3,70.4C54.3,70.3,54.3,70.3,54.3,70.4C54.3,70.3,54.3,70.4,54.3,70.4z M56.8,69.4L56.8,69.4
					C56.7,69.4,56.7,69.4,56.8,69.4C56.7,69.4,56.8,69.4,56.8,69.4L56.8,69.4z"/>
				<path class="st0" d="M45.8,61.7c0.2,0,0.2,0,0.2-0.3c-0.1,0-0.1-0.1-0.2-0.1C45.6,61.5,45.8,61.6,45.8,61.7z"/>
				<path class="st0" d="M49.8,58.7c-0.2-0.1-0.3-0.2-0.3-0.2C49.5,58.6,49.5,58.7,49.8,58.7z"/>
				<path class="st0" d="M50.4,73.2c0.2-0.2,0.2-0.2,0-0.4C50.4,72.9,50.4,73,50.4,73.2z"/>
				<path class="st0" d="M53.4,73.5c0-0.1,0-0.2,0-0.3l-0.1-0.1c-0.1,0-0.1,0.2-0.1,0.2C53.2,73.5,53.3,73.5,53.4,73.5z"/>
				<path class="st0" d="M44.5,67.7c0.2,0,0.2,0,0.1-0.2C44.6,67.6,44.6,67.7,44.5,67.7z"/>
				<path class="st0" d="M53.8,72.9c-0.1,0-0.2,0-0.2,0l0.1,0.1C53.7,73,53.8,73,53.8,72.9z"/>
				<path class="st0" d="M51.5,73.6c0-0.1,0-0.1,0-0.2l0,0C51.4,73.5,51.4,73.5,51.5,73.6L51.5,73.6z"/>
				<path class="st0" d="M53.1,73.6L53.1,73.6C53.1,73.5,53.1,73.5,53.1,73.6C53.1,73.5,53,73.5,53.1,73.6
					C53,73.6,53.1,73.6,53.1,73.6z"/>
				<path class="st0" d="M46.1,61.4L46.1,61.4C46.1,61.4,46.1,61.3,46.1,61.4C46,61.4,46,61.4,46.1,61.4
					C46,61.4,46.1,61.4,46.1,61.4z"/>
				<path class="st0" d="M58.2,66.9L58.2,66.9L58.2,66.9C58.2,66.9,58.1,66.9,58.2,66.9L58.2,66.9z"/>
				<path class="st0" d="M50.7,73.3L50.7,73.3C50.7,73.2,50.7,73.2,50.7,73.3C50.7,73.2,50.7,73.2,50.7,73.3L50.7,73.3z"/>
				<path class="st0" d="M45.8,61.8L45.8,61.8L45.8,61.8C45.8,61.8,45.8,61.7,45.8,61.8L45.8,61.8z"/>
				<path class="st0" d="M49.8,57.7C49.8,57.7,49.9,57.7,49.8,57.7C49.9,57.7,49.9,57.7,49.8,57.7C49.9,57.6,49.9,57.6,49.8,57.7
					C49.8,57.6,49.8,57.6,49.8,57.7z"/>
				<path class="st0" d="M46.1,62.4L46.1,62.4L46.1,62.4C46.1,62.4,46,62.4,46.1,62.4C46,62.4,46,62.4,46.1,62.4z"/>
				<path class="st0" d="M53.6,72.8L53.6,72.8C53.5,72.8,53.5,72.9,53.6,72.8C53.5,72.9,53.6,72.9,53.6,72.8
					C53.6,72.9,53.6,72.9,53.6,72.8z"/>
				<path class="st0" d="M48.2,71.9C48.2,71.9,48.2,72,48.2,71.9C48.3,72,48.3,71.9,48.2,71.9C48.3,71.9,48.3,71.9,48.2,71.9
					L48.2,71.9z"/>
			</g>
			<g>
				<path class="st0" d="M52.6,84.4L52.6,84.4C52.7,84.3,52.7,84.3,52.6,84.4c-0.2,0.2-0.3,0-0.4-0.1c0.1-0.2,0.1-0.4,0.2-0.6
					c0.1,0.2,0.3,0.3,0.4,0.4c0.1,0.1,0.1,0.3,0.2,0.5c0.1-0.1,0.2-0.2,0.3-0.3c0,0-0.1,0-0.2-0.1c0.1-0.1,0.2-0.2,0.2-0.2
					c0.3,0,0.4-0.1,0.7-0.3c0,0.2-0.1,0.3-0.1,0.4c0.1,0,0.2-0.1,0.3-0.1c0.1,0.1,0.2,0.3,0.3,0.5c0.1-0.1,0.2-0.3,0.2-0.4
					c0,0,0,0-0.1-0.1c0.3-0.1,0.2,0.3,0.3,0.3s0.2-0.1,0.2-0.1c0.1,0,0.1,0,0.2-0.1c0,0.1,0,0.2,0,0.3c0,0.1-0.2,0.1-0.1,0.3
					c0.2-0.1,0.4-0.1,0.6-0.2c-0.1-0.1-0.1-0.2-0.2-0.2c0,0-0.1-0.1-0.2-0.1c0.3,0,0.5-0.2,0.7,0c0,0,0.1,0,0.2-0.1
					c0.1,0,0.2,0,0.2,0v0.1c0,0.1,0.1,0.3,0,0.4c-0.1,0.2,0.2,0.3,0.5,0.2c0.1,0,0.2-0.1,0.3-0.1s0.2,0.1,0.3,0.1
					c-0.2,0.1,0,0.2,0,0.3c-0.2,0.1-0.3,0.2-0.4,0.3c0.1,0.1,0.2,0.2,0.2,0.1c0.2,0,0.2-0.2,0.2-0.4c0.2,0.1,0.4,0.4,0.6,0.2
					l0.1,0.1c0,0.1,0,0.2,0,0.4c-0.1,0-0.2-0.1-0.3-0.1c0.1,0.3,0.1,0.5,0.2,0.6c0.1,0,0.4,0,0.5,0c0.3,0.1,0.6,0.6,0.4,0.9
					c-0.1,0.2,0.1,0.3,0,0.4c-0.2,0.1-0.4,0.3-0.5,0.4v0.2c-0.5,0.4-0.5,0.4-0.4,0.6c0.2-0.2,0.4-0.4,0.6-0.6
					c0.1,0.2,0.2,0.3,0.3,0.3c-0.3,0.2-0.4,0.4-0.3,0.8v0.1c-0.2,0-0.1,0.1-0.2,0.2c0,0.1-0.1,0.2-0.2,0.2c-0.1,0-0.2,0-0.2,0
					c0-0.1,0.1-0.1,0.1-0.2s-0.1-0.2,0-0.3c0,0-0.1-0.1-0.1,0c-0.1,0.1-0.1,0.1-0.2,0.2c0,0.1,0.1,0.2,0.2,0.3
					c0.2,0.2,0.5,0.2,0.8,0.4c-0.3,0.3-0.6,0-0.9-0.1c-0.2,0.2-0.3,0.4-0.2,0.7c0.1,0,0.1,0,0.1,0c0.2-0.2,0.3-0.2,0.4,0.1
					c0,0,0.1,0,0.2,0c-0.1-0.1-0.1-0.1-0.1-0.1c0-0.1,0-0.1,0-0.2h0.1l0.1,0.1c0.2,0.2,0.2,0.5,0.3,0.8c-0.1,0.1-0.2,0.1-0.3,0.1
					s-0.2,0-0.3-0.1c0,0.1-0.1,0.3,0.1,0.3l0.1,0.1c-0.2,0.2,0.1,0.3,0.1,0.5c-0.1,0-0.2,0-0.3-0.1v0.1v-0.1c0,0,0,0-0.1,0
					c0.1,0.3,0,0.4,0.1,0.5c0.1,0.2,0,0.3-0.1,0.4c-0.4-0.2-0.4-0.2-0.6-0.1c-0.1-0.3-0.2-0.5-0.3-0.5c0,0.1,0,0.2-0.1,0.3
					c-0.1-0.1-0.2-0.1-0.3-0.2c0-0.1,0-0.2,0-0.3c-0.1,0-0.3-0.1-0.3,0.1c-0.1,0-0.3,0.1-0.4,0.1c0.2,0.2,0.1,0.4,0,0.6
					c-0.3,0.6-0.3,0.6-0.2,1.2c0.1-0.1,0.1-0.2,0.2-0.3c0.2,0.1,0.5,0.1,0.7,0.1s0.3,0,0.4,0.1c-0.1,0.2-0.1,0.3-0.2,0.5
					c-0.1-0.1-0.2-0.2-0.2-0.2c-0.2,0.1-0.2,0.2-0.2,0.3c-0.2,0.1-0.3,0.3-0.4,0.6c0,0.1,0,0.2-0.1,0.1s-0.1,0.2-0.3,0.1
					c0,0-0.2,0-0.3,0.1c-0.1,0-0.2,0.1-0.2,0.1c-0.1,0.1,0.1,0.3-0.2,0.3c0-0.2,0-0.3,0-0.6c-0.1,0.3-0.2,0.2-0.3,0.1
					s-0.1-0.3-0.2-0.4c-0.1-0.2,0-0.3,0-0.4c-0.3,0.1-0.2,0.4-0.2,0.7c-0.1,0.1-0.2,0.1-0.3,0.1c-0.1,0.1-0.3,0.1-0.4,0.1
					c-0.1,0.1-0.1,0.3-0.2,0.4c0.1,0,0.1,0,0.2,0c-0.1,0.1-0.2,0.2-0.3,0.2c0.1,0.1,0.2,0.2,0.1,0.3c-0.1,0.1-0.2,0.3-0.1,0.4
					l-0.1,0.1c-0.1-0.1-0.2-0.3-0.4-0.4c0.1,0,0.2-0.1,0.4-0.1c-0.1-0.3-0.2-0.5-0.4-0.8c-0.3,0.2-0.3,0.5-0.3,0.9
					c0,0-0.1,0.1-0.2,0.1c-0.2,0.2-0.2,0.3,0.1,0.5c0,0,0,0,0.1,0.1c0,0-0.1,0.1-0.1,0.2c0,0,0.1,0.1,0.2,0.1
					c0.1-0.1,0.2-0.2,0.3-0.4c0-0.2,0.1-0.2,0.3-0.2c0,0.2,0.1,0.2,0.2,0.2c0-0.2,0.1-0.3,0.1-0.5c0.1,0.2,0.2,0.3,0.2,0.4
					c-0.1,0.1,0,0.4-0.3,0.4c-0.1-0.1-0.2-0.1-0.3-0.2c-0.1,0.2-0.1,0.2,0,0.5c0,0.1-0.1,0.2-0.1,0.4c-0.3-0.5-0.6-0.1-0.9,0
					c0-0.2,0.1-0.4,0.1-0.5c-0.1,0-0.3,0.1-0.4,0.1c-0.1,0-0.2-0.1-0.2-0.2c0,0,0.1-0.1,0.2-0.1c0-0.1,0-0.2,0-0.3c0,0,0,0-0.1,0
					l-0.1,0.1c-0.1,0.1-0.2,0.1-0.3,0c0,0,0-0.1-0.1-0.1c-0.1-0.1-0.2-0.2,0-0.3c0.1-0.1,0.2-0.1,0.3-0.2c0,0,0-0.1,0.1-0.1
					c-0.1-0.1-0.1-0.2-0.2-0.2c0-0.3,0.3-0.2,0.5-0.3c-0.1-0.1-0.2-0.2-0.3-0.4c-0.1,0.1-0.2,0.2-0.2,0.3c0,0.3-0.2,0.4-0.4,0.6
					c0,0.1,0,0.2,0,0.4C51.1,97,51,97,50.8,96.9c-0.1,0.1-0.2,0.2-0.2,0.4c-0.2-0.1-0.2-0.4-0.3-0.5c-0.1,0.2-0.3,0.4-0.4,0.6
					c-0.1-0.2-0.3-0.3-0.4-0.4c-0.1,0.1-0.1,0.1-0.1,0.1c-0.1,0-0.2,0-0.2,0.1s0,0.2,0.1,0.3c0,0.1,0,0.1-0.1,0.2
					c-0.1,0-0.1,0.2-0.1,0.3H49c0-0.2,0.2-0.3,0.1-0.4c-0.1,0-0.1,0.1-0.2,0.1c0-0.1,0-0.2-0.1-0.3c-0.1,0-0.2,0-0.3,0
					c0.1-0.2,0.1-0.4,0.1-0.6c-0.4,0-0.5-0.3-0.7-0.5c0.4-0.2,0.4,0.2,0.6,0.3c0.2-0.3,0.3-0.5,0.5-0.8c0.1,0,0.2,0.1,0.3,0.1
					s0.2-0.1,0.2-0.2c-0.1-0.1-0.2-0.2-0.3-0.3c-0.2,0-0.3,0.2-0.5,0c0,0-0.2,0-0.2,0.1c-0.1,0.2-0.3,0.1-0.4,0.1
					c-0.1-0.3-0.1-0.5-0.2-0.7c-0.1,0-0.2,0-0.4,0c0,0.2,0,0.4,0,0.5c-0.1,0-0.2,0.1-0.3,0.1c0-0.1-0.1-0.1-0.1-0.2
					c-0.1-0.1-0.2-0.1-0.3-0.1c-0.2,0.2-0.2,0.2-0.5,0.1c0-0.1,0.1-0.2,0.1-0.3c-0.1-0.1-0.2-0.1-0.3-0.2c0.1-0.1,0.2-0.2,0-0.3
					c0,0,0-0.1,0.2-0.2c0.3-0.1,0.3-0.2,0.3-0.3c-0.1,0-0.3-0.1-0.4-0.1C46.1,94,46,94.1,46,94.3c0.1,0.1,0.1,0.2,0.3,0.1
					c0.1-0.1,0.3-0.1,0.1,0c-0.4,0.1-0.7,0.3-0.8,0.5c0-0.2,0-0.3,0-0.4c0.2-0.3,0.2-0.6,0.5-0.8c0.1,0,0.1-0.1,0.1-0.2
					c0-0.2,0.2-0.1,0.2-0.2c-0.2-0.1-0.4-0.2-0.7-0.3c0-0.2,0.3-0.4,0.1-0.7c-0.1,0.1-0.2,0.3-0.3,0.4c0-0.1-0.1-0.3-0.1-0.4
					c0-0.3,0-0.3-0.2-0.3c-0.3,0-0.4-0.1-0.4-0.4c0-0.1-0.1-0.2-0.1-0.2c-0.2,0.3-0.2,0.3-0.4,0.4c-0.2-0.1-0.2-0.3-0.2-0.5v-0.1
					c-0.1-0.2,0-0.3,0.1-0.4s0.2-0.2,0.3-0.3c0-0.1,0-0.2,0-0.3c-0.1,0-0.2,0-0.3-0.1c0.1,0,0.2-0.1,0.2-0.1c0-0.2,0-0.3,0-0.5
					c0.1,0.1,0.2,0,0.3,0.1s0.3,0.2,0.4,0.1c0-0.3,0.2-0.1,0.3-0.1c0-0.2-0.1-0.5-0.1-0.7c0.3,0.1,0.3-0.2,0.4-0.3
					c0.1,0.2,0.2,0.3,0.2,0.5c-0.2,0-0.3,0-0.2,0.2c0.1-0.1,0.1-0.1,0.2-0.2c0,0,0.1,0,0.2,0c0-0.1,0.1-0.2,0.1-0.3
					c-0.1-0.1-0.1-0.1-0.2-0.2c0.2-0.2,0-0.5,0.1-0.8c0.1,0.2,0.1,0.4,0.4,0.5c0.2-0.3,0.3-0.6,0.5-0.9c-0.1-0.1-0.2-0.1-0.3-0.3
					c0.3,0,0.5,0,0.7,0c0,0.1,0.1,0.1,0.1,0.2c0.1-0.1,0.3-0.1,0.2-0.3c-0.3,0.1-0.3-0.2-0.4-0.3c0.1-0.2,0.2-0.3,0.3-0.5
					c0,0.1,0.1,0.2,0.2,0.3c0.1-0.2,0.2-0.3,0.2-0.5c0.3-0.1,0.3,0.3,0.5,0.4c0.1-0.1,0.3-0.2,0.4-0.3c0.1,0.1,0.2,0.1,0.1,0.3
					c-0.1,0.2,0,0.2,0.1,0.3c0-0.1,0.1-0.1,0.1-0.1c-0.1-0.1-0.1-0.3-0.1-0.4s0-0.1-0.2-0.1c-0.1,0-0.1-0.1-0.1-0.2
					c0-0.3,0.3-0.5,0.3-0.8l0.1-0.1c0.2,0.1,0.2,0.4,0.1,0.5c-0.1,0.2,0,0.3,0,0.4s0.1,0.2,0.1,0.2c0.2-0.1,0.4-0.1,0.6-0.2
					c0-0.1,0-0.2,0.1-0.3c0.2-0.1,0.3-0.3,0.5-0.4c0.1-0.1,0.2-0.1,0.3,0c0,0.1,0,0.2-0.1,0.3h0.1h-0.1c0,0,0,0,0,0.1
					c0.3-0.1,0.3-0.3,0.3-0.4c0-0.3,0.2-0.6,0.4-0.8c0.1-0.1,0.2-0.2,0.3-0.4c0,0.2,0,0.3,0.1,0.3c0.2,0.1,0.2,0.3,0.2,0.5
					c0,0.1,0.1,0.2,0.2,0.3c0.1-0.2,0.1-0.4,0.3-0.4C52.6,84.7,52.6,84.6,52.6,84.4C52.6,84.3,52.6,84.4,52.6,84.4z M44.5,90.5
					L44.5,90.5C44.5,90.5,44.4,90.5,44.5,90.5C44.5,90.6,44.5,90.6,44.5,90.5C44.3,90.6,44.4,90.7,44.5,90.5
					C44.4,90.6,44.4,90.6,44.5,90.5L44.5,90.5c0,0.1,0,0.1,0,0.2C44.5,90.5,44.5,90.5,44.5,90.5z M54.6,91.5
					C54.5,91.5,54.5,91.5,54.6,91.5C54.5,91.5,54.5,91.5,54.6,91.5C54.5,91.5,54.5,91.5,54.6,91.5c-0.1-0.1-0.1-0.1-0.1-0.2
					L54.6,91.5C54.4,91.5,54.4,91.5,54.6,91.5C54.5,91.4,54.5,91.4,54.6,91.5C54.5,91.6,54.6,91.5,54.6,91.5z M53.2,88.7L53.2,88.7
					L53.2,88.7L53.2,88.7c0.2-0.1,0.3-0.2,0.4-0.2c0,0,0,0,0-0.1c-0.1,0-0.2,0-0.4,0C53.2,88.5,53.2,88.6,53.2,88.7L53.2,88.7z
					 M55.4,91.7L55.4,91.7C55.3,91.7,55.3,91.7,55.4,91.7C55.3,91.8,55.3,91.8,55.4,91.7c-0.3,0.1-0.5,0-0.8-0.1
					c0.1,0.2,0.2,0.4,0.3,0.4C55.1,92,55.3,92,55.4,91.7C55.4,91.8,55.4,91.7,55.4,91.7z M50.9,88.9c0.2,0.1,0.2,0.4,0.4,0.4
					s0.3-0.1,0.5-0.2c0-0.2-0.1-0.3-0.1-0.5c-0.3,0-0.5,0-0.8,0c-0.3-0.3-0.3-0.1-0.2,0.1c0.2-0.1,0.2-0.1,0.2-0.4
					C50.9,88.8,50.9,88.9,50.9,88.9z M57.4,91.6c0.1-0.1,0.1-0.2,0.1-0.3c0-0.2,0.1,0,0.1,0c0.1,0,0.1-0.1,0.1-0.2
					c0,0,0-0.1-0.1-0.2c0,0-0.1,0-0.1-0.1l-0.4-0.2c0,0.2-0.2,0.3,0,0.5c0,0-0.1,0.2-0.2,0.3c-0.1-0.1-0.1-0.2-0.2-0.3
					c-0.2,0-0.1,0.3-0.3,0.3c0,0.1,0,0.3-0.1,0.3c0.1,0.1,0.2,0.2,0.3,0.3c0,0,0.1,0,0.2,0.1c0,0,0.1,0,0.1,0.1
					C57.1,91.9,57.2,91.7,57.4,91.6z M51.2,91.1c-0.1,0.1-0.2,0.1-0.3,0.2s-0.1,0.2,0,0.3c0.2,0.1,0.2,0.3,0.1,0.4
					c-0.2,0.3-0.2,0.4,0.2,0.5c0.1,0,0.2,0.1,0.3,0.1c-0.1-0.2-0.3-0.3-0.2-0.5c0-0.1,0-0.2,0-0.3C51.3,91.6,51.4,91.4,51.2,91.1
					C51.1,91.4,51.2,91.3,51.2,91.1c0.1,0.1,0.2,0.2,0.3,0.3c0,0.3,0.1,0.6,0,0.9c0.2,0,0.3,0,0.5,0c-0.1-0.1-0.2-0.2-0.2-0.3
					c0.2-0.1,0-0.2,0-0.3c0-0.1,0-0.2,0.1-0.3c-0.2,0.1-0.3-0.1-0.3-0.3c0-0.1,0.1-0.1,0.2-0.2c-0.1-0.3-0.1-0.6-0.2-0.9
					c-0.2,0.2-0.2,0.3-0.2,0.5c-0.1,0-0.2,0-0.4,0c0.1,0.1,0.2,0.2,0.3,0.2C51,90.9,51.2,91,51.2,91.1z M52.7,91.3
					c0,0-0.2-0.1-0.4-0.3c0,0.2,0,0.2,0,0.3c0,0.1,0.1,0.2,0.1,0.3c0,0.1-0.1,0.2-0.1,0.2c0,0.2-0.1,0.3,0.1,0.4
					c0.1,0.1,0.2,0.2,0.3,0.3c0-0.1,0-0.2,0-0.3c0.1,0.2,0.2,0.1,0.4,0c0.1,0.1,0.2,0.3,0.4,0.4c0.2,0,0.3-0.2,0.4-0.3
					c-0.1-0.1-0.2-0.1-0.2-0.1c-0.1,0-0.1-0.1-0.2-0.1h-0.1c0-0.3-0.2-0.4-0.4-0.5c0,0,0-0.1,0.1-0.2C53,91.3,52.9,91.2,52.7,91.3z
					 M55.6,94.1L55.6,94.1c-0.1,0.3,0,0.5,0,0.5c-0.1,0.2,0,0.3-0.1,0.5c0.1,0.1,0.2,0.1,0.3,0.2c0.1-0.1,0.2-0.2,0.2-0.3
					c-0.1-0.2,0-0.3,0-0.5c0.1-0.4,0.1-0.6,0.1-1c0-0.1-0.1-0.2-0.1-0.2c-0.1-0.1-0.2-0.1-0.2-0.1c-0.1,0-0.1-0.1-0.2-0.2
					c-0.1,0.2-0.3,0.3-0.3,0.6c-0.1,0.2,0.1,0.4,0.1,0.7C55.5,94.2,55.5,94.1,55.6,94.1z M50.8,88.8c-0.2,0.1-0.2,0.2-0.2,0.2
					c-0.1,0-0.3-0.1-0.3,0c-0.1,0.1-0.3,0.2-0.2,0.3c0,0.1,0,0.1,0.2,0.2l0.1,0.1c0.1,0,0.2,0.1,0.3,0.2
					C50.7,89.4,50.8,89.2,50.8,88.8z M50.3,92.4c0-0.2-0.1-0.2-0.2-0.3c-0.2,0-0.3,0.1-0.3,0.2s0,0.4,0.1,0.4c0.2,0,0.3,0.1,0.4,0.3
					C50.3,92.8,50.3,92.6,50.3,92.4z M57.2,90.2c0.1,0.1,0.2,0.2,0.2,0.3c0.1-0.1,0.3-0.2,0.4-0.3c0.1-0.1,0.1-0.1,0.1-0.3
					C57.6,89.8,57.5,90.1,57.2,90.2z M47.4,94.2c-0.2,0-0.3,0-0.4,0c-0.1,0.1,0,0.3-0.1,0.4s-0.1,0.2,0,0.4
					C47,94.8,47.1,94.5,47.4,94.2z M50.6,94.3c0.3,0.4,0.3,0.4,0.6,0C50.9,94.3,50.8,93.9,50.6,94.3C50.5,94.3,50.5,94.3,50.6,94.3z
					 M56.4,88c-0.2-0.1-0.4,0-0.5,0.1c0.1,0.1,0.2,0.1,0.2,0.4C56.3,88.3,56.5,88.3,56.4,88z M53.9,89.1c0-0.2,0.2-0.4-0.1-0.6
					c-0.1,0.1-0.3,0.1-0.1,0.4c0.1,0.1,0,0.3,0,0.4c0,0,0,0,0.1,0C53.8,89.3,53.9,89.2,53.9,89.1z M54,95.8c0.2-0.3,0.2-0.3,0-0.8
					C53.9,95.5,53.9,95.5,54,95.8z M58.6,91.2c0-0.1,0.1-0.1,0.2-0.3c-0.1,0-0.2,0-0.2,0c-0.1,0.1-0.2,0.2-0.3,0.3
					C58.5,91.5,58.5,91.5,58.6,91.2z M49.1,90c0,0.1,0,0.2,0,0.3c0.1,0,0.3,0,0.4,0C49.3,90.1,49.3,89.9,49.1,90z M55,91.3
					c0-0.1-0.1-0.2-0.1-0.3c-0.1,0-0.2,0-0.2,0c0,0.1,0.1,0.2,0.1,0.3C54.9,91.3,54.9,91.3,55,91.3z M51.6,87.5
					C51.5,87.4,51.5,87.4,51.6,87.5c-0.1,0.1-0.2,0.2-0.2,0.4c0,0,0,0,0.1,0C51.5,87.7,51.6,87.6,51.6,87.5z M58.1,92.2L58.1,92.2
					c-0.2-0.1-0.2,0-0.2,0.1c0,0,0,0.1,0.1,0.3C58,92.3,58.1,92.3,58.1,92.2z M53,88.8L53,88.8c-0.2-0.1-0.3-0.1-0.3,0l0.1,0.1
					C52.9,88.8,52.9,88.8,53,88.8z M49.7,89.3C49.7,89.2,49.7,89.2,49.7,89.3l-0.2-0.1C49.5,89.3,49.5,89.3,49.7,89.3v0.2
					C49.7,89.4,49.7,89.4,49.7,89.3z M52.1,89.3c0,0,0.1-0.1,0.2-0.2c-0.1,0-0.1-0.1-0.2-0.1L52,89.1C52.1,89.2,52.1,89.2,52.1,89.3
					z M52.6,85.1c-0.1,0-0.2,0-0.2,0.1v0.1C52.5,85.3,52.6,85.3,52.6,85.1C52.6,85.2,52.6,85.2,52.6,85.1
					C52.6,85.2,52.6,85.1,52.6,85.1z M54,94.7L54,94.7h-0.2c0,0,0.1,0.1,0.1,0.2C54,94.8,54,94.7,54,94.7z M52.9,92.8
					C52.9,92.7,52.9,92.7,52.9,92.8c-0.1,0-0.2,0-0.2,0s0,0.1,0.1,0.1C52.9,92.8,52.9,92.8,52.9,92.8z M56.9,94.8
					c0-0.2,0-0.2-0.2-0.3C56.8,94.6,56.8,94.7,56.9,94.8z M48.6,87c-0.1,0-0.2-0.1-0.2-0.1C48.3,87.1,48.4,87.1,48.6,87z M58.3,92.1
					C58.3,92.2,58.3,92.2,58.3,92.1C58.4,92.2,58.3,92.2,58.3,92.1z M55.5,92.6C55.5,92.7,55.5,92.8,55.5,92.6
					C55.6,92.7,55.6,92.7,55.5,92.6z M56.5,92.9L56.5,92.9c0,0.1,0,0.1,0,0.2l0,0C56.5,93,56.5,92.9,56.5,92.9z M57.9,89.6
					L57.9,89.6c-0.1-0.1-0.1-0.1-0.2-0.1c0,0,0,0,0,0.1C57.7,89.6,57.8,89.6,57.9,89.6z M44.2,91.3C44.2,91.3,44.1,91.3,44.2,91.3
					C44.1,91.3,44.1,91.4,44.2,91.3C44.1,91.4,44.1,91.4,44.2,91.3C44.1,91.4,44.2,91.4,44.2,91.3z M53.6,91.2L53.6,91.2
					c-0.1-0.1-0.1-0.1-0.2-0.1c0,0,0,0,0,0.1C53.5,91.2,53.6,91.2,53.6,91.2z M48.4,87.2L48.4,87.2C48.3,87.2,48.3,87.2,48.4,87.2
					C48.3,87.2,48.4,87.2,48.4,87.2L48.4,87.2z M50.1,96.4L50.1,96.4C50,96.4,50,96.4,50.1,96.4C50,96.5,50.1,96.5,50.1,96.4
					C50.1,96.5,50.1,96.5,50.1,96.4z M57.9,91.6C57.9,91.6,57.8,91.6,57.9,91.6C57.8,91.6,57.8,91.6,57.9,91.6
					C57.8,91.6,57.8,91.6,57.9,91.6L57.9,91.6z M50.3,96.6L50.3,96.6C50.3,96.5,50.3,96.5,50.3,96.6C50.2,96.5,50.2,96.5,50.3,96.6
					C50.2,96.6,50.3,96.6,50.3,96.6z M52.5,89L52.5,89C52.6,89,52.6,89,52.5,89C52.6,89,52.5,89,52.5,89L52.5,89z M53,98.2
					C52.9,98.1,52.9,98.1,53,98.2C52.9,98.1,52.9,98.1,53,98.2C52.9,98.2,52.9,98.2,53,98.2C52.9,98.2,52.9,98.2,53,98.2z
					 M55.8,84.7C55.8,84.7,55.8,84.8,55.8,84.7C55.8,84.8,55.8,84.8,55.8,84.7C55.9,84.8,55.9,84.8,55.8,84.7
					C55.9,84.8,55.9,84.8,55.8,84.7z"/>
				<path class="st0" d="M48,96.8c-0.1-0.3-0.4-0.3-0.5-0.6c0,0-0.1,0-0.2,0c-0.1,0.2-0.2,0.4-0.3,0.6c0.2,0.4,0.5,0.2,0.8,0.1
					C47.9,96.8,48,96.8,48,96.8z"/>
				<path class="st0" d="M58.2,93.7c-0.1,0-0.2,0-0.2,0.1c0,0,0,0.2-0.1,0.2c-0.2,0-0.3,0.1-0.4,0.3c-0.1,0-0.2-0.1-0.3-0.1
					l-0.1-0.1c0-0.1-0.1-0.2-0.1-0.4c0.2,0,0.3-0.1,0.5,0.1c0.1,0.1,0.2,0,0.3,0C57.9,93.7,58.1,93.7,58.2,93.7
					C58.2,93.6,58.3,93.7,58.2,93.7z M57.3,94L57.3,94C57.2,94,57.2,94,57.3,94C57.2,94,57.3,94.1,57.3,94
					C57.3,94.1,57.3,94,57.3,94z"/>
				<path class="st0" d="M50.3,98.1c0.1-0.4,0.4-0.3,0.6-0.4c0,0,0.1,0,0.2-0.1c0,0,0,0,0.1-0.1l-0.1-0.1c-0.1-0.2-0.2-0.2-0.3,0
					c-0.1,0.1-0.1,0.1-0.3,0c-0.1,0.2-0.3,0.4-0.4,0.6C50.2,98,50.2,98.1,50.3,98.1z"/>
				<path class="st0" d="M57,95.5c-0.3,0.2,0,0.3,0,0.5C57.2,95.8,57.2,95.8,57,95.5z"/>
				<path class="st0" d="M50.3,84.6c0.2,0,0.4,0,0.6,0C50.5,84.4,50.4,84.4,50.3,84.6z"/>
				<path class="st0" d="M57,95.1c0.1,0.1,0.3,0.2,0.4,0.4c0-0.2,0-0.2,0-0.4C57.3,95.1,57.1,95.1,57,95.1z"/>
				<path class="st0" d="M48.3,97.1c-0.2,0-0.3,0.1-0.3,0.3c0.1,0,0.2,0,0.3,0C48.3,97.3,48.3,97.2,48.3,97.1z"/>
				<path class="st0" d="M44.5,93.6c0.2-0.1,0.3-0.3,0.3-0.6C44.7,93.3,44.6,93.4,44.5,93.6z"/>
				<path class="st0" d="M49,98c0.2,0,0.3,0,0.4,0C49.4,97.8,49.3,97.7,49,98z"/>
				<path class="st0" d="M46.4,96.6c0.2,0.1,0.1-0.2,0.3-0.2c0,0-0.1-0.1-0.1-0.2C46.5,96.3,46.5,96.4,46.4,96.6z"/>
				<path class="st0" d="M45,89.3c-0.1-0.1-0.1-0.1-0.2-0.2h-0.1v0.1l0.1,0.1C44.8,89.4,44.8,89.4,45,89.3z"/>
				<path class="st0" d="M54,96.3c0.1-0.1,0.2-0.1,0.3-0.2C54.1,96.1,54,96,54,96.3z"/>
				<path class="st0" d="M58,94c0,0.1,0,0.2,0.1,0.2l0.1-0.1C58.2,93.9,58,94,58,94z"/>
				<path class="st0" d="M44.7,92.9c0.1-0.1,0.2-0.1,0.1-0.3C44.7,92.7,44.6,92.7,44.7,92.9z"/>
				<path class="st0" d="M54.9,96.7c-0.1,0.1-0.1,0.1-0.2,0.2c0.1,0,0.1,0.1,0.2,0.1C54.9,96.9,54.9,96.8,54.9,96.7z"/>
				<path class="st0" d="M54.7,98.1c0.1-0.1,0.1-0.2,0.2-0.3C54.7,97.8,54.7,97.9,54.7,98.1z"/>
				<path class="st0" d="M44.5,92.4C44.5,92.3,44.5,92.3,44.5,92.4C44.5,92.3,44.5,92.3,44.5,92.4C44.5,92.2,44.4,92.3,44.5,92.4
					C44.4,92.3,44.5,92.3,44.5,92.4z"/>
				<path class="st0" d="M55.2,96.4C55.2,96.3,55.2,96.3,55.2,96.4c-0.1-0.1-0.1-0.1-0.2,0v0.1C55.1,96.4,55.2,96.4,55.2,96.4z"/>
				<path class="st0" d="M44.5,91.9C44.4,91.9,44.4,91.9,44.5,91.9C44.4,91.9,44.4,91.9,44.5,91.9C44.4,91.9,44.4,92,44.5,91.9
					C44.4,92,44.4,92,44.5,91.9z"/>
				<path class="st0" d="M46.2,95.5c0-0.1,0-0.2,0-0.2V95.5C46.1,95.4,46.2,95.5,46.2,95.5z"/>
				<path class="st0" d="M51.8,98.3C51.8,98.4,51.8,98.4,51.8,98.3H52C51.9,98.3,51.9,98.2,51.8,98.3C51.8,98.2,51.8,98.3,51.8,98.3
					z"/>
				<path class="st0" d="M57.6,95.1L57.6,95.1C57.6,95.2,57.6,95.2,57.6,95.1C57.7,95.2,57.7,95.2,57.6,95.1
					C57.7,95.1,57.6,95.1,57.6,95.1z"/>
				<path class="st0" d="M50.2,85.3C50.1,85.3,50.1,85.3,50.2,85.3C50.1,85.3,50.2,85.3,50.2,85.3L50.2,85.3L50.2,85.3z"/>
				<path class="st0" d="M54.6,98.1L54.6,98.1L54.6,98.1C54.6,98,54.6,98,54.6,98.1C54.6,98,54.6,98,54.6,98.1z"/>
				<path class="st0" d="M54.4,97.4L54.4,97.4C54.4,97.3,54.4,97.3,54.4,97.4C54.4,97.3,54.4,97.3,54.4,97.4L54.4,97.4z"/>
				<path class="st0" d="M45.5,88.4C45.5,88.4,45.4,88.4,45.5,88.4C45.4,88.4,45.4,88.4,45.5,88.4C45.4,88.4,45.4,88.4,45.5,88.4
					C45.4,88.4,45.5,88.4,45.5,88.4z"/>
				<path class="st0" d="M45.9,95.8C45.9,95.8,45.9,95.7,45.9,95.8C45.9,95.7,45.9,95.7,45.9,95.8C45.9,95.7,45.9,95.7,45.9,95.8
					L45.9,95.8z"/>
				<path class="st0" d="M53.8,98.3C53.8,98.2,53.8,98.2,53.8,98.3C53.7,98.2,53.7,98.2,53.8,98.3C53.7,98.3,53.7,98.3,53.8,98.3
					L53.8,98.3z"/>
				<path class="st0" d="M45.8,87.5L45.8,87.5L45.8,87.5L45.8,87.5L45.8,87.5z"/>
				<path class="st0" d="M46.4,87C46.5,87,46.5,87,46.4,87C46.5,87,46.5,87,46.4,87C46.5,87,46.5,87,46.4,87
					C46.5,87,46.5,87,46.4,87z"/>
				<path class="st0" d="M51.2,90.8C51.2,90.7,51.2,90.7,51.2,90.8C51.2,90.7,51.2,90.7,51.2,90.8C51.2,90.7,51.2,90.7,51.2,90.8
					L51.2,90.8z"/>
				<path class="st0" d="M55.7,93.6c-0.1,0-0.2,0-0.3,0c0,0.1,0,0.3,0,0.4c0.1-0.1,0.2-0.1,0.3-0.1C55.7,93.8,55.7,93.7,55.7,93.6z"
					/>
				<path class="st0" d="M55.8,93.8C55.9,93.8,55.9,93.7,55.8,93.8C55.8,93.7,55.8,93.7,55.8,93.8C55.8,93.7,55.8,93.7,55.8,93.8
					L55.8,93.8z"/>
				<path class="st0" d="M56.5,91.8C56.5,91.8,56.5,91.7,56.5,91.8C56.5,91.7,56.5,91.7,56.5,91.8C56.5,91.7,56.5,91.7,56.5,91.8
					C56.5,91.7,56.5,91.7,56.5,91.8z"/>
				<path class="st0" d="M56.8,91.8C56.8,91.7,56.8,91.7,56.8,91.8C56.8,91.7,56.8,91.7,56.8,91.8C56.8,91.7,56.8,91.7,56.8,91.8
					C56.7,91.7,56.8,91.7,56.8,91.8z"/>
			</g>
			<g>
				<path class="st0" d="M45,37.7c-0.1-0.1-0.2-0.1-0.4-0.2c0.2-0.2,0.5-0.1,0.6-0.4C45.1,37,45,37,44.9,36.9
					c0.2-0.1,0.4-0.1,0.6-0.2c0-0.2,0-0.3,0-0.5c0.1,0,0.1,0,0.1,0c0.3,0.1,0.4,0,0.5-0.3l0.1-0.1c0.1-0.1,0.2-0.2,0.3-0.3
					c0.1,0.1,0.2,0.2,0.3,0.3c0.2-0.3,0.4-0.4,0.7-0.1c0.1-0.2,0.3-0.5,0.1-0.7v-0.1c0.2-0.1,0-0.3,0.1-0.5c0.1,0,0.2-0.1,0.3-0.1
					c0,0.1,0,0.2,0,0.3c0.1,0,0.3,0,0.4,0c0.1-0.1,0.2-0.3,0.3-0.4c0.2,0.3,0.2,0.3,0.5,0.2c0,0.2,0,0.3,0,0.5c0.1,0,0.2,0,0.2,0
					c0.1-0.2,0.1-0.4,0.1-0.5c-0.1-0.1-0.3-0.1-0.4-0.2c0-0.1,0.1-0.2,0.1-0.3c-0.1,0-0.3,0.1-0.4,0.1c-0.2,0-0.2,0-0.2-0.3
					c0-0.1,0-0.2,0-0.3c0.2-0.2,0.4-0.4,0.6-0.6c0.3-0.1,0.6-0.1,0.8-0.1c0.2-0.1,0.5-0.2,0.7-0.3c-0.2-0.2,0-0.3,0.1-0.3
					c0,0.2,0.2,0.1,0.3,0.1c0.2,0,0.1-0.1,0.1-0.2c0.1,0,0.3-0.2,0.4,0.1c0,0,0.1,0,0.2,0c0.1,0,0.3,0,0.3,0
					c0.1-0.1,0.2-0.2,0.3-0.3c0.2,0.2,0.3,0,0.5,0c0,0.1,0,0.2,0,0.3c0.2-0.1,0.3-0.5,0.7-0.5c-0.1,0.1-0.1,0.1-0.1,0.2
					c0.1,0.1,0.1,0.1,0.2,0.2c0.1-0.1,0.1-0.2,0.2-0.2c0.1,0.1,0.1,0.1,0.2,0.2c0.1,0,0.2-0.1,0.4-0.1c-0.2,0.3-0.3,0.5-0.1,0.8
					c0,0,0,0.1-0.1,0.2c-0.1,0.2,0,0.3,0.2,0.5c0-0.1-0.1-0.2-0.1-0.3s0.1-0.2,0.1-0.2c0.1-0.1,0.3-0.3,0.2-0.5c0,0,0.1-0.1,0.1-0.2
					c0.2,0.2,0.2-0.1,0.3-0.1c0.1,0.1,0.1,0.2,0.2,0.3c0.2-0.2,0.4-0.4,0.6-0.6c0,0.2,0,0.4-0.1,0.6c0.1,0,0.2,0,0.3,0
					c0.1,0.2,0.1,0.4,0.2,0.6c0.3,0,0.6,0.1,0.9-0.2c0.3,0,0.6-0.2,0.9-0.2c0,0.2-0.1,0.4-0.1,0.6c0,0.2-0.1,0.3-0.2,0.5
					c0.3,0.1,0.6,0,0.8-0.4c0,0.2-0.1,0.3-0.1,0.5c0,0,0.1,0,0.2,0c0.1,0.1,0.2,0.1,0.2,0.3c0,0.1,0,0.3-0.1,0.3
					c-0.2,0.1-0.5,0.1-0.6-0.1c0.2-0.1,0.3-0.2,0.2-0.3c-0.4,0-0.4,0-0.8,0.3c0,0,0,0.1-0.1,0.2c0.2,0,0.4,0,0.7,0
					c-0.1,0.1-0.2,0.1-0.3,0.1s-0.1,0.1-0.2,0.1c0,0.1,0,0.2,0,0.4l0.1-0.1c0,0,0,0,0.1,0c-0.1,0.5-0.1,0.6,0.3,0.5
					c0-0.1,0-0.2-0.1-0.4c0.2,0,0.4,0.1,0.5,0.1c0.1-0.1,0.1-0.3,0.2-0.4c0,0.1,0.2,0.1,0.1,0.2v0.1c0,0.1,0.1,0.1,0,0.2
					c-0.1,0.1-0.2,0.2-0.3,0.2c-0.2,0-0.4,0.2-0.6,0.3c0,0,0,0,0,0.1l0.1,0.1c0.2-0.2,0.3-0.2,0.3-0.2c0,0.1-0.1,0.1-0.1,0.2
					c0.3,0.1,0.5,0.2,0.7,0.2c0.1,0,0.2,0.1,0.2,0.3c-0.1,0-0.2,0-0.3-0.1c-0.1-0.2-0.3-0.2-0.4-0.1c-0.1,0.2-0.3,0.3-0.3,0.3
					c0,0.1,0.1,0.2,0,0.3c-0.5,0-0.5,0-0.5,0.4c0.1-0.1,0.2-0.2,0.4-0.3c0.1,0.1,0.1,0.2,0.2,0.3c-0.2,0.2-0.3,0.4-0.6,0.5
					c0.2,0,0.4,0,0.6,0c0,0.1,0.1,0.2,0.1,0.2c0,0.1,0.1,0.1,0.2,0.3c-0.1,0-0.2,0-0.3,0c-0.2,0-0.7,0.4-0.6,0.5
					c0.1,0,0.2,0,0.3-0.1c-0.2,0.3-0.2,0.5-0.2,0.7c0,0.1,0.1,0.1,0,0.2l0.2,0.3c0,0,0,0,0.1-0.1c0,0,0,0,0.1-0.1
					c0.1,0.1,0.1,0.1,0.1,0.2L58.2,40c-0.1,0.1-0.1,0.5-0.1,0.6c0,0.2-0.1,0.2-0.2,0.3c-0.1,0-0.2,0-0.3,0h-0.1
					c0.1,0.1,0.2,0.2,0.3,0.2c-0.1,0.1-0.1,0.2-0.2,0.3c-0.2,0-0.3,0-0.6,0c0.1-0.2,0.2-0.3,0.3-0.4c0,0,0.1,0,0.1-0.1h-0.1V41l0,0
					c-0.2,0-0.5,0-0.7,0c0,0.3,0,0.5,0,0.7c0.1,0,0.1,0,0.1,0c0.1-0.2,0.1-0.3,0.3-0.1c0.1,0.1,0.1,0.3,0.1,0.4
					c0,0.1-0.1,0.1-0.2,0.2c0.1,0.3,0.3,0.2,0.4,0.3c0,0.1,0,0.2,0,0.3c-0.1,0-0.3,0-0.4-0.1c-0.1-0.1-0.2-0.2-0.2-0.3
					c-0.2,0.2,0,0.6-0.2,0.8c0,0,0,0,0,0.1c0.1,0,0.2,0,0.3,0c0,0.1,0,0.2,0,0.2c-0.1,0-0.2-0.1-0.3,0c-0.2,0.1-0.1,0.3-0.1,0.4
					c-0.4,0-0.2-0.4-0.4-0.6c0.1-0.1,0.2-0.2,0-0.3c-0.1-0.1-0.2-0.1-0.3-0.1c0,0.3,0.1,0.5,0.1,0.8c0,0.1,0.1,0.1,0.1,0.1
					c0.3,0.1,0.3,0.4,0.2,0.6c-0.2,0.1-0.3,0.1-0.4,0.1c0,0-0.3,0.2-0.3,0.1c-0.1-0.1-0.2-0.1-0.3-0.2c0.2-0.1,0-0.2,0-0.3
					c0.1-0.1,0.2-0.1,0.3-0.2c-0.1-0.1-0.2-0.2-0.3-0.3c0.1-0.3,0.1-0.3-0.2-0.5c-0.2,0.2-0.2,0.5-0.2,0.8c0,0.2-0.1,0.3-0.2,0.3
					c-0.3,0-0.3,0.2-0.5,0.4c0.1,0.1,0.2,0.2,0.4,0.1c0-0.1-0.1-0.2-0.1-0.2s0.4,0,0.5,0c0,0.1,0,0.1,0,0.2l-0.1,0.1
					c0,0.2-0.3,0.2-0.3,0.4v0.1c-0.1,0-0.2,0-0.2,0c-0.1-0.1-0.2-0.3-0.4-0.4c0-0.2,0-0.2-0.2-0.5c0.3-0.1,0.3-0.1,0.3-0.5
					c-0.1,0-0.2,0-0.3-0.1s-0.2-0.2-0.3-0.3c-0.1,0.2-0.2,0.3-0.3,0.2c0.1-0.2,0.1-0.3-0.1-0.4c-0.1,0.1-0.1,0.3-0.3,0.3
					c0.1,0.1,0.1,0.2,0.2,0.3c0.1,0.2,0.3,0.1,0.4,0.2l0.1,0.1c-0.1,0.4-0.1,0.4,0.3,0.9c0.1,0.1,0.1,0.2,0.1,0.3
					c-0.3,0.1-0.5-0.2-0.8-0.4c0-0.1,0-0.2,0-0.3c-0.2-0.1-0.2-0.1-0.1-0.4c-0.2-0.1-0.3-0.2-0.5-0.4c-0.1,0.1-0.1,0.2-0.1,0.2
					c0,0.2-0.1,0.3-0.3,0.3c-0.1,0-0.2,0-0.3,0.1c-0.2,0.1,0,0.2,0,0.3c0,0.2-0.1,0.4-0.1,0.6c-0.1-0.1-0.2-0.2-0.2-0.3
					c0-0.3,0.1-0.6-0.2-0.9c0,0,0-0.1,0-0.2c0,0.2-0.1,0.4-0.3,0.4c-0.1,0-0.1,0-0.1,0.1c-0.1,0.2-0.2,0.3-0.3,0.5
					c0,0.1,0.1,0.2,0.1,0.3c-0.3,0.1-0.3,0.4-0.4,0.6c0.1,0.1,0.2,0.2,0.3,0.2c0,0,0.1,0,0.2-0.1c-0.1,0.2,0.1,0.4-0.1,0.6
					c-0.1,0.1-0.2,0.1-0.3,0.1c0-0.2,0-0.4-0.2-0.4c-0.3,0-0.1-0.3-0.3-0.4c0-0.1,0.1-0.2,0.1-0.2c0.3,0,0.1-0.2,0.1-0.4
					c-0.1,0.1-0.2,0.2-0.2,0.3c-0.1,0-0.2,0.1-0.2,0.1c-0.1-0.1-0.3,0-0.4,0c0.2-0.2,0.2-0.5,0.2-0.6c-0.1,0-0.2,0-0.4,0
					c0.1-0.1,0.1-0.3,0.2-0.3c0,0,0.1,0,0.2,0c0,0,0.1,0,0.2,0c0-0.1,0-0.4-0.1-0.4c-0.2,0-0.1-0.2-0.1-0.3c0.2,0,0.2,0,0.2-0.2
					c-0.2,0-0.3,0-0.5,0c-0.1,0-0.2,0.1-0.2,0.2c0,0.1,0.1,0.3-0.1,0.4c-0.1,0.1-0.3-0.1-0.4,0c0,0-0.1,0,0,0
					c-0.1-0.1-0.2-0.2-0.2-0.3C48,44.1,48,44,47.9,43.9c-0.1,0.1-0.2,0.3-0.4,0.4c0,0,0.1,0.2,0,0.2c-0.2,0.2-0.2,0.5-0.2,0.8
					l-0.1,0.1c0-0.3,0-0.5,0.1-0.7c-0.1-0.1-0.1-0.1-0.2-0.1c0.1-0.1,0.1-0.2,0.2-0.3c-0.1-0.1-0.3-0.1-0.4-0.2
					c-0.1,0.2,0.1,0.3,0.2,0.4c-0.1,0-0.2,0-0.4,0s-0.2-0.2-0.4-0.3c0.2-0.1,0.1-0.3,0.1-0.4c0-0.1,0.1-0.2,0.2-0.2
					c0.1,0,0.2,0,0.2,0.1s0.2,0.1,0.2,0.1c0.1,0,0.1-0.1,0.2-0.2c0.1-0.1,0.1-0.3,0-0.4c-0.1-0.1-0.2-0.1-0.3,0.1
					c0,0.1-0.1,0.1-0.1,0.1c-0.1-0.1-0.2-0.2-0.2-0.3l0.1-0.1c-0.1-0.1-0.1-0.1,0-0.2c0.1-0.1,0.1-0.3-0.1-0.4
					c-0.2-0.1-0.2-0.3-0.2-0.5c0,0,0-0.1,0-0.2l-0.1,0.1c-0.2-0.2-0.5-0.5-0.7-0.7c0-0.3,0.3-0.1,0.5-0.2c0-0.2-0.2-0.3,0-0.5
					c0.1-0.1,0-0.2,0-0.4c-0.3,0.2-0.1,0.5-0.2,0.7c-0.1,0-0.2,0.1-0.2,0.1c0-0.1,0-0.1-0.1-0.2c-0.1,0-0.1,0.1-0.2,0.1
					c-0.1-0.1-0.2-0.2-0.3-0.4c0.1-0.1,0.2-0.2,0.3-0.4c-0.2-0.1-0.4,0-0.5-0.2c0.1-0.1,0.2-0.1,0.3-0.2c-0.2-0.1-0.4-0.1-0.4-0.3
					c-0.1-0.3-0.3-0.1-0.4-0.2c0,0-0.1,0.1-0.1,0c0,0,0-0.1,0.1-0.1s0.2-0.1,0.3-0.1s0.2-0.1,0.2-0.2c0.2,0,0.2,0,0.1,0.4h0.1H45
					c0,0,0,0,0,0.1c0.2-0.1,0.2,0,0.3-0.1c0.1-0.2,0.2-0.3,0.3-0.4c0.1-0.1,0.2-0.3,0.3-0.5c-0.1,0-0.2,0-0.2,0.1
					c-0.1,0.1-0.2-0.1-0.3-0.1c-0.1-0.2,0.1-0.3,0.2-0.5c-0.2-0.3-0.3-0.3-0.4-0.1l-0.1,0.1C45,37.9,45,37.8,45,37.7z M53.2,41.9
					L53.2,41.9c-0.1,0.1-0.1,0.1,0,0.2c0.1-0.3,0.1-0.3,0.1-0.4c0,0,0-0.1-0.1-0.1C53.2,41.7,53.2,41.8,53.2,41.9L53.2,41.9
					C53.2,42,53.2,42,53.2,41.9z M57.6,38.6C57.6,38.6,57.6,38.5,57.6,38.6c0.1-0.2,0-0.2-0.1-0.2c0-0.1,0-0.3-0.2-0.2
					c0,0.1,0.1,0.2,0.2,0.3C57.5,38.5,57.4,38.6,57.6,38.6z M57,35.4L57,35.4c0.1,0.2,0.2,0.2,0.3,0.1l0.1-0.1
					c-0.1,0.3-0.1,0.3-0.1,0.3s0,0,0-0.1l0,0c0,0,0,0,0.1,0C57.2,35.4,57.1,35.4,57,35.4z M52.2,36.5L52.2,36.5H52
					c0-0.1,0.1-0.3,0.1-0.4c-0.2,0-0.3-0.3-0.5-0.1s-0.1,0.4,0,0.6c-0.2,0.2-0.4,0.4-0.4,0.8c-0.3,0-0.6-0.1-0.9-0.1
					c0,0.2,0,0.3,0,0.4c0.1,0.1,0.3,0.2,0.4,0.4c0.3,0.1,0.6-0.1,0.8-0.3c0,0.1,0.1,0.2,0.1,0.2s0.1,0.1,0.2,0
					c-0.1-0.1-0.1-0.1-0.2-0.2c0.1-0.1,0.1-0.2,0.1-0.3c0.1-0.2,0.2-0.2,0.4-0.1v0.1c0.2,0.3,0.4,0.7,0,1.1c0.2,0,0.3,0,0.4,0
					c0-0.2,0-0.4,0.1-0.5s0.2-0.1,0.2,0.1c0,0.1,0.1,0.1,0.2,0.1c0,0,0-0.1,0-0.2c-0.1-0.2,0-0.6,0.3-0.6c0.1,0,0.2-0.1,0.2-0.2
					c0-0.1-0.1-0.2-0.2-0.3c-0.1-0.1-0.2-0.1-0.3-0.2c-0.1-0.1-0.1-0.1-0.5-0.1C52.4,36.7,52.3,36.6,52.2,36.5
					c0.1-0.3-0.1-0.4-0.3-0.4s-0.1,0,0,0L51.8,36c0,0,0,0-0.1,0.1C52.3,36.1,52.3,36.3,52.2,36.5z M54.1,39.7
					c-0.1-0.1-0.1-0.2-0.2-0.2c0-0.1-0.1-0.2-0.1-0.2c0.1-0.1,0-0.2,0-0.4c0-0.3,0.2-0.4,0.4-0.3c0.2,0.1,0.3,0.1,0.5,0.1
					c0.1,0.1,0.1,0.3,0.2,0.4c0.1,0,0.2-0.2,0.4,0c0.1,0.1,0.4-0.1,0.4-0.3c0-0.1,0-0.1,0-0.2c-0.1,0.1-0.3,0.1-0.4,0.2
					c-0.1,0.3-0.2,0.1-0.5,0.2c0.1-0.1,0.2-0.2,0.2-0.2c0.1-0.1,0.1-0.1,0.2-0.2c0-0.1,0-0.2,0-0.3c-0.3,0-0.5-0.1-0.7-0.3
					c-0.1,0-0.2,0.1-0.2,0.1c0,0.1,0.1,0.2,0.1,0.3c-0.3,0-0.4-0.1-0.5-0.4c-0.1,0-0.2,0-0.4,0c0,0.6-0.1,1.2,0.1,1.9
					C53.8,39.7,53.9,39.7,54.1,39.7z M52.2,42c-0.1,0-0.1-0.1-0.2-0.1c-0.1,0-0.1,0-0.2-0.1c0-0.1,0-0.2,0.1-0.1v-0.1
					c-0.1-0.1-0.1-0.2,0-0.2c0.1-0.1,0.1-0.3,0.2-0.4c0.1-0.1,0-0.2,0-0.2c0-0.2-0.1,0-0.2,0c-0.1,0-0.3-0.1-0.4-0.1
					c-0.1,0.1-0.2,0.2-0.3,0.3c0.1,0.1,0.3,0.2,0.2,0.4c0,0.1-0.1,0.2,0,0.2c0.1,0.2,0.1,0.4,0.1,0.6C51.7,42.2,52,42.2,52.2,42z
					 M47.1,37.2c0.1,0,0.1,0.1,0.2,0.1c0,0.1-0.1,0.2-0.1,0.3c0.1,0,0.3,0,0.4,0c0.2,0.3-0.2,0.3-0.3,0.5c0.1,0.1,0.2,0.3,0.3,0.5
					c0.3,0,0.3-0.3,0.3-0.4c0.1-0.1,0.1-0.4,0-0.5c0-0.2-0.1-0.3-0.2-0.5c-0.1,0-0.2,0-0.3,0c-0.1-0.1-0.1-0.2-0.2-0.3
					C47.2,37,47.2,37.1,47.1,37.2z M56.2,34c0.2,0.2,0.1-0.1,0.3-0.2c0.1,0,0.1,0.1,0.3,0.2c0.1-0.1,0.3-0.3,0.4-0.4
					c-0.1-0.2-0.3-0.4-0.5-0.4h-0.1c-0.1-0.1-0.2,0-0.2,0c-0.1,0.1-0.1,0.2,0,0.3c0.1,0,0.1,0.1,0.1,0.2c0,0-0.1,0-0.3,0
					C56.2,33.8,56.2,33.9,56.2,34z M49.3,41.1L49.3,41.1c-0.1,0.1-0.2,0.2-0.1,0.3c0.1,0.2,0.1,0.4-0.1,0.6
					c-0.1,0.2-0.2,0.4-0.3,0.6c0,0.1,0,0.2,0,0.2c0,0.1,0.1,0.2,0.2,0.3c0-0.3,0-0.6,0.2-0.8c0.1-0.2,0.1-0.5,0.3-0.7
					C49.4,41.4,49.3,41.3,49.3,41.1z M51,40.6c0-0.2,0.2-0.1,0.2-0.3S51.1,40,51,39.9c0,0,0,0,0-0.1s0.1-0.1,0.1-0.2
					c-0.2-0.2-0.2-0.2-0.4-0.3c0,0.2,0.1,0.3,0,0.5s-0.1,0.4,0.1,0.6C50.9,40.5,50.9,40.6,51,40.6L51,40.6z M54,41.5
					c0.1,0.1,0.2,0.2,0.3,0.4c0.1-0.2,0.2-0.3,0.3-0.5c-0.2,0-0.3-0.1-0.4-0.1c0-0.2-0.2-0.1-0.2-0.2c-0.1,0.2-0.2,0.4-0.3,0.6
					C53.7,41.6,53.9,41.5,54,41.5z M47.6,39c-0.1,0.2-0.3,0.4-0.4,0.6c-0.1,0.2-0.2,0.4-0.1,0.6c0.2,0,0.2-0.1,0.3-0.2
					c0-0.1,0.1-0.2,0.1-0.3c0-0.2,0.1-0.2,0.2-0.3c0.1-0.1,0.3-0.2,0.2-0.5C47.7,39,47.6,39,47.6,39z M53,39.6
					c0-0.3-0.2-0.4-0.5-0.4c0.1,0.2,0.2,0.4,0.3,0.6c-0.2,0.1,0,0.2,0.1,0.2h0.2c0,0,0.1-0.1,0.1-0.2C53.1,39.8,53,39.7,53,39.6z
					 M53.1,41.6c-0.1-0.3,0-0.5-0.3-0.7c-0.1,0.1-0.2,0.2-0.3,0.3c0,0.1,0.1,0.2,0.1,0.4C52.8,41.6,52.9,41.6,53.1,41.6z M54.4,42.4
					L54.4,42.4c-0.3,0.1-0.3,0.3-0.1,0.5c0.1-0.1,0.3-0.3,0.4-0.4c0.1-0.1,0.1-0.2,0.1-0.3l-0.1-0.1C54.5,42.2,54.4,42.3,54.4,42.4z
					 M50.1,41.9L50.1,41.9C50,42,50,42.1,50,42.2c0.1,0,0.3,0,0.4,0c0,0.1,0,0.2,0.1,0.3c0.1-0.2,0.2-0.4,0.4-0.6c0,0,0-0.1-0.1-0.1
					C50.5,41.8,50.3,41.9,50.1,41.9z M52.9,36.3c0.1,0,0.1-0.1,0.2-0.1c0.1-0.2,0.1-0.4,0.2-0.6c0-0.1-0.1-0.1-0.1-0.2
					C52.9,35.5,52.9,35.5,52.9,36.3z M55.1,40.6c0-0.1-0.1-0.1-0.1-0.2c0-0.2,0.1-0.2,0.2-0.2c-0.1-0.1-0.2-0.1-0.3-0.2
					c-0.2,0.2-0.3,0.4-0.1,0.5c0.1,0.1,0.1,0.3,0.2,0.4C55.1,40.9,55.1,40.8,55.1,40.6z M46.7,38.6c-0.1,0-0.1,0-0.2,0
					c0,0.2,0,0.4-0.1,0.6c0,0.1,0.1,0.3,0.1,0.5C46.8,39.3,46.6,38.9,46.7,38.6z M53.3,43c0.1,0.1,0,0.2,0.1,0.3
					c0.1-0.2,0.1-0.2,0.3-0.2c-0.1-0.1-0.1-0.3-0.3-0.4C53.3,42.8,53.1,42.8,53.3,43z M56.6,42.2c-0.2-0.2-0.3-0.2-0.5,0
					c-0.1,0.1-0.1,0.2-0.2,0.4C56.2,42.4,56.4,42.3,56.6,42.2z M56.4,41.6c0.1-0.3-0.1-0.4-0.1-0.7c-0.1,0.2-0.2,0.4-0.1,0.7
					C56.2,41.6,56.3,41.6,56.4,41.6z M57.6,37.1c-0.1-0.4-0.1-0.4-0.3-0.3l0.1,0.1C57.3,37,57,37,57.1,37.3
					C57.3,37.2,57.4,37.1,57.6,37.1z M48,36c-0.2,0-0.3-0.1-0.4,0.2c0.1,0.1,0.2,0.1,0.3,0.2c0.1,0,0.2,0,0.3-0.1
					C48,36.1,48,36.1,48,36z M47.5,42.9c-0.1,0.2,0,0.4,0,0.6c0.1-0.1,0.1-0.1,0.2-0.2c0,0,0,0,0.1,0.1C47.8,43.1,47.6,43,47.5,42.9
					z M54.3,40c-0.1-0.1-0.2-0.1-0.3-0.2c0,0.1-0.1,0.2-0.1,0.4C54.1,40.3,54.2,40.3,54.3,40z M57.7,40.5c0.1,0,0.2,0,0.4,0
					c0-0.1,0-0.2,0-0.4c-0.1,0-0.1,0.1-0.2,0.1c-0.1,0-0.1,0-0.2,0C57.7,40.3,57.7,40.4,57.7,40.5z M55.4,37.1L55.4,37.1
					C55.3,37,55.2,37,55.1,37L55,37.1c0,0.1,0.1,0.2,0.2,0.4C55.3,37.4,55.3,37.3,55.4,37.1z M51.7,33.2c0,0-0.1-0.1-0.1-0.2
					c0,0.1-0.1,0.2-0.1,0.2c0,0.1,0.1,0.3,0.1,0.4C51.6,33.5,51.6,33.4,51.7,33.2z M51.9,40.4c0.1-0.1,0.3-0.1,0.4-0.2
					c0-0.1,0-0.2,0-0.3h-0.1C52,40.1,51.9,40.1,51.9,40.4z M47,42.4c0,0.1,0,0.2,0,0.2c0.1,0.1,0,0.2,0,0.2s0,0.1,0.1,0.1h0.1
					c0-0.1,0-0.2,0.1-0.4C47.2,42.5,47.1,42.4,47,42.4z M48.1,41c-0.1,0-0.1,0.1-0.2,0.1c0,0.2,0.2,0.3,0.4,0.2
					C48.2,41.2,48.1,41.1,48.1,41z M49.1,43.8c0.1-0.1,0.2-0.1,0.3-0.2c-0.1-0.1-0.1-0.2-0.2-0.2C49.1,43.5,49,43.6,49.1,43.8z
					 M45.6,37.1c0,0.1,0,0.2,0,0.2c0.1,0,0.1,0,0.1-0.1s0.1-0.2,0.1-0.2l-0.1-0.1C45.8,37,45.7,37.1,45.6,37.1z M53.6,39.7
					c-0.1-0.1-0.2-0.2-0.4-0.3c0,0.1,0.1,0.2,0.1,0.2c0,0.1,0,0.1,0,0.2C53.4,39.8,53.5,39.8,53.6,39.7z M46.8,41.8
					c0-0.1,0-0.2,0-0.3c-0.2,0-0.2,0.1-0.3,0.3C46.7,41.8,46.7,41.8,46.8,41.8z M47,37.6c-0.1,0-0.1,0.1-0.2,0.1v0.1
					c0,0,0.1,0,0.2,0c0.1,0,0.1-0.1,0.2-0.2C47,37.6,47,37.6,47,37.6z M49.1,36.2c0.1-0.1,0.1-0.2,0.2-0.3c-0.1,0-0.2,0-0.4-0.1
					C49,36,49,36.1,49.1,36.2z M50.9,41.2c-0.1,0-0.2,0-0.2,0.1s0,0.3,0.2,0.3C50.9,41.4,50.9,41.3,50.9,41.2z M49.7,42.4
					C49.7,42.4,49.8,42.3,49.7,42.4c0-0.1,0-0.2-0.1-0.3c0,0-0.1,0-0.1,0.1C49.6,42.3,49.6,42.3,49.7,42.4z M51.1,32.8
					c-0.1,0-0.1,0.1-0.2,0.1c-0.1,0-0.1,0-0.2,0C51,33.1,51,33.1,51.1,32.8z M56.1,34.2c-0.1,0.1-0.2,0.1-0.1,0.2h0.1
					C56.3,34.4,56.2,34.3,56.1,34.2C56.2,34.2,56.2,34.2,56.1,34.2C56.2,34.2,56.1,34.2,56.1,34.2z M53.2,38.7
					c-0.1-0.1-0.1-0.2-0.2-0.1v0.1C53,38.8,53.1,38.7,53.2,38.7C53.2,38.8,53.2,38.8,53.2,38.7L53.2,38.7z M53.8,42.8
					C53.8,42.9,53.8,42.9,53.8,42.8l0.2,0.1c0-0.1,0-0.1-0.1-0.2l-0.1-0.1C53.8,42.8,53.8,42.8,53.8,42.8z M53.8,32.1
					c-0.1,0.2-0.1,0.2,0.2,0.4C53.9,32.4,53.9,32.3,53.8,32.1z M57.7,33.6c-0.1-0.1-0.2-0.1-0.4-0.2C57.4,33.7,57.5,33.7,57.7,33.6z
					 M46.9,39.6c-0.2-0.1-0.2-0.1-0.3,0.1C46.8,39.7,46.9,39.7,46.9,39.6z M51.2,34.1L51.2,34.1v-0.2V34.1
					C51.1,34.1,51.2,34.2,51.2,34.1z M57.5,34.7L57.5,34.7h-0.2c0,0,0.1,0.1,0.1,0.2C57.4,34.7,57.5,34.7,57.5,34.7z M52.6,40.6
					C52.6,40.6,52.7,40.7,52.6,40.6c0.1,0,0.1,0,0.2,0c0,0,0-0.1,0.1-0.2c0,0,0,0-0.1-0.1C52.7,40.5,52.7,40.5,52.6,40.6z
					 M55.8,33.8c0,0.1-0.1,0.2-0.1,0.2C55.9,34.1,55.9,34,55.8,33.8z M54.4,39.4c-0.1,0.1-0.1,0.1-0.2,0.2
					C54.4,39.7,54.4,39.6,54.4,39.4z M51.5,39.7C51.5,39.6,51.5,39.6,51.5,39.7c-0.1-0.1-0.2-0.1-0.2-0.1v0.1
					C51.3,39.7,51.4,39.7,51.5,39.7z M50.6,32.9c-0.1,0.1-0.1,0.1-0.2,0.2C50.6,33.2,50.6,33.1,50.6,32.9z M56.1,33.9L56.1,33.9
					C56.1,33.9,56,33.9,56.1,33.9C56,34,56.1,34,56.1,33.9L56.1,33.9z M57,34.7L57,34.7c-0.1-0.1-0.1-0.1-0.2-0.1c0,0,0,0,0,0.1
					C56.9,34.7,56.9,34.7,57,34.7z M55.3,32.5L55.3,32.5c0-0.1,0-0.1,0-0.2l0,0C55.3,32.4,55.3,32.5,55.3,32.5z M50.5,46.8
					L50.5,46.8c0-0.1,0-0.1,0-0.2l0,0C50.5,46.7,50.5,46.7,50.5,46.8z M53.7,36.1C53.6,36.1,53.6,36.1,53.7,36.1c-0.1,0-0.1,0-0.2,0
					C53.5,36.1,53.5,36.1,53.7,36.1C53.6,36.2,53.6,36.1,53.7,36.1z M53.4,35.6L53.4,35.6c0,0.1,0,0.1,0,0.2
					C53.5,35.7,53.5,35.7,53.4,35.6C53.5,35.6,53.5,35.6,53.4,35.6z M53.4,34.9L53.4,34.9c0,0.1,0,0.1,0,0.2
					C53.5,35,53.5,35,53.4,34.9C53.5,34.9,53.5,34.9,53.4,34.9z M48.8,35.6L48.8,35.6C48.8,35.5,48.8,35.5,48.8,35.6L48.8,35.6
					L48.8,35.6z M48.3,34.8L48.3,34.8C48.2,34.7,48.2,34.7,48.3,34.8C48.2,34.7,48.2,34.8,48.3,34.8C48.2,34.8,48.3,34.8,48.3,34.8z
					 M53.8,43.5L53.8,43.5c0-0.1,0-0.1,0-0.2l0,0C53.8,43.4,53.8,43.4,53.8,43.5z M49.6,34.1C49.6,34.1,49.7,34.1,49.6,34.1
					c0-0.1,0-0.1,0-0.2l0,0C49.6,34,49.6,34.1,49.6,34.1z M54.4,37.7L54.4,37.7c-0.1,0-0.1,0-0.2,0C54.3,37.7,54.3,37.8,54.4,37.7
					C54.4,37.8,54.4,37.7,54.4,37.7z M48.6,41.5C48.5,41.5,48.5,41.5,48.6,41.5C48.5,41.5,48.5,41.5,48.6,41.5
					C48.5,41.5,48.5,41.6,48.6,41.5C48.5,41.6,48.6,41.5,48.6,41.5z M51.6,32.8L51.6,32.8C51.6,32.8,51.5,32.8,51.6,32.8
					C51.5,32.8,51.5,32.8,51.6,32.8C51.5,32.8,51.5,32.8,51.6,32.8z M57.2,33.2L57.2,33.2L57.2,33.2C57.3,33.2,57.2,33.2,57.2,33.2
					L57.2,33.2z M49.6,37.5L49.6,37.5C49.5,37.5,49.5,37.5,49.6,37.5C49.5,37.5,49.5,37.6,49.6,37.5L49.6,37.5z M51,42.4L51,42.4
					C51,42.4,50.9,42.4,51,42.4C50.9,42.5,51,42.5,51,42.4C51,42.5,51,42.5,51,42.4z M55.7,42.2C55.7,42.3,55.7,42.3,55.7,42.2
					C55.7,42.3,55.7,42.3,55.7,42.2L55.7,42.2L55.7,42.2z M47.1,43.3C47,43.3,47,43.3,47.1,43.3C47,43.3,47,43.3,47.1,43.3
					C47,43.4,47,43.4,47.1,43.3C47,43.4,47,43.4,47.1,43.3z M55,44L55,44C54.9,44,54.9,44,55,44C54.9,44.1,54.9,44.1,55,44
					C55,44.1,55,44.1,55,44z M54.9,39.9C54.9,39.9,54.9,40,54.9,39.9C55,40,55,39.9,54.9,39.9C55,39.9,55,39.9,54.9,39.9L54.9,39.9z
					 M46.6,41.9C46.6,41.9,46.5,41.9,46.6,41.9C46.5,41.9,46.5,41.9,46.6,41.9C46.5,42,46.5,42,46.6,41.9
					C46.5,42,46.6,41.9,46.6,41.9z M52.2,32.6C52.2,32.7,52.2,32.7,52.2,32.6C52.2,32.7,52.2,32.7,52.2,32.6
					C52.2,32.7,52.2,32.7,52.2,32.6C52.2,32.7,52.2,32.7,52.2,32.6z M56.7,34.5L56.7,34.5C56.7,34.4,56.7,34.4,56.7,34.5
					C56.6,34.5,56.6,34.5,56.7,34.5C56.6,34.5,56.6,34.5,56.7,34.5z M48.2,37L48.2,37C48.2,37.1,48.2,37.1,48.2,37
					C48.2,37.1,48.3,37,48.2,37C48.3,37,48.2,37,48.2,37z M47.9,43.6L47.9,43.6C47.8,43.6,47.8,43.6,47.9,43.6
					C47.8,43.7,47.8,43.7,47.9,43.6C47.9,43.7,47.9,43.7,47.9,43.6z M53,34.5C53,34.5,53.1,34.5,53,34.5
					C53.1,34.5,53.1,34.5,53,34.5C53.1,34.5,53.1,34.5,53,34.5L53,34.5z M55.8,37.8L55.8,37.8L55.8,37.8L55.8,37.8L55.8,37.8z
					 M47.1,42.1L47.1,42.1L47.1,42.1C47.1,42.2,47.1,42.2,47.1,42.1C47.1,42.2,47.1,42.1,47.1,42.1z"/>
				<path class="st0" d="M45.3,38.5c-0.2-0.2-0.4-0.1-0.7-0.1c-0.1,0-0.3,0-0.4,0c-0.1,0.1-0.1-0.1-0.2,0c-0.1,0.1-0.1,0.2-0.2,0.3
					c0.1,0.1,0.2,0.1,0.3,0.2l0,0c0.2,0,0.4,0.1,0.6,0.1c0.1-0.3,0.4-0.2,0.6-0.2C45.4,38.7,45.4,38.6,45.3,38.5z"/>
				<path class="st0" d="M51.5,47.2c0.1-0.1-0.2-0.1,0-0.3c0,0,0-0.2,0-0.3c-0.2-0.2-0.1-0.4-0.2-0.6c0,0-0.2-0.4-0.3-0.5h-0.1
					c0.1,0.3,0.3,0.5,0.3,0.8l0.1,0.1c0.1,0.2,0.1,0.2,0,0.5c-0.1,0.2-0.1,0.4-0.2,0.5c0.1,0,0.1,0,0.1,0s0.1,0,0.2,0
					c0-0.2-0.1-0.3-0.1-0.5C51.3,47.2,51.4,47.2,51.5,47.2z"/>
				<path class="st0" d="M45.4,41.2c-0.1,0-0.2,0-0.3,0c0,0.1-0.1,0.2,0.1,0.3c0.1,0,0.1,0.1,0.2,0.2c0.1-0.1,0.2-0.1,0.2-0.2
					C45.5,41.4,45.5,41.3,45.4,41.2z"/>
				<path class="st0" d="M49.7,46.8C49.7,46.7,49.6,46.7,49.7,46.8c0-0.1,0-0.2,0.1-0.2c0-0.2-0.2-0.3-0.3-0.4c0,0-0.1,0-0.1,0.1
					s0.1,0.2,0.1,0.3s-0.1,0.2-0.1,0.4C49.5,46.9,49.6,46.8,49.7,46.8z"/>
				<path class="st0" d="M54,45.6c0,0.2-0.1,0.4,0.3,0.5c0-0.2,0-0.3,0-0.5C54.1,45.6,54,45.6,54,45.6z"/>
				<path class="st0" d="M45.7,42.8c0.1,0,0.2,0,0.2,0c0.1,0,0.2-0.1,0.2-0.2c0-0.1-0.1-0.1-0.1-0.2c-0.1,0.1-0.3,0.2-0.4,0.3
					C45.7,42.7,45.7,42.8,45.7,42.8z"/>
				<path class="st0" d="M48.7,47c0.1-0.2,0.1-0.3,0.2-0.4c0-0.1-0.1-0.1-0.1-0.2h-0.1c0,0.1-0.1,0.1-0.1,0.2
					C48.5,46.7,48.6,46.8,48.7,47z"/>
				<path class="st0" d="M48.5,45.4c-0.1,0-0.2,0-0.3,0v0.1c0.1,0.1,0.2,0.2,0.3,0.3C48.5,45.7,48.5,45.5,48.5,45.4z"/>
				<path class="st0" d="M48.4,45.4c0.5,0,0.5,0,0.6-0.2C48.8,45.3,48.6,45.3,48.4,45.4z"/>
				<path class="st0" d="M59.1,37.5c-0.2-0.2-0.2-0.2-0.4,0C58.9,37.7,58.9,37.7,59.1,37.5z"/>
				<path class="st0" d="M58.1,34.6c0.1,0,0.2-0.1,0.3-0.1v-0.1c-0.1,0-0.1-0.1-0.2,0C58.2,34.3,58.1,34.4,58.1,34.6
					C58,34.5,58.1,34.5,58.1,34.6z"/>
				<path class="st0" d="M54.5,45.7c0,0.1,0,0.2,0,0.3l0.1,0.1l0.1-0.1C54.7,45.8,54.6,45.8,54.5,45.7z"/>
				<path class="st0" d="M44.9,41.2C45,41.1,45,41,45,40.9c0,0-0.1-0.1-0.1,0C44.8,41,44.9,41.1,44.9,41.2z"/>
				<path class="st0" d="M49.9,47.3C50,47.4,50,47.4,49.9,47.3h0.2C50.1,47.3,50.1,47.2,49.9,47.3C50.1,47.2,50,47.3,49.9,47.3z"/>
				<path class="st0" d="M56.5,31.8c0,0.1,0,0.2,0,0.4c0,0,0,0,0.1,0C56.6,32,56.6,31.9,56.5,31.8C56.6,31.8,56.6,31.8,56.5,31.8z"
					/>
				<path class="st0" d="M51.6,47.3c0,0,0.1,0.1,0.2,0.1C51.8,47.1,51.6,47.3,51.6,47.3z"/>
				<path class="st0" d="M57.6,32.2c0.1-0.1,0.1-0.1,0.1-0.2c0,0,0-0.1-0.1-0.1L57.5,32C57.5,32.1,57.6,32.1,57.6,32.2z"/>
				<path class="st0" d="M44.2,37.9c0.1,0,0.1,0.1,0.2,0.1C44.4,37.9,44.4,37.9,44.2,37.9z"/>
				<path class="st0" d="M57.6,42.1C57.7,42.2,57.7,42.2,57.6,42.1C57.8,42.1,57.7,42.1,57.6,42.1z"/>
				<path class="st0" d="M52.6,45L52.6,45C52.7,45,52.7,45,52.6,45z"/>
				<path class="st0" d="M48.1,33.8C48.1,33.8,48.1,33.7,48.1,33.8c-0.1-0.1-0.1-0.1-0.2-0.1v0.1C48,33.8,48,33.8,48.1,33.8
					L48.1,33.8z"/>
				<path class="st0" d="M53.4,46.9L53.4,46.9C53.5,46.9,53.5,46.9,53.4,46.9z"/>
				<path class="st0" d="M44.9,38.2c0-0.1,0-0.2,0-0.2l-0.1,0.1C44.9,38.1,44.9,38.1,44.9,38.2z"/>
				<path class="st0" d="M58.9,37C58.8,37,58.8,37,58.9,37c-0.1-0.1-0.1-0.1-0.2,0v0.1C58.8,37.1,58.8,37,58.9,37z"/>
				<path class="st0" d="M44.5,37.2c0.1,0,0.1,0,0.2,0c0,0,0,0,0-0.1C44.6,37.2,44.6,37.2,44.5,37.2L44.5,37.2z"/>
				<path class="st0" d="M50.8,31.7c0,0.1,0,0.2,0,0.2l0.1-0.1C50.8,31.8,50.8,31.8,50.8,31.7z"/>
				<path class="st0" d="M50.9,31.8c0.1,0,0.2,0,0.2,0L51,31.7C51,31.7,51,31.8,50.9,31.8z"/>
				<path class="st0" d="M48.6,45.2L48.6,45.2C48.6,45.1,48.6,45.1,48.6,45.2C48.6,45.1,48.5,45.1,48.6,45.2
					C48.5,45.2,48.5,45.2,48.6,45.2z"/>
				<path class="st0" d="M54.2,47C54.1,47,54.1,46.9,54.2,47C54.1,47,54.1,47,54.2,47C54.1,47,54.1,47.1,54.2,47
					C54.1,47.1,54.1,47,54.2,47z"/>
				<path class="st0" d="M44.3,38.2L44.3,38.2C44.2,38.2,44.2,38.2,44.3,38.2C44.2,38.2,44.2,38.2,44.3,38.2
					C44.3,38.3,44.3,38.2,44.3,38.2z"/>
				<path class="st0" d="M58.4,37.7C58.5,37.6,58.5,37.6,58.4,37.7C58.4,37.6,58.4,37.6,58.4,37.7C58.4,37.6,58.4,37.6,58.4,37.7
					C58.4,37.6,58.4,37.7,58.4,37.7z"/>
				<path class="st0" d="M58.3,39.6C58.3,39.5,58.3,39.5,58.3,39.6C58.3,39.5,58.3,39.5,58.3,39.6C58.2,39.5,58.2,39.5,58.3,39.6
					C58.2,39.5,58.3,39.5,58.3,39.6z"/>
				<path class="st0" d="M53.5,45.8L53.5,45.8C53.5,45.9,53.5,45.9,53.5,45.8C53.5,45.9,53.6,45.9,53.5,45.8
					C53.6,45.8,53.6,45.8,53.5,45.8z"/>
				<path class="st0" d="M55.2,31.6C55.2,31.6,55.1,31.6,55.2,31.6C55.1,31.5,55.1,31.6,55.2,31.6C55.1,31.6,55.1,31.6,55.2,31.6
					C55.1,31.6,55.2,31.6,55.2,31.6z"/>
				<path class="st0" d="M52.9,37.2c0.2,0.1,0.3,0,0.4-0.2C53.1,37,53.1,37,52.9,37.2z"/>
			</g>
		</g>
	</g>
</g>
</svg>
