<?xml version="1.0" encoding="utf-8"?>
<!-- Generator: Adobe Illustrator 28.0.0, SVG Export Plug-In . SVG Version: 6.00 Build 0)  -->
<svg version="1.1" id="Layer_1" xmlns="http://www.w3.org/2000/svg" xmlns:xlink="http://www.w3.org/1999/xlink" x="0px" y="0px"
	 viewBox="0 0 301.3 126.3" style="enable-background:new 0 0 301.3 126.3;" xml:space="preserve">
<style type="text/css">
	.st0{fill:#565656;}
	.st1{fill:#E9E7E5;}
</style>
<g>
	<g>
		<path class="st0" d="M151.8,8.5c0.1-0.3,0.2-0.5,0.2-0.6c0.3-1.2,0.7-2.3,1.4-3.3c0.1-0.3,0.7-0.8,1.5-1.5
			c0.1-0.1,0.3-0.3,0.6-0.6c0.8-0.8,1.9-1.5,3-1.7c0.8-0.2,1.5-0.4,2.2-0.7c0.2-0.1,0.4,0,0.7,0.1c0.1,0,0.1,0.1,0.1,0.1l1.5,0.2
			c0.1,0,0.1,0,0.1,0.1c0.4,0.4,0.8,0.8,1.4,1.1c0.9,0.5,1.2,1,1.7,1.8c0.5,0.8,1,1.1,1.1,2.1c0.1,1,0.4,1.9,0.4,2.8
			c0.1,1,0.1,2.1,0,3.1c0,0.3-0.1,0.7-0.3,1c-0.4,0.8-0.9,1.3-1.7,1.7c-0.5,0.3-0.9,0.6-1.5,0.7c-0.3,0.1-0.7,0.1-1.1,0.2
			c-0.6,0.1-1.2,0.2-2.2,0.2c-0.2,0-0.4-0.1-0.6-0.1c-0.6-0.3-1.3-0.3-1.9-0.6c-0.1-0.1-0.3-0.2-0.6-0.4c-0.6-0.4-1.2-0.7-1.1-1.5
			c0-1-0.1-2.1-1.5-1.9c-0.1,0-0.1,0.1-0.1,0.1c-0.2,0.6-0.3,1.2-0.2,1.9c0.1,1,0.1,2.2-0.2,3.5c-0.1,0.5-0.1,1,0.1,1.7
			c0,0.1,0.1,0.1,0.1,0.1h0.1c0.1,0,0.1,0,0.1,0c0.5,0.3,0.8,0.2,1.2,0.2c2.4,0.1,3.9,0.1,4.5,0.1c1.6-0.1,2.8-0.2,3.8-0.1
			c1.2,0.1,2.2,0.1,3-0.1s1.9,0.1,2.8,0.1c0.9,0,1.8,0,2.8,0.1c1.2,0.1,2.3,0.1,3.4,0c0.7,0,1.6-0.1,2.4-0.1
			c1.9,0.1,3.8,0.1,5.7,0.1c0.2,0,0.6,0,0.9,0.1c0.8,0.1,1.5,0,2.3-0.3c0.1,0,0.1,0,0.1,0c0.3,0,0.6-0.1,0.8-0.3
			c0.6-0.4,0.8-1,0.6-1.7c0-0.1-0.1-0.4-0.3-0.8c0-0.1,0-0.1,0-0.1c0.1-0.3,0.3-0.5,0.5-0.6c0.2-0.1,0.4-0.1,0.7-0.1
			c1.1,0.3,1.6,0.9,2.2,1.7c0,0.1,0.1,0.1,0.1,0.1c0,0.4-0.2,1-0.3,1.4c-0.1,0.6-0.1,1-0.1,1.1c-0.4,1.4-1.2,2-2.4,3
			c-0.8,0.6-1.7,1.2-2.5,1.7c-0.3,0.2-0.8,0.3-1.3,0.3c-1.5,0.1-3,0.3-4.4,0.3c-1.8,0-3.6,0-5.3-0.1c-1.4-0.1-2.7,0.1-4,0.6
			c-1,0.3-1.9,1-2.6,1.4c-0.8,0.3-1.2,1-1.3,1.8c-0.1,0.7-0.6,1.7-0.4,2.8c0.1,0.8,0,1.4-0.1,2.1c-0.1,0.4-0.3,0.6-0.6,0.9
			c-0.1,0.1-0.1,0.1-0.1,0c-0.9-0.5-1.6-1.2-2-2.1c0-0.1-0.1-0.1-0.1-0.1c-0.4-0.3-0.6-0.4-0.8-1c-0.3-0.7-0.8-0.9-1.2-1.4
			c-0.4-0.4-0.8-0.8-1.2-1.2c-0.8-0.6-1.4-1.2-2.1-1.7c-0.5-0.3-1-0.6-1.6-0.8c-0.1-0.1-0.5-0.1-1-0.3c-0.5-0.1-1-0.3-1.4-0.6
			c-0.1,0-0.1,0-0.1,0c-0.1,0.1-0.2,0.1-0.3,0.1c-0.1-0.1-0.2,0-0.3,0.1v0.1c-0.1,2.4-0.1,4.7-0.1,7c0,0.6,0.1,1.5,0.1,2.9
			c0.1,1.9,0.1,3.7,0,5.6c-0.1,1.2-0.1,2.1-0.1,2.9c-0.1,2.5-0.3,5-0.3,7.4c0,3.7-0.1,7.3,0.1,11c0.1,2.5,0.1,5.1,0.1,8.1
			c0,1-0.1,1.9-0.1,2.8c0,2,0,3.9,0,5.9c0,0.3-0.1,0.6-0.1,0.9c0,2.7,0.1,5.4-0.1,8c-0.1,1.2,0.1,2.4,0.1,3.4c0,0.7,0.1,1.3,0.1,2
			c0.1,0.6,0.1,1.2,0.1,1.7c0,0.8,0,1.5,0.1,2.2c0.1,1,0.4,2.1,0.8,3c0.1,0.3,0.1,0.9,0.1,1.8c0,0.6,0.2,1.7,0.6,2.4
			c0.3,0.7,0.8,1.5,1.1,2.1c0.2,0.5,0.4,0.8,0.6,1c0.3,0.4,0.6,0.7,0.8,0.8c0.6,0.3,0.7,0.4,1.2,1c0.3,0.3,0.5,0.4,0.9,0.6
			c0.5,0.1,0.8,0.6,1,0.8c0.2,0.1,0.5,0.2,0.8,0.2c0.3,0,0.7,0.1,1,0.1c1,0.1,2.1,0,3-0.3c0.7-0.3,1.7-0.7,2.9-1.4
			c0.6-0.3,1.1-0.6,1.7-0.7c0.9-0.3,1.8-0.5,2.7-0.7c0.1,0,0.3-0.1,0.7-0.2c0.4-0.1,0.8-0.1,1.1,0.1c0.3,0.2,0.6,0.5,0.8,0.9
			c0.2,0.3,0.3,0.7,0.3,1.1c-0.1,1.2-0.4,1.9-1.2,2.8c-0.6,0.6-1.1,1.2-1.7,1.9c-0.1,0.2-0.3,0.3-0.6,0.5c-0.6,0.3-1.2,0.7-1.8,1.1
			c-0.3,0.3-0.7,0.4-1,0.6c-1.2,0.5-2.4,0.9-3.6,1.3c-0.6,0.2-1.3,0.2-1.7,0.3c-0.6,0.1-1.2,0.3-1.8,0.3c-0.7,0-1.3,0.4-1.9,0.7
			c-0.8,0.4-1.7,0.6-2.5,1c-0.3,0.2-0.8,0.6-1.2,1c-0.5,0.5-0.9,0.9-1.3,1.5c-0.3,0.3-0.5,0.7-0.8,1c-0.7,0.8-1.1,1.7-2.1,2.2
			c-0.5,0.3-0.9,0.6-1.4,0.8c-0.3,0.2-0.7,0.2-1,0.3c-0.6,0.1-1,0-1.5-0.2c-1.8-0.8-3.2-2-4.3-3.6c-0.4-0.7-0.8-1.1-0.9-1.3
			c-1-1.2-1.8-2.1-2.5-2.7c-0.4-0.3-1.1-0.8-2.1-1.3c-0.3-0.1-0.7-0.1-1-0.3c-0.4-0.2-0.8-0.3-1.2-0.5c-0.5-0.1-1-0.1-1.5-0.1
			c-0.8-0.1-1.6-0.1-2.2-0.1c-0.7,0.1-1.2,0.1-1.5,0.1s-0.4,0.1-0.8,0.1c-0.4-0.1-0.8-0.1-1.2-0.3c-0.2-0.1-0.3-0.1-0.6-0.3
			c-0.3-0.3-0.8-0.4-1.1-0.6c-1.2-1-2.2-2.2-3-3.6c-0.4-0.7-0.1-1.5-0.1-2.1c0-0.1,0-0.1,0-0.1c0.3-0.6,0.9-1.2,1.5-1.5
			s1.4-0.3,2.1-0.3c0.8,0,1.3,0.3,2,0.7c0.3,0.1,0.8,0.2,1.1,0.3c0.5,0.2,0.8,0.8,1.2,1c1,0.3,2.1,0.6,3.4,0.6c0.2,0,0.5,0,0.8-0.1
			c0.5-0.1,1-0.3,1.5-0.4c0.3-0.1,0.6-0.1,0.8-0.3c0.7-0.4,1.6-0.8,2.2-1.3c0.8-0.8,1.7-1.5,2.4-2.4c0.4-0.5,1-1.3,1.2-1.9
			c0.3-1,0.6-1.9,0.9-2.9c0-0.1,0-0.1,0-0.1c-0.1-0.1-0.1-0.1-0.1-0.2c0-0.3,0-0.7-0.1-1.2c-0.1-0.8-0.1-1.7-0.1-2.8s-0.1-2-0.1-2.8
			c-0.1-1.5-0.1-3-0.1-4.5c0-0.6,0.1-1.4,0.1-2.3c0.1-1,0.1-2,0.3-3c0.5-2.3,0.8-4.4,0.8-6.3c0.1-1.2,0.1-3.8,0-7.9
			c0-1.1-0.3-2.2-0.3-3.3c0-1.2-0.1-2.1-0.1-2.7c-0.1-0.5-0.1-0.9-0.1-1.2c-0.2-2.3-0.5-4.6-0.8-6.9c-0.1-1.1-0.2-2.2-0.1-3.3
			c0.1-1.3,0.1-2,0.1-2.1c0-1.3,0.1-2.6,0.1-3.9c0-1,0.1-2.5,0.1-3.7c0-0.5,0.1-0.9,0.1-1.4c0-1,0.2-2.1,0.2-3.1c0-2,0-4.1,0-6.1
			c0-0.4,0.1-1,0.1-1.5c0-1.2,0-2.4,0-3.5c0-0.4-0.1-0.8-0.1-1.1c-0.2-1-0.2-2.1-1.7-1.3c-0.4,0.2-1,0.6-1.9,1
			c-0.6,0.3-0.9,0.7-1.5,1.3s-1.2,1.2-1.9,1.7c-0.3,0.2-0.6,0.4-0.7,0.6c-1,1.2-2.1,2.2-3,3.4c-0.8,1-1.8,1.7-2.6,2.4
			c0,0-0.1,0.1-0.1,0c-0.6-0.6-0.8-1.2-0.8-2c0.1-0.9,0.3-1.9,0.7-3.1c0.1-0.6,0.2-1.1,0.3-1.7c0.1-0.2,0.1-0.5,0-0.7
			c-0.2-1.2-0.2-2.5-1.2-3.3c-0.3-0.2-0.6-0.3-1-0.4c-1.2-0.2-2.4-0.2-3.6,0.1c-0.2,0.1-0.6,0.1-1.2,0.1c-0.9,0-1.7,0.2-2.6-0.1
			c-0.8-0.2-1.7,0-2.4-0.1c-0.1,0-0.5-0.1-1-0.3c-0.5-0.1-2.4,0.4-3,0.6c-0.5,0.1-1.5,0.1-3,0c-1.8-0.1-3.4-0.6-4.9-1.5
			c-0.8-0.5-1.7-2.3-1.9-3.2c-0.3-1.2-0.3-2.4,0.1-3.5c0.7-1.6,1.9-2.3,3.6-1.9c0.3,0.1,0.8,0,1.2,0.3c0.1,0.1,0.1,0.1,0.1,0.1
			c0,0.5-0.2,0.8-0.2,1.2c0,0.6-0.1,1.5,0.3,2c0.5,0.6,1.2,0.6,2,0.7c0.7,0.1,1.4,0.1,2.1,0.1c0.3,0,0.6,0,1,0.1
			c0.5,0.1,0.9,0.1,1.2,0.1c1.3-0.3,2.6-0.4,3.9-0.4c0.2,0,0.4,0,0.7,0.1c1,0.1,1.9-0.5,3-0.5c0.3,0,0.6,0,0.9-0.1
			c0.8-0.1,1.7-0.4,2.5-0.4c1,0.1,2,0.1,3.1-0.1c0.4-0.1,1-0.1,1.4-0.1c1,0.3,1.8,0.1,2.7,0.1c0.8-0.1,1.5,0.2,2.4,0.2
			c0.5,0,1,0,1.5,0.1c0.8,0.2,1.4,0.1,2.1,0.3c0.7,0.1,1.4,0.2,2.1,0.1c0.7-0.1,1.2-0.1,1.7-0.1c0.1,0,0.1,0,0.1-0.1
			c0.2-0.4,0.4-0.8,0.6-1.3c0.1-0.4,0.2-0.8,0.2-1.4c0.1-1.6,0.1-3.2-0.6-4.6c0-0.1-0.1-0.1-0.1-0.1c-0.3-0.1-0.7-0.1-1-0.1
			c-0.1,0-0.1,0-0.1,0.1c-0.3,0.5-0.3,1-0.2,1.5c0.1,0.4,0.1,0.6,0.1,0.8c-0.1,0.8-0.5,1.5-1.2,1.9c-0.8,0.6-2.6,1-3.4,0.8
			c-0.3-0.1-0.6-0.1-0.7-0.1c-1.5-0.1-3.1-0.8-4.1-1.9c-0.3-0.3-0.3-0.8-0.5-1.2c0-0.1-0.1-0.3-0.3-0.7c-0.3-0.6-0.1-1.5-0.1-2.1
			c0-1.7,0.6-3,1.8-4.2c1-1,1.8-1.7,2.2-2.1c0.7-0.7,1.7-1,2.6-1.5c0.5-0.3,1-0.5,1.3-0.6c1.5-0.4,3-0.4,4.6-0.1
			c1.1,0.3,1.6,1,2.4,1.6c0.3,0.2,0.4,0.4,0.5,0.7c0.2,1,0.4,1.8,0.6,2.8C151.5,6.8,151.6,7.6,151.8,8.5
			C151.7,8.5,151.7,8.5,151.8,8.5z M162.3,10.7c-0.6-0.6-0.8-1.6-1.8-1.7c-0.8-0.1-3.1,0-3,1.2c0.1,0.6,0.4,1,0.9,1.5
			c0.8,0.7,3,2,3.9,1c0.3-0.4,0.2-1.3,0.2-1.8C162.4,10.8,162.4,10.8,162.3,10.7z M143.8,11.6c0.3-0.3,0.1-0.9,0.3-1.1
			c0.1-0.1,0.1-0.1,0.1-0.1c-0.1-1.2-1.4-0.8-2.1-0.6c-0.3,0.1-0.6,0.3-0.8,0.6c0,0.1-0.1,0.1-0.1,0.1c-0.6,0.1-1,0.6-1.3,1
			c-0.7,0.8-0.5,1.5,0.6,1.6C141.8,13.1,143,12.6,143.8,11.6z"/>
		<path class="st0" d="M46,67.6c0,0.1,0.1,0.2,0.3,0.2c0.1,0,0.1-0.1,0.2-0.1c0.1-0.4,0.2-0.8,0.2-1.2c0-1.2,0.1-2.4,0.1-3.6
			c0-1-0.1-1.9-0.2-3c-0.1-0.4-0.1-0.8-0.1-1.2c-0.1-2.7-0.1-4.7,0.1-5.9c0.1-0.6,0.1-1.2,0-1.7c-0.1-0.8-0.1-1.3-0.1-1.5
			c0-2.1-0.1-4.1,0.1-6.2c0.1-1,0.1-1.7,0.1-2.2c0-3.9,0-7.7,0.1-11.6c0-1.1,0-2.1,0-3.2c0-0.5-0.1-1.6-0.4-2
			c-0.3-0.4-0.6-0.9-1-1.2c-0.4-0.4-0.8-0.8-1.2-1.2c-0.6-0.6,0.1-1.5,0.7-1.8c0.5-0.3,1-0.6,1.4-0.9c0.3-0.3,0.7-0.4,1.1-0.6
			c0.8-0.2,1.5-0.3,2.3-0.3c0.6,0,1-0.1,1.5-0.1c1.2-0.1,2.4,0.1,3.5,0.1c0.3,0,0.8,0.4,1.1,0.5c0.2,0.1,0.5,0.1,0.7,0.2
			c0,0,0.1,0,0.1,0.1l0.9,1.6c0,0.1,0,0.1,0,0.1c-0.6,0.7-1.3,1.2-1.8,2c-0.3,0.6-1,1-0.9,1.7c0.1,0.6,0.1,1.3,0.1,2
			c-0.3,2.8,0.1,5.3,0.1,7.9c0,0.4,0.1,0.8,0.1,1.2c0,1.5,0.1,3.1,0.1,4.6c0,0.6,0.1,1.2,0.1,1.8c0.1,0.8,0.1,1.6,0.1,2.4
			c0,5.3,0.1,10.4-0.4,16c-0.1,0.9-0.1,1.9-0.1,2.8c-0.1,1.2-0.1,2.6-0.1,3.8c0,3.6,0.1,7.2-0.1,10.7c-0.1,1.3-0.3,5.2,0.9,6.1
			c0.7,0.6,1.5,0.6,2.3,0.7c0.7,0.1,1.6,0.5,2.1-0.2c0.4-0.6,0.8-1.2,0.9-1.9c0.2-1,0.5-1.9,0.9-2.9c0.1-0.3,0.3-0.7,0.3-1
			c0.2-0.8,0.6-1.5,0.3-2.3c0-0.1-0.1-0.1-0.1-0.1c-0.7-0.3-1.2-0.7-1.5-1.2c-0.5-0.8-1.7-1.2-1.8-2.4c-0.1-0.6,0.1-1.1,0.5-1.6
			c0.3-0.3,0.6-0.7,0.9-1c0.2-0.3,0.6-0.4,1-0.5c0.3-0.1,0.8-0.3,1.2-0.1c0.1,0,0.3-0.1,0.4,0c0.4,0.1,0.8,0.1,1.2-0.1
			c0.1,0,0.1-0.1,0.1-0.1c0.1-0.1,0.1-0.3,0.3-0.5c0.1-0.2,0.2-0.3,0.3-0.4c0.5-1,1.2-2.1,1.6-3.1c0.6-1.2,1-2.5,1.5-3.7
			c0.5-1.6,0.8-2.4,0.8-2.4c0.3-1.1,0.8-2.1,1.1-3.2c0.2-0.6,0.4-1.3,0.6-2.1c0.2-1,0.5-1.9,0.7-2.9c0.1-0.4,0.3-0.9,0.5-1.5
			c0.7-1.9,1.5-4.4,2.4-7.4c0.1-0.5,0.6-1.5,1.2-3.1c0.1-0.3,0.3-0.8,0.6-1.2c0.3-0.6,0.6-1.2,1.1-1.9c0.3-0.4,0.8-0.5,1.2-0.5
			c0.1,0,0.1,0,0.1,0.1c0.7,0.8,1.1,1.7,1.4,2.6c0.1,0.3,0.1,0.6,0.3,0.8c0.7,1.2,1.2,2.6,1.7,3.9c0.3,0.9,0.4,1.5,0.5,1.8
			c0.3,0.8,0.5,1.6,0.8,2.4c0.5,1.3,0.9,2.8,1.4,4c0.8,2.1,1.5,4.5,2.3,6.6c0.6,1.5,1,3,1.5,4.5c0.1,0.1,0.2,0.5,0.4,1
			c0.2,0.4,0.3,0.9,0.5,1.3c0.4,0.8,0.7,1.8,1.1,2.6c0.3,0.7,0.8,1.3,1.2,1.9c0.3,0.3,0.5,0.6,0.9,0.8c0.8,0.3,1.4,0.7,2.1,0.9
			c0.6,0.1,1,0.3,1.2,0.3c1.2,0.5,1.8,1.3,1.7,2.6c-0.1,1.6-2.2,2.1-2.7,3.5c-0.3,0.8-0.2,1.6,0.3,2.4c0.2,0.3,0.4,0.8,0.6,1.4
			c0.3,1,0.8,1.7,1.2,2.7c0.1,0.3,0.3,0.7,0.8,1c0.1,0.1,0.3,0.3,0.5,0.6c0.3,0.3,0.6,0.6,1.1,0.8c1.9,0.6,3.7,0.9,5.6,0.8
			c1.2-0.1,3-0.2,4.4-0.4c0.8-0.1,2.2-0.6,2.6-1.3c0.3-0.8,0.6-1.5,0.8-2.5c0.1-0.6,0.2-1.1,0.3-1.6c0.2-1.6,0.3-3.7,0.3-4.8
			c0.1-1,0.1-2,0.2-3c0.1-1.2-0.1-2.6-0.1-3.6c0-2.7,0-4.6-0.1-5.8c-0.1-1.3-0.1-2.6,0-3.6c0.1-1.9,0.1-2.8,0.1-2.9
			c0-2.2,0-4.8-0.1-7.7c0-1-0.1-1.8-0.2-2.6c-0.1-0.5-0.1-1-0.1-1.4c0-0.8-0.1-1.5-0.1-1.8c-0.1-0.7-0.2-1.5-0.2-2.6
			c0-1.5,0-2.6,0.2-3.4c0.1-0.8,0.5-1.5,1.1-2c0.7-0.7,1.7-0.4,2.5-0.5c1.1-0.1,2.1,0.1,3.2,0c0.8,0,1.3-0.1,1.7-0.1
			c0.6,0,1.1,0,1.7,0c0.6,0,1.5,0.2,2.2,0.1c0.3,0,0.5,0,0.7,0.1c0.1,0,0.1,0.1,0.1,0.1c1.1-0.1,2.1,0.1,2.8,0.7
			c0.6,0.4,1.7,1.3,3.1,2.6c0.3,0.3,0.6,0.6,0.9,0.9c0.6,0.7,1,1.4,1.5,2c0.8,1.1,1,2.6,1.2,3.9c0.1,0.7,0.1,1.4,0.1,2.1
			c-0.1,2.1-0.3,3.7-0.8,5.8c-0.1,0.3-0.2,0.6-0.4,1c-0.5,0.8-0.9,1.5-1.4,2.2c-0.3,0.6-0.8,0.9-1.2,1.5c-0.5,0.6-1.2,1.2-1.6,1.7
			c-0.7,0.7-1,1.2-1.2,1.5c-0.2,0.3-0.3,0.8-0.4,1.3c-0.1,0.3-0.1,0.7,0,1c0.1,0.5,0.3,0.9,0.4,1.3c0.2,0.5,0.2,1,0.5,1.5
			c0.2,0.3,0.3,0.8,0.5,1.2c0.2,0.6,0.7,1.2,0.9,1.6c0.8,1.5,1.6,3,2.3,4.6c0.1,0.3,0.3,0.8,0.8,1.4c0.4,0.7,0.6,1.5,1,2.1
			c0.5,0.8,0.9,1.7,1.4,2.4c0.5,0.6,0.9,1.2,1.4,1.8c0.3,0.4,0.8,0.8,1.2,1.2c0.6,0.7,1.1,1.1,1.7,1.6c0.3,0.3,0.6,0.4,0.8,0.5
			c0.4,0.2,0.8,0.3,1.3,0.3c0.4,0.1,0.8,0.3,1,0.6c0.8,0.7,1.4,1.3,1.9,1.9c0.2,0.2,0.3,0.4,0.3,0.7c0,0.1,0,0.1,0,0.1
			c-0.2,0.4-0.4,0.9-0.8,1.2c-0.5,0.5-0.9,0.8-1.2,1c-0.1,0.1-0.4,0.1-0.8,0.1c-1.4,0.1-2.8,0-4.1,0c-0.6,0-1.5,0.1-2.6,0.2
			c-0.6,0.1-1.1-0.1-1.7-0.1c-0.7,0-1.5-0.1-2.4-0.2c-0.4-0.1-1,0-1.5-0.1s-1.2-0.2-1.7-0.2c-0.3,0-0.6,0-0.8-0.1
			c-0.7-0.3-1-0.8-1.6-1.1c-0.3-0.2-0.8-0.5-0.9-0.8c-0.5-0.8-1-1.7-0.1-2.5c0.8-0.6,2.1-0.3,3-0.4c0.1,0,0.1,0,0.1-0.1
			c1-0.9,0.8-1.8,0.8-3c0-0.3-0.1-0.7-0.1-1c-0.3-0.8-0.9-1.4-1.2-2.1c-0.4-1-0.9-1.9-1.4-2.6c-0.4-0.6-0.8-1.1-1-1.6
			c-0.3-0.5-0.5-0.8-0.7-1.2c-0.3-0.6-0.6-1.1-0.9-1.6c-0.4-0.6-0.8-1.2-1.2-1.9c-0.4-0.8-0.8-1.3-1.1-1.7c-0.4-0.6-0.8-1.1-1.2-1.7
			c-0.2-0.3-0.8-0.6-1.1-0.3c-0.4,0.4-0.3,1.7-0.4,2.3c-0.1,0.5-0.1,0.9-0.1,1.2c0,1.6-0.1,3.1-0.1,4.7c0,2.1,0.1,4.4,0,6.7
			c0,1.1,0.3,3.4,1.6,3.8c0.3,0.1,0.4,0.2,0.6,0.3c0.4,0.3,0.7,0.7,0.9,1.2c0.1,0.2,0.1,0.6,0,0.8c-0.3,1-1,1.7-1.9,2.1
			c-0.4,0.1-1.2,0.3-2.6,0.6c-0.3,0.1-0.8,0.3-1.1,0.3c-1.1,0.1-2.6,0.1-4.4,0.1c-0.6,0-1.2,0.2-1.7,0.3c-0.6,0.1-1.1,0.1-1.7,0.2
			c-1.7,0.2-3.5,0.1-5.3,0c-0.5,0-1-0.2-1.5-0.2c-1,0-2-0.1-2.9-0.1c-1.2,0-2.4,0-3.5-0.1c-1.5-0.1-3.3,0.1-5-0.1
			c-0.3,0-0.8-0.1-1.5-0.3c-0.3-0.1-0.7-0.1-1-0.2c-0.3-0.1-0.7-0.1-0.8-0.2c-0.6-0.3-1.1-0.9-1.4-1.7c0-0.1,0-0.1,0-0.1
			c0.2-0.8,0.8-1,1.2-1.5c0.4-0.5,1.5-1.2,1.5-1.9c0-1.2,0.1-2.4,0.1-3.7c0-0.1,0.1-0.6,0.1-1.3c0.1-0.6,0.1-1.4-0.2-1.9
			c-0.2-0.3-0.5-0.6-0.8-0.9c0-0.1-0.1-0.1-0.1-0.1c-0.3,0-0.8,0-1.3,0.1c-0.2,0.1-0.6-0.1-0.8,0c-1.7,0.3-3.2,0.2-5.3,0.2
			c-0.1,0-1-0.1-2.8-0.1c-1.1-0.1-2.3,0.1-3.4-0.1c-1.3-0.2-2.6-0.2-3.9-0.1c-0.6,0.1-1,0.1-1.3,0.3c-0.6,0.3-1,2.6-1.2,3.2
			c-0.1,0.8-0.2,1.3-0.2,1.7c0,0.6,0.1,1.1,0.2,1.7c0.1,0.6,0.5,1.1,1,1.4c0.3,0.2,0.7,0.3,1,0.6c0.8,0.3,1.5,0.9,2.1,1.3
			c0.6,0.3,0.8,0.9,0.5,1.6c-0.3,0.8-0.8,1.1-1.6,1.2c-2.6,0.5-4.6,0.8-6.1,0.9c-1,0.1-1.7,0.1-2.3,0.2c-0.8,0.1-1.6,0.1-2.4,0.1
			c-0.8,0.1-1.5,0-2.2-0.1c-0.9,0-1.7-0.1-2.6-0.1c-0.6,0-1.1-0.1-1.3-0.1c-1.2-0.1-2.4-0.1-3.5-0.2c-0.6-0.1-1.2-0.1-1.8-0.3
			c-0.6-0.2-1.2-0.5-1.6-0.8c-0.5-0.3-1-0.7-1.5-1.2c-0.6-0.6-1-1.2-1.4-1.7c-0.6-1-1.2-2.1-1.8-3c-0.5-0.8-0.9-1.5-1.1-2.2
			c-1-3.2-2.1-6.3-3.3-9.4c-0.1-0.2-0.3-0.6-0.7-1.2c-0.3-0.4-0.5-0.8-0.6-1.2c-1.2-3-2.5-5.9-3.8-8.8c-0.2-0.5-0.4-1.1-0.6-1.9
			c-0.2-0.7-0.4-1.3-0.6-1.9c-0.5-1.1-1-2.3-1.5-3.4c-1-2.4-1.9-4.9-2.9-7.3c-0.3-0.6-0.5-1.8-1-2.3c-0.2-0.2-0.6-0.1-0.6,0.1
			c-0.1,0.3-0.2,0.6-0.2,1c0,0.5,0,0.9-0.1,1.4c-0.1,0.7-0.1,1.1-0.1,1.4c0,1.1,0.1,2.1,0.1,3.3c0,1,0.1,1.9,0.2,2.9
			c0.1,0.8,0.2,1.3,0.2,1.8c0.1,1,0.1,2.1,0.1,3.2c0,0.3-0.1,1-0.1,2.3c-0.1,1,0,2.1-0.1,3c-0.1,1.9-0.1,3.7-0.2,5.5
			c-0.1,1.4,0,2.8,0.1,4.1c0.1,0.7,0.1,1.2,0.1,1.8c0.1,0.8,0.1,1.6,0.1,2.4c0,0.6-0.1,1.2-0.1,1.8c0,1.9-0.6,4.1,1.4,5.4
			c0.2,0.1,0.7,0.3,1.5,0.6c0.2,0.1,0.4,0.2,0.6,0.3c0.3,0.3,0.9,0.7,1.1,1.2c0,0.1,0,0.1,0,0.1c-0.7,1.5-1.7,3-3.5,3
			c-0.5,0-0.8,0-1,0.1c-1,0.1-2.1,0.3-3,0.5c-2.5,0.3-4.6,0.2-6.8,0.2c-1.2,0-2.2-0.1-3.3-0.2c-0.8-0.1-1.5-0.3-2.1-0.5
			c-0.6-0.1-1.1-0.3-1.5-0.4c-0.5-0.1-1-0.3-1.4-0.6c-0.3-0.1-0.7-0.3-1-0.5c-1.2-0.4-2-0.8-2.4-1c-0.5-0.2-0.8-0.8-1-1
			c-0.6-0.6-1.2-1.3-1.6-2.1c-1-2.1-1.1-4.2-0.5-6.5c0.1-0.3,0.2-0.6,0.4-1c0.4-0.8,0.8-1.5,1.1-2.2c0.2-0.4,0.4-0.7,0.6-0.9
			c0.3-0.2,0.6-0.4,1-0.6C4.1,73.4,4.9,73,5.6,73c1,0.1,2.3,0.3,3.2,0.6c0.7,0.2,1.3,0.6,1.9,1.2c0.3,0.3,0.6,0.6,0.7,0.9
			c0.6,1,0.3,2.1,0.1,3.2c-0.1,0.6-0.5,1.4-0.9,1.8c-0.1,0.1-0.3,0.2-0.6,0.3c-0.4,0-0.8,0-1.2-0.1c-0.1,0-0.3-0.1-0.8-0.3
			c-0.3-0.1-0.6-0.2-1-0.3c-0.3-0.1-0.5,0-0.6,0.2C6,81.2,5.9,81.8,6,82.4c0.1,0.3,0.2,0.6,0.4,0.8c0.3,0.3,0.8,0.6,1.2,0.9
			c0.3,0.3,0.8,0.4,1.4,0.6c0.2,0.1,0.6,0.1,1.2,0.1c0.6,0.1,1,0.2,1.6,0.1c0.4,0,0.9-0.1,1.3-0.1c0.9-0.1,2.6,0.3,3.2-0.6
			c0.3-0.4,0.3-0.8,0.3-1.3c0-0.2,0-0.4,0.1-0.6c0.1-0.6,0.1-1.3,0.2-1.9c0.1-0.4,0.1-0.8,0.1-1.2c0-1.1,0.1-2.3,0.1-3.3
			c0-0.9,0-1.8,0-2.6c0-0.8-0.1-1.7-0.1-2.6c-0.1-1.2-0.2-2.6-0.3-4.2c-0.1-0.8-0.1-2.4-0.3-4.8c-0.1-0.8-0.1-2.1-0.1-3.9
			c0-0.4,0-1,0.1-1.5c0.1-1.1,0.1-2.4,0.2-3.3c0.1-0.8,0.2-1.6,0.2-2.4c0-1-0.1-1.9,0-3c0.1-1,0-2.1-0.1-3.1c0-0.7,0-1.1,0-1.3
			c-0.1-3.1-0.2-6.2-0.1-9.3c0-0.6,0-1.4-0.1-2.2c-0.1-0.8-0.1-1.5-0.1-2.2c0-0.1,0-0.6,0.1-1.3c0.1-0.6,0-1.2-0.1-1.9
			c-0.1-0.2-0.1-0.6-0.2-1.1c-0.1-0.5-0.3-1-0.5-1.4c-0.1-0.2-0.4-0.6-0.9-1.2c-0.5-0.5-0.9-1-1.2-1.6c0-0.1-0.1-0.1-0.1-0.1
			c0-0.3,0.1-0.7,0.3-1c0.1-0.2,0.3-0.3,0.6-0.5c0.5-0.2,1-0.6,1.5-0.6c0.8,0,1.5-0.1,2.4-0.1c0.6-0.1,1.1-0.1,1.7,0
			c0.1,0,0.3,0.1,0.6,0.1c0.5,0.1,0.8-0.1,1.2-0.1c0.5,0,0.9,0.1,1.4,0.1c0.2,0,0.3,0.1,0.6,0.2c0.3,0.2,0.7,0.3,1,0.4
			c0.6,0.3,1,0.8,1.2,1.4c0.2,0.5,0.3,0.8,0.4,0.9c0.4,0.8,0.7,1.3,0.8,1.5c0.7,1.9,1.5,3.7,2.2,5.5c0.2,0.5,0.6,1.2,1.1,2.4
			c0.3,0.6,0.6,1.2,0.8,1.9c0.1,0.3,0.3,0.9,0.6,1.8c0.3,0.9,0.6,1.9,1,2.7c0.2,0.4,0.4,0.9,0.6,1.5c0.3,0.8,0.8,1.5,1.1,2.3
			c0.4,1,0.8,1.7,1.5,2.9c0.6,1.2,1,2.6,1.5,3.6c0.3,0.8,0.6,1.5,0.8,2.2c0.3,0.8,0.9,1.7,1.1,2.4c0.6,1.8,1.2,3.6,1.8,5.4
			c0.1,0.5,0.4,1,0.7,1.5c0.5,0.9,1,2.1,1.7,3.4c0.3,0.8,0.9,1.7,1.6,2.8c0.1,0.3,0.3,0.8,0.3,1.1c0.1,0.4,0.3,0.8,0.6,1.2
			C45.9,67.4,46,67.6,46,67.6z M120.2,55.1c0.6,0.1,1,0,1.5-0.1c0.4-0.1,0.8-0.3,1-0.7c0.1-0.2,0.3-0.3,0.3-0.5
			c0.3-0.3,0.6-0.8,1-1.2c0.3-0.3,0.4-0.6,0.7-1c0.2-0.3,0.2-0.6,0.3-0.9c0.1-0.3,0.1-0.5,0.1-0.7c0.1-1.5,0.1-2.7,0.1-3.6
			c-0.1-1-0.6-1.8-1.4-2.4c-0.8-0.6-1.7-0.6-2.6-0.3c-0.8,0.3-1.5,0.3-2.1,1.1c-0.3,0.5-0.6,1.5-0.6,2.1c-0.1,1.1-0.2,2.2-0.3,3.3
			c-0.1,1.5-0.2,2.5-0.1,3c0.1,0.3,0.2,0.7,0.5,1.1C119,54.9,119.4,55,120.2,55.1z M77.5,69c0.8-0.1,1.9-0.1,2.4-0.2
			c0.1-0.1,0.4-0.1,0.8-0.3c0.1,0,0.1-0.1,0.1-0.1c0.3-0.6,0.8-1.3,0.8-2c0-1.1-0.3-2.1-0.8-3.1c-0.3-0.5-0.5-1-0.7-1.6
			c-0.2-0.5-0.5-1.2-0.8-2.1c-0.1-0.3-0.3-0.6-0.5-1c-0.1-0.3-0.2-0.6-0.3-0.7c-0.3-0.6-0.5-1-0.8-1.6c-0.2-0.6-0.5-0.9-1.2-0.7
			c-0.1,0-0.1,0.1-0.1,0.1c-0.3,0.6-0.5,0.9-0.6,1.1c-0.6,1.7-1.2,3.3-1.8,5c-0.3,0.9-0.7,1.7-1,2.6c-0.3,0.8-0.6,1.7-0.8,2.6
			c-0.2,0.5-0.1,1.4,0.5,1.6c0.7,0.2,1.3,0.4,2,0.5c0.5,0.1,1.1,0,1.7,0.1C76.8,69,77.2,69,77.5,69z"/>
		<path class="st0" d="M202.3,51.3c-0.2,0.1-0.3,0.1-0.5,0.2c-1,0.9-1.7,2.1-2.1,3.3c-0.1,0.3-0.3,0.5-0.4,0.7
			c-0.4,0.4-0.8,0.8-1.1,1.4c-0.5,0.8-1,1.7-1.6,2.5c-0.6,0.9-1.7,1.7-2.1,2.5c-0.6,1-1,1.7-1.3,1.9c-0.5,0.6-1.3,1.4-2.5,2.5
			c-0.1,0.1-0.1,0.1-0.1,0.1c0,0.1-0.1,0.2-0.1,0.3c-0.1,0.1-0.1,0.1-0.1,0.1c-0.6-0.1-0.8-0.5-1.2-0.7c-0.3-0.1-0.6-0.3-0.7-0.5
			c-0.4-0.5-0.8-0.9-1.3-1.4c-0.3-0.3-0.5-0.6-0.7-0.8c-0.4-0.7-1-1.4-1.5-2.1c-0.5-0.6-0.8-1.5-1.2-2.1c-1.3-2.1-2.1-3.7-3.3-6.4
			c-0.3-0.8-1-1.5-1.8-2.1c-0.1,0-0.1,0-0.1,0c-0.1,0.1-0.2,0.1-0.2,0.3c-0.2,1.3-0.2,2.6-0.1,3.9c0.1,1.1,0.1,1.8,0.1,2.1
			c0,0.8,0,1.7,0,2.5c0,0.8-0.1,1.6-0.1,2.5c-0.2,2.3-0.4,4.4-0.3,6.8c0.1,1,0.1,2,0.1,2.7c0,1.5,0,2.8-0.1,4.4
			c-0.1,2.1-0.1,4.2-0.1,6.4c0,0.3,0.1,0.8,0.1,1.1c0.2,1.2,0.3,2.3,1.4,3c0.4,0.3,0.8,0.6,1,1c0.1,0.2,0.2,0.4,0.2,0.6
			c0,0.3-0.1,0.5-0.3,0.6c-0.7,0.6-1.5,1.4-2.2,1.8c-1.1,0.6-2.4,0.6-3.7,0.4c-0.4-0.1-0.8-0.1-1.1-0.1c-1,0-2.1,0-3.1,0
			c-0.1,0-0.3-0.1-0.4-0.1c-1.5-0.1-2.9,0-4.4,0.1c0,0-0.3,0.1-0.9,0.1c-1,0.1-2.6,0-2.5-1.3c0-0.1,0-0.1,0.1-0.1
			c0.3-0.5,0.8-0.8,1.4-1c1.4-0.2,2.4-0.8,3.5-1.2c0.4-0.1,1.1-0.2,1.5-0.5c0.3-0.3,0.6-0.6,1-0.8c1-0.5,1.5-1,1.5-2.1
			c0.1-1.6,0.2-3.2,0.2-4.8c0-0.1,0.1-0.8,0.1-2.1c0.1-0.7,0.1-1.4,0-2.1c0-0.1,0-0.1-0.1-0.1c0,0,0,0-0.1-0.1c0,0,0,0,0-0.1
			c-0.1-1.9-0.2-3.8-0.3-5.7c0,0,0-0.3,0-0.8c0-0.5-0.1-1-0.2-1.5c-0.1-1.8-0.2-3.7-0.1-5.4c0.1-1.7,0.1-3.4,0.1-5
			c0-1,0.2-2.3,0.1-3.5c-0.1-1-0.1-1.7-0.1-1.8c0-2.8,0-6.1,0.3-9.3c0.1-0.9,0.1-1.7,0.1-2.2c0.1-1.6,0.1-2.9,0.3-4
			c0.1-0.6,0.4-1.1,1-1.5c0.6-0.4,1-0.1,1.7-0.1c1,0,1.9,0.3,2.6,1c0.6,0.5,1.1,1,1.7,1.5c0.6,0.4,1,0.8,1.2,1.1
			c0.6,0.7,1.2,1.5,1.7,2.2c0.6,1,1.3,1.8,1.9,2.6c0.6,1,1.5,1.9,1.9,2.8c0.3,0.6,0.4,1.1,0.8,1.6c0.3,0.5,0.7,1,1.1,1.5
			c0.5,0.8,1.1,1.4,1.7,2.1c0.4,0.6,0.9,0.9,1.5,1.3c0.1,0,0.1,0,0.1,0c0.4-0.3,0.7-0.6,0.8-0.7c1.2-1.2,2.6-3,4.3-5.3
			c1.4-1.8,2.3-3,2.6-3.5c0.2-0.3,0.7-1,1.4-1.8c0.5-0.6,1-1.2,1.5-1.7c1.7-1.7,3.1-3,4.4-4.1c0.9-0.8,2-1.1,3.3-1
			c0.5,0,0.8,0.3,1,0.7c0.3,0.4,0.8,0.6,1,1.1c0.2,0.7,0.4,1.4,0.6,2.1c0.1,1.2,0.2,2.4,0.2,3.7c0,0.6,0,1.1,0.1,1.7
			c0.1,1.2,0.1,2.3-0.1,3.5c-0.1,0.8-0.1,1.5-0.1,2c-0.1,2.1-0.3,4.3-0.3,6.3c0,1.3,0,2.6,0,3.9c0,1.3,0.1,2.9,0.1,4.4
			c0,0.6,0.1,1.2,0.1,1.7c0.1,2.5,0.2,5,0.1,7.5c-0.1,2.1-0.1,3.8-0.1,5.7c0,0.2,0.1,0.5,0.1,0.8c0,0.9,0.1,1.8,0.1,2.7
			c0,0.1,0.1,0.5,0.1,1c0,0.5,0.1,1,0.3,1.4c0,0.1,0.1,0.1,0.1,0.1l0.1-0.1c0.1,0,0.1,0,0.1,0c0.2,0.2,0.5,0.3,0.8,0.4
			c1.7,0.6,3.4,0.9,5.1,1c0.3,0,0.6,0.1,1,0.1c0.7,0.1,1.5,0.1,2.1,0.1c1,0.1,1.9-0.1,2.8-0.3c0.3-0.1,0.6-0.1,0.8-0.3
			c0.5-0.6,0.2-1.2,0.1-1.9c0-0.2-0.1-0.4-0.3-0.6c-0.6-1-1.1-1.8-1.5-2.3c-0.5-0.8-0.8-1.7-1.1-2.6c-0.2-0.4-0.5-0.9-0.7-1.2
			c-0.6-1.1-0.7-2.3-1.3-3.4c-0.3-0.6-0.6-1.4-0.7-2.1c-0.3-2.1-0.4-4.4-0.4-6.6c0-1.2-0.1-2.1-0.1-2.8c-0.1-1.3-0.1-2.3-0.1-2.8
			c0.1-1,0.2-2.4,0.4-4.4c0.1-0.6,0.2-1.2,0.4-1.9c0.3-1,0.4-2,0.7-3c0.4-1.5,0.8-3.2,1.5-4.6c0.6-1.4,1-2.1,1.8-3.2
			c0.5-0.7,1.2-1.3,1.7-2c1.2-1.4,2.6-2.5,4.1-3.4c0.8-0.5,2-1.1,3-1.2c0.8-0.1,1.4-0.5,2.1-0.3c0.3,0.1,0.6,0.1,0.8,0.1
			c0.6,0.1,1,0.3,1.4,0.6c0.6,0.3,0.9,0.7,1.3,1c0.6,0.4,0.9,0.8,1.5,1.2c0.4,0.3,0.8,0.6,0.9,0.8c0.7,0.8,0.9,1.4,1.5,2.1
			c0.3,0.3,0.4,0.6,0.6,0.8c0.2,0.5,0.3,0.9,0.6,1.4c0.2,0.3,0.3,0.8,0.5,1.1c0.1,0.3,0.2,0.5,0.3,0.7c0.2,0.3,0.4,0.5,0.6,0.8
			c0.1,0.3,0.3,0.7,0.5,1c0.3,0.6,0.5,1.2,0.7,1.9c0.1,0.3,0.2,0.7,0.2,1c0.1,0.8,0.3,1.6,0.4,2.3c0.1,0.4,0.1,0.8,0.1,1.2
			c0.1,0.6,0.3,1.6,0.3,2.4c0,0.6,0.1,1.2,0.1,1.7c0.1,2.1,0.1,4.3,0.1,6.4c0,0.8-0.1,1.5-0.1,2.3c-0.1,0.5-0.1,1-0.1,1.5
			c0,2.1-0.4,3.9-1,5.9c-0.3,0.9-0.6,1.9-0.9,2.8c-0.8,2.1-1.5,3.4-2.6,5.1c-0.3,0.6-0.8,1.2-1.4,2c-0.8,1-1.3,1.8-1.5,2.3
			c-0.1,0.3-0.2,0.6-0.2,1c0.1,0.7,0.7,0.6,1.1,0.3c0.1-0.1,0.2-0.2,0.3-0.3c0.2-0.3,0.4-0.6,0.7-0.8c0.1-0.1,0.4-0.2,0.6-0.3
			c0.6-0.1,1.2-0.2,1.8-0.2c2.1,0.1,4.1,0,5.8-0.2c0.8-0.1,1.4-0.4,1.9-1c0.2-0.2,0.3-0.6,0.6-0.9c0-0.1,0.1-0.1,0.1-0.1
			c0.1-1,0-2.3-0.1-3c0-1.5-0.1-2.9-0.1-4.4c-0.1-2.6,0.3-5.5,0.3-7.7c-0.1-2-0.1-4-0.2-6c0-0.7-0.1-1.7-0.1-2.9
			c-0.1-2.9,0.1-5.7,0.2-8.4c0.1-2.1,0.1-4.2,0.1-6.3c0-1.2-0.1-2.4-0.3-3.5c-0.1-0.3-0.1-0.6-0.3-0.9c-0.2-0.5-0.4-1-0.6-1.5
			c-0.4-1.1,0.7-2.6,1.6-3.2c0.1,0,0.1-0.1,0.1-0.1v-0.1c0-0.1,0-0.1,0.1-0.1c0.6-0.1,1.1-0.2,1.6-0.3c1-0.1,2.1-0.1,3-0.1
			c0.6,0,1-0.2,1.7,0.2c0.1,0,0.1,0.1,0.1,0.1h0.8c0.1,0,0.1,0,0.1,0.1c0.1,0.1,0.2,0.1,0.3,0.2c0.3,0.2,0.6,0.1,0.8,0.4
			c1,1,1.7,2.1,2.2,3.3c0.1,0.3,0.3,0.8,0.6,1.2c0.5,0.8,0.8,1.9,1.1,2.7c0.7,1.5,1.3,3,1.9,4.5c0.7,1.9,1.2,3.2,1.9,4.8
			c0.3,0.8,0.8,1.9,1.2,2.8c0.2,0.5,0.3,0.9,0.5,1.1c1.2,2.7,2.6,5.5,4.2,8.6c0.3,0.6,0.6,1.2,0.8,1.9c0.2,0.7,0.8,2.7,1.5,2.8
			c0.1,0,0.1,0,0.1-0.1c0.3-0.5,0.4-1.1,0.5-1.7c0.3-2.6,0.1-5.3,0.1-7.9c0-1,0-1.9-0.1-2.9c-0.1-0.8-0.1-1.7-0.1-2.5
			c-0.2-1.8-0.3-3.9-0.1-6.4c0-0.8,0.1-2.2,0-4.4c0-1.4-0.1-2.9-0.2-4.4c0-1-0.1-1.6,0.4-2.4c0.8-1.2,1.5-1.7,2.9-1.7
			c0.8,0,1.7,0,2.5,0c0.3,0,0.7,0.1,1,0.2c1.2,0.1,2.4,0.8,2.3,2.1c0,0.6-0.1,1.1-0.1,1.6c-0.1,0.5-0.1,1-0.1,1.4
			c0,1.2-0.2,2.5-0.2,3.5c0,1.6,0.1,3,0.3,4.2c0.1,0.8,0.3,1.5,0.3,2.2c-0.1,3-0.1,6.1-0.3,9.1c-0.1,3-0.1,5.9-0.1,8.9
			c0,2,0.1,4.1,0.2,6.2c0.1,2.7-0.7,5.3-0.2,8c0.1,0.6,1,0.9,1.5,1.1c0.8,0.3,1.8,0.3,2.7,0.3c1.3,0.1,2.6-0.1,3.8-0.5
			c0.5-0.1,0.8-0.3,1-0.8c0.5-0.8,0.6-1.7,0.3-2.7c-0.1-0.6-0.9-1.5-1.5-1c-0.6,0.3-0.3,1.7-1.2,1.7c-0.6,0-1-0.3-1.4-0.8
			c-0.5-0.9-1.1-1.8-1.2-2.7c-0.2-1.8,1.2-3,2.8-3.3c0.5-0.1,0.8-0.3,1.4-0.3c0.6,0.1,1.1,0.1,1.6,0.1c0.3,0,0.6,0.1,0.8,0.1
			c0.3,0.1,0.6,0.4,1,0.6c0.8,0.3,1.3,0.8,1.7,1.4c0.3,0.3,0.4,0.6,0.6,0.8c0.8,0.8,1.3,1.6,1.7,2.3c0.3,0.5,0.4,1.2,0.5,1.9
			c0.1,1.2,0.1,2.1,0,2.7c0,0.3-0.2,0.8-0.5,1.7c-0.2,0.6-0.6,1-1,1.5c-0.2,0.3-0.4,0.6-0.6,0.8c-0.8,0.8-1.3,1.7-2.5,2.4
			c-0.6,0.3-1,0.8-1.6,1c-0.6,0.2-1.2,0.1-1.8,0.2c-0.3,0.1-0.6,0.1-0.8,0.1c-0.8-0.1-1.6-0.1-2.4,0c-0.7,0.1-1.2,0.1-1.6,0.1
			c-0.8,0-1.5,0-2.2,0c-0.4,0-1,0-1.7-0.1c-1.2-0.1-2.4,0.1-3.5,0c-0.8-0.1-1.5,0.1-2.1-0.1c-0.3-0.1-0.6-0.2-1-0.3
			c-1.1-0.3-2.1-0.8-2.8-1.6c-0.6-0.6-1.2-1.3-1.7-2.4c-0.4-0.8-0.8-1.5-1-2.3c-0.7-1.9-1.4-3.7-2.1-5.5c-0.3-0.8-0.6-1.5-0.8-2.1
			c-0.6-1.3-1.2-2.4-1.8-4c-0.3-0.8-0.6-1.5-0.8-2c-0.6-1.4-1.3-2.7-1.8-4.1c-0.3-0.9-0.6-1.9-0.8-2.8c-0.4-1.5-1.6-3.7-2.2-5.7
			c-0.3-0.8-0.5-1.6-0.8-2.4c-0.4-0.9-1-1.9-1.6-2.8c-0.1-0.2-0.3-0.3-0.3-0.5c-0.1-0.1-0.1-0.1-0.1-0.1c-0.2,0-0.3,0.1-0.3,0.3
			c-0.1,0.9-0.2,1.6-0.1,2.6c0.1,1,0,2.3,0,3.1c-0.1,2.7,0,5.4,0.1,8c0,0.6,0.1,1,0.1,1.5c0,1.3,0.1,2.8,0.1,4c-0.1,4.6,0,8,0.1,10
			c0,0.2,0.1,0.5,0.3,0.9c0.1,0.3,0.5,0.3,0.6,0.7c0.3,0.5,0.7,0.6,1,0.8c0.8,0.6,1.7,1.9,1.5,3c-0.1,0.7-0.5,1.3-1,1.8
			c-0.3,0.3-0.6,0.5-1,0.7c-1.1,0.5-2.2,0.8-3.2,0.8c-2.1,0.1-4.2,0.1-6.3,0.3c-1.9,0.1-3.9-0.1-5.8-0.1c-0.6,0-1.2-0.1-1.8-0.2
			c-0.5-0.1-1.2,0.3-1.9,0.2c-0.8-0.1-1.5-0.1-2.3,0c-0.8,0.1-1.3,0.1-1.7,0.1c-0.8,0-1.5-0.1-2.3-0.1c-1.5-0.1-2.7-0.3-3.6-0.3
			c-1.1-0.1-2.1-0.2-3.2-0.3c-0.8-0.1-1.4-0.2-2.1-0.2c-0.7,0-1.5,0-2.1,0c-0.1,0-0.1,0-0.1-0.1c-0.1-0.1-0.2-0.1-0.3,0
			c-0.1,0-0.1,0.1-0.1,0.1c-0.8,0.1-1.5,0.3-2.4,0.3c-0.4,0-0.9,0.1-1.3,0.1c-1.7,0-3.4,0.1-5.1,0.1c-2,0-3.6,0-4.7,0.1
			c-2.8,0.3-5,0.4-6.6,0.4c-0.4,0-1-0.1-1.7-0.2c-0.3-0.1-0.8-0.1-1.7-0.3c-0.8-0.1-1.6-0.3-2.5-0.6c-0.4-0.1-0.8-0.3-0.8-0.8
			c0.1-0.6,0.3-1,0.9-1.4c0.5-0.3,1-0.5,1.5-0.6c0.1-0.1,0.3-0.1,0.5-0.3c0.5-0.3,1.3-0.4,1.9-0.6c0.3-0.1,0.6-0.3,0.8-0.6
			c0.1-0.2,0.2-0.5,0.2-0.8c0.1-2.2,0-4.5-0.1-6.7c-0.1-0.8-0.1-1.8-0.1-2.9c0-1.7-0.2-3.6-0.2-5.2c0-1.5,0.1-3.1,0.1-4.6
			c0-1,0.1-2.2,0-3.4c-0.1-0.5-0.1-0.9-0.1-1.2c0-1,0-1.9-0.1-2.8c0-0.3,0-0.6,0-1c0.1-0.8-0.1-1.5-0.1-2.2c0-0.1,0-0.3,0.1-0.4
			c0.2-0.8,0.1-1.7-0.1-2.6c-0.1-0.1,0-0.3-0.1-0.4C202.3,51.3,202.3,51.3,202.3,51.3z M237.3,66.5c0.1-1.2,0.3-2.6,0.3-3.8
			c0.1-0.8,0-1.9,0.1-2.9c0.1-0.4,0.1-0.8,0-1.2c-0.1-0.9,0-1.9,0-2.8c0-0.5-0.1-1-0.1-1.5c0-0.6-0.1-1-0.2-1.7
			c-0.1-0.3-0.1-0.7-0.2-1c-0.2-0.8-0.3-1.5-0.5-2.1c-0.3-1-0.7-1.9-1.2-2.8c-0.3-0.6-1-1.3-1.4-2c-0.3-0.6-0.8-0.7-1.4-0.9
			c-0.3-0.1-0.6-0.1-0.8-0.1c-1.2,0.1-1.8,0.9-2.6,1.6c-0.8,0.6-1,1.1-1.4,1.9c-0.8,1.7-1.2,3.3-1.3,5c-0.1,0.9-0.1,1.5-0.1,1.7
			c-0.1,0.6-0.1,1.1-0.2,1.7c-0.1,0.9-0.1,1.9-0.1,2.8c-0.1,0.5-0.1,1,0,1.5c0.1,1.7-0.1,3.5,0,4.8c0.1,1.4,0.1,2.8,0.2,4.1
			c0.1,0.7,0.2,1.5,0.6,2.4c0.4,1.2,0.8,2.4,1.6,3.4c1,1.2,1.9,1.9,3.6,2.1c0.6,0.1,1.2-0.1,1.7-0.5c0.6-0.5,1.7-1.2,1.9-1.9
			c0.8-2,1.2-4,1.2-6.2C237.2,67.6,237.3,67,237.3,66.5z"/>
	</g>
	<path class="st0" d="M281.1,3.3h-65.9c-3.1,0-5.6,2.6-5.6,5.6v15.2c0,3.1,2.6,5.6,5.6,5.6h65.9c3.1,0,5.6-2.6,5.6-5.6V9
		C286.8,5.8,284.2,3.3,281.1,3.3z"/>
	<g>
		<path class="st1" d="M222.7,21.5l0.3-0.9l0.2-0.2v-1.3l0.4-0.6l0.1-0.4l0.2-0.4l0.2-1.3l0.2-0.6l0.2-0.3l0.2-0.2l0.3-0.2l0.8,0.1
			l0.8,0.3l0.2,0.8l0.5,0.7l0.1,0.7l0.3,0.9l0.2,0.8l0.3,0.6v0.5l0.3,0.6v0.4l0.2,0.6l0.2-0.3l0.1-0.3l0.1-1.1l0.2-0.2v-0.7
			l-0.1-0.5l0.2-0.7l0.2-0.5l-0.1-1l0.2-0.6v-0.7L230,15l-0.1-0.8l0.1-0.6l0.2-0.2l0.1-0.7l0.5-0.2l0.5-0.2l0.5,0.1l0.4,0.5l0.1,0.4
			l-0.2,0.6v0.3l-0.3,0.6l-0.1,1l0.2,0.7l-0.4,0.7l0.1,0.3l-0.3,0.7v0.4l-0.2,1v0.6l-0.2,0.5v0.3l-0.1,1.1l-0.2,0.6l-0.3,0.6
			l-0.4,0.3l-1.1,0.2l-0.5-0.1l-0.5-0.3l-0.5-0.9l-0.2-1.2l-0.2-0.3l-0.2-1l-0.2-0.2l-0.3-1.1l0.1-0.4l-0.4-0.8l0.2-0.1l-0.3-0.8
			l-0.2,0.1l0.1,0.3l-0.2,0.6l-0.2,0.4l-0.6,2.2l0.1,0.2l-0.4,0.6l-0.3,1v0.6l-0.4,0.6l-0.5,0.6l-0.2,0.1l-0.9,0.1l-0.9-0.1
			l-0.2-0.3l-0.3-0.8l-0.1-0.6l0.1-0.2l-0.2-0.9v-0.3l-0.1-0.6l-0.2-0.8l-0.1-0.6v-0.7l-0.2-0.6v-0.2l-0.2-0.8l-0.2-1.1v-0.5
			l-0.1-0.7l-0.2-0.2V13l0.1-0.2l0.3-0.5l0.5-0.1h0.3l0.8,0.6v0.3l0.1,0.5v1l0.2,0.6l0.2,0.8v0.7l0.2,0.6v0.3l0.2,1.1l0.2,0.4V20
			l0.2-0.1v1l0.1,0.4L222.7,21.5z"/>
		<path class="st1" d="M247.3,23.5l0.1,0.2l-0.3,0.3l-0.6,0.1l-0.4-0.2l-0.6,0.1h-1.3l-0.4,0.2l-0.4-0.1l-1.2,0.1L241,24h-0.6
			l-0.6,0.2l-0.3-0.1l-1-0.1l-0.5,0.2l-0.6-0.1l-0.4-0.4l0.1-0.7l0.2-0.4l1.2-0.3h0.6l0.5,0.1h0.6l0.8,0.1l0.2-0.1l0.2-0.2l-0.2-0.5
			l-0.1-0.3l0.1-0.6l-0.1-0.5l0.2-0.5l-0.1-0.5v-1.2l0.1-0.8l-0.1-1l0.1-0.5l-0.1-0.6l0.2-0.5v-0.4l-0.2-0.2l-0.5,0.1l-0.6,0.2
			l-0.5,0.1l-0.6-0.2l-0.4,0.1h-1.2l-0.4-0.1l-0.1-0.8l-0.1-0.5l0.5-0.5l0.4-0.1l0.8,0.2l0.3-0.1h1.2l0,0h0.9l0.2-0.2l0.9,0.2
			l0.2-0.1l1,0.2l0.2,1.3l-0.1,0.8l-0.1,1.1l0.1,0.6v1.4l-0.1,0.1l0.1,1l-0.1,0.2l0.2,1.1l-0.2,0.8v0.7l-0.2,0.4l0.3,0.2l0.4,0.1
			l0.6-0.2h0.8l1.1-0.1l0.5,0.1l0.2,0.2l0.1,0.6L247.3,23.5z M243.8,8.3l-0.2,0.6l-0.2,0.7L243,9.7l-0.5,0.1l-0.9-0.2l-0.3-0.2
			l-0.2-0.3l-0.1-0.6l0.1-0.1V8l0.3-0.6l0.4-0.2h1.1l0.8,0.6V8.3z"/>
		<path class="st1" d="M255.2,21.4l0.1,0.4l-0.1,0.6l0.2,0.3l-0.3,1l-0.2,0.3l-0.8,0.2l-0.5-0.1l-0.2-0.3l-0.1-0.8l-0.2-0.5l0.1-0.6
			l0.1-0.9l-0.2-0.3l0.2-0.8l-0.2-0.4l0.1-0.8l-0.2-0.3l0.2-0.9l-0.1-0.1l0.1-0.5v-1.4l-0.1-0.2l0.1-0.8v-1.3l0.2-0.6l-0.2-0.8v-0.6
			l0.1-0.4L253,10l-0.2-0.5l0.1-0.4l-0.1-0.3l0.1-0.6l0.2-0.8l0.6-0.3h1l0.4,0.2l0.1,1.1L255,9.2v0.4l-0.1,0.3v0.9v0.2v0.5l-0.1,0.3
			v1.5l0.1,0.7l-0.2,0.2l0.1,0.6l-0.1,0.4l0.2,0.6l-0.1,0.7l-0.1,0.1l-0.2,0.6l0.2,0.2l0.8-0.8l0.1-0.2l1.2-1l0.7-0.7l0.6-0.3
			l0.3-0.6l0.6-0.4l0.5-0.6l0.4-0.3l0.9-0.6h1l0.7,0.1v0.5l-0.2,0.3l-0.5,0.3l-0.2,0.3l-0.4,0.2l-0.5,0.6l-0.4,0.2l-0.7,0.6
			l-0.4,0.4l-1,0.6l-0.3,0.1l-0.1,0.3l0.5,0.2l0.7,0.8l0.2,0.4l0.2,0.2l1,1.4l0.4,0.5l0.1,0.5l0.6,0.6l0.2,0.3l0.3,0.2l0.3,0.4
			l0.2,0.3l0.5,0.7l-0.4,0.5l-0.4,0.1l-0.1,0.1l-0.6-0.2l-0.5-0.1l-0.2-0.2l-0.2-0.5l-0.4-0.3l-0.5-0.6l-0.3-0.6l-0.5-0.5l-0.2-0.6
			v-0.2l-0.6-0.6l-0.2-0.6l-0.6-0.6l-0.1-0.5l-0.2-0.1l-0.3,0.2l-0.4,0.6l-0.4,0.2l-0.6,0.3h-0.4l-0.2,0.3l0.3,0.5l0.2,0.6
			L255.2,21.4z"/>
		<path class="st1" d="M279.4,23.5l0.1,0.2l-0.3,0.3l-0.6,0.1l-0.4-0.2l-0.6,0.1h-1.2l-0.4,0.2l-0.4-0.1l-1.2,0.1l-1.1-0.2h-0.6
			l-0.6,0.2l-0.3-0.1l-1-0.1l-0.5,0.2l-0.6-0.1l-0.4-0.4l0.1-0.7l0.2-0.4l1.2-0.3h0.6l0.5,0.1h0.6l0.8,0.1l0.2-0.1l0.2-0.2l-0.2-0.5
			l-0.1-0.3l0.1-0.6l-0.1-0.5l0.2-0.5l-0.1-0.5v-1.2l0.1-0.8l-0.1-1l0.1-0.5l-0.1-0.6l0.2-0.5v-0.4l-0.2-0.2l-0.5,0.1l-0.6,0.2
			l-0.5,0.1l-0.6-0.2l-0.4,0.1h-1.2l-0.4-0.1l-0.1-0.8l-0.1-0.5l0.5-0.5l0.4-0.1l0.8,0.2l0.3-0.1h1.2l0,0h0.9l0.2-0.2l0.9,0.2
			l0.2-0.1l1,0.2l0.2,1.4l-0.1,0.8l-0.1,1.1l0.1,0.6v1.4l-0.1,0.1l0.1,1l-0.1,0.2l0.2,1.1l-0.2,0.8v0.7l-0.2,0.4l0.3,0.2l0.4,0.1
			l0.6-0.2h0.8l1.1-0.1l0.5,0.1l0.2,0.2l0.1,0.6V23.5z M275.9,8.3l-0.2,0.6l-0.2,0.7l-0.5,0.2l-0.5,0.1l-0.9-0.2l-0.3-0.2L273.2,9
			l-0.1-0.6l0.1-0.1V7.9l0.3-0.6l0.4-0.2h1.1l0.8,0.6L275.9,8.3L275.9,8.3z"/>
	</g>
</g>
</svg>
