<?xml version="1.0" encoding="utf-8"?>
<!-- Generator: Adobe Illustrator 28.0.0, SVG Export Plug-In . SVG Version: 6.00 Build 0)  -->
<svg version="1.1" id="Layer_1" xmlns="http://www.w3.org/2000/svg" xmlns:xlink="http://www.w3.org/1999/xlink" x="0px" y="0px"
	 viewBox="0 0 70 38" style="enable-background:new 0 0 70 38;" xml:space="preserve">
<style type="text/css">
	.st0{fill:#0F7DD8;}
	.st1{enable-background:new    ;}
	.st2{fill:#EDEDED;}
	.st3{fill:none;stroke:#EDEDED;stroke-width:1.2;stroke-miterlimit:10;}
</style>
<path class="st0" d="M67.3,29c-0.3-1.3-0.4-2.6-0.4-3.9c-0.1-1.6-0.4-3.2-0.6-4.8c-0.2-1.7-0.7-3.4-0.7-5.1c0-0.8,0.1-1.5,0.2-2.2
	c0-0.3,0.1-0.6,0-0.9c0-0.1-0.2-0.3-0.2-0.5c0-0.1,0.2-0.2,0.3-0.4c0.2-0.3,0.2-0.7,0.2-1c0-0.3,0.1-0.7,0.1-1
	c0.1-0.8,0.4-1.7,0.3-2.5c-0.2-1.6-2.2-1.4-3.4-1.9c-0.7-0.2-1.2-0.7-1.9-0.9c-0.2-0.1-0.3-0.1-0.5-0.1c-0.1,0-0.3,0.1-0.4,0
	c-0.2-0.1-0.3-0.4-0.5-0.5c-0.3-0.2-0.6-0.3-0.9-0.4c-0.4-0.1-0.8-0.3-1.1-0.5c-0.7-0.3-1.4-0.8-2.2-1.1c-0.2-0.1-0.4-0.1-0.6-0.2
	c-0.2,0-0.3,0-0.5,0c-0.3,0-0.4-0.2-0.7-0.2c-0.6,0.1-1.1,0.5-1.7,0.7c-0.6,0.3-1.3,0.4-1.9,0.8c-0.7,0.4-1.6,0.5-2.3,0.9
	C46.4,4.1,44.7,3.9,43,4c-1.6,0.1-3.2,0.4-4.7-0.2c-0.4-0.1-0.7-0.3-1-0.5c-0.2-0.1-0.3-0.2-0.5-0.2c-0.2,0-0.4,0.1-0.5,0
	c-0.2-0.1-0.3-0.3-0.5-0.5c-0.3-0.2-0.7-0.3-1-0.4c-0.4-0.1-0.8-0.3-1.3-0.4c-0.4-0.1-0.7-0.3-1.1-0.4c-0.3-0.1-0.5-0.1-0.8,0
	c-0.4,0.1-0.4-0.1-0.7-0.3c-0.6-0.3-1.5,0-2.1,0c-1,0-2,0-3,0c-0.8,0-1.6,0-2.5,0.1c-0.4,0-0.8,0.1-1.2,0.2
	c-0.2,0.1-0.3,0.1-0.4,0.3c-0.2,0.2-0.2,0.3-0.5,0.3C21,2,20.8,1.8,20.4,1.9C20,2,19.7,2.2,19.3,2.3c-0.8,0.2-1.7,0.5-2.5,0.6
	C16,3.1,15.1,3.1,14.3,3C13.8,3,13.4,2.9,13,2.9c-0.4,0-0.8,0.1-1.3-0.1C11,2.7,10.2,2.7,9.5,2.6c-0.6,0-1.4-0.1-1.9,0.2
	C7.4,2.9,7.3,3,7.2,3.2C7.1,3.3,7,3.4,6.9,3.5c-0.2,0.1-0.5,0-0.7,0.1C5.5,3.7,4.8,4.4,4.2,4.8C3.6,5.2,3,5.4,2.6,5.8
	C1.9,6.3,1.9,7.1,2.2,7.9c0.2,0.7,0.4,1.4,0.6,2.1c0.1,0.4,0.2,0.7,0.3,1c0.1,0.2,0.1,0.3,0.3,0.4c0.1,0.1,0.2,0.2,0.3,0.4
	c0,0.1-0.1,0.2-0.1,0.3c-0.1,0.1-0.1,0.3,0,0.4c0,0.3,0.2,0.6,0.3,0.9C3.8,13.7,3.9,14,4,14.3c0.1,0.4,0,0.7,0.1,1.1
	c0,0.4,0.1,0.7,0,1c-0.1,0.3-0.3,0.6-0.3,1c-0.1,0.8-0.1,1.7-0.1,2.5c0,0.8-0.1,1.6-0.2,2.4c-0.1,0.9,0,1.9,0.1,2.8
	c0.1,1.7,0.2,3.4,0.2,5c0,0.3,0,0.6,0.1,0.9c0.1,0.1,0.2,0.3,0.3,0.4c0.1,0.1,0.3,0.1,0.4,0.2c0.2,0.2,0,0.6,0,0.9
	c0.2,1.1,1.3,1.8,2,2.5c0.5,0.5,0.8,1.3,1.5,1.5c0.3,0.1,0.7,0,1.1,0c0.4-0.1,0.9-0.1,1.3-0.2c0.9-0.1,1.8-0.2,2.7-0.3
	c1.8-0.2,3.6-0.3,5.4-0.3c1.8-0.1,3.6,0,5.4-0.2c0.8-0.1,1.5-0.3,2.3-0.4c0.4-0.1,0.8-0.1,1.2-0.2c0.2-0.1,0.3-0.2,0.4-0.3
	c0.2-0.1,0.2,0,0.4,0.1c0.7,0.3,1.6-0.2,2.3-0.3c0.4-0.1,0.8-0.1,1.2-0.2c0.4-0.1,0.7-0.1,1.1,0.1c0.3,0.2,0.6,0.3,1,0.4
	c0.4,0,0.8,0,1.3,0.1c0.4,0.1,0.7,0.1,1.1,0.2c0.2,0,0.4,0.1,0.5,0c0.2,0,0.5-0.2,0.7-0.1c0.3,0.1,0.5,0.4,0.8,0.5
	c0.3,0.1,0.7,0.1,1,0c0.9,0,1.8,0,2.7,0c0.8,0,1.7,0.1,2.5,0.2c0.8,0.1,1.8,0.3,2.6,0c0.1,0,0.2-0.2,0.4-0.1c0.1,0,0.2,0.2,0.2,0.2
	c0.2,0.2,0.6,0.2,0.9,0.2c1,0,1.9-0.1,2.8,0c0.9,0.1,1.8,0.1,2.7,0.1c0.8,0,1.7-0.2,2.5-0.5c0.8-0.3,1.7-0.5,2.5-0.7
	c0.4-0.1,0.7-0.2,1.1-0.3c0.5-0.1,1-0.2,1.4-0.4c0.2-0.1,0.5-0.5,0.7-0.5c0.2,0,0.3,0.1,0.4,0.2c0.2,0,0.3,0,0.5-0.1
	c0.8-0.2,1.4-0.8,2.1-1.1c0.5-0.2,1.4-0.3,1.8-0.7c0.1-0.1,0.1-0.2,0.2-0.3c0.1-0.1,0.2-0.1,0.3-0.2c0.3-0.3,0.2-0.7,0.1-1
	C67.4,29.6,67.4,29.3,67.3,29z M64.5,16.3L64.5,16.3l0.6-0.1L64.5,16.3z"/>
<g class="st1">
	<path class="st2" d="M19.1,16c0.1,0.4,0.1,1.2,0.2,2.3c0,0.5,0,0.9,0,1.1c0,0.2,0,0.5,0,0.8c0,0.3-0.1,0.5-0.1,0.6
		c0,0.1-0.1,0.2-0.2,0.4c-0.1,0.2-0.2,0.3-0.3,0.3c-0.1,0-0.2,0.1-0.4,0.2c-0.2,0.1-0.4,0.1-0.5,0.1c-0.2,0-0.4,0-0.8,0.1
		c-0.6,0.1-1.1,0.1-1.3,0c-0.3,0-0.5-0.1-0.7-0.2c-0.2-0.2-0.4-0.4-0.4-0.6c0-0.2,0-0.9,0.1-2c0.1-1.5,0.2-2.4,0.3-2.6
		c0-0.1,0.1-0.2,0.1-0.2c0.1,0,0.2-0.1,0.3-0.1c0.2-0.1,0.4-0.1,0.7-0.1c0.3,0,0.7-0.1,1.2-0.2c0.9-0.2,1.4-0.3,1.5-0.3
		C18.8,15.4,19,15.5,19.1,16z M18.3,17.6c0-0.2,0-0.4-0.1-0.5c0-0.1-0.1-0.2-0.1-0.3c0,0-0.1,0-0.2,0c0,0-0.5,0-1.3,0.1l-1,0.1v1.7
		c0,1.1,0.1,1.8,0.2,1.8c0.1,0.1,0.5,0.2,1,0.2c0.7,0.1,1.1,0,1.2-0.2c0.2-0.2,0.2-0.9,0.2-2C18.3,18.1,18.3,17.8,18.3,17.6z
		 M23.7,13.7c0-0.6,0.1-1,0.3-1c0.2,0,0.4,0.1,0.5,0.3c0.1,0.2,0.2,2.3,0.3,6.2c0.1,4,0.1,6,0.1,6.2c-0.1,0.2-0.2,0.3-0.4,0.4
		c-0.2,0.1-0.4,0.1-0.5,0c-0.1-0.1-0.2-2.3-0.3-6.7C23.7,16.2,23.7,14.3,23.7,13.7z"/>
</g>
<g class="st1">
	<path class="st3" d="M19.1,16c0.1,0.4,0.1,1.2,0.2,2.3c0,0.5,0,0.9,0,1.1c0,0.2,0,0.5,0,0.8c0,0.3-0.1,0.5-0.1,0.6
		c0,0.1-0.1,0.2-0.2,0.4c-0.1,0.2-0.2,0.3-0.3,0.3c-0.1,0-0.2,0.1-0.4,0.2c-0.2,0.1-0.4,0.1-0.5,0.1c-0.2,0-0.4,0-0.8,0.1
		c-0.6,0.1-1.1,0.1-1.3,0c-0.3,0-0.5-0.1-0.7-0.2c-0.2-0.2-0.4-0.4-0.4-0.6c0-0.2,0-0.9,0.1-2c0.1-1.5,0.2-2.4,0.3-2.6
		c0-0.1,0.1-0.2,0.1-0.2c0.1,0,0.2-0.1,0.3-0.1c0.2-0.1,0.4-0.1,0.7-0.1c0.3,0,0.7-0.1,1.2-0.2c0.9-0.2,1.4-0.3,1.5-0.3
		C18.8,15.4,19,15.5,19.1,16z M18.3,17.6c0-0.2,0-0.4-0.1-0.5c0-0.1-0.1-0.2-0.1-0.3c0,0-0.1,0-0.2,0c0,0-0.5,0-1.3,0.1l-1,0.1v1.7
		c0,1.1,0.1,1.8,0.2,1.8c0.1,0.1,0.5,0.2,1,0.2c0.7,0.1,1.1,0,1.2-0.2c0.2-0.2,0.2-0.9,0.2-2C18.3,18.1,18.3,17.8,18.3,17.6z
		 M23.7,13.7c0-0.6,0.1-1,0.3-1c0.2,0,0.4,0.1,0.5,0.3c0.1,0.2,0.2,2.3,0.3,6.2c0.1,4,0.1,6,0.1,6.2c-0.1,0.2-0.2,0.3-0.4,0.4
		c-0.2,0.1-0.4,0.1-0.5,0c-0.1-0.1-0.2-2.3-0.3-6.7C23.7,16.2,23.7,14.3,23.7,13.7z"/>
</g>
<g class="st1">
	<path class="st2" d="M30.8,14.1c1.1-0.3,1.8-0.4,2-0.3c0.2,0.1,0.3,0.4,0.4,1v0c0.2,1.6,0.2,2.6,0.2,2.9s-0.1,0.6-0.3,0.8
		c-0.2,0.2-0.7,0.5-1.4,0.7c-0.8,0.2-1.2,0.4-1.3,0.6c-0.1,0.2-0.1,0.6,0,1.2l0.1,0.9h2c0.9,0,1.5,0,1.7,0.1
		c0.2,0.1,0.3,0.2,0.4,0.4c0,0.1,0,0.2,0,0.3c0,0.1-0.2,0.1-0.4,0.2c-0.2,0.1-0.5,0.1-0.9,0.1c-0.4,0-0.9,0.1-1.6,0.1
		c-1.2,0.1-1.8,0-1.9-0.1c-0.1-0.2-0.2-0.7-0.3-1.7c-0.1-1,0-1.7,0.1-2.1c0.1-0.3,0.2-0.5,0.3-0.5c0.1-0.1,0.3-0.1,0.6-0.1
		c0.4,0,0.9-0.1,1.5-0.4c0.3-0.1,0.4-0.2,0.5-0.3c0.1-0.1,0.2-0.2,0.2-0.3s0-0.2,0-0.4c-0.1-0.4-0.1-0.8-0.2-1.4
		c0-0.3-0.1-0.4-0.1-0.5c0-0.1-0.1-0.2-0.1-0.3c-0.1-0.1-0.2-0.1-0.3-0.1c-0.2,0-0.3,0-0.5,0.1c-0.2,0-0.5,0.1-0.8,0.2
		c-0.7,0.2-1.2,0.3-1.3,0.3c-0.2,0-0.3-0.1-0.3-0.3c0-0.3,0.1-0.5,0.3-0.6c0.2-0.1,0.8-0.3,1.6-0.5C30.7,14.1,30.8,14.1,30.8,14.1z
		 M40.7,13.6c0.2,0,0.3,0.2,0.4,0.6c0,0.4,0.1,1.7,0.1,4c0,3.2,0.1,4.9,0.2,5.3c0.1,0.4,0,0.7-0.1,1c-0.2,0.3-0.4,0.3-0.6,0.2
		c-0.1-0.1-0.2-0.2-0.2-0.4c0-0.2-0.1-0.4-0.1-0.8c0-0.4-0.1-0.9-0.1-1.7c-0.1-1.8-0.2-2.7-0.3-2.8c-0.1-0.1-0.5,0-1.2,0.1
		c-0.7,0.2-1,0.3-1.2,0.4c-0.1,0.1-0.1,0.7,0,1.7c0.1,0.6,0.1,1.1,0.1,1.3c0,0.3-0.1,0.4-0.2,0.5c-0.4,0.4-0.6,0.3-0.8-0.2
		c-0.1-0.2-0.1-0.5-0.1-0.8c0-0.5-0.1-1.6-0.3-3.3c-0.2-1.7-0.3-3-0.5-3.8c-0.1-0.4-0.1-0.6-0.1-0.7c0-0.1,0.1-0.1,0.3-0.1
		c0.3,0,0.5,0.2,0.6,0.5c0.1,0.3,0.2,1,0.3,2c0.1,0.7,0.1,1.2,0.2,1.3c0.1,0.1,0.2,0.2,0.5,0.2c0.3,0,0.8-0.1,1.5-0.3l1-0.4
		l-0.1-1.8c-0.1-1.2,0-1.9,0.1-2C40.2,13.6,40.4,13.5,40.7,13.6z"/>
	<path class="st2" d="M50.7,11.6c0.2,0,0.4,0.1,0.4,0.2c0,0,0,0.1,0,0.3s0,0.5,0,0.9c0,0.4,0,0.7,0,1c0,0.3,0,0.6,0,0.7
		c0,0.1,0,0.3,0,0.5c0,0.2,0,0.4,0,0.4c0,0,0,0.1-0.1,0.3c-0.1,0.2-0.1,0.2-0.1,0.3s-0.1,0.1-0.2,0.2c-0.1,0.1-0.2,0.1-0.3,0.2
		c-0.1,0-0.2,0-0.4,0.1c-0.2,0.1-0.4,0.1-0.5,0.1c-0.1,0-0.3,0.1-0.6,0.1c-0.7,0.1-1.2,0.3-1.5,0.5c-0.2,0.2-0.3,0.5-0.3,1l0.1,0.6
		h1.7c1.2,0,2,0,2.5-0.1c0.4-0.1,0.7-0.1,0.8,0c0.1,0,0.1,0.2,0.1,0.5c0,0.3,0,0.5-0.1,0.5c-0.1,0.1-0.3,0.1-0.7,0
		c-0.5-0.1-1.4,0-2.6,0.2c-1.2,0.2-1.9,0.2-2.3,0.1c-0.2-0.1-0.4-0.2-0.4-0.3c-0.1-0.2-0.1-0.6-0.1-1.4c0-0.4,0-0.6,0-0.8
		c0-0.2,0-0.3,0.1-0.5c0.1-0.2,0.1-0.3,0.2-0.4c0.1-0.1,0.2-0.2,0.4-0.3c0.2-0.1,0.4-0.2,0.6-0.2c0.2-0.1,0.5-0.1,1-0.2
		c0.9-0.3,1.5-0.4,1.6-0.5c0.1-0.1,0.2-0.4,0.2-0.9c0-0.5-0.1-0.9-0.2-1.3c-0.1-0.2-0.3-0.3-0.7-0.3s-1.1,0.1-2.1,0.3
		c-0.7,0.2-1.2,0.2-1.5,0.2c-0.3,0-0.4-0.2-0.4-0.4c0-0.2,0.2-0.4,0.7-0.5c0.5-0.1,1.4-0.3,2.7-0.5c0.9-0.1,1.4-0.2,1.5-0.3
		C50.3,11.6,50.4,11.5,50.7,11.6z M49.8,20.9c0.1,0,0.2,0.2,0.3,0.5c0,0.3,0.1,1.1,0.1,2.4v0.9l1.3-0.1c0.5-0.1,1.3-0.1,2.3-0.3
		l1-0.1l-0.1,0.6c0,0.3-0.1,0.4-0.2,0.5c-0.1,0.1-0.3,0.1-0.7,0.1c-0.6,0.1-1.5,0.2-3,0.4c-2.9,0.4-4.4,0.4-4.7,0.1
		c-0.2-0.2-0.1-0.4,0.4-0.6c0.3-0.1,0.7-0.2,1.1-0.2c0.7,0,1.1-0.1,1.3-0.4c0.2-0.3,0.3-0.9,0.3-1.9c0-1.1,0.1-1.7,0.2-1.8
		C49.5,20.9,49.6,20.9,49.8,20.9z"/>
</g>
<g class="st1">
	<path class="st3" d="M30.8,14.1c1.1-0.3,1.8-0.4,2-0.3c0.2,0.1,0.3,0.4,0.4,1v0c0.2,1.6,0.2,2.6,0.2,2.9s-0.1,0.6-0.3,0.8
		c-0.2,0.2-0.7,0.5-1.4,0.7c-0.8,0.2-1.2,0.4-1.3,0.6c-0.1,0.2-0.1,0.6,0,1.2l0.1,0.9h2c0.9,0,1.5,0,1.7,0.1
		c0.2,0.1,0.3,0.2,0.4,0.4c0,0.1,0,0.2,0,0.3c0,0.1-0.2,0.1-0.4,0.2c-0.2,0.1-0.5,0.1-0.9,0.1c-0.4,0-0.9,0.1-1.6,0.1
		c-1.2,0.1-1.8,0-1.9-0.1c-0.1-0.2-0.2-0.7-0.3-1.7c-0.1-1,0-1.7,0.1-2.1c0.1-0.3,0.2-0.5,0.3-0.5c0.1-0.1,0.3-0.1,0.6-0.1
		c0.4,0,0.9-0.1,1.5-0.4c0.3-0.1,0.4-0.2,0.5-0.3c0.1-0.1,0.2-0.2,0.2-0.3s0-0.2,0-0.4c-0.1-0.4-0.1-0.8-0.2-1.4
		c0-0.3-0.1-0.4-0.1-0.5c0-0.1-0.1-0.2-0.1-0.3c-0.1-0.1-0.2-0.1-0.3-0.1c-0.2,0-0.3,0-0.5,0.1c-0.2,0-0.5,0.1-0.8,0.2
		c-0.7,0.2-1.2,0.3-1.3,0.3c-0.2,0-0.3-0.1-0.3-0.3c0-0.3,0.1-0.5,0.3-0.6c0.2-0.1,0.8-0.3,1.6-0.5C30.7,14.1,30.8,14.1,30.8,14.1z
		 M40.7,13.6c0.2,0,0.3,0.2,0.4,0.6c0,0.4,0.1,1.7,0.1,4c0,3.2,0.1,4.9,0.2,5.3c0.1,0.4,0,0.7-0.1,1c-0.2,0.3-0.4,0.3-0.6,0.2
		c-0.1-0.1-0.2-0.2-0.2-0.4c0-0.2-0.1-0.4-0.1-0.8c0-0.4-0.1-0.9-0.1-1.7c-0.1-1.8-0.2-2.7-0.3-2.8c-0.1-0.1-0.5,0-1.2,0.1
		c-0.7,0.2-1,0.3-1.2,0.4c-0.1,0.1-0.1,0.7,0,1.7c0.1,0.6,0.1,1.1,0.1,1.3c0,0.3-0.1,0.4-0.2,0.5c-0.4,0.4-0.6,0.3-0.8-0.2
		c-0.1-0.2-0.1-0.5-0.1-0.8c0-0.5-0.1-1.6-0.3-3.3c-0.2-1.7-0.3-3-0.5-3.8c-0.1-0.4-0.1-0.6-0.1-0.7c0-0.1,0.1-0.1,0.3-0.1
		c0.3,0,0.5,0.2,0.6,0.5c0.1,0.3,0.2,1,0.3,2c0.1,0.7,0.1,1.2,0.2,1.3c0.1,0.1,0.2,0.2,0.5,0.2c0.3,0,0.8-0.1,1.5-0.3l1-0.4
		l-0.1-1.8c-0.1-1.2,0-1.9,0.1-2C40.2,13.6,40.4,13.5,40.7,13.6z"/>
	<path class="st3" d="M50.7,11.6c0.2,0,0.4,0.1,0.4,0.2c0,0,0,0.1,0,0.3s0,0.5,0,0.9c0,0.4,0,0.7,0,1c0,0.3,0,0.6,0,0.7
		c0,0.1,0,0.3,0,0.5c0,0.2,0,0.4,0,0.4c0,0,0,0.1-0.1,0.3c-0.1,0.2-0.1,0.2-0.1,0.3s-0.1,0.1-0.2,0.2c-0.1,0.1-0.2,0.1-0.3,0.2
		c-0.1,0-0.2,0-0.4,0.1c-0.2,0.1-0.4,0.1-0.5,0.1c-0.1,0-0.3,0.1-0.6,0.1c-0.7,0.1-1.2,0.3-1.5,0.5c-0.2,0.2-0.3,0.5-0.3,1l0.1,0.6
		h1.7c1.2,0,2,0,2.5-0.1c0.4-0.1,0.7-0.1,0.8,0c0.1,0,0.1,0.2,0.1,0.5c0,0.3,0,0.5-0.1,0.5c-0.1,0.1-0.3,0.1-0.7,0
		c-0.5-0.1-1.4,0-2.6,0.2c-1.2,0.2-1.9,0.2-2.3,0.1c-0.2-0.1-0.4-0.2-0.4-0.3c-0.1-0.2-0.1-0.6-0.1-1.4c0-0.4,0-0.6,0-0.8
		c0-0.2,0-0.3,0.1-0.5c0.1-0.2,0.1-0.3,0.2-0.4c0.1-0.1,0.2-0.2,0.4-0.3c0.2-0.1,0.4-0.2,0.6-0.2c0.2-0.1,0.5-0.1,1-0.2
		c0.9-0.3,1.5-0.4,1.6-0.5c0.1-0.1,0.2-0.4,0.2-0.9c0-0.5-0.1-0.9-0.2-1.3c-0.1-0.2-0.3-0.3-0.7-0.3s-1.1,0.1-2.1,0.3
		c-0.7,0.2-1.2,0.2-1.5,0.2c-0.3,0-0.4-0.2-0.4-0.4c0-0.2,0.2-0.4,0.7-0.5c0.5-0.1,1.4-0.3,2.7-0.5c0.9-0.1,1.4-0.2,1.5-0.3
		C50.3,11.6,50.4,11.5,50.7,11.6z M49.8,20.9c0.1,0,0.2,0.2,0.3,0.5c0,0.3,0.1,1.1,0.1,2.4v0.9l1.3-0.1c0.5-0.1,1.3-0.1,2.3-0.3
		l1-0.1l-0.1,0.6c0,0.3-0.1,0.4-0.2,0.5c-0.1,0.1-0.3,0.1-0.7,0.1c-0.6,0.1-1.5,0.2-3,0.4c-2.9,0.4-4.4,0.4-4.7,0.1
		c-0.2-0.2-0.1-0.4,0.4-0.6c0.3-0.1,0.7-0.2,1.1-0.2c0.7,0,1.1-0.1,1.3-0.4c0.2-0.3,0.3-0.9,0.3-1.9c0-1.1,0.1-1.7,0.2-1.8
		C49.5,20.9,49.6,20.9,49.8,20.9z"/>
</g>
</svg>
