<?xml version="1.0" encoding="utf-8"?>
<!-- Generator: Adobe Illustrator 28.0.0, SVG Export Plug-In . SVG Version: 6.00 Build 0)  -->
<svg version="1.1" id="Layer_1" xmlns="http://www.w3.org/2000/svg" xmlns:xlink="http://www.w3.org/1999/xlink" x="0px" y="0px"
	 viewBox="0 0 62.6 103.9" style="enable-background:new 0 0 62.6 103.9;" xml:space="preserve">
<style type="text/css">
	.st0{fill:#FF4D4D;}
</style>
<g>
	<path class="st0" d="M62.6,105.5V-6.3C45.5-7,28.4-6.7,11.3-6.7v112.2C28.3,105.5,45.5,105.3,62.6,105.5z"/>
	<g>
		<g>
			<g>
				<path class="st0" d="M6.5,17.5c0-0.1-0.1-0.1-0.1-0.2c0-0.1,0-0.2,0-0.3c-0.1,0-0.2,0-0.2,0c-0.1,0-0.1,0.2-0.2,0
					C6,17,5.9,17,5.8,17c-0.1-0.1-0.1-0.2-0.1-0.2c-0.1,0.1-0.1,0.2-0.2,0.3c-0.1-0.2,0-0.4,0.1-0.6c-0.2-0.1-0.5,0-0.5-0.3
					c-0.1,0-0.2-0.2-0.4,0c-0.1,0.1-0.2,0-0.4,0c-0.1,0-0.1,0.1-0.2,0.1c-0.1-0.2,0-0.3,0.2-0.3c-0.1-0.1-0.2-0.1-0.3-0.2
					c0-0.2,0.2-0.3,0.3-0.3c0.3,0,0.4-0.2,0.4-0.4c-0.1-0.1-0.2-0.1-0.4-0.2c0.1-0.2,0.2-0.4,0.3-0.6c0.1,0,0.2,0,0.4,0
					c-0.2-0.2-0.4-0.4-0.6-0.6c0-0.1,0-0.1,0.1-0.1c0,0,0.1-0.1,0.1-0.1c0,0,0.1,0,0.1,0.1c0.1,0.1,0.2,0.2,0.4,0.3
					c0.3,0,0.2,0.1,0.4-0.1c0.1-0.1,0.2-0.1,0.3-0.1c0-0.1,0.1-0.2,0.1-0.3c0,0-0.1-0.1-0.1-0.1c-0.1,0-0.3,0.1-0.4-0.1
					c-0.1-0.1-0.2-0.1-0.3,0c-0.2,0.2-0.4,0-0.6,0.1c-0.1-0.1-0.2-0.3-0.3-0.3c-0.2,0,0-0.3-0.3-0.2c0.2-0.1,0.3-0.1,0.4,0
					c0,0.1,0.1,0.1,0.1,0.1c0.1,0.1,0.4,0.1,0.4-0.1c0-0.2,0.1-0.2,0.2-0.3c0.1-0.1,0.1-0.2,0.2-0.3c-0.2,0-0.3,0-0.5,0
					c-0.2-0.1-0.2-0.4-0.5-0.3c0.1-0.3,0.2-0.4,0.2-0.6c-0.1-0.1-0.2-0.2-0.4-0.3c0.3-0.1,0.5,0,0.7-0.1c0-0.1-0.1-0.2-0.1-0.3
					c-0.1-0.1-0.2-0.1-0.3-0.1c0-0.1,0-0.1,0-0.2C4.4,9.9,4.4,9.7,4.6,9.6c0.1-0.1,0.1-0.3-0.1-0.4C4.2,9.1,4.3,8.9,4.3,8.7
					c0.1,0,0.2,0.1,0.3,0.1c0-0.1,0-0.3,0-0.4c0.1-0.1,0.2-0.1,0.3-0.2c0-0.1-0.1-0.1-0.1-0.2C4.9,7.9,5.1,7.7,5.4,8
					c0-0.2,0-0.3,0-0.4c0.1,0,0.1,0,0.2,0c0.1,0,0.1,0.1,0.2,0.1c0,0,0.1,0,0.2,0C5.8,7.5,5.8,7.5,5.7,7.4C5.6,7.2,6,7.3,5.9,7.1
					c-0.2,0.1-0.3,0-0.4-0.2c0,0,0-0.1,0-0.1c0-0.1,0-0.2,0-0.3c0.1,0,0.2,0,0.2,0c0.1,0,0.1-0.1,0.2-0.2C5.8,6,5.6,5.9,5.6,5.6
					c0.1-0.1,0.2-0.1,0.3,0C6.1,5.8,6.3,6,6.5,6.1c0.1,0.1,0,0.3,0.2,0.3c0,0.1,0,0.3,0.1,0.4C6.9,6.6,7,6.5,7,6.4
					c0.1-0.1,0.1-0.3,0.1-0.4c0.2,0,0.2,0.1,0.2,0.3c0,0.2,0,0.3,0,0.5c0,0.1-0.1,0.2-0.1,0.3c0,0.1,0,0.2,0,0.3
					c0.1,0,0.2,0,0.2-0.1c0.1-0.1,0.2-0.4,0.2-0.5c0-0.3,0-0.3-0.2-0.9c0.1-0.1,0.1-0.2,0.2-0.2C7.8,5.6,7.9,5.5,8,5.8
					C8,5.9,8.1,6,8.2,6.1C8.1,6.2,7.9,5.9,7.9,6.2c0.1,0,0.3,0,0.4,0c0-0.1,0.3-0.2,0-0.4c0.1-0.1,0.1-0.1,0.2-0.1
					c0.1,0,0.2-0.1,0.2-0.1c0.1,0,0.3,0.1,0.4,0.2c0.2,0.2,0.4,0.3,0.6,0.5c0.1-0.2,0.3-0.4,0-0.6c0.2-0.2,0.4,0,0.5-0.2
					c0,0,0.1,0.1,0.1,0.1c0.1,0.1,0.1,0.1,0.2,0c0.1-0.1,0.2,0,0.3,0c0.1,0.3,0.3,0.4,0.5,0.7c0.1,0.1,0.2,0.2,0.3,0.1
					c0.1-0.1,0.2-0.1,0.4-0.2c0.1,0,0.3-0.1,0.3,0c0.1,0.1,0.2,0.3,0.2,0.4c0,0.1,0,0.2,0,0.4c0.2-0.1,0.3-0.2,0.5-0.3
					c0,0.1,0,0.2,0,0.3c0.1,0.2,0.1,0.4,0.3,0.6c0.1,0.1,0.2,0.2,0.3,0.4c0.1-0.1,0.1-0.2,0.1-0.2c0.1,0.1,0.1,0.1,0.4,0
					c0,0,0,0.1,0,0.1c0,0,0,0.1,0,0.1c-0.1,0-0.2,0-0.4,0C14,8.3,13.6,8.5,14,8.7c0.1-0.2,0.3-0.3,0.4-0.5c0.2,0.1,0.3,0.3,0.3,0.5
					c0,0.2,0.1,0.3,0.1,0.5c0,0,0.1-0.1,0.1-0.1c0.2,0.2,0.1,0.7,0.5,0.6c0-0.1,0.1-0.2,0.1-0.4c0,0,0.1,0,0.1,0
					c0.3,0.2,0.4,0.4,0.2,0.8c0,0,0,0.1-0.1,0.2c0.2,0,0.4,0,0.5,0c0.1,0.2,0,0.2-0.1,0.2c-0.1,0.3,0,0.5,0.2,0.7
					c0.1,0,0.2-0.1,0.3-0.1c0.1,0.1,0,0.4,0.2,0.3c0.1,0.2,0.1,0.4,0.2,0.6c0.2,0.1,0.4,0.2,0.6,0.2c-0.1,0.2-0.1,0.3-0.2,0.4
					c-0.2,0.1-0.1-0.3-0.3-0.2c-0.1,0-0.2-0.1-0.3-0.1c-0.3,0.3-0.2,0.6-0.2,1c0.2-0.1,0.3-0.2,0.4-0.3c0.1,0.1,0.1,0.3,0.1,0.4
					c0,0.1,0.1,0.2,0.1,0.3c0.2-0.2,0.2-0.6,0.6-0.5c-0.1,0.3-0.3,0.5-0.4,0.8c0,0-0.1,0-0.1-0.1c0,0.2,0,0.3,0,0.6
					c0.1-0.1,0.2-0.2,0.2-0.3c0,0.1,0.1,0.1,0.1,0.2c-0.1,0.2-0.2,0.4-0.5,0.4c-0.1,0-0.2,0.1-0.2,0.1c0,0.1,0.1,0.2,0.1,0.4
					c-0.2,0-0.3,0-0.5,0c0.1,0.1,0.1,0.2,0.1,0.3c-0.2,0.1-0.2,0.4-0.5,0.4c0,0-0.1,0.1-0.1,0.2c0,0.1-0.1,0.3-0.1,0.4
					c0.1,0,0.1,0.1,0.2,0.2c0.1,0.1,0,0.2-0.1,0.3c-0.1,0.1-0.2,0.1-0.3,0.2c0.1,0.1,0.1,0.2,0.2,0.3c-0.1,0-0.2,0.1-0.2,0
					c-0.2-0.1-0.5,0-0.6,0.2c-0.1-0.1-0.2-0.3-0.3-0.4c-0.1,0.2-0.1,0.4-0.2,0.6c0,0,0.1,0.1,0.1,0.1c0.1,0,0.1-0.1,0.2-0.1
					c0.1,0,0.1,0.1,0.2,0.2c-0.1,0-0.2,0-0.3,0.1c0,0.2,0.2,0.4,0.3,0.6c-0.2,0.1-0.3,0.3-0.5,0.4c-0.1-0.1-0.2-0.2-0.3-0.4
					c-0.1,0.1-0.3,0.2-0.5,0.4c0,0.1,0,0.2,0,0.5c-0.2-0.3-0.3-0.6-0.5-0.8c0,0-0.1,0-0.1,0c-0.1,0.1-0.1,0.2-0.2,0.3
					c-0.1-0.1-0.2-0.2-0.3,0c0,0.1-0.2,0-0.2,0.2c0,0.1-0.1,0.1-0.2,0.2c0-0.1,0-0.2-0.1-0.2c0-0.1-0.1-0.2-0.1-0.2
					c-0.1,0.1-0.2,0.1-0.2,0.2c-0.1,0.1-0.2,0.2-0.3,0.4c0-0.3,0-0.9-0.1-1.1c-0.1,0-0.3,0-0.4,0c0,0.1,0.2,0.2,0,0.4
					c-0.1,0,0.2,0.2,0,0.3C11.2,19,11,19,11,18.8c-0.1-0.2-0.2-0.4-0.4-0.4c-0.3,0-0.4-0.3-0.7-0.3c-0.2,0.1-0.1,0.5-0.4,0.6
					c-0.2,0-0.2-0.2-0.2-0.3c0-0.2,0-0.4-0.2-0.6c-0.2,0.1-0.3,0.3-0.3,0.5c0,0-0.1,0.1-0.2,0.2c0-0.4,0-0.7,0-1.1
					c-0.1,0.1-0.2,0.1-0.3,0.2c0-0.2,0-0.4,0-0.6c0.1,0,0.3,0.1,0.4,0.1c0-0.1,0-0.2,0-0.3c-0.1-0.2-0.2,0.2-0.4,0
					C8.3,16.7,8.2,17,8.1,17c-0.1,0-0.3,0-0.4,0.2c0.1,0,0.1,0.1,0.2,0.1c0.4,0,0.4,0,0.2,0.4c0.1,0.1,0.2,0.1,0.3,0.2
					c-0.1,0.2-0.2,0.3-0.2,0.5C8.1,18.2,8,18.1,7.9,18c0,0.1,0,0.1,0,0.2c-0.1-0.1-0.3-0.1-0.3-0.2c-0.1-0.1-0.2-0.2-0.3-0.3
					c0,0.1,0,0.2,0,0.4c-0.3-0.3-0.4-0.6-0.4-1c0-0.1,0.1-0.2-0.2-0.5c-0.1-0.2,0-0.2,0-0.2c0.1,0,0.2,0.1,0.2,0.2
					c0,0.2,0.1,0.1,0.2,0.1c0-0.1,0-0.2,0-0.3c0.2-0.1,0.3-0.2,0.5-0.3c-0.1-0.1,0-0.3,0-0.3c0.4,0,0.6-0.3,1-0.2
					c-0.1-0.1-0.1-0.1-0.1-0.2c0.1,0,0.2,0,0.3-0.1c-0.2-0.1-0.3-0.2-0.4-0.3c-0.3,0.3-0.2-0.1-0.3-0.2c0,0,0,0-0.1,0
					c0,0.1-0.1,0.2-0.1,0.3c0.1,0.1,0.2,0.2,0.3,0.3c-0.1,0-0.3,0.1-0.4,0.1c0,0-0.1,0-0.1,0c-0.1-0.1,0-0.2-0.2-0.2
					c-0.1,0-0.2-0.1-0.3-0.1c0,0.1,0,0.2,0,0.2c0,0.1-0.1,0.1,0,0.2c0,0.1-0.1,0.2-0.1,0.2c-0.2,0-0.3,0.3-0.5,0.1c0,0-0.1,0-0.1,0
					c0,0.1-0.1,0.2,0.1,0.5c0.1,0.2,0,0.2-0.1,0.2C6.7,17.1,6.7,17.3,6.5,17.5z M5,10.9C5,10.9,5,11,5,10.9C5.1,11,5.1,11,5,10.9
					C5.1,10.9,5.1,10.9,5,10.9c0,0,0,0-0.1,0.1C5,11,5,11,5,10.9C5,11,5,11,5,10.9C5,11,5,11,5,11C4.9,11,5,11.1,5,10.9z M9.5,11
					c-0.1-0.1-0.1-0.1-0.2-0.2c0-0.3-0.2-0.5-0.5-0.6c0,0-0.1,0-0.1-0.1c-0.1,0.1-0.2,0.1-0.3,0.2c0.2,0.2,0.3,0.4,0.4,0.6
					c0.1,0.2,0.1,0.5,0.4,0.5C9.4,11.3,9.5,11.2,9.5,11z M10.4,10.5c0.1-0.1,0.2-0.3,0.2-0.4c-0.2-0.1-0.1-0.2,0-0.3
					c-0.3-0.1-0.4,0.2-0.5,0.4C10,10.1,9.9,10,9.8,10c-0.4,0.4-0.4,0.5,0.2,0.9c0.1-0.1,0.2-0.2,0-0.3
					C10.1,10.4,10.2,10.3,10.4,10.5z M11.3,10.5c0-0.3,0.1-0.5,0.1-0.8c-0.3,0-0.5-0.1-0.8,0.1C11,10,11,10.4,11.3,10.5z M10.5,11.8
					c-0.1-0.2-0.3-0.3-0.5-0.3c0.1,0.2,0.1,0.3,0.1,0.5C10.3,12,10.4,12,10.5,11.8z M7.1,13.9C7,14.1,7,14.2,6.9,14.2
					c-0.1,0.1-0.1,0.2,0,0.3c0,0,0.2,0,0.3-0.1c0,0,0,0,0.1-0.1C7.2,14.3,7.2,14.1,7.1,13.9z M12.2,7.3C12.1,7,12.1,6.9,12,6.7
					c-0.1,0-0.2,0-0.3,0C11.7,7,12,7.1,12.2,7.3z M8.8,13.6c-0.4,0-0.4,0-0.4,0.4c0.1,0,0.1,0.1,0.2,0.1C8.7,13.9,8.7,13.8,8.8,13.6
					z M12.5,9.5c-0.1-0.1-0.1-0.3-0.3-0.2c-0.1,0-0.2,0.1-0.2,0.3c0.1,0.1,0.2,0.1,0.3,0.2C12.4,9.6,12.4,9.6,12.5,9.5z M14.2,18.1
					c-0.2-0.1-0.3,0-0.4,0.2c0,0.1,0,0.2,0.2,0.3C14.1,18.5,14.1,18.3,14.2,18.1z M8,13c-0.1-0.1-0.2-0.3-0.2-0.4c0,0-0.1,0-0.1,0
					c0.2,0.1-0.1,0.2,0,0.3C7.7,13,7.8,13,8,13z M9,17.7c0.2-0.1,0.3-0.3,0.3-0.4c-0.1,0-0.2,0-0.3,0C9,17.5,9,17.6,9,17.7z
					 M11.8,10.6c0,0.1,0,0.2,0,0.2c0.1,0.1,0.3,0.2,0.5,0.1C12.1,10.8,11.9,10.7,11.8,10.6z M9.7,9.1C9.9,9.2,9.9,9.2,10,9.3
					C9.8,9,10.4,9.2,10.2,8.9C10.1,8.9,10,9,9.7,9.1z M8.2,6.8c0.2,0,0.4,0,0.3-0.2c-0.1,0-0.1-0.1-0.2-0.1C8.3,6.6,8.2,6.7,8.2,6.8
					z M6.9,15.8c0.1-0.3,0-0.3-0.1-0.4c0,0-0.1,0-0.1,0.1C6.8,15.5,6.8,15.6,6.9,15.8z M12.2,17.5c-0.1,0.2,0,0.3,0.1,0.4
					C12.4,17.7,12.4,17.6,12.2,17.5z M9.2,10.1c0.1,0,0.2,0,0.3,0c0,0,0.1-0.1,0-0.1c0-0.1-0.2-0.1-0.2-0.1C9.2,10,9.2,10,9.2,10.1z
					 M9.4,17.2C9.4,17,9.3,17,9.2,16.9c0,0-0.1,0-0.1,0c0,0,0,0.1,0,0.1C9.2,17.1,9.3,17.2,9.4,17.2z M9,6.4
					C8.9,6.3,8.9,6.1,8.6,6.2C8.7,6.3,8.8,6.5,9,6.4z M9.4,16.8C9.4,16.8,9.5,16.8,9.4,16.8c0.1-0.1,0.2-0.2,0.1-0.3
					c0,0-0.1,0-0.1,0C9.3,16.5,9.4,16.6,9.4,16.8C9.4,16.7,9.4,16.8,9.4,16.8z M4.8,11.5c0-0.2,0-0.2,0-0.2c0,0-0.1-0.1-0.1-0.1
					c0,0-0.1,0-0.1,0c0,0,0,0.1,0,0.1C4.7,11.4,4.7,11.4,4.8,11.5z M5.9,10.5C5.9,10.5,5.9,10.5,5.9,10.5c-0.1-0.1-0.2-0.2-0.3-0.2
					c0,0,0,0.1,0,0.1C5.6,10.6,5.7,10.6,5.9,10.5C5.8,10.6,5.8,10.6,5.9,10.5z M17,11.7c-0.3,0.1-0.2,0.2-0.2,0.4
					C16.9,12,16.9,11.9,17,11.7z M4.9,9.1C4.8,9.1,4.8,9.2,4.7,9.3C4.9,9.3,5,9.2,4.9,9.1z M5,14.7c0-0.2,0-0.2-0.1-0.2
					C4.9,14.6,5,14.6,5,14.7z M8,12.3C8,12.3,8,12.3,8,12.3C8,12.4,8,12.5,8,12.6c0,0,0,0,0,0C8,12.5,8,12.4,8,12.3z M6.6,15.8
					C6.6,15.8,6.6,15.8,6.6,15.8c0.1-0.1,0.1-0.1,0-0.2c0,0-0.1,0-0.1,0C6.5,15.7,6.6,15.7,6.6,15.8z M7.1,17.4c0,0.1,0,0.1,0.1,0.1
					c0,0,0.1-0.1,0.1-0.1C7.2,17.4,7.2,17.3,7.1,17.4C7.1,17.3,7.1,17.4,7.1,17.4z M6.3,15.2c0.1,0,0.1,0,0.1,0c0,0,0,0,0-0.1
					C6.4,15.1,6.4,15.1,6.3,15.2C6.3,15.1,6.3,15.1,6.3,15.2z M8.6,15C8.7,15,8.7,15,8.6,15C8.7,15,8.7,15,8.6,15
					C8.7,14.9,8.7,14.9,8.6,15C8.7,14.9,8.7,14.9,8.6,15z M8.5,9.1C8.5,9.1,8.5,9.1,8.5,9.1C8.5,9.1,8.5,9.1,8.5,9.1
					C8.5,9.1,8.5,9.1,8.5,9.1C8.5,9.2,8.5,9.1,8.5,9.1z"/>
				<path class="st0" d="M6.6,18.7c-0.1,0.1-0.1,0.1-0.2,0.3c0-0.1,0-0.1,0-0.2c0-0.1,0.1-0.2,0.1-0.3c0-0.1,0.1-0.2,0.1-0.3
					C6.6,18.3,6.6,18.5,6.6,18.7z"/>
				<path class="st0" d="M12.8,6.6c0-0.1,0-0.2,0-0.3c0.2,0.1,0.3,0.2,0.6,0.3C13.1,6.6,12.9,6.6,12.8,6.6z"/>
				<path class="st0" d="M7.7,19.4c-0.1,0.2-0.2,0.4-0.3,0.5c-0.1,0-0.2,0-0.3,0C7.4,19.8,7.4,19.5,7.7,19.4z"/>
				<path class="st0" d="M6.5,19.5c-0.2-0.2-0.1-0.3-0.2-0.5c0.1,0,0.2,0.1,0.2,0.1C6.6,19.2,6.5,19.3,6.5,19.5z"/>
				<path class="st0" d="M17.6,12.8c-0.1,0.1-0.1,0.1-0.1,0.2c-0.1,0-0.1-0.1-0.2-0.1c-0.1,0-0.1,0-0.1-0.1c0,0,0.1-0.1,0.1-0.1
					C17.4,12.7,17.5,12.8,17.6,12.8z"/>
				<path class="st0" d="M8.4,19.4c-0.1,0.1-0.1,0.1-0.1,0.2c-0.1,0-0.1,0-0.2-0.1c0,0-0.1-0.1-0.1-0.1c0,0,0.1-0.1,0.1-0.1
					C8.2,19.3,8.3,19.4,8.4,19.4z"/>
				<path class="st0" d="M8.9,19c0,0.2,0,0.3,0,0.4C8.7,19.2,8.7,19.1,8.9,19z"/>
				<path class="st0" d="M10.7,19.3c0,0.2,0,0.3,0,0.4C10.5,19.5,10.5,19.4,10.7,19.3z"/>
				<path class="st0" d="M16.6,16.2c0,0.2,0,0.3,0,0.5C16.4,16.4,16.4,16.4,16.6,16.2z"/>
				<path class="st0" d="M7.7,18.8c0.1-0.2,0.1-0.3,0.2-0.5C8,18.4,8,18.4,8,18.4C7.9,18.5,7.9,18.6,7.7,18.8z"/>
				<path class="st0" d="M11.5,6.4c0-0.2-0.1-0.2-0.1-0.3c0,0,0.1-0.1,0.1-0.1c0.1,0,0.1,0.1,0.1,0.2C11.6,6.2,11.5,6.2,11.5,6.4z"
					/>
				<path class="st0" d="M13.1,19.6c0-0.1,0-0.2,0-0.3c0,0,0,0,0,0C13.2,19.4,13.2,19.5,13.1,19.6C13.1,19.6,13.1,19.6,13.1,19.6z"
					/>
				<path class="st0" d="M6.5,17.4c0,0.3,0,0.4-0.2,0.3C6.4,17.6,6.5,17.5,6.5,17.4z"/>
				<path class="st0" d="M11.3,19.5c0,0,0.1,0.1,0.2,0.1C11.3,19.6,11.3,19.6,11.3,19.5z"/>
				<path class="st0" d="M13.4,19.2c0.1-0.1,0.1-0.1,0.1-0.1C13.6,19.2,13.6,19.2,13.4,19.2z"/>
				<path class="st0" d="M6.8,6.1C6.8,6.1,6.8,6,6.8,6.1c0-0.1,0-0.1,0-0.1c0,0,0.1,0,0.1,0.1C6.9,6,6.9,6,6.8,6.1z"/>
				<path class="st0" d="M6.3,18.1c-0.1,0-0.1,0-0.1,0c0,0,0,0,0-0.1C6.1,18,6.2,18,6.3,18.1C6.2,18,6.2,18.1,6.3,18.1z"/>
				<path class="st0" d="M7.7,20C7.7,20,7.7,19.9,7.7,20c0.1-0.1,0.1-0.1,0.2,0c0,0,0,0.1,0,0.1C7.8,20,7.7,20,7.7,20z"/>
				<path class="st0" d="M9.9,19.8C9.9,19.8,10,19.7,9.9,19.8c0.1,0,0.1,0,0.1,0c0,0,0,0.1-0.1,0.1C10,19.9,10,19.8,9.9,19.8z"/>
				<path class="st0" d="M10,19.4c0,0.1,0,0.1,0,0.2c0,0,0,0,0,0C10,19.6,10,19.5,10,19.4C10,19.4,10,19.4,10,19.4z"/>
				<path class="st0" d="M10.7,5.1c-0.1,0-0.1,0-0.1,0c0,0,0,0,0-0.1C10.6,5.1,10.6,5,10.7,5.1C10.7,5,10.7,5.1,10.7,5.1z"/>
				<path class="st0" d="M9.1,19.8C9.1,19.8,9,19.8,9.1,19.8c0-0.1,0-0.1,0-0.1c0,0,0.1,0,0.1,0.1C9.2,19.8,9.1,19.8,9.1,19.8z"/>
				<path class="st0" d="M13.3,6.8C13.3,6.8,13.3,6.8,13.3,6.8C13.3,6.8,13.3,6.8,13.3,6.8C13.3,6.8,13.3,6.8,13.3,6.8
					C13.3,6.8,13.3,6.8,13.3,6.8z"/>
				<path class="st0" d="M11,5.7C11,5.7,11,5.7,11,5.7C11,5.7,11,5.7,11,5.7C11.1,5.7,11.1,5.7,11,5.7C11.1,5.7,11,5.7,11,5.7z"/>
				<path class="st0" d="M4.3,11.8C4.3,11.8,4.4,11.8,4.3,11.8C4.4,11.8,4.3,11.9,4.3,11.8C4.3,11.9,4.3,11.8,4.3,11.8
					C4.3,11.8,4.3,11.8,4.3,11.8z"/>
				<path class="st0" d="M10.6,18.8C10.6,18.8,10.6,18.8,10.6,18.8C10.6,18.8,10.7,18.7,10.6,18.8C10.7,18.7,10.7,18.8,10.6,18.8
					C10.7,18.8,10.7,18.8,10.6,18.8z"/>
				<path class="st0" d="M10.2,18.9C10.2,18.9,10.2,19,10.2,18.9C10.2,19,10.2,19,10.2,18.9C10.2,19,10.2,19,10.2,18.9
					C10.2,19,10.2,18.9,10.2,18.9z"/>
				<path class="st0" d="M15.6,8.9C15.6,8.9,15.6,8.9,15.6,8.9C15.5,8.9,15.6,8.9,15.6,8.9C15.6,8.9,15.6,8.9,15.6,8.9
					C15.6,8.9,15.6,8.9,15.6,8.9z"/>
				<path class="st0" d="M7,18.9C7,18.9,7,18.9,7,18.9C7,18.9,6.9,18.9,7,18.9C6.9,18.8,7,18.8,7,18.9C7,18.8,7,18.9,7,18.9z"/>
			</g>
		</g>
		<g>
			<g>
				<path class="st0" d="M11.3,58.2c0-0.2,0-0.3,0-0.5c0.1,0,0.2-0.1,0.4-0.1c0,0.1,0,0.2,0,0.4c0.2,0,0.4-0.1,0.4,0.2
					c0.3,0,0,0.2,0,0.3c0.1,0.1,0.1,0.2,0.3,0.3c0.1,0,0.2,0.1,0.4,0.2c-0.1,0.1-0.2,0.1-0.2,0.2c0,0.1,0,0.2,0,0.3
					c0.1,0,0.2,0,0.3,0c0-0.1-0.1-0.2,0-0.3c0.1-0.1,0.1-0.2,0.2-0.3c0.1-0.1,0.1-0.2,0.3-0.2c0.1,0.2-0.1,0.2-0.1,0.3
					c0,0.1,0.1,0.1,0.1,0.2c0,0.1,0,0.1,0,0.2c0.1,0,0.1,0,0.1-0.1c0.1-0.2,0.2-0.4,0.2-0.7c0.2,0,0.3-0.1,0.4,0.1
					c0.1,0.2,0,0.3-0.1,0.4c0,0-0.1-0.1-0.1-0.1c-0.1,0.2,0,0.2,0.1,0.2c0,0.2,0,0.3,0,0.5c0,0,0.1,0,0.1,0c0.1-0.1,0.1-0.3,0.2-0.4
					c0.3,0.2,0.2,0.6,0.2,0.9c0.1-0.1,0.2-0.1,0.2-0.1c0.1-0.1,0.2-0.2,0.3-0.1c0.1,0.2,0.1,0.4,0.2,0.6c0.1,0,0.2,0,0.3,0
					c0-0.1,0-0.2,0-0.3c-0.1,0-0.2,0.1-0.2,0.1c0,0-0.1,0-0.1-0.1c0-0.1,0.1-0.2,0.1-0.3c0.1,0,0.1,0,0.2,0c0,0.1,0,0.3,0.1,0.4
					c0.2,0,0.1,0.1,0.1,0.2c0,0.1,0.1,0.2,0.1,0.4c0.1,0,0.1,0,0.3,0c0,0.1,0,0.2-0.1,0.3c0.3,0.2,0.1,0.5,0.2,0.7
					c-0.2,0.3,0,0.5,0.2,0.7c0,0,0,0,0,0c0.1-0.1,0.1-0.3,0.3-0.3c0,0.2,0,0.4,0.2,0.6c0,0,0,0.1,0,0.2c0,0.2-0.1,0.4,0.1,0.6
					c0.2,0.1,0.1,0.3,0.2,0.5c0.1,0.1,0.1,0.2,0.1,0.4c-0.1,0.1,0,0.3,0.1,0.4c0.1,0.4,0.2,0.8,0.3,1.1c0,0.1,0.1,0.2,0.1,0.3
					c-0.1,0.1-0.2,0.2-0.3,0.3c0.2,0.2,0,0.2,0,0.3c0.1-0.2-0.2-0.4,0-0.7c0,0-0.1,0-0.2,0c0,0.1,0,0.2,0,0.3c0.1,0.2,0,0.3-0.2,0.3
					c0,0-0.1,0-0.2,0c0,0.1,0.1,0.2,0.1,0.2c0.1,0.1,0.2,0.1,0.2,0.2c0,0.1,0.1,0.2,0.2,0c0.2,0.1,0.1,0.4,0.1,0.6
					c0,0.2,0,0.3-0.2,0.3c-0.1,0-0.2,0-0.3-0.1c0,0.2,0.3,0.5,0,0.7c-0.2,0-0.3-0.1-0.5-0.1c0,0.4,0.1,0.8-0.4,0.9
					c-0.1-0.1-0.1-0.2-0.3-0.4c-0.1,0.3-0.2,0.5-0.3,0.8c-0.1-0.2-0.1-0.2-0.2-0.7c-0.1,0.1-0.1,0.2-0.1,0.2c0,0.1-0.1,0.1-0.1,0.2
					c-0.1,0-0.1-0.1-0.2-0.1c0,0.2,0.1,0.4,0.1,0.7c-0.1-0.1-0.2-0.1-0.4-0.2c0,0-0.1,0.1-0.1,0.1c0.1,0.1,0,0.3,0.1,0.5
					c-0.1,0.1-0.2,0.2-0.4,0.3c-0.1-0.1-0.2-0.2-0.2-0.3c0-0.4-0.3-0.4-0.6-0.4c-0.1,0-0.1,0-0.2,0c-0.1,0.2,0,0.3-0.1,0.5
					c-0.1,0.1,0,0.3,0.1,0.4c0.1,0.1,0,0.3,0,0.4c0.1,0.2,0,0.3,0.1,0.4c-0.2-0.1-0.3-0.2-0.4-0.3c-0.1,0-0.2-0.1-0.3,0.1
					c0,0-0.1,0.1-0.1,0.1c-0.1,0-0.2,0-0.4,0c-0.1-0.3-0.2-0.5-0.4-0.7c0,0.1,0,0.2,0,0.4c-0.1,0-0.1,0-0.2,0.1
					c0,0.1,0.1,0.2,0.1,0.3c0,0.1,0,0.1,0,0.2c-0.1,0-0.2,0-0.2,0c-0.1-0.2-0.2-0.3-0.3-0.5c-0.1,0-0.1,0.1-0.1,0.1
					c-0.1,0-0.2,0-0.3,0.1c-0.1-0.1-0.2-0.2-0.2-0.3c-0.1,0-0.1,0.1-0.1,0.1c0,0.2-0.1,0.4-0.1,0.7c0,0.1-0.1,0.3-0.3,0.3
					c0-0.4,0-0.8-0.3-1.1c0,0.2-0.1,0.4,0.1,0.6c0,0.2-0.1,0.4-0.1,0.6c-0.1-0.1-0.1-0.2-0.1-0.3c0-0.1,0-0.2,0-0.2
					c0-0.1-0.2-0.2,0-0.3c0,0,0,0,0,0c0,0,0,0,0,0c-0.2,0-0.1,0.2-0.1,0.3c-0.1,0.1-0.1,0.3-0.3,0.4c0-0.1,0.1-0.2,0.1-0.3
					c-0.3-0.2-0.4-0.5-0.6-0.8c-0.1-0.2-0.2-0.1-0.3-0.1c0.1,0.1,0.1,0.2,0.2,0.3c0,0.1,0,0.2,0,0.3c0,0-0.1,0-0.1,0
					c-0.1,0-0.2,0-0.3,0c0-0.2,0.2-0.3,0-0.5c0,0,0-0.1-0.1-0.1c-0.3,0-0.3-0.3-0.5-0.4C8,71.4,8,71.3,8.1,71.2
					c0.1,0,0.2,0.1,0.3,0.1c0.1-0.2,0-0.4-0.1-0.4c-0.1,0-0.2,0.1-0.3,0c0-0.2,0.1-0.4,0.1-0.7c-0.1,0.1-0.2,0.1-0.2,0.2
					c-0.1,0.1-0.2,0.2-0.4,0.4c0,0,0,0.1,0,0.2c-0.1,0.1-0.2,0.2-0.4,0.3c0-0.2,0-0.3,0-0.4c0.2-0.2,0.2-0.3,0.1-0.4
					c-0.1,0-0.1,0.1-0.2,0.1c0,0.1,0.1,0.2,0.1,0.3C7,71,6.9,71.1,6.8,71.2c0,0-0.1-0.1-0.1-0.1c0-0.1,0.1-0.1,0.1-0.2
					c0-0.1-0.1-0.1-0.1-0.2c-0.1,0.1-0.1,0.1-0.1,0.2C6.5,71,6.4,71,6.4,71c0,0,0-0.1,0-0.2c0,0,0-0.1,0-0.1
					c0.1-0.1,0.2-0.2,0.1-0.4c-0.1-0.3-0.1-0.4-0.4-0.5c-0.1-0.1-0.2-0.1-0.4-0.2c0.1,0.2,0.1,0.2,0.1,0.4c-0.1,0-0.1,0-0.2-0.1
					c0,0,0-0.1-0.1-0.2c-0.1,0-0.2-0.1-0.2-0.1c0-0.1-0.1-0.2-0.1-0.4c0,0,0-0.1,0-0.1c0.2-0.2,0.1-0.4,0.2-0.6
					c-0.1-0.1-0.2-0.2-0.3-0.4c0,0.1-0.1,0.1-0.1,0.2c0,0,0,0,0.1,0.1c-0.1,0.1-0.3,0.1-0.3-0.1c0-0.1,0-0.2,0.1-0.3
					c-0.1,0-0.2,0-0.3,0c0-0.1,0-0.1,0-0.2c0.1-0.1,0.2-0.2,0.3-0.3c0.1-0.2,0-0.4,0-0.6c0-0.1-0.1-0.2-0.1-0.3
					c0.1-0.4,0.1-0.4-0.2-0.6c-0.1,0-0.1-0.1-0.2-0.2c0.1-0.1,0.2-0.2,0.3-0.3c0,0,0-0.1,0-0.1c-0.1-0.1-0.3-0.3-0.1-0.5
					c0,0-0.1-0.1-0.2-0.2c0.1-0.1,0.2-0.2,0.3-0.3c-0.1-0.1-0.1-0.3-0.3-0.1c0,0-0.1,0-0.1,0c0,0-0.1-0.1-0.1-0.2
					c0-0.3-0.4-0.4-0.2-0.7c0.1,0.1,0.1,0.1,0.2,0.2c0-0.3,0-0.3-0.3-0.5c0.2-0.5,0.5,0,0.8-0.2c-0.1-0.2-0.2-0.4-0.4-0.7
					c0,0,0.1-0.1,0.1-0.2c-0.1-0.1-0.2-0.2-0.4-0.4c0.3,0,0.5,0,0.6-0.3c-0.1-0.1-0.2-0.2-0.2-0.4c-0.1-0.2,0-0.4,0.1-0.7
					c0-0.1,0.1-0.1,0.1-0.2c0.1-0.1,0.2-0.1,0.2-0.1c0.2-0.1,0.3-0.2,0.3-0.4c0-0.1,0-0.1,0.1-0.2c0.1,0,0.1-0.3,0.3-0.2
					c0,0.1,0.1,0.2,0.1,0.4c0.2-0.1,0.3-0.2,0.5-0.3c-0.1-0.1-0.2-0.2-0.3-0.3c0.1-0.1,0.2-0.1,0.2-0.1c0.1-0.2-0.2-0.2-0.1-0.3
					c0-0.1,0-0.2,0.1-0.4c0.4,0,0.4,0,0.8,0.4c0-0.2-0.3-0.4,0-0.6c0.1,0.1,0.2,0.1,0.3,0.2c0-0.1,0-0.2,0-0.3c0,0-0.1,0-0.1,0
					c-0.1,0-0.2,0-0.3,0c-0.1,0-0.2-0.1-0.2-0.3c0.1,0,0.3,0.1,0.4,0.1c0-0.1,0.1-0.2,0.1-0.3c0-0.1,0.1-0.2,0.2-0.3
					c0.1,0.1,0.2,0.1,0.2,0.2c0,0.1,0,0.2,0.1,0.3c0.1,0.1,0.2,0.1,0.3-0.1c0,0,0.1,0,0.2,0.1c0-0.2-0.1-0.3-0.1-0.5
					c0.2,0,0.4,0,0.5,0c0,0.3,0,0.5-0.4,0.7c0.3,0,0.5,0,0.7-0.2c0.2-0.2,0.2-0.3,0-0.5c0,0-0.1-0.1-0.1-0.1
					c0.1-0.1,0.1-0.2,0.2-0.2c0.1,0,0.3,0,0.4,0.1c0.1,0.2,0.4,0.2,0.5,0.3c0.1,0.1,0.2,0.2,0.3,0.3c0-0.1,0-0.2,0-0.3
					c0,0,0.1,0,0.1,0c0,0.1,0,0.2,0,0.3C10.7,58,11,58.1,11.3,58.2C11.3,58.3,11.3,58.2,11.3,58.2C11.3,58.2,11.3,58.2,11.3,58.2
					C11.3,58.3,11.3,58.3,11.3,58.2C11.3,58.3,11.3,58.3,11.3,58.2z M11.4,71.8c0-0.1,0.1-0.1,0.1-0.1c0,0-0.1-0.1-0.1-0.1
					c0,0.1,0,0.1,0,0c0,0,0,0,0,0c0,0,0-0.1,0-0.1c0,0,0,0-0.1,0C11.3,71.5,11.3,71.6,11.4,71.8z M9.8,70c0-0.1,0-0.3,0-0.4
					c-0.1,0.1-0.3,0.2,0.1,0.4C9.9,70,9.9,70,9.8,70C9.9,70,9.8,70,9.8,70C9.9,70,9.9,70.1,9.8,70C9.9,70.1,9.9,70,9.8,70z
					 M10.2,70.1c0,0.2,0,0.3,0,0.5c-0.2,0-0.2,0.3-0.3,0.3c-0.1-0.1-0.2-0.2-0.3-0.3c0.1-0.2,0.3-0.3,0.2-0.5
					c-0.2,0.1-0.5,0.2-0.6,0.5c0.1,0.1,0.2,0.2,0.3,0.3c0.1,0.1,0.1,0.3,0.1,0.5c0.2-0.1,0.3-0.2,0.5-0.2c0.2,0,0.4,0,0.5,0
					c0-0.1-0.1-0.3,0-0.3C10.4,70.5,10.3,70.3,10.2,70.1z M12.1,71.1c0.2-0.2,0.4-0.3,0.6-0.5c-0.2-0.1-0.3-0.4-0.5-0.2
					C12.2,70.6,12.1,70.8,12.1,71.1z M11.8,70.7c-0.1,0-0.2,0.1-0.2,0.1c-0.1,0-0.2,0-0.3,0c0,0.1,0,0.2,0,0.3
					c0.3-0.2,0.3-0.2,0.4,0.1C11.7,71,11.8,70.9,11.8,70.7z M10.8,70.6c0,0.3,0,0.5,0.1,0.7c0.1-0.1,0.2-0.2,0.3-0.2
					C11,71,10.9,70.8,10.8,70.6z M10.8,70c0,0-0.2-0.2-0.3-0.3c0,0.1,0,0.3,0,0.4c0.1,0,0.1,0,0.1,0C10.7,70.1,10.7,70.1,10.8,70z
					 M10.2,58.3c0.1,0,0.1,0.1,0.2,0.1c0,0,0.1,0,0.2,0c-0.1-0.1-0.2-0.2-0.3-0.3C10.3,58.2,10.3,58.2,10.2,58.3z M13.8,61.4
					C13.9,61.4,13.9,61.4,13.8,61.4c0.1-0.2,0-0.3,0-0.5c0,0-0.1,0-0.2,0C13.7,61.1,13.8,61.3,13.8,61.4z M9.3,69.5
					c0.2,0.2,0.2,0.2,0.4,0C9.5,69.3,9.4,69.5,9.3,69.5z M15.8,68.8c0.1,0,0.2,0,0.3,0c0,0,0.1-0.1,0-0.1c0-0.1-0.2-0.1-0.2-0.1
					C15.8,68.7,15.8,68.7,15.8,68.8z M12.6,71.3c-0.1,0.2-0.2,0.3-0.3,0.5C12.6,71.6,12.7,71.5,12.6,71.3z M11.4,63.5
					c-0.1-0.1-0.3-0.1-0.6,0C11.1,63.5,11.3,63.5,11.4,63.5z M13,60.2c-0.1,0.1-0.2,0.1-0.4,0.2C12.9,60.4,13.1,60.5,13,60.2z
					 M14.8,70.4c0-0.1-0.1-0.1-0.1-0.2C14.6,70.3,14.7,70.4,14.8,70.4z M9.9,71.9C10,71.9,10,71.9,9.9,71.9c0.1-0.1,0.1-0.2,0-0.3
					c0,0,0,0,0,0C9.9,71.7,9.9,71.8,9.9,71.9z M14.6,62.1c0-0.2,0-0.2-0.1-0.2C14.5,61.9,14.6,62,14.6,62.1z M7.4,70.4
					c0-0.3,0-0.3-0.1-0.2C7.4,70.1,7.4,70.2,7.4,70.4z M15,60.4C14.9,60.4,14.9,60.4,15,60.4c-0.1,0-0.1,0-0.1,0c0,0,0,0.1,0.1,0.1
					C14.9,60.5,14.9,60.5,15,60.4z M16.7,68.8c0.1,0,0.1,0,0.1-0.1c0,0-0.1-0.1-0.1-0.1C16.7,68.7,16.7,68.7,16.7,68.8
					C16.7,68.7,16.7,68.8,16.7,68.8z M6.5,65C6.5,65,6.5,64.9,6.5,65C6.4,65,6.4,65,6.3,65c0,0,0,0.1,0,0.1C6.4,65,6.5,65,6.5,65z
					 M13.2,71.8C13.1,71.8,13.1,71.8,13.2,71.8c-0.1,0-0.1,0-0.1,0c0,0,0,0.1,0.1,0.1C13.1,71.9,13.1,71.9,13.2,71.8z M13.1,71.2
					c0-0.1,0-0.1,0-0.1c0,0,0,0-0.1,0C13.1,71,13.1,71.1,13.1,71.2C13.1,71.1,13.1,71.2,13.1,71.2z M14.6,69.9
					C14.6,69.8,14.7,69.8,14.6,69.9c0.1-0.1,0.1-0.1,0-0.2c0,0-0.1,0-0.1,0C14.6,69.8,14.6,69.8,14.6,69.9z M11.5,72
					C11.5,72,11.5,71.9,11.5,72C11.5,71.9,11.5,71.9,11.5,72C11.5,71.9,11.5,71.9,11.5,72C11.5,71.9,11.5,72,11.5,72z M17.7,66.6
					C17.7,66.6,17.7,66.6,17.7,66.6C17.7,66.6,17.8,66.6,17.7,66.6C17.8,66.6,17.7,66.6,17.7,66.6C17.7,66.6,17.7,66.6,17.7,66.6z
					 M16.7,68.3C16.7,68.3,16.7,68.3,16.7,68.3C16.7,68.3,16.7,68.3,16.7,68.3C16.7,68.3,16.7,68.3,16.7,68.3
					C16.7,68.3,16.7,68.3,16.7,68.3z M6.3,60C6.3,60,6.3,60,6.3,60C6.3,60,6.3,60,6.3,60C6.3,59.9,6.3,59.9,6.3,60
					C6.3,59.9,6.3,60,6.3,60z M8,58.3C8,58.3,8,58.3,8,58.3c0-0.1,0-0.1,0-0.1C8,58.2,8,58.2,8,58.3C8,58.3,8,58.3,8,58.3z M6.6,70
					C6.6,70,6.5,70,6.6,70C6.5,70,6.5,70.1,6.6,70C6.6,70,6.6,70,6.6,70C6.6,70,6.6,70,6.6,70z M6.7,69.8
					C6.6,69.8,6.6,69.8,6.7,69.8C6.6,69.8,6.7,69.8,6.7,69.8C6.7,69.9,6.7,69.8,6.7,69.8C6.7,69.8,6.7,69.8,6.7,69.8z M13.5,70.4
					C13.5,70.4,13.4,70.4,13.5,70.4C13.4,70.4,13.5,70.5,13.5,70.4C13.5,70.5,13.5,70.4,13.5,70.4C13.5,70.4,13.5,70.4,13.5,70.4z
					 M8.3,70.3C8.3,70.3,8.3,70.3,8.3,70.3C8.3,70.3,8.2,70.3,8.3,70.3C8.2,70.4,8.3,70.4,8.3,70.3C8.3,70.4,8.3,70.3,8.3,70.3z
					 M5.8,69.5C5.8,69.4,5.8,69.4,5.8,69.5C5.9,69.4,5.8,69.4,5.8,69.5C5.8,69.4,5.8,69.4,5.8,69.5C5.8,69.4,5.8,69.4,5.8,69.5z"/>
				<path class="st0" d="M16.7,61.7c-0.2,0-0.2,0-0.2-0.3c0.1,0,0.1-0.1,0.2-0.1C16.9,61.5,16.8,61.6,16.7,61.7z"/>
				<path class="st0" d="M12.8,58.7c0.2-0.1,0.3-0.2,0.3-0.2C13.1,58.6,13,58.7,12.8,58.7z"/>
				<path class="st0" d="M12.2,73.2C12,73,12,73,12.2,72.8C12.2,72.9,12.2,73,12.2,73.2z"/>
				<path class="st0" d="M9.2,73.5c0-0.1,0-0.2,0-0.3c0,0,0.1-0.1,0.1-0.1c0.1,0,0.1,0.2,0.1,0.2C9.4,73.5,9.3,73.5,9.2,73.5z"/>
				<path class="st0" d="M18,67.7c-0.2,0-0.2,0-0.1-0.2C18,67.6,18,67.7,18,67.7z"/>
				<path class="st0" d="M8.8,72.9c0.1,0,0.2,0,0.2,0c0,0-0.1,0.1-0.1,0.1C8.9,73,8.8,73,8.8,72.9z"/>
				<path class="st0" d="M11.1,73.6c0-0.1,0-0.1,0-0.2c0,0,0,0,0,0C11.1,73.5,11.1,73.5,11.1,73.6C11.1,73.6,11.1,73.6,11.1,73.6z"
					/>
				<path class="st0" d="M9.5,73.6C9.5,73.6,9.5,73.6,9.5,73.6C9.5,73.5,9.5,73.5,9.5,73.6C9.5,73.5,9.5,73.5,9.5,73.6
					C9.5,73.6,9.5,73.6,9.5,73.6z"/>
				<path class="st0" d="M16.5,61.4C16.5,61.4,16.5,61.4,16.5,61.4C16.5,61.4,16.5,61.3,16.5,61.4C16.5,61.4,16.5,61.4,16.5,61.4
					C16.5,61.4,16.5,61.4,16.5,61.4z"/>
				<path class="st0" d="M4.4,66.9C4.4,66.9,4.4,66.9,4.4,66.9C4.4,66.9,4.4,66.9,4.4,66.9C4.4,66.9,4.4,66.9,4.4,66.9
					C4.4,66.9,4.4,66.9,4.4,66.9z"/>
				<path class="st0" d="M11.9,73.3C11.8,73.3,11.8,73.3,11.9,73.3C11.8,73.2,11.9,73.2,11.9,73.3C11.9,73.2,11.9,73.2,11.9,73.3
					C11.9,73.3,11.9,73.3,11.9,73.3z"/>
				<path class="st0" d="M16.8,61.8C16.8,61.8,16.8,61.8,16.8,61.8C16.8,61.8,16.8,61.8,16.8,61.8C16.8,61.8,16.8,61.7,16.8,61.8
					C16.8,61.8,16.8,61.8,16.8,61.8z"/>
				<path class="st0" d="M12.8,57.7C12.7,57.7,12.7,57.7,12.8,57.7C12.7,57.7,12.7,57.7,12.8,57.7C12.7,57.6,12.7,57.6,12.8,57.7
					C12.7,57.6,12.8,57.6,12.8,57.7z"/>
				<path class="st0" d="M16.5,62.4C16.5,62.4,16.5,62.4,16.5,62.4C16.5,62.4,16.5,62.4,16.5,62.4C16.5,62.4,16.5,62.4,16.5,62.4
					C16.5,62.4,16.5,62.4,16.5,62.4z"/>
				<path class="st0" d="M9,72.8C9,72.8,9,72.8,9,72.8C9,72.8,9.1,72.9,9,72.8C9,72.9,9,72.9,9,72.8C9,72.9,9,72.9,9,72.8z"/>
				<path class="st0" d="M14.4,71.9C14.4,71.9,14.3,72,14.4,71.9C14.3,72,14.3,71.9,14.4,71.9C14.3,71.9,14.3,71.9,14.4,71.9
					C14.4,71.9,14.4,71.9,14.4,71.9z"/>
			</g>
			<g>
				<path class="st0" d="M10,84.3c0,0.2,0,0.3,0,0.3c0.2,0,0.2,0.2,0.3,0.4c0.1-0.1,0.2-0.2,0.2-0.3c0-0.2,0-0.4,0.2-0.5
					c0,0,0-0.2,0.1-0.3c0.1,0.2,0.2,0.3,0.3,0.4c0.2,0.2,0.4,0.5,0.4,0.8c0,0.2,0.1,0.3,0.3,0.4c0,0,0-0.1,0-0.1c0,0-0.1,0-0.1,0
					c0.1,0,0.1,0,0.1,0c-0.1-0.1-0.1-0.2-0.1-0.3c0.1-0.1,0.2-0.1,0.3,0c0.2,0.1,0.3,0.4,0.5,0.4c0,0,0,0.1,0.1,0.3
					c0.2,0.1,0.4,0.1,0.6,0.2c0-0.1,0.1-0.1,0.1-0.2c0-0.1,0.1-0.2,0-0.4c-0.1-0.1-0.1-0.4,0.1-0.5c0,0,0.1,0.1,0.1,0.1
					c0,0.3,0.2,0.5,0.3,0.8c0,0.1,0,0.2-0.1,0.2c-0.2,0-0.2,0-0.2,0.1c0,0.2,0.1,0.3-0.1,0.4c0,0,0.1,0.1,0.1,0.1
					c0.1-0.1,0.2-0.1,0.1-0.3c-0.1-0.1,0-0.2,0.1-0.3c0.1,0.1,0.3,0.2,0.4,0.3c0.2-0.1,0.1-0.5,0.5-0.4c0.1,0.1,0.1,0.3,0.2,0.5
					c0.1-0.1,0.1-0.2,0.2-0.3c0.1,0.2,0.2,0.3,0.3,0.5c-0.1,0.1-0.1,0.4-0.4,0.3c-0.1,0.2,0.1,0.3,0.2,0.3c0-0.1,0.1-0.1,0.1-0.2
					c0.2,0,0.4,0,0.7,0c-0.1,0.1-0.2,0.2-0.3,0.3c0.2,0.3,0.3,0.6,0.5,0.9c0.3-0.1,0.3-0.4,0.4-0.5c0.1,0.2-0.1,0.5,0.1,0.8
					c-0.1,0.1-0.1,0.1-0.2,0.2c0,0.1,0.1,0.2,0.1,0.3c0.1,0,0.2,0,0.2,0c0.1,0.1,0.1,0.1,0.2,0.2c0.1-0.2,0-0.2-0.2-0.2
					c0-0.2,0.1-0.3,0.2-0.5c0.2,0.1,0.1,0.4,0.4,0.3c0,0.2-0.1,0.5-0.1,0.7c0.1,0,0.3-0.2,0.3,0.1c0.1,0.1,0.3,0.1,0.4-0.1
					c0.1-0.1,0.2,0,0.3-0.1c0,0.2,0,0.3,0,0.5c0.1,0,0.1,0,0.2,0.1c-0.1,0-0.2,0-0.3,0.1c0,0.1,0,0.2,0,0.3c0.1,0.1,0.2,0.2,0.3,0.3
					c0.1,0.1,0.2,0.2,0.1,0.4c0,0,0,0.1,0,0.1c0,0.2,0.1,0.4-0.2,0.5c-0.2-0.1-0.2-0.1-0.4-0.4c0,0.1-0.1,0.2-0.1,0.2
					c0,0.3-0.2,0.4-0.4,0.4c-0.2,0-0.2,0.1-0.2,0.3c0,0.1-0.1,0.3-0.1,0.4c-0.1-0.1-0.2-0.2-0.3-0.4c-0.2,0.3,0.1,0.5,0.1,0.7
					c-0.2,0.1-0.4,0.2-0.7,0.3c0,0.1,0.2,0,0.2,0.2c0,0.1,0,0.2,0.1,0.2c0.2,0.2,0.3,0.6,0.5,0.8c0.1,0.1,0,0.2,0,0.4
					c-0.1-0.2-0.4-0.4-0.8-0.5c-0.1,0,0,0,0.1,0c0.2,0.1,0.2,0,0.3-0.1c-0.1-0.1-0.2-0.2-0.2-0.4c-0.2,0.1-0.3,0.1-0.4,0.1
					c0,0.1,0,0.2,0.3,0.3c0.3,0.1,0.2,0.2,0.2,0.2c-0.2,0.1-0.1,0.2,0,0.3c-0.1,0.1-0.2,0.1-0.3,0.2c0,0.1,0.1,0.2,0.1,0.3
					c-0.3,0.1-0.3,0.1-0.5-0.1c-0.1-0.1-0.2-0.1-0.3,0.1c0,0.1-0.1,0.1-0.1,0.2c-0.1,0-0.2-0.1-0.3-0.1c0-0.2,0-0.3,0-0.5
					c-0.1,0-0.2,0-0.4,0c0,0.2-0.1,0.4-0.2,0.7c-0.1,0-0.3,0.1-0.4-0.1c-0.1-0.1-0.2-0.1-0.2-0.1c-0.2,0.2-0.3-0.1-0.5,0
					c-0.1,0.1-0.1,0.2-0.3,0.3c0,0.1,0.1,0.2,0.2,0.2c0.1,0,0.2-0.1,0.3-0.1c0.2,0.3,0.3,0.6,0.5,0.8c0.2-0.1,0.2-0.6,0.6-0.3
					c-0.2,0.3-0.3,0.6-0.7,0.5c0,0.2,0,0.4,0.1,0.6c-0.1,0-0.2,0-0.3,0c0,0.1,0,0.2-0.1,0.3c-0.1,0-0.2-0.1-0.2-0.1
					c-0.1,0.2,0,0.3,0.1,0.4c-0.1,0-0.1,0-0.1,0c0-0.1-0.1-0.3-0.1-0.3c-0.1,0-0.2-0.1-0.1-0.2c0-0.1,0-0.2,0.1-0.3
					c-0.1,0-0.2,0-0.2-0.1c0,0,0,0-0.1-0.1c-0.1,0.1-0.3,0.3-0.4,0.4c-0.1-0.2-0.3-0.4-0.4-0.6c-0.1,0.1-0.1,0.4-0.3,0.5
					c-0.1-0.1-0.1-0.2-0.2-0.4c-0.1,0.1-0.2,0.2-0.4,0.3c0-0.2,0-0.3,0-0.4c-0.2-0.2-0.4-0.3-0.4-0.6c0-0.1-0.1-0.2-0.2-0.3
					c-0.1,0.1-0.2,0.2-0.3,0.4c0.2,0.1,0.5,0,0.5,0.3c-0.1,0.1-0.1,0.2-0.2,0.2c0,0,0,0.1,0.1,0.1c0.1,0.1,0.2,0.1,0.3,0.2
					c0.1,0.1,0.1,0.2,0,0.3c0,0,0,0.1-0.1,0.1c-0.1,0.1-0.2,0.1-0.3,0c0,0-0.1-0.1-0.1-0.1c0,0-0.1,0-0.1,0c0,0.1,0,0.2,0,0.3
					c0.1,0.1,0.2,0.1,0.2,0.1c0,0.1-0.1,0.2-0.2,0.2c-0.1,0-0.2-0.1-0.4-0.1c0,0.2,0.1,0.3,0.1,0.5c-0.3-0.1-0.6-0.5-0.9,0
					c0-0.2-0.1-0.3-0.1-0.4c0-0.3,0-0.3,0-0.5c-0.1,0.1-0.2,0.1-0.3,0.2c-0.3,0-0.1-0.3-0.3-0.4c0.1-0.1,0.1-0.3,0.2-0.4
					c0.1,0.2,0.1,0.4,0.1,0.5c0.1,0,0.3,0.1,0.2-0.2c0.2,0.1,0.3,0.1,0.3,0.2c0,0.2,0.2,0.3,0.3,0.4c0.1-0.1,0.1-0.1,0.2-0.1
					c0-0.1-0.1-0.1-0.1-0.2c0,0,0-0.1,0.1-0.1c0.3-0.2,0.3-0.3,0.1-0.5C9.8,97.1,9.7,97,9.7,97c0-0.4,0-0.7-0.3-0.9
					c-0.2,0.2-0.3,0.5-0.4,0.8c0.1,0,0.2,0.1,0.4,0.1c-0.1,0.2-0.3,0.3-0.4,0.4c0,0-0.1-0.1-0.1-0.1c0-0.2,0-0.3-0.1-0.4
					c-0.1-0.1-0.1-0.2,0.1-0.3c-0.1-0.1-0.2-0.2-0.3-0.2c0,0,0.1,0,0.2,0c-0.1-0.2-0.2-0.3-0.2-0.4c-0.1,0.1-0.3,0-0.4-0.1
					c-0.1-0.1-0.2-0.1-0.3-0.1c0-0.2,0.1-0.5-0.2-0.7c0,0.2,0.1,0.3,0,0.4c-0.1,0.1-0.1,0.3-0.2,0.4c-0.1,0.1-0.2,0.2-0.3-0.1
					c0,0.3,0,0.4,0,0.6c-0.3,0.1-0.1-0.1-0.2-0.3c-0.1,0-0.1-0.1-0.2-0.1c-0.1,0-0.2-0.1-0.3-0.1c-0.1,0.1-0.2-0.1-0.3-0.1
					c-0.1,0.1-0.1,0-0.1-0.1c-0.1-0.2-0.1-0.5-0.4-0.6c0-0.2-0.1-0.2-0.2-0.3c-0.1,0.1-0.1,0.1-0.2,0.2C5,94.8,5,94.7,4.9,94.5
					c0.1-0.2,0.2-0.2,0.4-0.1c0.2,0,0.5,0,0.7-0.1c0.1,0.1,0.1,0.2,0.2,0.3c0-0.6,0-0.6-0.2-1.2c-0.1-0.2-0.2-0.4,0-0.6
					c-0.2,0-0.3-0.1-0.4-0.1c0-0.2-0.2-0.1-0.3-0.1c0,0.1,0,0.2,0,0.3c-0.1,0.1-0.2,0.1-0.3,0.2c0-0.1,0-0.2-0.1-0.3
					c-0.1-0.1-0.2,0.2-0.3,0.5c-0.2-0.1-0.2-0.1-0.6,0.1c-0.1-0.1-0.2-0.2-0.1-0.4c0.1-0.1,0-0.3,0.1-0.5c0-0.1-0.1,0-0.1,0
					c0,0,0,0.1,0,0.1c0-0.1,0-0.1,0-0.1c-0.1,0.1-0.2,0.1-0.3,0.1c-0.1-0.2,0.2-0.3,0.1-0.5c0,0,0.1-0.1,0.1-0.1
					c0.2,0,0.1-0.2,0.1-0.3c-0.1,0-0.2,0.1-0.3,0.1c-0.1,0-0.2-0.1-0.3-0.1c0.1-0.3,0.1-0.6,0.3-0.8c0,0,0.1-0.1,0.1-0.1
					c0,0,0.1,0,0.1,0c0,0.1,0,0.1,0,0.2c0,0,0,0-0.1,0.1c0.1,0,0.2,0,0.2,0c0.1-0.3,0.2-0.2,0.4-0.1c0,0,0.1,0,0.1,0
					c0.1-0.3,0-0.5-0.2-0.7c-0.3,0-0.6,0.4-0.9,0.1C3.7,90,4,90,4.2,89.8c0.1,0,0.2-0.1,0.2-0.3c0-0.1-0.1-0.2-0.2-0.2
					c0,0-0.1,0-0.1,0c0.1,0.1,0,0.2,0,0.3c0,0.1,0.1,0.1,0.1,0.2c-0.1,0-0.2,0-0.2,0c-0.1,0-0.2-0.1-0.2-0.2c0-0.1,0-0.2-0.2-0.2
					c0,0,0-0.1,0-0.1c0.1-0.4,0-0.6-0.3-0.8c0.1-0.1,0.1-0.2,0.3-0.3c0.2,0.2,0.4,0.4,0.6,0.6c0.1-0.2,0.1-0.2-0.4-0.6
					c0-0.1,0.1-0.2,0-0.2c-0.2-0.1-0.4-0.3-0.5-0.4c0-0.1,0.1-0.2,0-0.4c-0.2-0.3,0.1-0.7,0.4-0.9c0,0,0.4,0,0.5,0
					c0-0.2,0.1-0.4,0.2-0.6c-0.1,0.1-0.2,0.1-0.3,0.1c0-0.1,0-0.3,0-0.4c0,0,0.1-0.1,0.1-0.1c0.3,0.2,0.4-0.1,0.6-0.2
					c0,0.2,0,0.4,0.2,0.4c0.1,0,0.1-0.1,0.2-0.1c-0.1-0.1-0.2-0.2-0.4-0.3c0-0.1,0.2-0.2,0-0.3c0.1-0.1,0.2-0.1,0.3-0.1
					c0.1,0,0.2,0.1,0.3,0.1c0.2,0.1,0.5-0.1,0.5-0.2c-0.1-0.2,0.1-0.3,0-0.4c0,0,0,0,0-0.1c0.1,0,0.2,0,0.2,0c0.1,0,0.1,0.1,0.2,0.1
					c0.2-0.1,0.4,0,0.7,0c-0.1,0.1-0.2,0.1-0.2,0.1c-0.1,0-0.1,0.1-0.2,0.2c0.2,0.1,0.4,0.1,0.6,0.2c0-0.2-0.1-0.2-0.1-0.3
					c0-0.1,0-0.2,0-0.3c0.1,0,0.2,0.1,0.2,0.1c0.1,0,0.1,0.1,0.2,0.1c0.1,0,0-0.4,0.3-0.3c0,0-0.1,0.1-0.1,0.1
					c0.1,0.1,0.1,0.2,0.2,0.4c0.1-0.2,0.2-0.3,0.3-0.5c0.1,0,0.2,0.1,0.3,0.1c0-0.1-0.1-0.2-0.1-0.4C8.8,83.9,9,84.1,9.3,84
					c0.1,0,0.1,0.1,0.2,0.2c-0.1,0-0.2,0.1-0.2,0.1c0.1,0.1,0.2,0.2,0.3,0.3c0.1-0.1,0.1-0.3,0.2-0.5c0.1-0.2,0.3-0.3,0.4-0.4
					c0.1,0.2,0.1,0.4,0.2,0.6C10.3,84.4,10.2,84.6,10,84.3C9.9,84.3,9.9,84.3,10,84.3c-0.1,0,0,0.1,0,0.1C10,84.4,10,84.3,10,84.3z
					 M18.2,90.6C18.2,90.6,18.2,90.6,18.2,90.6C18.2,90.6,18.2,90.6,18.2,90.6C18.2,90.6,18.2,90.6,18.2,90.6c0,0,0,0-0.1-0.1
					C18.1,90.6,18.1,90.6,18.2,90.6c-0.1-0.1-0.1-0.1-0.1-0.1c0,0,0,0-0.1,0C18.1,90.5,18.1,90.5,18.2,90.6z M8.1,91.4
					C8.1,91.4,8.1,91.5,8.1,91.4C8.1,91.5,8.2,91.5,8.1,91.4C8.2,91.4,8.2,91.4,8.1,91.4c0,0,0,0-0.1,0.1
					C8.1,91.5,8.1,91.5,8.1,91.4C8.1,91.5,8.1,91.5,8.1,91.4C8.1,91.5,8,91.5,8,91.5C8,91.5,8,91.6,8.1,91.4z M9.3,88.7
					c0-0.1,0-0.2,0-0.2c-0.1,0-0.2,0-0.4,0c0,0,0,0,0,0.1C9.1,88.6,9.2,88.6,9.3,88.7C9.4,88.7,9.4,88.7,9.3,88.7
					C9.4,88.7,9.4,88.7,9.3,88.7C9.4,88.7,9.4,88.7,9.3,88.7C9.4,88.7,9.4,88.7,9.3,88.7z M7.2,91.7C7.3,92,7.5,92,7.6,92
					c0.2,0,0.3-0.2,0.3-0.4C7.7,91.7,7.5,91.8,7.2,91.7C7.2,91.8,7.2,91.8,7.2,91.7C7.2,91.7,7.2,91.7,7.2,91.7
					C7.2,91.7,7.2,91.7,7.2,91.7C7.2,91.7,7.2,91.8,7.2,91.7z M11.7,88.3c0,0.3,0,0.3,0.2,0.4c0.1-0.2,0-0.3-0.2-0.1
					c-0.3,0-0.6,0-0.8,0c0,0.2-0.1,0.3-0.1,0.5c0.2,0.1,0.3,0.3,0.5,0.2c0.2,0,0.2-0.3,0.4-0.4C11.7,88.9,11.7,88.8,11.7,88.3z
					 M5.6,92.2C5.7,92.2,5.7,92.1,5.6,92.2c0.2-0.1,0.2-0.1,0.3-0.1C6,92,6.1,91.9,6.2,91.8c-0.1-0.1-0.1-0.2-0.1-0.3
					c-0.2,0-0.2-0.2-0.3-0.3c0,0.1-0.1,0.2-0.2,0.3c-0.1-0.1-0.2-0.3-0.2-0.3c0.2-0.2,0-0.3,0-0.5c0,0-0.4,0.2-0.4,0.2
					c0,0-0.1,0-0.1,0.1c0,0-0.1,0.1-0.1,0.2c0,0.1,0.1,0.1,0.1,0.2c0,0,0.1-0.2,0.1,0c0,0.1,0.1,0.2,0.1,0.3
					C5.4,91.7,5.5,91.9,5.6,92.2z M11.4,90.8c0.1-0.1,0.2-0.1,0.3-0.2c-0.2,0-0.3,0-0.4,0c0-0.2-0.1-0.4-0.2-0.5
					c-0.1,0.3-0.1,0.6-0.2,0.9c0,0,0.1,0.1,0.2,0.2c-0.1,0.1-0.1,0.3-0.3,0.3c0,0.1,0.1,0.2,0.1,0.3c0,0.1-0.2,0.2,0,0.3
					c-0.1,0.1-0.1,0.2-0.2,0.3c0.2,0,0.4,0,0.5,0c-0.1-0.3,0.1-0.6,0-0.9c0.1-0.1,0.1-0.2,0.2-0.3c0,0.1,0.1,0.2,0.1,0.3
					c-0.1,0.2-0.1,0.4-0.1,0.6c0,0.1,0,0.2,0,0.3c0,0.2-0.1,0.3-0.2,0.5c0.2-0.1,0.2-0.1,0.3-0.1c0.3-0.1,0.4-0.2,0.2-0.5
					c-0.1-0.2-0.1-0.3,0.1-0.4c0.1-0.1,0.1-0.2,0-0.3c-0.1-0.1-0.2-0.2-0.3-0.2C11.4,91,11.6,90.9,11.4,90.8z M9.5,91.4
					c0,0.1,0.1,0.2,0.1,0.2c-0.2,0.1-0.4,0.2-0.4,0.5c0,0-0.1,0-0.1,0c-0.1,0-0.1,0.1-0.2,0.1c-0.1,0-0.1,0.1-0.2,0.1
					c0.1,0.2,0.2,0.4,0.4,0.3c0.1-0.2,0.2-0.3,0.4-0.4c0.1,0.1,0.3,0.2,0.4,0c0,0.1,0,0.2,0,0.3c0.1-0.1,0.2-0.2,0.3-0.3
					c0.1-0.1,0.1-0.3,0.1-0.4c0-0.1-0.1-0.2-0.1-0.2c0-0.1,0-0.2,0.1-0.3c0-0.1,0-0.2,0-0.3c-0.1,0.2-0.3,0.3-0.4,0.3
					C9.7,91.2,9.6,91.3,9.5,91.4z M7.2,94.2c0.1-0.3,0.2-0.5,0.1-0.7C7.3,93.3,7.1,93.2,7,93C7,93,6.9,93.1,6.9,93.2
					c-0.1,0.1-0.2,0.1-0.2,0.1c-0.1,0.1-0.1,0.2-0.1,0.2c0,0.4,0,0.6,0.1,1c0,0.1,0.2,0.3,0,0.5c-0.1,0.1,0,0.2,0.2,0.3
					c0.1-0.1,0.2-0.1,0.3-0.2C7,95,7.1,94.8,7,94.6c-0.1-0.1,0-0.3,0-0.4c0,0,0-0.1,0-0.1C7.1,94.1,7.1,94.2,7.2,94.2z M11.9,89.7
					c0.2-0.1,0.2-0.1,0.3-0.2c0,0,0.1-0.1,0.1-0.1c0.2-0.1,0.2,0,0.2-0.2c0-0.2-0.1-0.3-0.2-0.3c-0.1,0-0.2,0-0.3,0
					c0,0-0.1-0.1-0.2-0.2C11.8,89.2,11.8,89.4,11.9,89.7z M12.3,93c0.2-0.1,0.2-0.3,0.4-0.3c0.1,0,0.2-0.3,0.1-0.4
					c0-0.1-0.2-0.2-0.3-0.2c-0.1,0-0.2,0.1-0.2,0.3C12.3,92.6,12.3,92.8,12.3,93z M4.6,89.9c0,0.2,0,0.3,0.1,0.3
					c0.1,0.1,0.3,0.2,0.4,0.3c0.1-0.1,0.1-0.2,0.2-0.3C5.1,90.1,5,89.8,4.6,89.9z M15.8,94.9c0.1-0.2,0.1-0.3,0-0.4
					c-0.2-0.1,0-0.2-0.1-0.4c-0.1,0-0.2,0-0.4,0C15.5,94.5,15.5,94.8,15.8,94.9z M12.1,94.2c-0.3-0.3-0.4,0.1-0.7,0.1
					C11.7,94.7,11.7,94.7,12.1,94.2C12,94.3,12.1,94.3,12.1,94.2z M6.5,88.5c0.1-0.3,0.1-0.3,0.2-0.4C6.5,88,6.3,87.9,6.1,88
					C6.1,88.3,6.3,88.3,6.5,88.5z M8.8,89.4C8.8,89.4,8.8,89.4,8.8,89.4c0.1-0.2,0-0.4,0.1-0.4c0.2-0.3,0-0.3-0.1-0.4
					c-0.2,0.2-0.1,0.4-0.1,0.6C8.7,89.2,8.8,89.3,8.8,89.4z M8.6,95c-0.3,0.5-0.3,0.5,0,0.8C8.7,95.5,8.7,95.5,8.6,95z M4.3,91.3
					C4.2,91.2,4.1,91.1,4,91c0,0-0.1,0-0.2,0C3.9,91.1,4,91.2,4,91.2C4.1,91.5,4.1,91.5,4.3,91.3z M13.1,90.2c0.2,0,0.3,0,0.4,0
					c0-0.1,0-0.2,0-0.3C13.3,89.9,13.2,90.1,13.1,90.2z M7.8,91.3c0-0.1,0.1-0.2,0.1-0.3c-0.1,0-0.2,0-0.2,0c0,0.1-0.1,0.2-0.1,0.3
					C7.6,91.3,7.7,91.3,7.8,91.3z M11.2,87.9C11.2,87.8,11.2,87.8,11.2,87.9c0-0.2,0-0.3-0.1-0.5c0,0-0.1,0.1-0.1,0.1
					C11,87.6,11.1,87.7,11.2,87.9z M4.6,92.5c0.1-0.2,0.1-0.2,0.1-0.3c0-0.1,0-0.2-0.1-0.2c0,0-0.1,0.1-0.1,0.1
					C4.5,92.3,4.5,92.3,4.6,92.5z M9.8,88.9c0-0.1,0.1-0.1,0.1-0.1c0-0.1-0.1-0.1-0.2-0.1c0,0-0.1,0.1-0.1,0.1
					C9.7,88.8,9.7,88.8,9.8,88.9z M12.9,89.5c0,0,0.1-0.1,0.1-0.1c0-0.1,0-0.1,0.1-0.2c0,0-0.1-0.1-0.1,0c0,0-0.1,0.1-0.1,0.1
					C12.8,89.4,12.9,89.4,12.9,89.5z M10.6,89.1c0,0-0.1-0.1-0.1-0.1c-0.1,0-0.1,0.1-0.2,0.1c0.1,0.1,0.1,0.1,0.2,0.2
					C10.5,89.2,10.5,89.2,10.6,89.1z M9.9,85.2C9.9,85.2,9.9,85.2,9.9,85.2c0.1,0.1,0.2,0.1,0.2,0.2c0,0,0-0.1,0-0.1
					C10.2,85.1,10.1,85.1,9.9,85.2C10,85.1,10,85.2,9.9,85.2z M8.7,94.8c0.1-0.1,0.1-0.1,0.1-0.2c0,0,0-0.1-0.1-0.1
					c0,0-0.1,0.1-0.1,0.1C8.6,94.7,8.6,94.8,8.7,94.8z M9.7,92.9c0.1-0.1,0.1-0.1,0.1-0.1c0,0-0.1-0.1-0.1-0.1c0,0-0.1,0-0.1,0.1
					C9.6,92.8,9.7,92.8,9.7,92.9z M5.9,94.5c-0.2,0.1-0.2,0.1-0.2,0.3C5.8,94.7,5.8,94.6,5.9,94.5z M14.2,86.9
					c-0.1,0-0.1,0.1-0.2,0.1C14.2,87.1,14.3,87.1,14.2,86.9z M4.2,92.2c0.1,0,0.1,0,0.1-0.1C4.3,92.2,4.2,92.2,4.2,92.2z M6.9,92.8
					c0.2,0,0.2,0,0.1-0.1C7,92.7,7,92.7,6.9,92.8z M6.1,93.1C6.1,93.1,6.1,93.1,6.1,93.1c0-0.1,0-0.1,0-0.2c0,0,0,0,0,0
					C6.1,92.9,6.1,93,6.1,93.1z M4.9,89.6C4.9,89.6,4.9,89.6,4.9,89.6c-0.1-0.1-0.1-0.1-0.2-0.1c0,0,0,0,0,0.1
					C4.8,89.6,4.8,89.6,4.9,89.6z M18.4,91.5C18.5,91.4,18.5,91.4,18.4,91.5c0.1-0.1,0.1-0.1,0-0.2c0,0-0.1,0-0.1,0
					C18.4,91.4,18.4,91.4,18.4,91.5z M9.2,91.2C9.2,91.2,9.2,91.2,9.2,91.2C9.1,91.2,9,91.2,9,91.2c0,0,0,0,0,0.1
					C9,91.2,9.1,91.2,9.2,91.2z M14.2,87.2C14.2,87.2,14.2,87.2,14.2,87.2C14.2,87.2,14.2,87.2,14.2,87.2
					C14.2,87.2,14.2,87.2,14.2,87.2C14.2,87.2,14.2,87.2,14.2,87.2z M12.5,96.5C12.5,96.5,12.5,96.5,12.5,96.5
					C12.5,96.4,12.5,96.4,12.5,96.5C12.5,96.4,12.5,96.4,12.5,96.5C12.5,96.5,12.5,96.5,12.5,96.5z M4.7,91.7
					C4.8,91.6,4.8,91.6,4.7,91.7C4.8,91.6,4.8,91.6,4.7,91.7C4.7,91.6,4.7,91.6,4.7,91.7C4.7,91.6,4.7,91.6,4.7,91.7z M12.4,96.5
					C12.4,96.5,12.3,96.5,12.4,96.5C12.3,96.5,12.3,96.5,12.4,96.5C12.3,96.6,12.3,96.6,12.4,96.5C12.3,96.6,12.3,96.6,12.4,96.5z
					 M10.1,89C10,89,10,89,10.1,89C10,89,10,89,10.1,89C10.1,89,10.1,89,10.1,89C10.1,89,10.1,89,10.1,89z M9.7,98.2
					C9.7,98.2,9.7,98.2,9.7,98.2C9.7,98.1,9.7,98.1,9.7,98.2C9.7,98.1,9.6,98.1,9.7,98.2C9.6,98.2,9.6,98.2,9.7,98.2z M6.7,84.8
					C6.7,84.8,6.7,84.8,6.7,84.8C6.7,84.8,6.8,84.8,6.7,84.8C6.8,84.8,6.7,84.7,6.7,84.8C6.7,84.8,6.7,84.8,6.7,84.8z"/>
				<path class="st0" d="M14.6,96.8c0.1-0.3,0.4-0.3,0.5-0.6c0,0,0.1,0,0.2,0c0.1,0.2,0.2,0.4,0.3,0.6c-0.2,0.4-0.5,0.2-0.8,0.1
					C14.7,96.8,14.6,96.8,14.6,96.8z"/>
				<path class="st0" d="M4.4,93.6c0.2,0,0.3,0.1,0.4,0.1c0.1,0.1,0.2,0.1,0.3,0c0.2-0.1,0.3,0,0.5-0.1c0,0.2-0.1,0.3-0.1,0.4
					c0,0-0.1,0.1-0.1,0.1c-0.1,0-0.2,0.1-0.3,0.1C5,94.1,4.9,93.9,4.7,94c0,0-0.1-0.1-0.1-0.2c-0.1,0-0.1,0-0.2-0.1
					C4.3,93.7,4.3,93.6,4.4,93.6z M5.3,94.1C5.3,94.1,5.3,94,5.3,94.1C5.4,94,5.3,94,5.3,94.1C5.3,94,5.3,94,5.3,94.1
					C5.3,94,5.3,94.1,5.3,94.1z"/>
				<path class="st0" d="M12.3,98.1c-0.1-0.4-0.4-0.3-0.6-0.4c0,0-0.1,0-0.2-0.1c0,0,0,0-0.1-0.1c0,0,0.1-0.1,0.1-0.1
					c0.1-0.2,0.2-0.2,0.3,0c0.1,0.1,0.1,0.1,0.3,0c0.1,0.2,0.3,0.4,0.4,0.6C12.4,98,12.4,98.1,12.3,98.1z"/>
				<path class="st0" d="M5.6,95.5c0.3,0.2,0,0.3,0,0.5C5.4,95.8,5.4,95.8,5.6,95.5z"/>
				<path class="st0" d="M12.3,84.6c-0.2,0-0.4,0-0.6,0C12.1,84.4,12.2,84.4,12.3,84.6z"/>
				<path class="st0" d="M5.6,95.1c-0.1,0.1-0.3,0.2-0.4,0.4c0-0.2,0-0.2,0-0.4C5.3,95.1,5.4,95.1,5.6,95.1z"/>
				<path class="st0" d="M14.3,97.1c0.2,0,0.3,0.1,0.3,0.3c-0.1,0-0.2,0-0.3,0C14.3,97.3,14.3,97.2,14.3,97.1z"/>
				<path class="st0" d="M18.1,93.6c-0.2-0.1-0.3-0.3-0.3-0.6C17.9,93.3,18,93.4,18.1,93.6z"/>
				<path class="st0" d="M13.5,98c-0.2,0-0.3,0-0.4,0C13.2,97.8,13.2,97.7,13.5,98z"/>
				<path class="st0" d="M16.1,96.6c-0.2,0.1-0.1-0.2-0.3-0.2c0,0,0.1-0.1,0.1-0.2C16,96.3,16.1,96.4,16.1,96.6z"/>
				<path class="st0" d="M17.6,89.3c0.1-0.1,0.1-0.1,0.2-0.2c0,0,0.1,0,0.1,0c0,0,0,0.1,0,0.1c0,0-0.1,0.1-0.1,0.1
					C17.8,89.4,17.7,89.4,17.6,89.3z"/>
				<path class="st0" d="M8.6,96.3c-0.1-0.1-0.2-0.1-0.3-0.2C8.4,96.1,8.6,96,8.6,96.3z"/>
				<path class="st0" d="M4.6,94c0,0.1,0,0.2-0.1,0.2c0,0-0.1-0.1-0.1-0.1C4.4,93.9,4.5,94,4.6,94z"/>
				<path class="st0" d="M17.9,92.9c-0.1-0.1-0.2-0.1-0.1-0.3C17.9,92.7,18,92.7,17.9,92.9z"/>
				<path class="st0" d="M7.7,96.7c0.1,0.1,0.1,0.1,0.2,0.2c-0.1,0-0.1,0.1-0.2,0.1C7.7,96.9,7.7,96.8,7.7,96.7z"/>
				<path class="st0" d="M7.9,98.1c-0.1-0.1-0.1-0.2-0.2-0.3C7.9,97.8,7.9,97.9,7.9,98.1z"/>
				<path class="st0" d="M18.1,92.4c0-0.1,0-0.1,0-0.1c0,0,0,0,0.1,0C18.1,92.2,18.1,92.3,18.1,92.4C18.1,92.3,18.1,92.3,18.1,92.4z
					"/>
				<path class="st0" d="M7.4,96.4C7.4,96.3,7.4,96.3,7.4,96.4c0.1-0.1,0.1-0.1,0.2,0c0,0,0,0.1,0,0.1C7.5,96.4,7.4,96.4,7.4,96.4z"
					/>
				<path class="st0" d="M18.1,91.9C18.1,91.9,18.2,91.9,18.1,91.9c0.1,0,0.1,0,0.1,0c0,0,0,0.1-0.1,0.1C18.2,92,18.1,92,18.1,91.9z
					"/>
				<path class="st0" d="M16.4,95.5c0-0.1,0-0.2,0-0.2c0,0,0.1,0.1,0.1,0.1C16.4,95.4,16.4,95.5,16.4,95.5z"/>
				<path class="st0" d="M10.8,98.3c0,0.1,0,0.1-0.1,0.1c0,0-0.1-0.1-0.1-0.1C10.7,98.3,10.7,98.2,10.8,98.3
					C10.7,98.2,10.8,98.3,10.8,98.3z"/>
				<path class="st0" d="M5,95.1C5,95.1,5,95.1,5,95.1C5,95.2,4.9,95.2,5,95.1C4.9,95.2,4.9,95.2,5,95.1C4.9,95.1,4.9,95.1,5,95.1z"
					/>
				<path class="st0" d="M12.4,85.3C12.4,85.3,12.5,85.3,12.4,85.3C12.4,85.3,12.4,85.3,12.4,85.3C12.4,85.3,12.4,85.3,12.4,85.3
					C12.4,85.3,12.4,85.3,12.4,85.3z"/>
				<path class="st0" d="M8,98.1C8,98.1,8,98.1,8,98.1C8,98.1,7.9,98.1,8,98.1C7.9,98,7.9,98,8,98.1C8,98,8,98,8,98.1z"/>
				<path class="st0" d="M8.2,97.4C8.1,97.4,8.1,97.4,8.2,97.4c0-0.1,0-0.1,0-0.1C8.2,97.3,8.2,97.3,8.2,97.4
					C8.2,97.4,8.2,97.4,8.2,97.4z"/>
				<path class="st0" d="M17.1,88.4C17.1,88.4,17.1,88.4,17.1,88.4C17.2,88.4,17.2,88.4,17.1,88.4C17.2,88.4,17.2,88.4,17.1,88.4
					C17.1,88.4,17.1,88.4,17.1,88.4z"/>
				<path class="st0" d="M16.7,95.8C16.7,95.8,16.6,95.7,16.7,95.8c0-0.1,0-0.1,0-0.1C16.7,95.7,16.7,95.7,16.7,95.8
					C16.7,95.8,16.7,95.8,16.7,95.8z"/>
				<path class="st0" d="M8.8,98.3C8.8,98.2,8.8,98.2,8.8,98.3C8.8,98.2,8.9,98.2,8.8,98.3C8.8,98.3,8.8,98.3,8.8,98.3
					C8.8,98.3,8.8,98.3,8.8,98.3z"/>
				<path class="st0" d="M16.8,87.5C16.8,87.5,16.8,87.5,16.8,87.5C16.7,87.5,16.7,87.5,16.8,87.5C16.7,87.5,16.8,87.5,16.8,87.5
					C16.8,87.5,16.8,87.5,16.8,87.5z"/>
				<path class="st0" d="M16.1,87C16.1,87,16.1,87,16.1,87C16.1,87,16.1,87,16.1,87C16.1,87,16.1,87,16.1,87
					C16.1,87,16.1,87,16.1,87z"/>
				<path class="st0" d="M11.4,90.8C11.4,90.7,11.3,90.7,11.4,90.8C11.4,90.7,11.4,90.7,11.4,90.8C11.4,90.7,11.4,90.7,11.4,90.8
					C11.4,90.8,11.4,90.8,11.4,90.8z"/>
				<path class="st0" d="M6.9,93.6c0.1,0,0.2,0,0.3,0c0,0.1,0,0.3,0,0.4C7,93.9,7,93.9,6.9,93.8C6.9,93.8,6.9,93.7,6.9,93.6z"/>
				<path class="st0" d="M6.7,93.8C6.7,93.8,6.7,93.7,6.7,93.8c0-0.1,0-0.1,0-0.1C6.7,93.7,6.8,93.7,6.7,93.8
					C6.8,93.8,6.7,93.8,6.7,93.8z"/>
				<path class="st0" d="M6.1,91.8C6.1,91.8,6,91.7,6.1,91.8C6.1,91.7,6.1,91.7,6.1,91.8C6.1,91.7,6.1,91.7,6.1,91.8
					C6.1,91.7,6.1,91.7,6.1,91.8z"/>
				<path class="st0" d="M5.8,91.8C5.8,91.7,5.8,91.7,5.8,91.8C5.8,91.7,5.8,91.7,5.8,91.8C5.8,91.7,5.8,91.7,5.8,91.8
					C5.8,91.7,5.8,91.7,5.8,91.8z"/>
			</g>
			<g>
				<path class="st0" d="M17.6,38c0,0-0.1-0.1-0.1-0.1c-0.2-0.1-0.2-0.1-0.4,0.1c0.1,0.1,0.3,0.3,0.2,0.5c-0.1,0-0.1,0.2-0.3,0.1
					c0,0-0.1,0-0.2-0.1c0.1,0.2,0.2,0.4,0.3,0.5c0.2,0.1,0.3,0.2,0.3,0.4c0,0,0.1,0,0.3,0.1c0,0,0-0.1,0-0.1c0,0-0.1,0-0.1,0
					c0.1,0,0.1,0,0.1,0c-0.1-0.3-0.1-0.3,0.1-0.4c0,0.1,0.1,0.2,0.2,0.2c0.1,0,0.2,0.1,0.3,0.1c0,0,0.1,0.1,0.1,0.1
					c0,0.1-0.1,0-0.1,0c-0.1,0.1-0.3,0-0.4,0.2c0,0.2-0.2,0.2-0.4,0.3c0.1,0.1,0.2,0.1,0.3,0.2c-0.1,0.3-0.3,0.1-0.5,0.2
					c0.1,0.1,0.2,0.3,0.3,0.4c-0.1,0.1-0.2,0.2-0.3,0.4c0,0-0.1-0.1-0.2-0.1c0,0.1,0,0.1-0.1,0.2c-0.1,0-0.1-0.1-0.2-0.1
					c-0.1-0.2,0.1-0.5-0.2-0.7c0,0.1,0,0.3,0,0.4c0.2,0.2,0,0.3,0,0.5c0.1,0.1,0.4-0.1,0.5,0.2c-0.2,0.2-0.5,0.5-0.7,0.7
					c0,0-0.1-0.1-0.1-0.1c0,0.1,0,0.1,0,0.2c0,0.2,0,0.4-0.2,0.5c-0.1,0.1-0.2,0.2-0.1,0.4c0.1,0.1,0,0.2,0,0.2c0,0,0.1,0.1,0.1,0.1
					c-0.1,0.1-0.2,0.2-0.2,0.3c0,0-0.1-0.1-0.1-0.1c-0.1-0.2-0.2-0.2-0.3-0.1c-0.1,0.1-0.1,0.2,0,0.4c0.1,0.1,0.1,0.1,0.2,0.2
					c0.1,0,0.2,0.1,0.2-0.1c0-0.2,0.1-0.1,0.2-0.1c0.1,0,0.2,0.1,0.2,0.2c0,0.1-0.1,0.3,0.1,0.4c-0.1,0.1-0.2,0.3-0.4,0.3
					c-0.2,0-0.3,0-0.4,0c0-0.2,0.3-0.2,0.2-0.4c-0.1,0.1-0.2,0.1-0.4,0.2c0.1,0.1,0.1,0.2,0.2,0.3c0,0-0.1,0.1-0.2,0.1
					c0,0.2,0,0.4,0.1,0.7c-0.1,0-0.1-0.1-0.1-0.1c0-0.3,0-0.5-0.2-0.8c0,0,0-0.2,0-0.2c-0.1-0.1-0.2-0.3-0.4-0.4
					c-0.1,0.1-0.1,0.2-0.2,0.3c-0.1,0.1-0.1,0.2-0.2,0.3c0,0,0,0,0,0c-0.1-0.1-0.3,0.1-0.4,0c-0.1-0.1-0.1-0.3-0.1-0.4
					c0-0.1-0.1-0.2-0.2-0.2c-0.2,0-0.3,0-0.5,0c0,0.2,0,0.2,0.2,0.2c0,0.1,0.1,0.3-0.1,0.3c0,0-0.1,0.2-0.1,0.4c0.1,0,0.1,0,0.2,0
					c0.1,0,0.2-0.1,0.2,0c0.1,0.1,0.1,0.2,0.2,0.3c-0.2,0-0.3,0-0.4,0c-0.1,0.1,0,0.3,0.2,0.6c-0.1,0-0.3-0.1-0.4,0
					c0,0-0.1,0-0.2-0.1c-0.1-0.1-0.1-0.1-0.2-0.3c0,0.2-0.1,0.3,0.1,0.4c0.1,0,0.1,0.1,0.1,0.2c-0.2,0,0,0.4-0.3,0.4
					c-0.2,0-0.2,0.2-0.2,0.4c-0.1,0-0.2,0-0.3-0.1c-0.2-0.1,0-0.3-0.1-0.6c0.1,0,0.2,0.1,0.2,0.1c0.1-0.1,0.2-0.2,0.3-0.2
					c-0.1-0.2-0.1-0.5-0.4-0.6c0-0.1,0.1-0.2,0.1-0.3c-0.1-0.2-0.2-0.3-0.3-0.5c0,0-0.1-0.1-0.1-0.1c-0.3,0-0.3-0.2-0.3-0.4
					c0,0.1,0,0.2,0,0.2c-0.3,0.3-0.2,0.6-0.2,0.9c0,0.1,0,0.3-0.2,0.3c0-0.2-0.1-0.4-0.1-0.6c0-0.1,0.2-0.2,0-0.3
					c-0.1-0.1-0.2-0.1-0.3-0.1c-0.2,0-0.3-0.1-0.3-0.3c0-0.1-0.1-0.2-0.1-0.2c-0.2,0.1-0.3,0.2-0.5,0.4c0.1,0.3,0.1,0.3-0.1,0.4
					c0,0.1,0,0.2,0,0.3c-0.3,0.1-0.4,0.4-0.8,0.4c0-0.1,0-0.2,0.1-0.3c0.4-0.4,0.5-0.4,0.3-0.9c0,0,0-0.1,0.1-0.1
					c0.1-0.1,0.3,0,0.4-0.2c0-0.1,0.1-0.2,0.2-0.3c-0.2,0-0.2-0.2-0.3-0.3c-0.2,0.1-0.2,0.2-0.1,0.4c-0.2,0.1-0.3,0-0.3-0.2
					c-0.1,0.1-0.2,0.2-0.3,0.3C8.5,44,8.4,44,8.3,44c0,0.4,0,0.4,0.3,0.5c-0.2,0.2-0.2,0.2-0.2,0.5c-0.1,0.1-0.2,0.3-0.4,0.4
					c0,0-0.1,0-0.2,0c0,0,0-0.1,0-0.1c0-0.2-0.2-0.2-0.3-0.4c0,0-0.1-0.1-0.1-0.1c0-0.1,0-0.1,0-0.2c0,0,0.4,0,0.5,0
					c0,0.1-0.1,0.2-0.1,0.2c0.2,0.1,0.3,0,0.4-0.1c-0.2-0.1-0.2-0.4-0.5-0.4c-0.1,0-0.2-0.2-0.2-0.3c0-0.3,0-0.6-0.2-0.8
					c-0.3,0.3-0.3,0.3-0.2,0.5c-0.1,0.1-0.2,0.2-0.3,0.3c0.1,0.1,0.2,0.2,0.3,0.2c0,0.1-0.2,0.2,0,0.3c-0.1,0.1-0.2,0.2-0.3,0.2
					c0,0-0.3-0.1-0.3-0.1c-0.1,0-0.3-0.1-0.4-0.1c0-0.2,0-0.5,0.2-0.6c0.1,0,0.1-0.1,0.1-0.1c0-0.2,0.1-0.5,0.1-0.8
					c-0.1,0-0.2,0.1-0.3,0.1c-0.1,0.1-0.1,0.2,0,0.3c-0.2,0.2,0,0.6-0.4,0.6C5.8,44,6,43.7,5.8,43.6c-0.1,0-0.2,0-0.3,0
					c0-0.1,0-0.1,0-0.2c0.1,0,0.2,0,0.3,0c0,0,0-0.1,0-0.1c-0.2-0.2,0-0.6-0.2-0.8c-0.1,0.1-0.1,0.2-0.2,0.3
					c-0.1,0.1-0.2,0.1-0.4,0.1c0-0.1,0-0.2,0-0.3c0.1-0.1,0.3,0,0.4-0.3c0-0.1-0.1-0.1-0.2-0.2c-0.1-0.1,0-0.4,0.1-0.4
					c0.2-0.1,0.3,0,0.3,0.1c0,0,0.1,0,0.1,0c0.1-0.2,0-0.4,0-0.7c-0.2,0-0.5,0-0.7,0c0,0,0,0,0,0c0,0,0-0.1,0-0.1c0,0,0,0-0.1,0
					c0,0,0,0,0.1,0.1c0.1,0.1,0.2,0.2,0.3,0.4c-0.2,0-0.4,0-0.6,0c0-0.1-0.1-0.2-0.2-0.3c0.1-0.1,0.2-0.2,0.3-0.2c0,0-0.1,0-0.1,0
					c-0.1,0-0.2,0-0.3,0c-0.1,0-0.2-0.1-0.2-0.3c0-0.1,0-0.6-0.1-0.6c0-0.1-0.1-0.1-0.1-0.1c0,0,0.1-0.1,0.1-0.2
					c0,0.1,0.1,0.1,0.1,0.1C4.4,40,4.4,40,4.4,40c0.1,0,0.3-0.3,0.2-0.3c-0.1-0.1,0-0.1,0-0.2c0-0.2,0-0.4-0.2-0.7
					c0.1,0,0.2,0.1,0.3,0.1c0.1-0.1-0.4-0.5-0.6-0.5c-0.1,0-0.1,0-0.3,0C4,38.1,4.1,38.1,4.1,38c0-0.1,0.1-0.1,0.1-0.2
					c0.2,0,0.4,0,0.6,0c-0.3-0.1-0.4-0.3-0.6-0.5c0.1-0.1,0.1-0.2,0.2-0.3c0.1,0.1,0.2,0.2,0.4,0.3c0-0.3,0-0.3-0.5-0.4
					c-0.1-0.1,0-0.2,0-0.3c0-0.1-0.1-0.2-0.3-0.3c-0.1,0-0.2,0-0.4,0.1c0,0.1-0.2,0-0.3,0.1c0-0.2,0.1-0.3,0.2-0.3
					c0.3,0,0.5-0.2,0.7-0.2c0-0.1-0.1-0.2-0.1-0.2c0.1-0.1,0.1-0.1,0.3,0.2c0,0,0.1-0.1,0.1-0.1c0,0,0-0.1,0-0.1
					c-0.2-0.1-0.3-0.3-0.6-0.3c-0.1,0-0.2-0.2-0.3-0.2c-0.1-0.1,0-0.1,0-0.2c0,0,0-0.1,0-0.1c-0.1-0.1,0.1-0.1,0.1-0.2
					C3.9,34.7,4,34.8,4,34.9c0.2,0,0.3-0.1,0.5-0.1c0,0.2,0,0.3-0.1,0.4c0.3,0.1,0.4,0,0.3-0.5c0,0,0,0,0.1,0c0,0,0,0,0.1,0.1
					c0-0.1,0-0.2,0-0.4c0,0-0.1-0.1-0.2-0.1c-0.1,0-0.1-0.1-0.3-0.1c0.3,0,0.4,0,0.7,0c0-0.1,0-0.2-0.1-0.2
					c-0.4-0.3-0.4-0.3-0.8-0.3c-0.1,0.2,0,0.3,0.2,0.3c-0.2,0.2-0.4,0.2-0.6,0.1c-0.1,0-0.1-0.2-0.1-0.3c0-0.1,0.1-0.2,0.2-0.3
					c0.1,0,0.1,0,0.2,0C4,33.4,4,33.3,4,33c0.3,0.4,0.5,0.4,0.8,0.4c-0.1-0.2-0.1-0.3-0.2-0.5c0-0.2-0.1-0.4-0.1-0.6
					c0.3,0,0.6,0.2,0.9,0.2c0.2,0.3,0.6,0.2,0.9,0.2c0.1-0.2,0.1-0.4,0.2-0.6c0,0,0.1,0,0.3,0c0-0.2,0-0.4-0.1-0.6
					c0.3,0.1,0.4,0.4,0.6,0.6c0.1-0.1,0.2-0.2,0.2-0.3c0.1,0,0.1,0.3,0.3,0.1C7.9,31.9,8,32,8,32c0,0.2,0.1,0.4,0.2,0.5
					c0.1,0.1,0.1,0.2,0.1,0.2c0,0.1,0,0.2-0.1,0.3c0.2-0.2,0.2-0.2,0.2-0.5c0-0.1-0.1-0.1-0.1-0.2c0.2-0.2,0.1-0.5-0.1-0.8
					c0.2,0.1,0.3,0.1,0.4,0.1c0.1-0.1,0.1-0.1,0.2-0.2c0,0.1,0.1,0.1,0.2,0.2c0.1-0.1,0.1-0.1,0.2-0.2c0,0-0.1-0.1-0.1-0.2
					c0.4,0,0.4,0.4,0.7,0.5c0-0.1,0-0.2,0-0.3c0.2,0,0.3,0.2,0.5,0c0.1,0.1,0.2,0.1,0.3,0.3c0.1,0,0.2,0,0.3,0c0.1,0,0.2,0,0.2,0
					c0.1-0.3,0.3-0.1,0.4-0.1c0,0.1,0,0.2,0.1,0.2c0.1,0,0.2,0.1,0.3-0.1c0.1,0.1,0.3,0.2,0.1,0.3c0.2,0.1,0.5,0.2,0.7,0.3
					c0.2,0.1,0.5,0.1,0.8,0.1c0.2,0.2,0.4,0.4,0.6,0.6c0,0.1,0,0.2,0,0.3c0,0.2,0,0.3-0.2,0.3c-0.1,0-0.2-0.1-0.4-0.1
					c0,0.1,0.1,0.2,0.1,0.3c-0.1,0.1-0.3,0.1-0.4,0.2c0,0.2,0.1,0.4,0.1,0.5c0,0,0.1,0,0.2,0c0-0.2,0-0.3,0-0.5
					c0.4,0.1,0.4,0.1,0.5-0.2c0.1,0.1,0.2,0.3,0.3,0.4c0.1,0,0.2,0,0.4,0c0-0.1,0-0.2,0-0.3c0.1,0,0.2,0.1,0.3,0.1
					c0.1,0.2-0.1,0.4,0.1,0.5c0,0,0,0.1,0,0.1c-0.2,0.2,0,0.4,0.1,0.7c0.3-0.2,0.5-0.1,0.7,0.1c0.1-0.1,0.2-0.2,0.3-0.3
					c0.1,0.1,0.2,0.2,0.3,0.3c0,0,0.1,0.1,0.1,0.1c0.2,0.3,0.2,0.4,0.5,0.3c0,0,0.1,0,0.1,0c0,0.2,0,0.3,0,0.5
					c0.2,0.1,0.4,0.1,0.6,0.2c-0.1,0.1-0.2,0.1-0.3,0.2c0.1,0.3,0.4,0.2,0.6,0.4c-0.1,0.1-0.3,0.1-0.4,0.2
					C17.6,37.8,17.6,37.9,17.6,38z M9.3,41.9C9.3,41.9,9.4,41.9,9.3,41.9c0.1-0.1,0.1-0.2,0-0.3c-0.1,0-0.1,0.1-0.1,0.1
					c0,0.1,0,0.1,0.1,0.4c0-0.1,0.1-0.1,0.1-0.1C9.4,42,9.4,41.9,9.3,41.9C9.4,42,9.4,42,9.3,41.9z M5.1,38.5
					c0.1-0.1,0.1-0.2,0.2-0.3c-0.2-0.1-0.2,0-0.2,0.2c-0.1,0-0.2-0.1-0.2,0.1c0,0,0,0.1,0.1,0.1C5.2,38.6,5.1,38.5,5.1,38.5z
					 M5.3,35.6C5.3,35.6,5.3,35.6,5.3,35.6C5.3,35.6,5.3,35.6,5.3,35.6C5.3,35.6,5.2,35.6,5.3,35.6c0,0,0,0-0.1-0.3
					c0.1,0.1,0.1,0.1,0.1,0.1c0.1,0.1,0.2,0.1,0.3,0c0,0,0-0.1,0-0.1C5.5,35.4,5.4,35.4,5.3,35.6z M10.5,35.8
					c-0.1,0-0.1-0.1-0.1-0.1c0,0-0.1,0.1-0.1,0.1c0.1,0,0.1,0,0,0c-0.2,0-0.3,0.1-0.4,0.4c0,0.1-0.1,0.2-0.2,0.2
					c-0.3,0-0.3,0-0.5,0.1c-0.1,0.1-0.2,0.1-0.3,0.2c-0.1,0.1-0.2,0.1-0.2,0.3c0,0.1,0.1,0.2,0.2,0.2c0.2,0.1,0.4,0.4,0.3,0.6
					c0,0.1,0,0.1,0,0.2c0.1,0,0.1,0,0.2-0.1c0-0.1,0.1-0.1,0.2-0.1c0.2,0.1,0.2,0.3,0.1,0.5c0.1,0,0.2,0,0.4,0
					c-0.3-0.4-0.2-0.8,0-1.1c0,0,0-0.1,0-0.1c0.2,0,0.4,0,0.4,0.1c0,0.1,0,0.2,0.1,0.3c-0.1,0.1-0.1,0.1-0.2,0.2c0.1,0,0.2,0,0.2,0
					c0.1-0.1,0.1-0.1,0.1-0.2c0.3,0.2,0.5,0.4,0.8,0.3c0.1-0.1,0.3-0.2,0.4-0.4c0-0.1,0-0.2,0-0.4c-0.3,0-0.6,0.1-0.9,0.1
					c0-0.4-0.2-0.6-0.4-0.8c0.1-0.2,0.2-0.4,0-0.6c-0.2-0.2-0.3,0-0.5,0.1c0,0.2,0.1,0.3,0.1,0.4c0,0,0,0.1-0.1,0.1
					c0,0-0.1-0.1-0.1-0.1C10.3,36.3,10.2,36.1,10.5,35.8z M8.9,39.7C9.1,39,9,38.4,9,37.8c-0.1,0-0.3,0-0.4,0
					c-0.1,0.4-0.2,0.5-0.5,0.4c0-0.1,0.1-0.2,0.1-0.3c-0.1,0-0.1-0.1-0.2-0.1c-0.2,0.2-0.4,0.3-0.7,0.3c0,0.1,0,0.2,0,0.3
					c0,0.1,0.1,0.2,0.2,0.2c0,0.1,0.1,0.1,0.2,0.2c-0.2-0.1-0.4,0.1-0.5-0.2c0-0.1-0.2-0.1-0.4-0.2c0,0.1,0,0.2,0,0.2
					c0,0.2,0.3,0.5,0.4,0.3c0.2-0.2,0.3,0,0.4,0c0.1-0.1,0.1-0.3,0.2-0.4c0.2,0,0.3,0,0.5-0.1c0.2-0.1,0.4,0,0.4,0.3
					c0,0.1-0.1,0.2,0,0.4c0,0,0,0.1-0.1,0.2c0,0.1-0.1,0.1-0.2,0.2C8.6,39.7,8.8,39.7,8.9,39.7z M11.1,42.1c0-0.2,0-0.4,0.1-0.6
					c0,0,0-0.2,0-0.2c-0.1-0.2,0.1-0.3,0.2-0.4c-0.1-0.1-0.2-0.2-0.3-0.3c-0.1,0.1-0.2,0.1-0.4,0.1c-0.1,0-0.2-0.1-0.2,0
					c0,0.1-0.2,0.1,0,0.2c0.1,0.1,0,0.3,0.2,0.4c0.1,0.1,0.1,0.1,0,0.2c0,0,0,0.1,0,0.1c0.1,0,0.2,0,0.1,0.1c0,0-0.1,0-0.2,0.1
					c0,0-0.1,0-0.2,0.1C10.6,42.2,10.8,42.2,11.1,42.1z M15.3,36.8c-0.1,0.1-0.1,0.2-0.2,0.3c-0.1,0-0.2,0-0.3,0
					c-0.1,0.2-0.2,0.4-0.2,0.5c0,0.2,0,0.4,0,0.5c0.1,0.1,0,0.4,0.3,0.4c0.1-0.2,0.2-0.3,0.3-0.5c0-0.2-0.4-0.2-0.3-0.5
					c0.1,0,0.2,0,0.4,0c-0.1-0.1-0.1-0.2-0.1-0.3c0.1,0,0.1-0.1,0.2-0.1C15.4,37.1,15.3,37,15.3,36.8z M6.3,33.7c-0.1,0-0.2,0-0.3,0
					c0-0.1,0-0.1,0.1-0.2c0.1,0,0.1-0.2,0-0.3c0-0.1-0.1-0.2-0.2,0c0,0-0.1,0-0.1,0c-0.3,0-0.4,0.1-0.5,0.4c0.2,0.2,0.3,0.3,0.4,0.4
					C5.9,34,6,33.9,6.1,33.8c0.1,0,0.1,0.3,0.3,0.2C6.3,33.9,6.3,33.8,6.3,33.7z M13,41.6c0.2,0.2,0.2,0.5,0.3,0.7
					c0.1,0.2,0.1,0.5,0.2,0.8c0.1-0.1,0.2-0.2,0.2-0.3c0-0.1,0.1-0.2,0-0.2c-0.1-0.2-0.1-0.4-0.3-0.6c-0.2-0.2-0.1-0.4-0.1-0.6
					c0.1-0.1,0.1-0.3,0-0.4c-0.1,0-0.1,0.1-0.1,0.1C13.3,41.3,13.2,41.4,13,41.6z M11.6,40.7c0.1-0.1,0.1-0.2,0.2-0.3
					c0.2-0.2,0.3-0.3,0.1-0.6c-0.1-0.2,0-0.3,0-0.5c-0.2,0.1-0.2,0.1-0.4,0.3c0,0,0.1,0.1,0.1,0.2c0,0,0,0,0,0.1
					c-0.1,0.1-0.2,0.3-0.2,0.4C11.3,40.5,11.6,40.4,11.6,40.7C11.6,40.6,11.6,40.6,11.6,40.7z M9,41.6c-0.1-0.3-0.2-0.4-0.3-0.6
					c0,0.1-0.3,0-0.2,0.2c-0.1,0-0.3,0.1-0.4,0.1c0.1,0.2,0.2,0.3,0.3,0.5c0.1-0.1,0.2-0.3,0.3-0.4C8.7,41.5,8.8,41.6,9,41.6z
					 M14.8,39c-0.1,0.2,0.1,0.4,0.2,0.5c0.1,0.1,0.2,0.1,0.2,0.3c0,0.1,0.1,0.2,0.1,0.3c0,0.1,0.1,0.2,0.3,0.2
					c0.1-0.3,0-0.4-0.1-0.6c-0.1-0.2-0.2-0.4-0.4-0.6C14.9,39,14.9,39,14.8,39z M9.4,39.8c0,0.1,0,0.2,0.1,0.2c0.1,0,0.2,0.1,0.2,0
					c0.1,0,0.2-0.1,0.1-0.2c0.1-0.2,0.2-0.4,0.3-0.6c-0.3,0-0.5,0.1-0.5,0.4C9.6,39.7,9.5,39.8,9.4,39.8z M9.9,41.6
					c0.1-0.2,0.2-0.3,0.1-0.4c0-0.1-0.2-0.2-0.3-0.3c-0.3,0.2-0.2,0.5-0.3,0.7C9.6,41.6,9.8,41.6,9.9,41.6z M8,42.1
					c0,0-0.1,0.1-0.1,0.1c0,0.1,0,0.2,0.1,0.3c0.1,0.2,0.3,0.3,0.4,0.4c0.2-0.2,0.2-0.4,0-0.6c0,0-0.1,0.1-0.1,0.1
					C8.1,42.3,8.1,42.2,8,42.1z M11.9,41.8C11.8,41.8,11.8,41.8,11.9,41.8c0.1,0.3,0.2,0.4,0.3,0.7c0-0.1,0.1-0.2,0.1-0.3
					c0.1,0,0.2,0,0.4,0c0-0.1,0-0.1,0-0.2c0,0-0.1-0.1-0.1-0.1C12.3,41.9,12.1,41.8,11.9,41.8z M9.4,35.3c-0.1,0.1-0.2,0.2-0.1,0.2
					c0,0.2,0.1,0.4,0.2,0.6c0,0,0.1,0.1,0.2,0.1C9.7,35.5,9.7,35.5,9.4,35.3z M7.6,41c0.1-0.1,0-0.3,0.2-0.4
					c0.1-0.2,0.1-0.3-0.1-0.5c-0.1,0.1-0.2,0.1-0.3,0.2c0.1,0.1,0.2,0.1,0.2,0.2c0,0.1-0.1,0.1-0.1,0.2C7.5,40.8,7.5,40.9,7.6,41z
					 M16.1,39.6c0.1-0.2,0.2-0.4,0.1-0.5c-0.1-0.2-0.1-0.4-0.1-0.6c-0.1,0-0.1,0-0.2,0C16,38.9,15.8,39.3,16.1,39.6z M9.2,42.6
					c-0.1,0.2-0.2,0.3-0.3,0.4c0.2,0,0.2,0,0.3,0.2c0-0.1,0-0.2,0.1-0.3C9.5,42.8,9.3,42.8,9.2,42.6z M6.6,42.5
					c-0.1-0.2-0.1-0.3-0.2-0.4c-0.1-0.2-0.2-0.2-0.5,0C6.2,42.3,6.4,42.4,6.6,42.5z M6.4,41.6c0.1-0.3-0.1-0.5-0.1-0.7
					c0,0.2-0.2,0.4-0.1,0.7C6.3,41.6,6.3,41.6,6.4,41.6z M5.5,37.3C5.5,37,5.3,37,5.2,36.8c0,0,0.1-0.1,0.1-0.1
					c-0.2,0-0.2,0-0.3,0.3C5.2,37.1,5.3,37.2,5.5,37.3z M14.5,36.2c0.1,0,0.2,0.1,0.3,0.1c0.1,0,0.2-0.1,0.3-0.2
					c-0.1-0.2-0.3-0.2-0.4-0.2C14.6,36.1,14.5,36.1,14.5,36.2z M14.8,43.4c0.1-0.1,0.1-0.1,0.1-0.1c0.1,0.1,0.1,0.1,0.2,0.2
					c0-0.2,0.1-0.4,0-0.6C14.9,43,14.8,43.1,14.8,43.4z M8.7,40.2c-0.1-0.2-0.1-0.3-0.1-0.4C8.5,39.9,8.4,40,8.3,40
					C8.4,40.3,8.5,40.3,8.7,40.2z M4.8,40.2c-0.1,0-0.1,0-0.2,0c-0.1,0-0.1-0.1-0.2-0.1c0,0.2,0,0.3,0,0.4c0.1,0,0.2,0,0.4,0
					C4.8,40.4,4.8,40.3,4.8,40.2z M7.4,37.6c0.1-0.2,0.1-0.3,0.2-0.4c0,0,0-0.1-0.1-0.1c0,0-0.1,0-0.2,0c-0.1,0-0.1,0.1-0.1,0.1
					C7.2,37.3,7.3,37.4,7.4,37.6z M11,33.7c0.1-0.2,0.1-0.3,0.1-0.4c0-0.1-0.1-0.1-0.1-0.2c-0.1,0.1-0.1,0.1-0.1,0.2
					C10.9,33.4,11,33.5,11,33.7z M10.4,40c0,0-0.1,0-0.1,0c0,0.1,0,0.2,0,0.3c0.1,0.1,0.2,0.1,0.4,0.2C10.7,40.1,10.5,40.1,10.4,40z
					 M15.4,42.5c0,0.1,0,0.3,0.1,0.4c0,0,0.1,0.1,0.1,0c0,0,0.1-0.1,0.1-0.1c0-0.1-0.2-0.1,0-0.2c0,0,0-0.1,0-0.2
					C15.5,42.4,15.4,42.5,15.4,42.5z M14.3,41.4c0.2,0.1,0.4,0,0.4-0.2c-0.1-0.1-0.1-0.1-0.2-0.2C14.5,41.1,14.4,41.2,14.3,41.4z
					 M13.4,43.4c-0.1,0.1-0.1,0.1-0.2,0.2c0.1,0.1,0.2,0.1,0.3,0.2C13.6,43.6,13.5,43.5,13.4,43.4z M16.7,36.9
					C16.7,37,16.7,37,16.7,36.9c-0.1,0.2,0,0.2,0,0.3c0,0.1,0.1,0.2,0.1,0.1c0,0,0.1-0.2,0-0.2C16.9,37.1,16.8,37,16.7,36.9z
					 M9.3,39.9c0-0.1,0-0.1,0-0.2c0-0.1,0-0.1,0.1-0.2c-0.2,0-0.3,0.2-0.4,0.3C9.1,39.8,9.2,39.8,9.3,39.9z M16,41.8
					c-0.1-0.2-0.1-0.3-0.3-0.3c0,0.1,0,0.2,0,0.3C15.8,41.8,15.9,41.8,16,41.8z M15.5,37.6c0.1,0.1,0.1,0.1,0.2,0.2c0,0,0.1,0,0.2,0
					c0,0,0-0.1,0-0.1c0-0.1-0.1-0.1-0.2-0.1C15.6,37.6,15.6,37.6,15.5,37.6z M13.7,35.8c-0.2,0-0.2,0-0.4,0.1
					c0.1,0.1,0.1,0.2,0.2,0.3C13.6,36.1,13.6,36,13.7,35.8z M11.7,41.6c0.2-0.1,0.2-0.2,0.2-0.3c0,0-0.1,0-0.2-0.1
					C11.7,41.3,11.7,41.4,11.7,41.6z M13.1,42.2c-0.1,0-0.1-0.1-0.1-0.1c-0.1,0.1-0.1,0.1-0.2,0.2c0,0,0.1,0.1,0.1,0.1
					C13,42.3,13,42.3,13.1,42.2z M11.9,32.8c-0.1,0-0.2,0-0.2,0c-0.1,0-0.1-0.1-0.2-0.1C11.6,33.1,11.6,33.1,11.9,32.8z M6.4,34.1
					C6.4,34.2,6.4,34.2,6.4,34.1c0,0.1-0.1,0.3,0,0.3c0,0,0.1,0,0.1,0C6.6,34.3,6.5,34.3,6.4,34.1C6.4,34.2,6.4,34.2,6.4,34.1z
					 M9.4,38.7C9.4,38.8,9.4,38.8,9.4,38.7c0.1,0,0.2,0.1,0.3,0c0,0,0-0.1,0-0.1C9.5,38.5,9.5,38.6,9.4,38.7
					C9.4,38.7,9.4,38.7,9.4,38.7z M8.8,42.7c0,0-0.1,0.1-0.1,0.1c0,0.1,0,0.1-0.1,0.2c0,0,0.1,0.1,0.1,0c0,0,0.1-0.1,0.1-0.1
					C8.8,42.8,8.8,42.8,8.8,42.7z M8.6,32.6c0.2-0.2,0.2-0.2,0.2-0.4C8.7,32.3,8.7,32.4,8.6,32.6z M5.3,33.4
					c-0.2,0.1-0.3,0.2-0.4,0.2C5.1,33.7,5.2,33.7,5.3,33.4z M15.9,39.8c-0.1-0.2-0.1-0.2-0.3-0.1C15.7,39.7,15.8,39.7,15.9,39.8z
					 M11.5,34.1C11.4,34,11.4,34,11.4,34c0,0-0.1,0-0.1,0.1c0,0,0.1,0.1,0.1,0.1C11.4,34.2,11.4,34.1,11.5,34.1z M5.2,34.8
					c0.1-0.1,0.1-0.1,0.1-0.2c0,0,0-0.1-0.1-0.1c0,0-0.1,0.1-0.1,0.1C5.1,34.7,5.2,34.7,5.2,34.8z M9.8,40.4
					C9.8,40.4,9.8,40.4,9.8,40.4c-0.1,0.1,0,0.2,0,0.2c0,0,0.1,0.1,0.1,0.1c0,0,0,0,0.1-0.1C9.9,40.5,9.9,40.5,9.8,40.4z M6.9,34
					c0-0.1,0-0.1-0.1-0.2C6.7,34,6.7,34.1,6.9,34z M8.3,39.6c-0.1-0.1-0.1-0.1-0.2-0.2C8.1,39.6,8.2,39.7,8.3,39.6z M11.3,39.7
					C11.3,39.6,11.3,39.6,11.3,39.7c-0.1-0.1-0.2-0.1-0.3-0.1c0,0,0,0,0,0.1C11.2,39.7,11.3,39.7,11.3,39.7z M12.1,33.1
					C12.1,33,12,33,11.9,32.9C11.9,33.1,12,33.2,12.1,33.1z M6.5,34C6.5,34,6.5,34,6.5,34c0.1-0.1,0.1-0.1,0-0.2c0,0-0.1,0-0.1,0
					C6.4,33.9,6.5,34,6.5,34z M5.8,34.7C5.8,34.7,5.8,34.7,5.8,34.7c-0.1-0.1-0.1-0.1-0.2-0.1c0,0,0,0,0,0.1
					C5.7,34.7,5.7,34.7,5.8,34.7z M7.3,32.3C7.3,32.3,7.2,32.3,7.3,32.3c0,0.1,0,0.1,0,0.2c0,0,0,0,0,0C7.3,32.5,7.3,32.4,7.3,32.3z
					 M12.1,46.6C12.1,46.6,12.1,46.6,12.1,46.6c0,0.1,0,0.1,0,0.2c0,0,0,0,0,0C12.1,46.7,12.1,46.7,12.1,46.6z M9,36.2
					c0.1,0,0.1,0,0.1-0.1c0,0-0.1-0.1-0.1-0.1C9,36.1,8.9,36.1,9,36.2C8.9,36.1,8.9,36.2,9,36.2z M9.1,35.6c0,0.1,0,0.1,0.1,0.1
					c0,0,0.1-0.1,0.1-0.1C9.2,35.6,9.2,35.6,9.1,35.6C9.1,35.6,9.1,35.6,9.1,35.6z M9.1,34.9c0,0.1,0,0.1,0.1,0.1
					c0,0,0.1-0.1,0.1-0.1C9.2,34.9,9.2,34.9,9.1,34.9C9.1,34.9,9.1,34.9,9.1,34.9z M13.8,35.7c0-0.1,0-0.1,0-0.1c0,0,0,0-0.1,0
					C13.8,35.5,13.7,35.6,13.8,35.7C13.7,35.6,13.8,35.6,13.8,35.7z M14.4,34.8c0-0.1,0-0.1,0-0.1c0,0,0,0-0.1,0
					C14.3,34.7,14.3,34.8,14.4,34.8C14.3,34.8,14.3,34.8,14.4,34.8z M8.8,43.3C8.8,43.3,8.8,43.3,8.8,43.3c0,0.1,0,0.1,0,0.2
					c0,0,0,0,0,0C8.8,43.4,8.8,43.4,8.8,43.3z M12.9,33.9C12.9,33.9,12.9,33.9,12.9,33.9c0,0.1,0,0.1,0,0.2c0,0,0,0,0,0
					C12.9,34.1,12.9,34,12.9,33.9z M8.2,37.8c0.1,0,0.1,0,0.1-0.1c0,0-0.1-0.1-0.1-0.1C8.2,37.7,8.2,37.7,8.2,37.8
					C8.2,37.7,8.2,37.8,8.2,37.8z M14,41.6C14.1,41.6,14.1,41.5,14,41.6C14.1,41.5,14.1,41.5,14,41.6C14.1,41.5,14,41.5,14,41.6
					C14,41.5,14,41.6,14,41.6z M11.1,32.8C11.1,32.8,11.1,32.8,11.1,32.8C11,32.8,11,32.8,11.1,32.8C11,32.8,11,32.8,11.1,32.8
					C11,32.8,11.1,32.8,11.1,32.8z M5.3,33.2C5.3,33.2,5.3,33.2,5.3,33.2C5.3,33.2,5.4,33.2,5.3,33.2C5.4,33.2,5.4,33.2,5.3,33.2
					C5.4,33.2,5.4,33.2,5.3,33.2z M13,37.6C13,37.6,13.1,37.5,13,37.6c0-0.1,0-0.1,0-0.1C13,37.5,13,37.5,13,37.6
					C13,37.5,13,37.5,13,37.6z M11.6,42.5C11.6,42.5,11.6,42.5,11.6,42.5C11.6,42.4,11.6,42.4,11.6,42.5
					C11.6,42.4,11.6,42.4,11.6,42.5C11.6,42.5,11.6,42.5,11.6,42.5z M6.9,42.2C6.9,42.2,6.8,42.2,6.9,42.2
					C6.8,42.3,6.8,42.3,6.9,42.2C6.9,42.3,6.9,42.3,6.9,42.2C6.9,42.2,6.9,42.2,6.9,42.2z M15.6,43.4C15.6,43.4,15.6,43.4,15.6,43.4
					C15.6,43.3,15.6,43.3,15.6,43.4C15.6,43.3,15.5,43.3,15.6,43.4C15.5,43.4,15.5,43.4,15.6,43.4z M7.6,44.1
					C7.6,44.1,7.7,44.1,7.6,44.1C7.7,44,7.7,44,7.6,44.1C7.6,44,7.6,44,7.6,44.1C7.6,44.1,7.6,44.1,7.6,44.1z M7.6,39.9
					C7.6,39.9,7.6,39.9,7.6,39.9C7.6,39.9,7.6,40,7.6,39.9C7.6,40,7.7,39.9,7.6,39.9C7.7,39.9,7.7,39.9,7.6,39.9z M16,42
					C16.1,42,16.1,42,16,42c0-0.1,0-0.1,0-0.1C16,41.9,16,41.9,16,42C16,41.9,16,42,16,42z M10.3,32.7
					C10.4,32.7,10.4,32.7,10.3,32.7C10.4,32.7,10.4,32.7,10.3,32.7C10.4,32.7,10.4,32.7,10.3,32.7C10.4,32.7,10.3,32.7,10.3,32.7z
					 M6,34.5C5.9,34.5,5.9,34.5,6,34.5C5.9,34.5,5.9,34.5,6,34.5C5.9,34.5,5.9,34.5,6,34.5C5.9,34.5,5.9,34.5,6,34.5z M14.3,37
					C14.3,37,14.3,37.1,14.3,37C14.4,37,14.4,37,14.3,37C14.4,37,14.4,37,14.3,37C14.3,37,14.3,37,14.3,37z M14.7,43.7
					C14.7,43.7,14.8,43.7,14.7,43.7C14.8,43.6,14.7,43.6,14.7,43.7C14.7,43.6,14.7,43.6,14.7,43.7C14.7,43.7,14.7,43.7,14.7,43.7z
					 M9.5,34.5C9.5,34.5,9.5,34.5,9.5,34.5C9.5,34.5,9.5,34.5,9.5,34.5C9.5,34.5,9.5,34.5,9.5,34.5C9.6,34.5,9.5,34.5,9.5,34.5z
					 M6.8,37.9C6.8,37.8,6.8,37.8,6.8,37.9C6.8,37.8,6.8,37.8,6.8,37.9C6.8,37.8,6.7,37.8,6.8,37.9C6.8,37.8,6.8,37.8,6.8,37.9z
					 M15.5,42.2C15.5,42.2,15.5,42.2,15.5,42.2c0-0.1,0-0.1,0-0.1C15.5,42.1,15.4,42.1,15.5,42.2C15.5,42.1,15.5,42.2,15.5,42.2z"/>
				<path class="st0" d="M17.2,38.5c0.2-0.2,0.4-0.1,0.7-0.1c0.1,0,0.3,0,0.4,0c0.1,0.1,0.1-0.1,0.2,0c0.1,0.1,0.1,0.2,0.2,0.3
					c-0.1,0.1-0.2,0.1-0.3,0.2c0,0,0,0,0,0c-0.2,0-0.4,0.1-0.6,0.1c-0.1-0.3-0.4-0.2-0.6-0.2C17.2,38.7,17.2,38.6,17.2,38.5z"/>
				<path class="st0" d="M11.1,47.2c-0.1-0.1,0.2-0.1,0-0.3c0,0,0-0.2,0-0.3c0.2-0.2,0.1-0.4,0.2-0.6c0,0,0.2-0.4,0.3-0.5
					c0,0,0.1,0,0.1,0c-0.1,0.3-0.3,0.5-0.3,0.8c0,0-0.1,0.1-0.1,0.1c-0.1,0.2-0.1,0.2,0,0.5c0.1,0.2,0.1,0.4,0.2,0.5
					c-0.1,0-0.1,0-0.1,0c0,0-0.1,0-0.2,0c0-0.2,0.1-0.3,0.1-0.5C11.3,47.2,11.2,47.2,11.1,47.2z"/>
				<path class="st0" d="M17.2,41.2c0.1,0,0.2,0,0.3,0c0,0.1,0.1,0.2-0.1,0.3c-0.1,0-0.1,0.1-0.2,0.2c-0.1-0.1-0.2-0.1-0.2-0.2
					C17,41.4,17.1,41.3,17.2,41.2z"/>
				<path class="st0" d="M12.9,46.8c0-0.1,0.1-0.1,0.1-0.1c-0.1,0-0.1-0.1-0.2-0.1c0-0.2,0.2-0.3,0.3-0.4c0,0,0.1,0,0.1,0.1
					c0,0.1-0.1,0.2-0.1,0.3c0,0.1,0.1,0.2,0.1,0.4C13,46.9,13,46.8,12.9,46.8z"/>
				<path class="st0" d="M8.6,45.6c0,0.2,0.1,0.4-0.3,0.5c0-0.2,0-0.3,0-0.5C8.4,45.6,8.5,45.6,8.6,45.6z"/>
				<path class="st0" d="M16.8,42.8c-0.1,0-0.2,0-0.2,0c-0.1,0-0.2-0.1-0.2-0.2c0-0.1,0.1-0.1,0.1-0.2c0.1,0.1,0.3,0.2,0.4,0.3
					C16.9,42.7,16.8,42.8,16.8,42.8z"/>
				<path class="st0" d="M13.9,47c-0.1-0.2-0.1-0.3-0.2-0.4c0-0.1,0.1-0.1,0.1-0.2c0,0,0.1,0,0.1,0c0,0.1,0.1,0.1,0.1,0.2
					C14.1,46.7,14,46.8,13.9,47z"/>
				<path class="st0" d="M14.1,45.4c0.1,0,0.2,0,0.3,0c0,0,0,0.1,0,0.1c-0.1,0.1-0.2,0.2-0.3,0.3C14.1,45.7,14.1,45.5,14.1,45.4z"/>
				<path class="st0" d="M14.2,45.4c-0.5,0-0.5,0-0.6-0.2C13.8,45.3,14,45.3,14.2,45.4z"/>
				<path class="st0" d="M3.5,37.5c0.2-0.2,0.2-0.2,0.4,0C3.7,37.7,3.7,37.7,3.5,37.5z"/>
				<path class="st0" d="M4.5,34.6c-0.1,0-0.2-0.1-0.3-0.1c0,0,0-0.1,0-0.1c0.1,0,0.1-0.1,0.2,0C4.4,34.3,4.5,34.4,4.5,34.6
					C4.5,34.5,4.5,34.5,4.5,34.6z"/>
				<path class="st0" d="M8.1,45.7c0,0.1,0,0.2,0,0.3C8,45.9,8,46,7.9,46c0,0-0.1-0.1-0.1-0.1C7.9,45.8,8,45.8,8.1,45.7z"/>
				<path class="st0" d="M17.7,41.2c-0.1-0.1-0.1-0.2-0.1-0.3c0,0,0.1-0.1,0.1,0C17.8,41,17.7,41.1,17.7,41.2z"/>
				<path class="st0" d="M12.6,47.3c-0.1,0.1-0.1,0.1-0.1,0.1c0,0-0.1-0.1-0.1-0.1c0,0,0-0.1,0.1-0.1C12.5,47.2,12.6,47.3,12.6,47.3
					z"/>
				<path class="st0" d="M6.1,31.8c0,0.1,0,0.2,0,0.4c0,0,0,0-0.1,0C6,32,6,31.9,6.1,31.8C6,31.8,6,31.8,6.1,31.8z"/>
				<path class="st0" d="M11,47.3c0,0-0.1,0.1-0.2,0.1C10.7,47.1,11,47.3,11,47.3z"/>
				<path class="st0" d="M4.9,32.2c-0.1-0.1-0.1-0.1-0.1-0.2c0,0,0-0.1,0.1-0.1C4.9,32,5,32,5,32C5,32.1,5,32.1,4.9,32.2z"/>
				<path class="st0" d="M18.4,37.9c-0.1,0-0.1,0.1-0.2,0.1C18.1,37.9,18.2,37.9,18.4,37.9z"/>
				<path class="st0" d="M5,42.1c-0.1,0.1-0.1,0.1-0.1,0.1C4.8,42.1,4.8,42.1,5,42.1z"/>
				<path class="st0" d="M10,45c0,0-0.1,0.1-0.1,0.1C9.9,45,9.9,45,10,45z"/>
				<path class="st0" d="M14.5,33.8C14.5,33.8,14.5,33.7,14.5,33.8c0.1-0.1,0.1-0.1,0.2-0.1c0,0,0,0.1,0,0.1
					C14.6,33.8,14.6,33.8,14.5,33.8C14.5,33.8,14.5,33.8,14.5,33.8z"/>
				<path class="st0" d="M9.2,46.9c0,0-0.1,0.1-0.1,0.1C9.1,46.9,9.1,46.9,9.2,46.9z"/>
				<path class="st0" d="M17.6,38.2c0-0.1,0-0.2,0-0.2c0,0,0.1,0.1,0.1,0.1C17.7,38.1,17.7,38.1,17.6,38.2z"/>
				<path class="st0" d="M3.7,37C3.7,37,3.7,37,3.7,37C3.8,37,3.8,37,3.9,37c0,0,0,0.1,0,0.1C3.8,37.1,3.8,37,3.7,37z"/>
				<path class="st0" d="M18.1,37.2c-0.1,0-0.1,0-0.2,0c0,0,0,0,0-0.1C18,37.2,18,37.2,18.1,37.2C18.1,37.2,18.1,37.2,18.1,37.2z"/>
				<path class="st0" d="M11.8,31.7c0,0.1,0,0.2,0,0.2c0,0-0.1-0.1-0.1-0.1C11.7,31.8,11.8,31.8,11.8,31.7z"/>
				<path class="st0" d="M11.7,31.8c-0.1,0-0.2,0-0.2,0c0,0,0.1-0.1,0.1-0.1C11.6,31.7,11.6,31.8,11.7,31.8z"/>
				<path class="st0" d="M14,45.2C14,45.2,13.9,45.2,14,45.2c0-0.1,0-0.1,0-0.1c0,0,0.1,0,0.1,0.1C14.1,45.2,14,45.2,14,45.2z"/>
				<path class="st0" d="M8.4,47C8.4,47,8.5,46.9,8.4,47c0.1,0,0.1,0,0.1,0c0,0,0,0.1-0.1,0.1C8.5,47.1,8.4,47,8.4,47z"/>
				<path class="st0" d="M18.3,38.2C18.3,38.2,18.3,38.2,18.3,38.2C18.3,38.2,18.3,38.2,18.3,38.2C18.3,38.2,18.3,38.2,18.3,38.2
					C18.3,38.3,18.3,38.2,18.3,38.2z"/>
				<path class="st0" d="M4.1,37.7C4.1,37.6,4.1,37.6,4.1,37.7c0-0.1,0-0.1,0-0.1C4.1,37.6,4.2,37.6,4.1,37.7
					C4.2,37.6,4.1,37.7,4.1,37.7z"/>
				<path class="st0" d="M4.3,39.6C4.3,39.5,4.3,39.5,4.3,39.6C4.3,39.5,4.3,39.5,4.3,39.6C4.3,39.5,4.4,39.5,4.3,39.6
					C4.3,39.5,4.3,39.5,4.3,39.6z"/>
				<path class="st0" d="M9,45.8C9.1,45.8,9.1,45.8,9,45.8C9.1,45.9,9.1,45.9,9,45.8C9,45.9,9,45.9,9,45.8C9,45.8,9,45.8,9,45.8z"/>
				<path class="st0" d="M7.4,31.6C7.4,31.6,7.4,31.6,7.4,31.6C7.5,31.5,7.5,31.6,7.4,31.6C7.5,31.6,7.5,31.6,7.4,31.6
					C7.4,31.6,7.4,31.6,7.4,31.6z"/>
				<path class="st0" d="M9.7,37.2c-0.2,0.1-0.3,0-0.4-0.2C9.5,37,9.5,37,9.7,37.2z"/>
			</g>
		</g>
	</g>
</g>
</svg>
