<?xml version="1.0" encoding="utf-8"?>
<!-- Generator: Adobe Illustrator 28.0.0, SVG Export Plug-In . SVG Version: 6.00 Build 0)  -->
<svg version="1.1" id="Layer_1" xmlns="http://www.w3.org/2000/svg" xmlns:xlink="http://www.w3.org/1999/xlink" x="0px" y="0px"
	 viewBox="0 0 174 186.4" style="enable-background:new 0 0 174 186.4;" xml:space="preserve">
<style type="text/css">
	.st0{fill:#F4F0E9;}
</style>
<g>
	<g>
		<path class="st0" d="M119.3,159.4c0.1,0.2,0.3,0.7,0.4,0.7c1,0,1.4,0.9,1.8,1.5c0.4,0.6,0.7,1.5,0.5,2.4c-0.1,0.3,0,0.7,0.1,1
			c0.1,1.4-0.1,2.7-0.5,4.1c-0.1,0.1-0.1,0.3-0.1,0.5c0.3,0.6,0.2,1.2,0.1,1.8c-0.3,0.9,0,1.8-0.1,2.7c-0.1,0.9,0,1.7-0.2,2.6
			c-0.2,1-0.2,2.1,0,3.1c0.1,0.4-0.1,0.8-0.1,1.2c0,0.3-0.1,0.6,0,0.8c0.3,0.4,0.1,0.9,0.2,1.3c0.3,1.6-1,2.3-1.3,3.4
			c-1,0.1-1.9,0.1-2.7,0.1c-0.5,0-0.9-0.1-1-0.7c-0.3-1.2-0.6-2.3-0.8-3.5c-0.4-2.3-0.2-4.7-0.2-7c0-0.8,0.1-1.5,0-2.3
			c0-0.7,0.2-1.5,0-2.3c0-0.1,0.1-0.3,0.1-0.4c0.1-0.1,0.3-0.3,0.2-0.4c-0.2-1.3,0.2-2.6,0-4c0,0-0.1-0.1,0-0.1
			c0.4-1.7,0.1-3.6,1.6-5c0.2-0.2,0.4-0.4,0.7-0.5c0.4-0.1,0.5-0.4,0.4-0.8C118.7,159.4,119,159.4,119.3,159.4z"/>
		<path class="st0" d="M85.9,186.3c-0.5-0.6-1.2-0.8-1.3-1.6c0,0-0.3-0.1-0.5-0.1c-0.5-1.3-0.6-2.7-0.5-4.1c0.1-0.6,0.4-1.4-0.1-2.1
			c0,0,0-0.1,0-0.1c0.6-1.2,0.2-2.5,0.1-3.7c0-0.3-0.2-0.8,0-1c0.6-1.2,0.5-2.4,0.6-3.7c0.1-0.9-0.1-1.9,0-2.9
			c0.1-1,0.5-1.9,0.2-2.9c0.5-1.4,0.6-2.9,1.7-4c0.3-0.2,0.4-0.5,0.9-0.4c0.3,0.1,0.7-0.2,1.2-0.3c0.5,0.5,1.2,1,1.7,1.6
			c0.8,1,0.6,2.2,0.5,3.4c-0.1,0.9-0.4,1.8-0.4,2.7c-0.1,1.9,0,3.8,0,5.7c0,0.4-0.2,0.7-0.3,1.1c-0.1,2.2-0.1,4.3,0,6.5
			c0,0.2,0,0.5,0.1,0.6c0.8,1.5,0.6,3-0.4,4.4c-0.6,0.8-1.3,1.2-2.1,0.9C86.8,186.1,86.4,186.1,85.9,186.3z"/>
		<path class="st0" d="M55.6,160.3c0.4,0.3,0.7,0.5,1,0.7c0.8,0.6,1.3,1.2,1.2,2.3c-0.1,0.7-0.2,1.5,0.1,2.3
			c0.2,0.3-0.1,0.8-0.1,1.3c0.1,2.2,0.2,4.3,0.4,6.5c0.1,1.3-0.1,2.6-0.1,3.9c0,0.5-0.1,1,0.1,1.5c0.1,0.6,0.1,1.2,0.1,1.8
			c0,0.2,0.1,0.5,0.2,0.7c0.4,0.6,0.4,1.1-0.1,1.7c-0.3,0.4-0.5,1-0.8,1.4c-0.4,0.7-0.9,1.2-1.8,1.1c-0.3,0-0.6,0-0.9,0.1
			c-0.6,0.1-1.1-0.1-1.6-0.6c-0.7-0.7-1.3-1.4-1.3-2.5c0-1.4,0.1-2.8,0.2-4.1c0-0.1,0-0.2,0-0.2c-0.6-0.2,0.2-0.8-0.3-1.1
			c-0.1,0-0.2-0.1-0.3-0.1c0.2-0.3,0.4-0.6,0.4-0.9c0.1-0.2-0.1-0.5-0.1-0.7c0-0.3-0.2-0.7,0.4-0.7c0-0.4,0.1-0.9-0.1-1.3
			c-0.3-0.7-0.6-1.4-0.3-2.3c0-0.1-0.1-0.3-0.1-0.5c-0.2-0.5-0.3-1,0.3-1.4c-0.5-0.3-0.7-0.6-0.6-1.1c0-0.7,0-1.5,0.1-2.2
			c0.2-1.2,0.3-2.4,0.8-3.4c0.3-0.6,0.9-1.1,1.4-1.7c0.3-0.3,0.5-0.2,0.8-0.1C55.1,160.8,55.3,160.5,55.6,160.3z"/>
		<path class="st0" d="M72.3,185.5c-0.5-0.1-1-0.2-1.5-0.2c-0.7-0.1-1.2-0.3-1.5-0.9c-0.1-0.2-0.4-0.3-0.5-0.5
			c-0.1-0.1-0.3-0.2-0.3-0.4c0-0.2,0.2-0.5,0.1-0.7c-0.1-0.3-0.4-0.7-0.4-0.7c0.7-0.5,0-1.2,0.2-1.7c0.2-0.6,0.1-1.2,0.1-1.8
			c0-1.1,0.1-2.3,0-3.4c-0.1-0.6,0-1.2,0-1.8c0-0.6-0.1-1.2-0.1-1.8c0.1-1.4,0-2.7-0.1-4.1c0-0.2-0.1-0.4,0-0.5
			c0.2-0.5,0.2-0.9,0.3-1.4c0.1-1.1,0.4-2.2,0.6-3.3c0.3-1.2,1.6-2.1,2.8-1.9c1.4,0.2,2.3,1.4,2,2.9c-0.1,0.6,0.1,1.2,0,1.9
			c-0.1,1,0.1,2,0.1,3c0,0.4-0.1,0.8-0.1,1.3c0,0.2-0.1,0.4,0,0.6c0.5,2.1,0.1,4.2,0.1,6.2c0,0.4-0.1,0.7,0,1.1
			c0.1,0.3,0.2,0.7,0.1,0.9c-0.5,1,0.1,2,0.1,3.1c0,0.5,0.1,0.9,0,1.2C73.7,183.7,73.3,184.7,72.3,185.5z"/>
		<path class="st0" d="M101.7,184.9c-0.8-0.6-1.4-1.4-2-2.4c-0.7-1.1-0.8-2.2-0.7-3.3c0.1-1.4,0-2.9,0.3-4.3
			c0.4-1.4,0.3-2.8,0.5-4.2c0,0,0-0.1,0-0.1c0.8-0.9,0.2-2.2,0.8-3.1c0.2-0.3,0.2-0.6,0.1-1c-0.1-0.1-0.1-0.4,0-0.5
			c0.5-0.3,0.2-0.7,0.1-1c-0.2-0.6-0.1-0.9,0.3-1.4c0.5-0.7,1-1.5,1.6-2.1c0.4-0.4,0.8-0.5,1.2-0.5c0.7,0,1.3,0.1,2,0.2
			c0.1,0.1,0.1,0.1,0.2,0.2c1.3,1.9,0.7,3.9,0.4,5.9c-0.2,1.4-0.4,2.8-0.6,4.2c-0.2,1-0.2,2-0.5,2.9c-0.4,1.1-0.3,2.2-0.4,3.3
			c-0.1,0.9,0.1,1.9,0.2,2.8c0.1,0.6,0.2,1.1,0.3,1.7c0.2,1.2-0.2,1.9-1.3,2.5c-0.2,0.1-0.3,0.1-0.5,0.1
			C103,184.7,102.4,184.8,101.7,184.9z"/>
		<path class="st0" d="M40.9,183.8c-1.1,0-2,0-2.9,0c-0.5-1-1.6-1.5-1.9-2.5c0-0.6-0.1-1.1-0.1-1.6c0-0.2,0-0.4,0-0.7
			c0-0.8,0.1-1.6,0.1-2.4c0-0.4-0.1-0.7,0.2-1.1c0.1-0.1,0.1-0.4,0.1-0.6c-0.1-0.2-0.3-0.4-0.3-0.7c0-0.1,0.4-0.3,0.4-0.4
			c0-0.4,0-0.8,0-1.2c0-0.3-0.2-0.6-0.2-0.9c0-0.4,0.4-0.8,0.3-1.1c-0.1-0.3-0.3-0.6-0.3-1.1c0-0.5,0-0.9,0.2-1.4
			c0.1-0.1,0.2-0.2,0.1-0.3c-0.4-1.3,0.4-2.4,0.7-3.5c0.2-1,0.9-1.9,1.9-2.4c0.4-0.2,0.5,0.4,1,0.2c0.5-0.3,1.3,0,1.5,0.5
			c0.2,0.5,0.7,0.7,1,1.2c-0.4,1.1-0.1,2.3-0.4,3.5c-0.2,0.7,0.1,1.5-0.1,2.3c-0.3,1.2-0.2,2.4-0.2,3.6c0,0.5,0.1,0.9,0.2,1.4
			c0.1,0.9,0.4,1.7,0.1,2.6c-0.1,0.4-0.1,1,0.1,1.4c0.4,1.3,0.1,2.4-0.5,3.5C41.6,182.6,41.2,183.2,40.9,183.8z"/>
		<path class="st0" d="M168.9,182.3c-0.1,0.2-0.2,0.4-0.2,0.6c-0.3,1-0.3,0.9-1.3,0.9c-0.5,0-0.9,0.3-1.4,0.4
			c-0.7-0.6-1.5-1.2-2-1.9c-0.4-0.6-0.5-1.4-0.6-2.2c-0.1-0.7-0.1-1.5-0.1-2.2c0,0,0-0.1,0-0.1c-0.6-1.1-0.1-2.1,0-3.2
			c0.1-0.8-0.1-1.6-0.1-2.5c0-0.8,0.5-1.6,0.4-2.3c-0.3-1.8,0.1-3.5,0.1-5.3c0-0.7,0.3-1.5,1.1-1.9c0.2-0.1,0.4-0.4,0.6-0.5
			c0.6-0.4,1.2-0.7,1.9-0.4c0.3,0.1,0.7,0.1,1.1,0.2c0.6,0.6,0.4,1.4,0.6,2.1c0.1,0.3,0.2,0.6,0.4,0.9c0.5,0.6,0.5,1.3,0.2,2.2
			c-0.5,1.1-0.9,2.2-0.6,3.5c0,0,0,0.1,0,0.1c-0.1,1.4-0.2,2.8-0.4,4.1c-0.1,0.7-0.3,1.4-0.1,2.1c0.1,0.7-0.1,1.5-0.2,2.3
			C168.1,180.4,168.4,181.4,168.9,182.3z"/>
		<path class="st0" d="M9.4,162.2c0.1,0.2,0.1,0.4,0.3,0.6c0.3,0.3,0.8,0.5,0.8,0.8c0.1,0.8,0.1,1.6,0,2.4c-0.1,1-0.2,2,0,2.9
			c0.1,0.4,0.1,0.9-0.1,1.3c-0.1,0.4-0.2,0.8,0,1.3c0,0.1,0.1,0.2,0,0.3c-0.6,1.3-0.1,2.7,0,4c0.1,1.6,0.4,3.3,0.6,4.9
			c0,0.2,0.1,0.5,0,0.6c-0.7,0.5-0.6,1.4-1,2c-0.6,0.1-1.3,0.4-1.9,0.3c-0.6-0.1-1.3-0.3-1.7-0.8c-0.5-0.7-1-1.5-1.6-2.3
			c0.2-0.6,0.3-1.2-0.3-1.8c-0.3-0.2-0.2-0.6,0-1c0.2-0.7,0.1-1.5,0.2-2.2c0-0.2,0-0.5,0-0.5c0.4-0.2,0.3-0.5,0.2-0.8
			c-0.1-0.7,0-1.4-0.1-2.1c-0.2-0.9,0-1.9,0.2-2.8c0.4-1.4,0.2-2.7,0.3-4.1c0-0.5,0.2-0.8,0.3-1.2c0.1-0.3,0.1-0.3,0.6-0.7
			C7.2,162.5,8.2,162.1,9.4,162.2z"/>
		<path class="st0" d="M151,161.7c0.5,0.4,0.9,0.8,1.3,1.1c0.2,0.2,1.1,1.9,1.1,2.1c0,1.1,0.1,2.2,0,3.2c0,0.8-0.1,1.5-0.4,2.2
			c-0.1,0.3-0.1,0.6-0.1,0.9c0.1,1,0.2,1.9,0.2,2.8c0,0.6,0.1,1.1,0.1,1.7c0,0.2,0,0.3,0,0.5c-0.1,1.2-0.2,2.4-0.3,3.6
			c0,0.9,0,1.8,0,2.7c0.1,0.6,0.1,0.6-0.3,1.3c-0.6-0.2-1.2-0.2-1.9,0.1c-0.7,0.3-1.7-0.4-2-1.4c-0.3-1-0.5-2-0.6-3
			c0-1.3-0.3-2.7-0.1-4c-0.6-0.8-0.1-1.7-0.4-2.6c-0.3-0.7-0.1-1.6-0.1-2.4c0-0.2,0.1-0.4,0-0.5c-0.4-0.7-0.2-1.4-0.1-2.1
			c0.1-1.2,0.2-2.4,0.3-3.6c0-0.7,0.3-1.1,0.9-1.4C149.5,162.5,150.3,162.1,151,161.7z"/>
		<path class="st0" d="M22.6,162.9c0.8,0,1.4-0.1,2,0c0.4,0.1,0.9,0.4,1.2,0.7c0.4,0.5,0.6,1.1,0.9,1.6c0.5,0.8,0.4,1.6,0,2.2
			c-0.6,1-0.5,1.9-0.4,2.9c0.1,0.8,0.1,1.5-0.1,2.3c-0.1,0.4-0.1,0.9-0.1,1.3c0.1,1,0.2,2.1,0.5,3.1c0.2,0.7,0.1,1.4-0.1,2
			c-0.2,0.7-0.1,1.5-0.9,1.9c-0.2,0.1-0.1,0.5-0.2,0.8c-1.1-0.1-2,0.5-3,1.1c-0.3-0.2-0.7-0.5-1.1-0.8c0.2-0.3,0.3-0.5,0.4-0.7
			c-0.1-0.1-0.1-0.2-0.2-0.3c-0.8-0.6-1.1-1.4-1-2.5c0.1-0.8-0.2-1.7-0.2-2.6c0-0.5,0-1.2,0.2-1.6c0.4-0.9,0.3-1.7-0.1-2.4
			c-0.5-0.8-0.3-1.5-0.2-2.2c0.3-1.2,0.6-2.4,0.8-3.6c0.1-0.7,0.5-1.4,0.6-2.2C21.8,163.3,22.3,163.2,22.6,162.9z"/>
		<path class="st0" d="M137.4,166.7c-0.1,0.7-0.1,1.3-0.2,1.8c0,0.1,0,0.3,0,0.4c-0.8,1.3-0.4,2.7-0.3,4c0.1,2.1,0.7,4.1,0.9,6.1
			c0.1,0.5,0,1,0.1,1.5c0,0.3,0.1,0.6,0.1,0.9c0.2,1-0.1,1.5-1,1.5c-0.6,0-1.1,0-1.6,0.3c-0.2,0.1-0.6-0.1-0.8-0.2
			c-0.8-0.7-1.3-1.6-1.5-2.7c-0.3-1.8-0.8-3.5-1.1-5.3c-0.2-1.3-0.8-2.5-0.4-3.9c0-0.1,0-0.2,0-0.2c-0.5-1.4-0.2-2.9,0-4.3
			c0.1-1.3,0.4-2.6,1.5-3.6c0.6-0.5,0.9-0.6,1.7-0.1c0.1,0.1,0.3,0.1,0.4,0.2c0.7,0.1,1,0.4,1.2,1.1
			C136.6,165.1,137,166,137.4,166.7z"/>
	</g>
	<rect y="-39" class="st0" width="174" height="212"/>
</g>
</svg>
