<?xml version="1.0" encoding="utf-8"?>
<!-- Generator: Adobe Illustrator 28.0.0, SVG Export Plug-In . SVG Version: 6.00 Build 0)  -->
<svg version="1.1" id="Layer_1" xmlns="http://www.w3.org/2000/svg" xmlns:xlink="http://www.w3.org/1999/xlink" x="0px" y="0px"
	 viewBox="0 0 33.1 35" style="enable-background:new 0 0 33.1 35;" xml:space="preserve">
<style type="text/css">
	.st0{fill:#403D34;}
</style>
<path class="st0" d="M33.1,3.5c-0.1-0.2,0-0.3,0-0.5C33.1,3,33,2.9,32.9,2.9c0-0.1,0-0.2,0-0.2c-0.1-0.1,0-0.2,0-0.2
	c-0.1-0.1-0.2-0.2-0.3-0.3c0,0-0.1,0-0.1,0c0,0,0-0.1,0-0.1c0.1-0.2,0.1-0.2,0-0.2c-0.1-0.1-0.1-0.3-0.3-0.3c0,0,0,0,0-0.1
	c0.1-0.2-0.1-0.2-0.2-0.2c-0.1,0-0.2-0.1-0.2-0.2c0,0,0-0.1,0-0.1c-0.1,0-0.1-0.1-0.2-0.1c-0.1,0-0.2,0-0.3,0c-0.1,0-0.2,0-0.3,0
	c0.1-0.1,0.2-0.3,0.1-0.3c-0.2-0.1-0.4-0.2-0.6-0.2c0-0.1-0.1,0-0.2,0c-0.1,0.1-0.3,0.1-0.4,0.1c0,0,0-0.1,0-0.1
	c-0.1,0-0.2-0.1-0.3-0.1c-0.1,0-0.2,0-0.2,0c-0.1,0-0.2,0-0.3,0c-0.1,0.1-0.2,0-0.2,0c-0.1,0.3-0.2,0.3-0.6,0.3
	c-0.1,0.1-0.2,0.1-0.2,0.2c-0.1,0-0.2,0.1-0.2,0.1c-0.1,0.1-0.2,0.1-0.2,0.2c-0.1,0-0.1,0-0.2,0c-0.1,0.1-0.2,0.2-0.2,0.3
	c-0.1,0-0.1,0-0.2,0c-0.1,0.1-0.2,0.2-0.3,0.3c-0.1,0.1-0.3,0.1-0.3,0.3c0,0,0,0,0,0.1c-0.2,0.1-0.3,0.3-0.5,0.4
	c0,0.1,0.1,0.2,0,0.3C25.9,2.8,26,3,25.8,3.1c0,0,0,0.1,0,0.1c0,0.1,0,0.2-0.1,0.3c0,0,0,0-0.1,0.1c-0.1,0-0.1,0-0.2,0
	c0,0-0.1,0-0.1,0c0,0-0.1,0.1-0.1,0.1c0,0-0.1,0-0.1,0c0,0-0.1,0.1-0.1,0.1c0,0-0.1-0.1-0.1-0.1c0,0-0.1,0-0.2,0
	c0,0-0.1,0.1-0.1,0.1c-0.1,0-0.1,0-0.2,0c-0.1,0-0.2,0.1-0.3,0.1c0,0.2-0.1,0.1-0.2,0.2c0,0-0.1,0-0.2,0c-0.1,0.1-0.3,0.1-0.4,0.1
	c-0.1,0.1-0.2,0.2-0.3,0.3c0,0,0,0,0,0c0,0.1-0.1,0.1-0.1,0.1c0,0.1-0.1,0.1-0.1,0.1c-0.1,0-0.1,0-0.2,0.1C22.7,5,22.6,5,22.5,5
	c-0.1,0-0.2,0-0.3,0.1c0,0,0,0,0,0l0,0c0,0-0.1,0-0.1,0.1c0,0.1-0.1,0.1-0.2,0.2c-0.1,0-0.1,0.1-0.1,0.2c0,0.1-0.1,0.2-0.2,0.3
	c-0.1,0.1-0.2,0.3-0.3,0.4c-0.1,0.1-0.2,0.3-0.3,0.4c-0.1,0.1-0.1,0.1-0.1,0.2C21.1,7,21,7.1,20.9,7.3c0,0.1-0.1,0.1-0.2,0.2
	c0,0.1,0.1,0.2,0,0.3c0,0,0,0.1,0,0.1c0,0.1,0,0.2-0.1,0.3c0,0,0,0,0,0.1c0,0.1,0,0.3,0,0.4c0,0.1,0,0.2-0.1,0.3c0,0,0,0,0,0
	c-0.1-0.1-0.3,0-0.4-0.1c0,0-0.1,0-0.2,0C19.8,9,19.6,8.9,19.4,9c0,0-0.1,0.1-0.2,0c-0.1,0-0.2,0-0.3,0.1c-0.2,0.1-0.3,0.2-0.5,0.2
	c-0.1,0-0.2,0-0.2,0.1c-0.2,0-0.2,0.2-0.4,0.2c-0.1,0-0.2,0-0.3,0c0,0,0,0.1,0,0.1c-0.1,0-0.1,0.1-0.2,0.1c-0.1,0-0.1,0.1-0.2,0.2
	c-0.1,0.1-0.2,0.1-0.3,0.2c0,0.1-0.1,0.2-0.2,0.3c-0.1,0.1-0.2,0.2-0.2,0.2c0,0,0,0.1,0,0.1c0,0,0-0.1-0.1-0.1
	c0-0.1-0.1-0.2-0.2-0.2c0,0,0,0,0,0c0-0.2-0.2-0.3-0.1-0.5c-0.1-0.1-0.3-0.2-0.2-0.4c-0.1-0.1-0.1-0.2-0.3-0.2c-0.1,0-0.2,0-0.3-0.1
	c-0.1-0.1-0.2-0.3-0.4-0.4C14.9,9,14.8,9,14.8,9c-0.1-0.2-0.2-0.3-0.4-0.4c0,0-0.1,0-0.1,0c0-0.2-0.2-0.1-0.3-0.2
	c-0.1-0.1-0.3-0.1-0.4-0.3c0,0-0.1-0.1-0.1-0.1c0,0-0.1,0-0.1,0c0,0,0-0.1-0.1-0.1c-0.1,0-0.2,0-0.3-0.1c-0.1-0.1-0.2,0-0.3-0.1
	c-0.1,0-0.2-0.1-0.3,0c0,0-0.1,0-0.1,0c-0.1-0.1-0.1-0.1-0.2-0.1c-0.1,0-0.1-0.1-0.2-0.1c-0.1,0-0.1,0-0.2,0c0,0-0.1,0-0.1,0.1
	c0,0-0.1,0,0-0.1c0,0,0-0.1,0-0.1c0-0.2-0.1-0.3-0.1-0.4c0-0.1,0-0.2,0-0.3c0,0,0-0.1,0-0.1c0-0.1-0.1-0.2-0.1-0.3
	c0-0.1-0.2-0.2-0.1-0.3c-0.1-0.2-0.1-0.4-0.1-0.6c-0.2-0.1-0.3-0.2-0.4-0.5c0,0,0-0.1,0-0.1c-0.1-0.1-0.1-0.2,0-0.3
	c-0.1-0.1-0.3-0.2-0.4-0.4c-0.1-0.1-0.1-0.1-0.2-0.2c0,0-0.2-0.2-0.2-0.2c-0.1,0-0.2,0.1-0.3,0c0,0,0-0.1-0.1-0.1l0.1-0.1
	c0,0,0,0,0,0c0-0.1-0.1-0.1-0.2-0.1c-0.1,0-0.2,0-0.3-0.1C9.3,3.4,9.2,3.3,9.1,3.2c0,0,0,0,0,0c0,0,0,0,0,0c-0.1,0-0.2,0-0.3,0
	c0-0.1,0-0.1-0.1-0.2C8.6,3,8.4,3,8.3,3c0,0-0.1-0.1-0.1-0.1c-0.1,0-0.2,0.1-0.3,0c0,0-0.1,0-0.2-0.1c-0.1,0-0.2,0-0.3-0.1
	C7.4,2.6,7.3,2.6,7.2,2.6c-0.1,0-0.3,0-0.4,0c0,0-0.1,0-0.1,0c0-0.1-0.1,0-0.2-0.1c0,0,0,0,0,0c0,0,0-0.1,0-0.2c0-0.1,0-0.1-0.1-0.2
	C6.3,2.1,6.2,1.9,6.1,1.8c0.1-0.2,0.1-0.2,0-0.3C6,1.4,6,1.4,6,1.3c0,0-0.1-0.1-0.1-0.1c-0.1,0-0.1,0-0.1-0.1c0-0.1-0.1-0.2-0.2-0.2
	c-0.1,0-0.2-0.1-0.3-0.2C5.3,0.6,5.2,0.6,5.1,0.6c-0.1,0-0.2,0-0.2-0.1C4.7,0.4,4.7,0.3,4.5,0.3c-0.1,0-0.2-0.1-0.2-0.1
	C4.2,0.1,4,0,4,0.1c-0.1,0.1-0.2,0-0.3,0C3.5-0.1,3.3,0,3.2,0.2C3.1,0.1,3.1,0.1,3,0.1c-0.2,0.1-0.4,0.1-0.6,0c-0.1,0-0.2,0-0.3,0
	C2,0.2,1.9,0.4,1.9,0.5c-0.1,0-0.2,0-0.2,0c-0.1,0-0.2,0-0.2,0.1c0,0.1-0.1,0.2-0.2,0.2C1.2,1,1.1,1.1,1.1,1.2c0,0,0,0.1-0.1,0.1
	C1,1.4,0.9,1.5,0.9,1.6c0,0.1,0,0.1-0.1,0.2C0.8,1.8,0.7,1.9,0.7,2c0,0.1-0.1,0.2-0.1,0.3c-0.2,0-0.2,0.2-0.4,0.2
	c-0.1,0-0.2,0.1-0.1,0.2c0,0.1,0,0.2,0,0.3c0,0.1,0.1,0.2,0.1,0.3c0,0,0,0,0,0.1C0.2,3.4,0.1,3.4,0,3.5c0.1,0.1,0.1,0.2,0.1,0.4
	c0,0.2,0,0.2,0.2,0.4c0.1,0.1,0.1,0.1,0.2,0.2c-0.1,0.2-0.1,0.3,0,0.4C0.6,4.9,0.7,5,0.8,5.2c0,0,0,0.1,0.1,0.1
	C1,5.5,1.1,5.7,1.3,5.9c0,0,0,0,0,0c0.1,0,0.1-0.1,0.1-0.1c0,0,0,0,0,0c0,0,0,0,0,0c0,0,0,0-0.1,0c0,0,0.1,0,0.2,0
	c0.2,0,0.3,0.1,0.4,0.1C1.9,6.2,2,6.3,2,6.4c0,0,0,0,0.1,0.1c0.1,0.1,0.2,0.1,0.3,0.1c0,0,0,0,0,0c0.1,0.1,0.1,0.2,0.1,0.3
	c0,0.1,0,0.2,0,0.3c0,0-0.1,0.1-0.2,0.1c0,0.1,0.1,0.1,0.1,0.2c0,0,0,0.1,0,0.1C2.5,7.8,2.6,7.9,2.6,8c0,0.1,0.1,0.3,0,0.4
	c0.1,0.1,0.2,0.2,0.2,0.4c0,0,0,0.1,0.1,0.1C3,8.9,3,8.9,3.1,9c0.1,0.3,0.1,0.3,0.3,0.4c0,0,0.1,0,0.1,0.1c0.1,0.1,0.2,0.2,0.3,0.3
	l0,0c0,0,0,0.2,0.1,0.2c0,0,0.1,0.1,0.1,0.1c0,0,0.1,0,0.2,0.1c0.1,0.1,0.2,0.1,0.3,0.2c0,0.2,0.2,0.2,0.3,0.4c0,0,0.1,0.1,0.1,0.1
	c0.1,0,0.2,0.1,0.3,0.1c0.1,0,0.1,0.1,0.2,0.1c0.1,0.1,0.2,0,0.3,0.1c0.1,0.1,0.2,0.1,0.3,0.1c0,0,0.1,0.1,0.2,0
	c0,0.1,0.1,0.1,0.1,0.2c0.1,0.1,0.2,0.1,0.4,0.1c0,0,0,0.1,0,0.1c0.1,0,0.1,0.1,0.2,0.1c0.1,0,0.3,0,0.4,0.1
	c0.1,0.1,0.3-0.1,0.4,0.1c0,0,0.4,0,0.4,0c0.1,0,0.2,0,0.3,0c0,0.1,0,0.2,0,0.2c0,0.1,0.1,0.1,0.1,0.1c0,0.1-0.1,0.2-0.1,0.2
	c0.1,0.1,0,0.2,0,0.3c0,0.1,0,0.3,0.1,0.4c0,0.1,0.1,0.1,0.1,0.2c0,0.1,0,0.1,0.1,0.2c0,0-0.1,0-0.1,0c0,0.1,0,0.1,0,0.2
	c0.1,0.1,0.1,0.1,0.2,0.2c0,0,0,0.1,0,0.1c0,0.3,0.1,0.5,0.2,0.6C8.8,14.7,9,14.8,9,14.9C9,15,9.1,15,9.2,15c0.1,0,0.1,0,0.1,0.1
	c0,0.1,0.1,0.2,0.1,0.2c0.1,0,0.2,0.1,0.2,0.2c0,0,0,0.1,0,0.1C9.8,15.7,9.7,16,10,16c0,0,0,0,0,0c0,0.1,0.1,0.1,0.1,0.2
	c0,0.1,0.1,0.1,0.1,0.2c0,0.1,0.1,0.1,0.2,0.1c0.1,0.1,0.2,0.2,0.3,0.3c0.1,0,0.2,0,0.2-0.1c0,0,0.1,0,0.1,0c-0.1,0-0.1,0.1-0.2,0.1
	c-0.1,0-0.2,0.1-0.2,0.2c0,0,0,0,0,0c-0.2,0-0.3,0.2-0.5,0.1c-0.1,0.1-0.2,0.3-0.4,0.2c-0.1,0.1-0.2,0.1-0.2,0.3
	c0,0.1,0,0.2-0.1,0.3c-0.1,0.1-0.3,0.2-0.4,0.4C9,18.2,9,18.3,9,18.3c-0.2,0.1-0.3,0.2-0.4,0.4c0,0,0,0.1,0,0.1
	c-0.2,0-0.1,0.2-0.2,0.3c-0.1,0.1-0.1,0.3-0.3,0.4c0,0-0.1,0.1-0.1,0.1c0,0,0,0.1,0,0.1c0,0-0.1,0-0.1,0.1c0,0.1,0,0.2-0.1,0.3
	c-0.1,0.1,0,0.2-0.1,0.3c0,0.1-0.1,0.2,0,0.3c0,0,0,0.1,0,0.1c-0.1,0.1-0.1,0.1-0.1,0.2c0,0.1-0.1,0.1-0.1,0.2c0,0.1,0,0.1,0,0.2
	c0,0,0,0.1,0.1,0.1c0,0,0,0.1-0.1,0c0,0-0.1,0-0.1,0c-0.2,0-0.3,0.1-0.4,0.1c-0.1,0-0.2,0-0.3,0c0,0-0.1,0-0.1,0
	c-0.1,0-0.2,0.1-0.3,0.1c-0.1,0-0.2,0.2-0.3,0.1c-0.2,0.1-0.4,0.1-0.6,0.1c-0.1,0.2-0.2,0.3-0.5,0.4c0,0-0.1,0-0.1,0
	c-0.1,0.1-0.2,0.1-0.3,0c-0.1,0.1-0.2,0.3-0.4,0.4c-0.1,0.1-0.1,0.1-0.2,0.2c0,0-0.2,0.2-0.2,0.2c0,0.1,0.1,0.2,0,0.3
	c0,0-0.1,0-0.1,0.1l-0.1-0.1c0,0,0,0,0,0c-0.1,0-0.1,0.1-0.1,0.2c0,0.1,0,0.2-0.1,0.3C3.4,23.9,3.3,24,3.2,24c0,0,0,0,0,0
	c0,0,0,0,0,0c0,0.1,0,0.2,0,0.3c-0.1,0-0.1,0-0.2,0.1c0,0.1,0,0.3,0,0.4c0,0-0.1,0.1-0.1,0.1c0,0.1,0.1,0.2,0,0.3c0,0,0,0.1-0.1,0.1
	c0,0.1,0,0.2-0.1,0.3c-0.1,0.1-0.1,0.2-0.1,0.3c0,0.1,0,0.3,0,0.4c0,0,0,0.1,0,0.1c-0.1,0,0,0.1-0.1,0.2c0,0,0,0,0,0
	c0,0-0.1,0-0.2,0c-0.1,0-0.1,0-0.2,0.1c-0.1,0.2-0.4,0.2-0.5,0.4c-0.2-0.1-0.2-0.1-0.3,0c-0.1,0-0.1,0.1-0.2,0.1
	c0,0-0.1,0.1-0.1,0.1c0,0.1,0,0.1-0.1,0.1c-0.1,0-0.2,0.1-0.2,0.2c0,0.1-0.1,0.2-0.2,0.3c-0.1,0.1-0.1,0.1-0.1,0.3
	c0,0.1,0,0.2-0.1,0.2c-0.1,0.1-0.2,0.2-0.2,0.3c0,0.1-0.1,0.2-0.1,0.2c-0.1,0.1-0.1,0.2-0.1,0.3c0.1,0.1,0,0.2,0,0.3
	c-0.1,0.2-0.1,0.3,0.1,0.5c0,0.1-0.1,0.1-0.1,0.2c0.1,0.2,0.1,0.4,0,0.6c0,0.1,0,0.2,0,0.3c0.2,0.1,0.3,0.2,0.5,0.2
	c0,0.1,0,0.2,0,0.2c0,0.1,0,0.2,0.1,0.2c0.1,0,0.2,0.1,0.2,0.2C1,31.9,1.1,32,1.2,32c0,0,0.1,0,0.1,0.1c0.1,0.1,0.2,0.1,0.3,0.1
	c0.1,0,0.1,0,0.2,0.1c0.1,0.1,0.1,0.1,0.2,0.1c0.1,0,0.2,0.1,0.3,0.1c0,0.2,0.2,0.2,0.2,0.4C2.6,33,2.7,33,2.7,33c0.1,0,0.2,0,0.3,0
	c0.1,0,0.2-0.1,0.3-0.1c0,0,0,0,0.1,0c0,0.1,0.1,0.2,0.1,0.2C3.6,33,3.7,33,3.8,33c0.2,0,0.2,0,0.4-0.2c0.1-0.1,0.1-0.1,0.2-0.2
	c0.2,0.1,0.3,0.1,0.4,0c0.1-0.1,0.3-0.1,0.4-0.2c0,0,0.1,0,0.1-0.1c0.2-0.2,0.4-0.3,0.6-0.4c0,0,0,0,0,0c0-0.1-0.1-0.1-0.1-0.1
	c0,0,0,0,0,0c0,0,0,0,0,0c0,0,0,0,0,0.1c0,0,0-0.1,0-0.2c0-0.2,0.1-0.3,0.1-0.4c0.1-0.1,0.3-0.2,0.4-0.2c0,0,0,0,0.1-0.1
	c0.1-0.1,0.1-0.2,0.1-0.3c0,0,0,0,0,0c0.1-0.1,0.2-0.1,0.3-0.1c0.1,0,0.2,0,0.3,0c0,0,0.1,0.1,0.1,0.2c0.1,0,0.1-0.1,0.2-0.1
	c0,0,0.1,0,0.1,0c0.1-0.1,0.2-0.2,0.3-0.2c0.1,0,0.3-0.1,0.4,0c0.1-0.1,0.2-0.2,0.4-0.2c0,0,0.1,0,0.1-0.1c0-0.1,0.1-0.2,0.2-0.2
	C9.3,30,9.3,30,9.4,29.8c0,0,0-0.1,0.1-0.1c0.1-0.1,0.2-0.2,0.3-0.3l0,0c0,0,0.2,0,0.2-0.1c0,0,0.1-0.1,0.1-0.1c0,0,0-0.1,0.1-0.2
	c0.1-0.1,0.1-0.2,0.2-0.3c0.2,0,0.2-0.2,0.4-0.3c0,0,0.1-0.1,0.1-0.1c0-0.1,0.1-0.2,0.1-0.3c0-0.1,0.1-0.1,0.1-0.2
	c0.1-0.1,0-0.2,0.1-0.3c0.1-0.1,0.1-0.2,0.1-0.3c0,0,0.1-0.1,0-0.2c0.1,0,0.1-0.1,0.2-0.1c0.1-0.1,0.1-0.2,0.1-0.4c0,0,0.1,0,0.1,0
	c0-0.1,0.1-0.1,0.1-0.2c0-0.1,0-0.3,0.1-0.4c0.1-0.1-0.1-0.3,0.1-0.4c0,0,0-0.4,0-0.4c0-0.1,0-0.2,0-0.3c0.1,0,0.2,0,0.2,0
	c0.1,0,0.1-0.1,0.1-0.1c0.1,0,0.2,0.1,0.2,0.1c0.1-0.1,0.2,0,0.3,0c0.1,0,0.3,0,0.4-0.1c0.1,0,0.1-0.1,0.2-0.1c0.1,0,0.1,0,0.2-0.1
	c0,0,0,0.1,0,0.1c0.1,0,0.1,0,0.2,0c0.1-0.1,0.1-0.1,0.2-0.2c0,0,0.1,0,0.1,0c0.3,0,0.5-0.1,0.6-0.2c0.1-0.1,0.2-0.2,0.3-0.3
	c0.1,0,0.1-0.1,0.1-0.2c0-0.1,0-0.1,0.1-0.1c0.1,0,0.2-0.1,0.2-0.1c0-0.1,0.1-0.2,0.2-0.2c0,0,0.1,0,0.1,0c0.1-0.1,0.3-0.1,0.4-0.4
	c0,0,0,0,0,0c0.1,0,0.1-0.1,0.2-0.1c0.1,0,0.1-0.1,0.2-0.1c0.1,0,0.1-0.1,0.1-0.2c0,0,0.1-0.1,0.1-0.1c0,0.1,0.1,0.1,0.1,0.1
	c0.2,0,0.2,0.2,0.3,0.2c0.1,0.1,0.1,0.2,0.2,0.3c0.1,0,0.2,0,0.2,0.1c0,0.1,0,0.2,0.1,0.2c0,0,0.1,0.1,0.1,0.1
	c0.1,0.1,0.2,0.2,0.3,0.3c0.1,0,0.3,0.1,0.4,0.2c0.1,0.1,0.2,0.2,0.4,0.1c0,0,0.1,0,0.1,0.1c0.3,0.1,0.3,0.1,0.5,0.1
	c0.1,0.1,0.2,0.1,0.3,0.2c0.1,0,0.3,0,0.3,0c0.1,0,0.2,0,0.3,0c0.1,0,0.2,0,0.2,0c0,0,0,0,0,0c0,0,0,0,0,0.1c0,0,0,0,0,0
	c0,0.1,0,0.1,0,0.2c0.1,0.3,0.1,0.6,0.1,0.8c0.1,0.1,0.2,0.1,0.2,0.3c0,0.1,0,0.1,0,0.2c0,0,0.1,0.1,0.1,0.1c0,0.1,0.2,0.2,0.2,0.3
	c0,0.1,0.1,0.2,0.2,0.2c0,0.1,0.2,0.2,0.2,0.3c0,0.1,0,0.2,0,0.3c0.1,0.2,0.1,0.5,0.4,0.5c0,0,0.1,0.2,0.1,0.2l0.2-0.2
	c0,0.1,0.1,0.1,0.1,0.2c0,0.1,0.1,0.2,0.2,0.2c0.1,0,0.1,0.1,0.2,0.1c0.1,0.2,0.2,0.2,0.4,0.1c0,0.1,0.1,0.1,0.1,0.2
	c0.1,0.1,0.1,0.2,0.2,0.3c0.4,0,0.4,0,0.8,0.2c0.1,0,0.1,0.1,0.2,0.1c0.1,0,0.2,0.2,0.3,0.1c0,0,0,0.1,0,0.1c0.2,0,0.3,0,0.4,0.1
	c0,0,0,0,0,0c0,0,0,0,0-0.1c0,0,0,0,0,0c0,0,0,0,0,0c0.1,0.1,0.3,0.1,0.4,0.1c0,0,0.1,0,0.2,0c0.1,0,0.2,0,0.3,0c0,0,0.1,0,0.1,0
	c0,0.2,0.1,0.3,0.1,0.5c0,0.1,0.2,0.1,0.2,0.3c0.1,0,0.2,0.2,0.2,0.2c0,0.1,0.1,0.2,0,0.3c0.1,0.1,0.2,0.2,0.4,0.3
	c0.1,0.1,0.1,0.1,0.2,0.2c0.1,0.2,0.2,0.3,0.4,0.4c0.1,0,0.1,0.1,0.2,0.1c0.1,0,0.1,0.1,0.1,0.2c0,0,0.1,0.1,0.1,0.1
	c0.1-0.1,0.2,0,0.2,0.1c0.2,0.1,0.3,0.3,0.5,0.3c0,0,0,0,0-0.1c0,0,0,0,0,0c0,0,0,0,0,0c0.1,0,0.2,0.1,0.2,0c0,0,0.1,0,0.1,0.1
	c0.1,0,0.1,0.1,0.2,0.1c0.2,0,0.4-0.1,0.5,0.2c0.2-0.1,0.3,0,0.5,0c0.1-0.1,0.1-0.1,0.2-0.2c0.1,0,0.2,0,0.2,0c0.1-0.1,0.2,0,0.2,0
	c0.1-0.1,0.2-0.2,0.3-0.3c0,0,0-0.1,0-0.1c0,0,0.1,0,0.1,0c0.2,0.1,0.2,0.1,0.2,0c0.1-0.1,0.3-0.1,0.3-0.3c0,0,0,0,0.1,0
	c0.2,0.1,0.2-0.1,0.2-0.2c0-0.1,0.1-0.2,0.2-0.2c0,0,0.1,0,0.1,0c0-0.1,0.1-0.1,0.1-0.2c0-0.1,0-0.2,0-0.3c0-0.1,0-0.2,0-0.3
	c0.1,0.1,0.3,0.2,0.3,0.1c0.1-0.2,0.2-0.4,0.2-0.6c0.1,0,0-0.1,0-0.2c-0.1-0.1-0.1-0.3-0.1-0.4c0,0,0.1,0,0.1,0
	c0-0.1,0.1-0.2,0.1-0.3c0-0.1,0-0.2,0-0.2c0-0.1,0-0.2,0-0.3c-0.1-0.1,0-0.2,0-0.2c-0.3-0.1-0.3-0.2-0.3-0.6
	c-0.1-0.1-0.1-0.2-0.2-0.2c0-0.1-0.1-0.2-0.1-0.2c-0.1-0.1-0.1-0.2-0.2-0.2c0-0.1,0-0.1,0-0.2c-0.1-0.1-0.2-0.2-0.3-0.2
	c0-0.1,0-0.1,0-0.2c-0.1-0.1-0.2-0.2-0.3-0.3c-0.1-0.1-0.1-0.3-0.3-0.3c0,0,0,0-0.1,0c-0.1-0.2-0.3-0.3-0.4-0.5
	c-0.1,0-0.2,0.1-0.3,0c-0.1-0.1-0.3-0.1-0.4-0.3c0,0-0.1,0-0.1,0c-0.1,0-0.2,0-0.3-0.1c0,0,0,0-0.1-0.1c0-0.1,0-0.1,0-0.2
	c0,0,0-0.1,0-0.1c0,0-0.1-0.1-0.1-0.1c0,0,0-0.1,0-0.1c0,0-0.1-0.1-0.1-0.1c0,0,0.1-0.1,0.1-0.1c0,0,0-0.1,0-0.2
	c0,0-0.1-0.1-0.1-0.1c0-0.1,0-0.1,0-0.2c0-0.1-0.1-0.2-0.1-0.3c-0.2,0-0.1-0.1-0.2-0.2c0,0,0-0.1,0-0.2c-0.1-0.1-0.1-0.3-0.1-0.4
	c-0.1-0.1-0.2-0.2-0.3-0.3c0,0,0,0,0,0c-0.1,0-0.1-0.1-0.1-0.1c-0.1,0-0.1-0.1-0.1-0.1c0-0.1,0-0.1-0.1-0.2
	c-0.1-0.1-0.1-0.1-0.1-0.2c0-0.1,0-0.2-0.1-0.3c0,0,0,0,0,0l0,0c0,0,0-0.1-0.1-0.1c-0.1,0-0.1-0.1-0.2-0.2c0-0.1-0.1-0.1-0.2-0.1
	c-0.1,0-0.2-0.1-0.3-0.2c-0.1-0.1-0.3-0.2-0.4-0.3c-0.1-0.1-0.3-0.2-0.4-0.3c-0.1-0.1-0.1-0.1-0.2-0.1c-0.2,0.1-0.3-0.1-0.5-0.1
	c-0.1,0-0.1-0.1-0.2-0.2c-0.1,0-0.2,0.1-0.3,0c0,0-0.1,0-0.1,0c-0.1,0-0.2,0-0.3-0.1c0,0,0,0-0.1,0c-0.1,0-0.3,0-0.4,0
	c-0.1,0-0.2,0-0.3-0.1c0,0,0,0,0,0c0.1-0.1,0-0.3,0.1-0.4c0,0,0-0.1,0-0.2c-0.1-0.1-0.1-0.3-0.1-0.4c0,0-0.1-0.1,0-0.2
	c0-0.1,0-0.2-0.1-0.3c-0.1-0.2-0.2-0.3-0.2-0.5c0-0.1,0-0.2-0.1-0.2c0-0.2-0.2-0.2-0.2-0.4c0-0.1,0-0.2,0-0.3c0,0-0.1,0-0.1,0
	c0-0.1-0.1-0.1-0.1-0.2c0-0.1-0.1-0.1-0.2-0.2c-0.1-0.1-0.1-0.2-0.2-0.3c-0.1,0-0.2-0.1-0.3-0.2c0,0,0,0,0,0c0.1,0,0.2-0.1,0.2-0.2
	c0-0.2,0.2-0.2,0.2-0.3c0.1-0.1,0.2-0.1,0.3-0.2c0-0.1,0-0.2,0.1-0.2c0.1,0,0.2,0,0.2-0.1c0,0,0.1-0.1,0.1-0.1
	c0.1-0.1,0.2-0.2,0.3-0.3c0-0.1,0.1-0.3,0.2-0.4c0.1-0.1,0.2-0.2,0.1-0.4c0,0,0-0.1,0.1-0.1c0.1-0.3,0.1-0.3,0.1-0.5
	c0.1-0.1,0.1-0.2,0.2-0.3c0-0.1,0-0.3,0-0.3c0-0.1,0-0.2,0-0.3c0-0.1,0-0.2,0-0.2c0,0,0,0,0,0c0,0,0,0,0.1,0c0,0,0,0,0,0
	c0.1,0,0.1,0,0.2,0c0.3-0.1,0.6-0.1,0.8-0.1c0.1-0.1,0.1-0.2,0.3-0.2c0.1,0,0.1,0,0.2,0c0,0,0.1-0.1,0.1-0.1c0.1,0,0.2-0.2,0.3-0.2
	c0.1,0,0.2-0.1,0.2-0.2c0.1,0,0.2-0.2,0.3-0.2c0.1,0,0.2,0,0.3,0c0.2-0.1,0.5-0.1,0.5-0.4c0,0,0.2-0.1,0.2-0.1L28,10.8
	c0.1,0,0.1-0.1,0.2-0.1c0.1,0,0.2-0.1,0.2-0.2c0-0.1,0.1-0.1,0.1-0.2c0.2-0.1,0.2-0.2,0.1-0.4c0.1,0,0.1-0.1,0.2-0.1
	c0.1-0.1,0.2-0.1,0.3-0.2c0-0.4,0-0.4,0.2-0.8c0-0.1,0.1-0.1,0.1-0.2c0-0.1,0.2-0.2,0.1-0.3c0,0,0.1,0,0.1,0c0-0.2,0-0.3,0.1-0.4
	c0,0,0,0,0,0c0,0,0,0-0.1,0c0,0,0,0,0,0c0,0,0,0,0,0c0.1-0.1,0.1-0.3,0.1-0.4c0,0,0-0.1,0-0.2c0-0.1,0-0.2,0-0.3c0,0,0-0.1,0-0.1
	c0.2,0,0.3-0.1,0.5-0.1c0.1,0,0.1-0.2,0.3-0.2c0-0.1,0.2-0.2,0.2-0.2c0.1,0,0.2-0.1,0.3,0c0.1-0.1,0.2-0.2,0.3-0.4
	c0.1-0.1,0.1-0.1,0.2-0.2C31.7,6,31.9,5.9,32,5.7c0-0.1,0.1-0.1,0.1-0.2c0-0.1,0.1-0.1,0.2-0.1c0,0,0.1-0.1,0.1-0.1
	c-0.1-0.1,0-0.2,0.1-0.2c0.1-0.2,0.3-0.3,0.3-0.5c0,0,0,0-0.1,0c0,0,0,0,0,0c0,0,0,0,0,0c0-0.1,0.1-0.2,0-0.2c0,0,0-0.1,0.1-0.1
	c0-0.1,0.1-0.1,0.1-0.2C33,3.9,32.8,3.6,33.1,3.5z"/>
</svg>
